G04 #@! TF.GenerationSoftware,KiCad,Pcbnew,9.0.0*
G04 #@! TF.CreationDate,2025-02-23T14:29:25+01:00*
G04 #@! TF.ProjectId,pcb_v0,7063625f-7630-42e6-9b69-6361645f7063,rev?*
G04 #@! TF.SameCoordinates,Original*
G04 #@! TF.FileFunction,Legend,Top*
G04 #@! TF.FilePolarity,Positive*
%FSLAX46Y46*%
G04 Gerber Fmt 4.6, Leading zero omitted, Abs format (unit mm)*
G04 Created by KiCad (PCBNEW 9.0.0) date 2025-02-23 14:29:25*
%MOMM*%
%LPD*%
G01*
G04 APERTURE LIST*
G04 Aperture macros list*
%AMRoundRect*
0 Rectangle with rounded corners*
0 $1 Rounding radius*
0 $2 $3 $4 $5 $6 $7 $8 $9 X,Y pos of 4 corners*
0 Add a 4 corners polygon primitive as box body*
4,1,4,$2,$3,$4,$5,$6,$7,$8,$9,$2,$3,0*
0 Add four circle primitives for the rounded corners*
1,1,$1+$1,$2,$3*
1,1,$1+$1,$4,$5*
1,1,$1+$1,$6,$7*
1,1,$1+$1,$8,$9*
0 Add four rect primitives between the rounded corners*
20,1,$1+$1,$2,$3,$4,$5,0*
20,1,$1+$1,$4,$5,$6,$7,0*
20,1,$1+$1,$6,$7,$8,$9,0*
20,1,$1+$1,$8,$9,$2,$3,0*%
G04 Aperture macros list end*
%ADD10C,0.200000*%
%ADD11C,0.300000*%
%ADD12C,0.400000*%
%ADD13C,0.100000*%
%ADD14C,0.150000*%
%ADD15C,0.120000*%
%ADD16C,0.127000*%
%ADD17C,0.504000*%
%ADD18C,0.152400*%
%ADD19C,0.000000*%
%ADD20C,1.600000*%
%ADD21R,3.000000X3.000000*%
%ADD22O,1.600000X1.600000*%
%ADD23R,1.700000X1.700000*%
%ADD24O,1.700000X1.700000*%
%ADD25RoundRect,0.152400X1.063600X0.609600X-1.063600X0.609600X-1.063600X-0.609600X1.063600X-0.609600X0*%
%ADD26C,1.524000*%
%ADD27RoundRect,0.152400X-1.063600X-0.609600X1.063600X-0.609600X1.063600X0.609600X-1.063600X0.609600X0*%
%ADD28C,2.600000*%
%ADD29C,4.400000*%
%ADD30R,0.355600X1.778000*%
%ADD31R,0.558800X1.663700*%
%ADD32C,4.000000*%
%ADD33C,1.800000*%
%ADD34R,1.295400X1.295400*%
%ADD35C,1.295400*%
G04 APERTURE END LIST*
D10*
X196809523Y-92527219D02*
X196333333Y-92527219D01*
X196333333Y-92527219D02*
X196285714Y-93003409D01*
X196285714Y-93003409D02*
X196333333Y-92955790D01*
X196333333Y-92955790D02*
X196428571Y-92908171D01*
X196428571Y-92908171D02*
X196666666Y-92908171D01*
X196666666Y-92908171D02*
X196761904Y-92955790D01*
X196761904Y-92955790D02*
X196809523Y-93003409D01*
X196809523Y-93003409D02*
X196857142Y-93098647D01*
X196857142Y-93098647D02*
X196857142Y-93336742D01*
X196857142Y-93336742D02*
X196809523Y-93431980D01*
X196809523Y-93431980D02*
X196761904Y-93479600D01*
X196761904Y-93479600D02*
X196666666Y-93527219D01*
X196666666Y-93527219D02*
X196428571Y-93527219D01*
X196428571Y-93527219D02*
X196333333Y-93479600D01*
X196333333Y-93479600D02*
X196285714Y-93431980D01*
X197761904Y-92527219D02*
X197285714Y-92527219D01*
X197285714Y-92527219D02*
X197238095Y-93003409D01*
X197238095Y-93003409D02*
X197285714Y-92955790D01*
X197285714Y-92955790D02*
X197380952Y-92908171D01*
X197380952Y-92908171D02*
X197619047Y-92908171D01*
X197619047Y-92908171D02*
X197714285Y-92955790D01*
X197714285Y-92955790D02*
X197761904Y-93003409D01*
X197761904Y-93003409D02*
X197809523Y-93098647D01*
X197809523Y-93098647D02*
X197809523Y-93336742D01*
X197809523Y-93336742D02*
X197761904Y-93431980D01*
X197761904Y-93431980D02*
X197714285Y-93479600D01*
X197714285Y-93479600D02*
X197619047Y-93527219D01*
X197619047Y-93527219D02*
X197380952Y-93527219D01*
X197380952Y-93527219D02*
X197285714Y-93479600D01*
X197285714Y-93479600D02*
X197238095Y-93431980D01*
X198714285Y-92527219D02*
X198238095Y-92527219D01*
X198238095Y-92527219D02*
X198190476Y-93003409D01*
X198190476Y-93003409D02*
X198238095Y-92955790D01*
X198238095Y-92955790D02*
X198333333Y-92908171D01*
X198333333Y-92908171D02*
X198571428Y-92908171D01*
X198571428Y-92908171D02*
X198666666Y-92955790D01*
X198666666Y-92955790D02*
X198714285Y-93003409D01*
X198714285Y-93003409D02*
X198761904Y-93098647D01*
X198761904Y-93098647D02*
X198761904Y-93336742D01*
X198761904Y-93336742D02*
X198714285Y-93431980D01*
X198714285Y-93431980D02*
X198666666Y-93479600D01*
X198666666Y-93479600D02*
X198571428Y-93527219D01*
X198571428Y-93527219D02*
X198333333Y-93527219D01*
X198333333Y-93527219D02*
X198238095Y-93479600D01*
X198238095Y-93479600D02*
X198190476Y-93431980D01*
X199904761Y-92479600D02*
X199047619Y-93765314D01*
X200238095Y-93527219D02*
X200238095Y-92527219D01*
X200238095Y-92527219D02*
X200809523Y-93527219D01*
X200809523Y-93527219D02*
X200809523Y-92527219D01*
X201619047Y-93003409D02*
X201285714Y-93003409D01*
X201285714Y-93527219D02*
X201285714Y-92527219D01*
X201285714Y-92527219D02*
X201761904Y-92527219D01*
X149867219Y-86770476D02*
X149867219Y-87246666D01*
X149867219Y-87246666D02*
X148867219Y-87246666D01*
X149867219Y-86437142D02*
X148867219Y-86437142D01*
X148867219Y-86437142D02*
X149581504Y-86103809D01*
X149581504Y-86103809D02*
X148867219Y-85770476D01*
X148867219Y-85770476D02*
X149867219Y-85770476D01*
X148867219Y-85389523D02*
X148867219Y-84770476D01*
X148867219Y-84770476D02*
X149248171Y-85103809D01*
X149248171Y-85103809D02*
X149248171Y-84960952D01*
X149248171Y-84960952D02*
X149295790Y-84865714D01*
X149295790Y-84865714D02*
X149343409Y-84818095D01*
X149343409Y-84818095D02*
X149438647Y-84770476D01*
X149438647Y-84770476D02*
X149676742Y-84770476D01*
X149676742Y-84770476D02*
X149771980Y-84818095D01*
X149771980Y-84818095D02*
X149819600Y-84865714D01*
X149819600Y-84865714D02*
X149867219Y-84960952D01*
X149867219Y-84960952D02*
X149867219Y-85246666D01*
X149867219Y-85246666D02*
X149819600Y-85341904D01*
X149819600Y-85341904D02*
X149771980Y-85389523D01*
X148962457Y-84389523D02*
X148914838Y-84341904D01*
X148914838Y-84341904D02*
X148867219Y-84246666D01*
X148867219Y-84246666D02*
X148867219Y-84008571D01*
X148867219Y-84008571D02*
X148914838Y-83913333D01*
X148914838Y-83913333D02*
X148962457Y-83865714D01*
X148962457Y-83865714D02*
X149057695Y-83818095D01*
X149057695Y-83818095D02*
X149152933Y-83818095D01*
X149152933Y-83818095D02*
X149295790Y-83865714D01*
X149295790Y-83865714D02*
X149867219Y-84437142D01*
X149867219Y-84437142D02*
X149867219Y-83818095D01*
X149200552Y-82960952D02*
X149867219Y-82960952D01*
X148819600Y-83199047D02*
X149533885Y-83437142D01*
X149533885Y-83437142D02*
X149533885Y-82818095D01*
X160095237Y-47712780D02*
X160095237Y-48712780D01*
X160095237Y-48712780D02*
X159714285Y-48712780D01*
X159714285Y-48712780D02*
X159619047Y-48665161D01*
X159619047Y-48665161D02*
X159571428Y-48617542D01*
X159571428Y-48617542D02*
X159523809Y-48522304D01*
X159523809Y-48522304D02*
X159523809Y-48379447D01*
X159523809Y-48379447D02*
X159571428Y-48284209D01*
X159571428Y-48284209D02*
X159619047Y-48236590D01*
X159619047Y-48236590D02*
X159714285Y-48188971D01*
X159714285Y-48188971D02*
X160095237Y-48188971D01*
X159190475Y-48712780D02*
X158952380Y-47712780D01*
X158952380Y-47712780D02*
X158761904Y-48427066D01*
X158761904Y-48427066D02*
X158571428Y-47712780D01*
X158571428Y-47712780D02*
X158333333Y-48712780D01*
X157952380Y-47712780D02*
X157952380Y-48712780D01*
X157952380Y-48712780D02*
X157619047Y-47998495D01*
X157619047Y-47998495D02*
X157285714Y-48712780D01*
X157285714Y-48712780D02*
X157285714Y-47712780D01*
X156190475Y-48712780D02*
X155619047Y-48712780D01*
X155904761Y-47712780D02*
X155904761Y-48712780D01*
X154714285Y-47712780D02*
X155047618Y-48188971D01*
X155285713Y-47712780D02*
X155285713Y-48712780D01*
X155285713Y-48712780D02*
X154904761Y-48712780D01*
X154904761Y-48712780D02*
X154809523Y-48665161D01*
X154809523Y-48665161D02*
X154761904Y-48617542D01*
X154761904Y-48617542D02*
X154714285Y-48522304D01*
X154714285Y-48522304D02*
X154714285Y-48379447D01*
X154714285Y-48379447D02*
X154761904Y-48284209D01*
X154761904Y-48284209D02*
X154809523Y-48236590D01*
X154809523Y-48236590D02*
X154904761Y-48188971D01*
X154904761Y-48188971D02*
X155285713Y-48188971D01*
X154333332Y-47998495D02*
X153857142Y-47998495D01*
X154428570Y-47712780D02*
X154095237Y-48712780D01*
X154095237Y-48712780D02*
X153761904Y-47712780D01*
X153428570Y-47712780D02*
X153428570Y-48712780D01*
X153428570Y-48712780D02*
X152857142Y-47712780D01*
X152857142Y-47712780D02*
X152857142Y-48712780D01*
X152428570Y-47760400D02*
X152285713Y-47712780D01*
X152285713Y-47712780D02*
X152047618Y-47712780D01*
X152047618Y-47712780D02*
X151952380Y-47760400D01*
X151952380Y-47760400D02*
X151904761Y-47808019D01*
X151904761Y-47808019D02*
X151857142Y-47903257D01*
X151857142Y-47903257D02*
X151857142Y-47998495D01*
X151857142Y-47998495D02*
X151904761Y-48093733D01*
X151904761Y-48093733D02*
X151952380Y-48141352D01*
X151952380Y-48141352D02*
X152047618Y-48188971D01*
X152047618Y-48188971D02*
X152238094Y-48236590D01*
X152238094Y-48236590D02*
X152333332Y-48284209D01*
X152333332Y-48284209D02*
X152380951Y-48331828D01*
X152380951Y-48331828D02*
X152428570Y-48427066D01*
X152428570Y-48427066D02*
X152428570Y-48522304D01*
X152428570Y-48522304D02*
X152380951Y-48617542D01*
X152380951Y-48617542D02*
X152333332Y-48665161D01*
X152333332Y-48665161D02*
X152238094Y-48712780D01*
X152238094Y-48712780D02*
X151999999Y-48712780D01*
X151999999Y-48712780D02*
X151857142Y-48665161D01*
X196285714Y-98527219D02*
X196285714Y-97527219D01*
X196285714Y-97527219D02*
X196619047Y-98241504D01*
X196619047Y-98241504D02*
X196952380Y-97527219D01*
X196952380Y-97527219D02*
X196952380Y-98527219D01*
X197380952Y-98241504D02*
X197857142Y-98241504D01*
X197285714Y-98527219D02*
X197619047Y-97527219D01*
X197619047Y-97527219D02*
X197952380Y-98527219D01*
X198190476Y-97527219D02*
X198857142Y-98527219D01*
X198857142Y-97527219D02*
X198190476Y-98527219D01*
X199952380Y-97479600D02*
X199095238Y-98765314D01*
X200285714Y-98527219D02*
X200285714Y-97527219D01*
X200285714Y-97527219D02*
X200857142Y-98527219D01*
X200857142Y-98527219D02*
X200857142Y-97527219D01*
X201666666Y-98003409D02*
X201333333Y-98003409D01*
X201333333Y-98527219D02*
X201333333Y-97527219D01*
X201333333Y-97527219D02*
X201809523Y-97527219D01*
X181867219Y-92222856D02*
X180867219Y-92222856D01*
X180867219Y-92222856D02*
X181581504Y-91889523D01*
X181581504Y-91889523D02*
X180867219Y-91556190D01*
X180867219Y-91556190D02*
X181867219Y-91556190D01*
X181581504Y-91127618D02*
X181581504Y-90651428D01*
X181867219Y-91222856D02*
X180867219Y-90889523D01*
X180867219Y-90889523D02*
X181867219Y-90556190D01*
X180867219Y-90318094D02*
X181867219Y-89651428D01*
X180867219Y-89651428D02*
X181867219Y-90318094D01*
X180867219Y-89365713D02*
X180867219Y-88746666D01*
X180867219Y-88746666D02*
X181248171Y-89079999D01*
X181248171Y-89079999D02*
X181248171Y-88937142D01*
X181248171Y-88937142D02*
X181295790Y-88841904D01*
X181295790Y-88841904D02*
X181343409Y-88794285D01*
X181343409Y-88794285D02*
X181438647Y-88746666D01*
X181438647Y-88746666D02*
X181676742Y-88746666D01*
X181676742Y-88746666D02*
X181771980Y-88794285D01*
X181771980Y-88794285D02*
X181819600Y-88841904D01*
X181819600Y-88841904D02*
X181867219Y-88937142D01*
X181867219Y-88937142D02*
X181867219Y-89222856D01*
X181867219Y-89222856D02*
X181819600Y-89318094D01*
X181819600Y-89318094D02*
X181771980Y-89365713D01*
X180962457Y-88365713D02*
X180914838Y-88318094D01*
X180914838Y-88318094D02*
X180867219Y-88222856D01*
X180867219Y-88222856D02*
X180867219Y-87984761D01*
X180867219Y-87984761D02*
X180914838Y-87889523D01*
X180914838Y-87889523D02*
X180962457Y-87841904D01*
X180962457Y-87841904D02*
X181057695Y-87794285D01*
X181057695Y-87794285D02*
X181152933Y-87794285D01*
X181152933Y-87794285D02*
X181295790Y-87841904D01*
X181295790Y-87841904D02*
X181867219Y-88413332D01*
X181867219Y-88413332D02*
X181867219Y-87794285D01*
X180962457Y-87413332D02*
X180914838Y-87365713D01*
X180914838Y-87365713D02*
X180867219Y-87270475D01*
X180867219Y-87270475D02*
X180867219Y-87032380D01*
X180867219Y-87032380D02*
X180914838Y-86937142D01*
X180914838Y-86937142D02*
X180962457Y-86889523D01*
X180962457Y-86889523D02*
X181057695Y-86841904D01*
X181057695Y-86841904D02*
X181152933Y-86841904D01*
X181152933Y-86841904D02*
X181295790Y-86889523D01*
X181295790Y-86889523D02*
X181867219Y-87460951D01*
X181867219Y-87460951D02*
X181867219Y-86841904D01*
X181867219Y-85889523D02*
X181867219Y-86460951D01*
X181867219Y-86175237D02*
X180867219Y-86175237D01*
X180867219Y-86175237D02*
X181010076Y-86270475D01*
X181010076Y-86270475D02*
X181105314Y-86365713D01*
X181105314Y-86365713D02*
X181152933Y-86460951D01*
X171158683Y-89770476D02*
X171158683Y-90246666D01*
X171158683Y-90246666D02*
X170158683Y-90246666D01*
X171158683Y-89437142D02*
X170158683Y-89437142D01*
X170158683Y-89437142D02*
X170872968Y-89103809D01*
X170872968Y-89103809D02*
X170158683Y-88770476D01*
X170158683Y-88770476D02*
X171158683Y-88770476D01*
X170158683Y-87818095D02*
X170158683Y-88294285D01*
X170158683Y-88294285D02*
X170634873Y-88341904D01*
X170634873Y-88341904D02*
X170587254Y-88294285D01*
X170587254Y-88294285D02*
X170539635Y-88199047D01*
X170539635Y-88199047D02*
X170539635Y-87960952D01*
X170539635Y-87960952D02*
X170587254Y-87865714D01*
X170587254Y-87865714D02*
X170634873Y-87818095D01*
X170634873Y-87818095D02*
X170730111Y-87770476D01*
X170730111Y-87770476D02*
X170968206Y-87770476D01*
X170968206Y-87770476D02*
X171063444Y-87818095D01*
X171063444Y-87818095D02*
X171111064Y-87865714D01*
X171111064Y-87865714D02*
X171158683Y-87960952D01*
X171158683Y-87960952D02*
X171158683Y-88199047D01*
X171158683Y-88199047D02*
X171111064Y-88294285D01*
X171111064Y-88294285D02*
X171063444Y-88341904D01*
X170158683Y-86865714D02*
X170158683Y-87341904D01*
X170158683Y-87341904D02*
X170634873Y-87389523D01*
X170634873Y-87389523D02*
X170587254Y-87341904D01*
X170587254Y-87341904D02*
X170539635Y-87246666D01*
X170539635Y-87246666D02*
X170539635Y-87008571D01*
X170539635Y-87008571D02*
X170587254Y-86913333D01*
X170587254Y-86913333D02*
X170634873Y-86865714D01*
X170634873Y-86865714D02*
X170730111Y-86818095D01*
X170730111Y-86818095D02*
X170968206Y-86818095D01*
X170968206Y-86818095D02*
X171063444Y-86865714D01*
X171063444Y-86865714D02*
X171111064Y-86913333D01*
X171111064Y-86913333D02*
X171158683Y-87008571D01*
X171158683Y-87008571D02*
X171158683Y-87246666D01*
X171158683Y-87246666D02*
X171111064Y-87341904D01*
X171111064Y-87341904D02*
X171063444Y-87389523D01*
X170158683Y-85913333D02*
X170158683Y-86389523D01*
X170158683Y-86389523D02*
X170634873Y-86437142D01*
X170634873Y-86437142D02*
X170587254Y-86389523D01*
X170587254Y-86389523D02*
X170539635Y-86294285D01*
X170539635Y-86294285D02*
X170539635Y-86056190D01*
X170539635Y-86056190D02*
X170587254Y-85960952D01*
X170587254Y-85960952D02*
X170634873Y-85913333D01*
X170634873Y-85913333D02*
X170730111Y-85865714D01*
X170730111Y-85865714D02*
X170968206Y-85865714D01*
X170968206Y-85865714D02*
X171063444Y-85913333D01*
X171063444Y-85913333D02*
X171111064Y-85960952D01*
X171111064Y-85960952D02*
X171158683Y-86056190D01*
X171158683Y-86056190D02*
X171158683Y-86294285D01*
X171158683Y-86294285D02*
X171111064Y-86389523D01*
X171111064Y-86389523D02*
X171063444Y-86437142D01*
X201867219Y-87984761D02*
X200867219Y-87984761D01*
X200867219Y-87984761D02*
X201867219Y-87413333D01*
X201867219Y-87413333D02*
X200867219Y-87413333D01*
X201343409Y-86603809D02*
X201343409Y-86937142D01*
X201867219Y-86937142D02*
X200867219Y-86937142D01*
X200867219Y-86937142D02*
X200867219Y-86460952D01*
X200867219Y-85460951D02*
X200867219Y-84889523D01*
X201867219Y-85175237D02*
X200867219Y-85175237D01*
X201867219Y-83984761D02*
X201391028Y-84318094D01*
X201867219Y-84556189D02*
X200867219Y-84556189D01*
X200867219Y-84556189D02*
X200867219Y-84175237D01*
X200867219Y-84175237D02*
X200914838Y-84079999D01*
X200914838Y-84079999D02*
X200962457Y-84032380D01*
X200962457Y-84032380D02*
X201057695Y-83984761D01*
X201057695Y-83984761D02*
X201200552Y-83984761D01*
X201200552Y-83984761D02*
X201295790Y-84032380D01*
X201295790Y-84032380D02*
X201343409Y-84079999D01*
X201343409Y-84079999D02*
X201391028Y-84175237D01*
X201391028Y-84175237D02*
X201391028Y-84556189D01*
X201581504Y-83603808D02*
X201581504Y-83127618D01*
X201867219Y-83699046D02*
X200867219Y-83365713D01*
X200867219Y-83365713D02*
X201867219Y-83032380D01*
X201867219Y-82699046D02*
X200867219Y-82699046D01*
X200867219Y-82699046D02*
X201867219Y-82127618D01*
X201867219Y-82127618D02*
X200867219Y-82127618D01*
X201819600Y-81699046D02*
X201867219Y-81556189D01*
X201867219Y-81556189D02*
X201867219Y-81318094D01*
X201867219Y-81318094D02*
X201819600Y-81222856D01*
X201819600Y-81222856D02*
X201771980Y-81175237D01*
X201771980Y-81175237D02*
X201676742Y-81127618D01*
X201676742Y-81127618D02*
X201581504Y-81127618D01*
X201581504Y-81127618D02*
X201486266Y-81175237D01*
X201486266Y-81175237D02*
X201438647Y-81222856D01*
X201438647Y-81222856D02*
X201391028Y-81318094D01*
X201391028Y-81318094D02*
X201343409Y-81508570D01*
X201343409Y-81508570D02*
X201295790Y-81603808D01*
X201295790Y-81603808D02*
X201248171Y-81651427D01*
X201248171Y-81651427D02*
X201152933Y-81699046D01*
X201152933Y-81699046D02*
X201057695Y-81699046D01*
X201057695Y-81699046D02*
X200962457Y-81651427D01*
X200962457Y-81651427D02*
X200914838Y-81603808D01*
X200914838Y-81603808D02*
X200867219Y-81508570D01*
X200867219Y-81508570D02*
X200867219Y-81270475D01*
X200867219Y-81270475D02*
X200914838Y-81127618D01*
X197309524Y-95947219D02*
X197309524Y-94947219D01*
X197309524Y-94947219D02*
X197642857Y-95661504D01*
X197642857Y-95661504D02*
X197976190Y-94947219D01*
X197976190Y-94947219D02*
X197976190Y-95947219D01*
X198404762Y-95661504D02*
X198880952Y-95661504D01*
X198309524Y-95947219D02*
X198642857Y-94947219D01*
X198642857Y-94947219D02*
X198976190Y-95947219D01*
X199214286Y-94947219D02*
X199880952Y-95947219D01*
X199880952Y-94947219D02*
X199214286Y-95947219D01*
X200976190Y-94899600D02*
X200119048Y-96185314D01*
X201642857Y-95423409D02*
X201309524Y-95423409D01*
X201309524Y-95947219D02*
X201309524Y-94947219D01*
X201309524Y-94947219D02*
X201785714Y-94947219D01*
X197833333Y-90027219D02*
X197357143Y-90027219D01*
X197357143Y-90027219D02*
X197309524Y-90503409D01*
X197309524Y-90503409D02*
X197357143Y-90455790D01*
X197357143Y-90455790D02*
X197452381Y-90408171D01*
X197452381Y-90408171D02*
X197690476Y-90408171D01*
X197690476Y-90408171D02*
X197785714Y-90455790D01*
X197785714Y-90455790D02*
X197833333Y-90503409D01*
X197833333Y-90503409D02*
X197880952Y-90598647D01*
X197880952Y-90598647D02*
X197880952Y-90836742D01*
X197880952Y-90836742D02*
X197833333Y-90931980D01*
X197833333Y-90931980D02*
X197785714Y-90979600D01*
X197785714Y-90979600D02*
X197690476Y-91027219D01*
X197690476Y-91027219D02*
X197452381Y-91027219D01*
X197452381Y-91027219D02*
X197357143Y-90979600D01*
X197357143Y-90979600D02*
X197309524Y-90931980D01*
X198785714Y-90027219D02*
X198309524Y-90027219D01*
X198309524Y-90027219D02*
X198261905Y-90503409D01*
X198261905Y-90503409D02*
X198309524Y-90455790D01*
X198309524Y-90455790D02*
X198404762Y-90408171D01*
X198404762Y-90408171D02*
X198642857Y-90408171D01*
X198642857Y-90408171D02*
X198738095Y-90455790D01*
X198738095Y-90455790D02*
X198785714Y-90503409D01*
X198785714Y-90503409D02*
X198833333Y-90598647D01*
X198833333Y-90598647D02*
X198833333Y-90836742D01*
X198833333Y-90836742D02*
X198785714Y-90931980D01*
X198785714Y-90931980D02*
X198738095Y-90979600D01*
X198738095Y-90979600D02*
X198642857Y-91027219D01*
X198642857Y-91027219D02*
X198404762Y-91027219D01*
X198404762Y-91027219D02*
X198309524Y-90979600D01*
X198309524Y-90979600D02*
X198261905Y-90931980D01*
X199738095Y-90027219D02*
X199261905Y-90027219D01*
X199261905Y-90027219D02*
X199214286Y-90503409D01*
X199214286Y-90503409D02*
X199261905Y-90455790D01*
X199261905Y-90455790D02*
X199357143Y-90408171D01*
X199357143Y-90408171D02*
X199595238Y-90408171D01*
X199595238Y-90408171D02*
X199690476Y-90455790D01*
X199690476Y-90455790D02*
X199738095Y-90503409D01*
X199738095Y-90503409D02*
X199785714Y-90598647D01*
X199785714Y-90598647D02*
X199785714Y-90836742D01*
X199785714Y-90836742D02*
X199738095Y-90931980D01*
X199738095Y-90931980D02*
X199690476Y-90979600D01*
X199690476Y-90979600D02*
X199595238Y-91027219D01*
X199595238Y-91027219D02*
X199357143Y-91027219D01*
X199357143Y-91027219D02*
X199261905Y-90979600D01*
X199261905Y-90979600D02*
X199214286Y-90931980D01*
X200928571Y-89979600D02*
X200071429Y-91265314D01*
X201595238Y-90503409D02*
X201261905Y-90503409D01*
X201261905Y-91027219D02*
X201261905Y-90027219D01*
X201261905Y-90027219D02*
X201738095Y-90027219D01*
X104632780Y-74865714D02*
X105108971Y-74532381D01*
X104632780Y-74294286D02*
X105632780Y-74294286D01*
X105632780Y-74294286D02*
X105632780Y-74675238D01*
X105632780Y-74675238D02*
X105585161Y-74770476D01*
X105585161Y-74770476D02*
X105537542Y-74818095D01*
X105537542Y-74818095D02*
X105442304Y-74865714D01*
X105442304Y-74865714D02*
X105299447Y-74865714D01*
X105299447Y-74865714D02*
X105204209Y-74818095D01*
X105204209Y-74818095D02*
X105156590Y-74770476D01*
X105156590Y-74770476D02*
X105108971Y-74675238D01*
X105108971Y-74675238D02*
X105108971Y-74294286D01*
X105156590Y-75294286D02*
X105156590Y-75627619D01*
X104632780Y-75770476D02*
X104632780Y-75294286D01*
X104632780Y-75294286D02*
X105632780Y-75294286D01*
X105632780Y-75294286D02*
X105632780Y-75770476D01*
X104728019Y-76770476D02*
X104680400Y-76722857D01*
X104680400Y-76722857D02*
X104632780Y-76580000D01*
X104632780Y-76580000D02*
X104632780Y-76484762D01*
X104632780Y-76484762D02*
X104680400Y-76341905D01*
X104680400Y-76341905D02*
X104775638Y-76246667D01*
X104775638Y-76246667D02*
X104870876Y-76199048D01*
X104870876Y-76199048D02*
X105061352Y-76151429D01*
X105061352Y-76151429D02*
X105204209Y-76151429D01*
X105204209Y-76151429D02*
X105394685Y-76199048D01*
X105394685Y-76199048D02*
X105489923Y-76246667D01*
X105489923Y-76246667D02*
X105585161Y-76341905D01*
X105585161Y-76341905D02*
X105632780Y-76484762D01*
X105632780Y-76484762D02*
X105632780Y-76580000D01*
X105632780Y-76580000D02*
X105585161Y-76722857D01*
X105585161Y-76722857D02*
X105537542Y-76770476D01*
X105156590Y-77199048D02*
X105156590Y-77532381D01*
X104632780Y-77675238D02*
X104632780Y-77199048D01*
X104632780Y-77199048D02*
X105632780Y-77199048D01*
X105632780Y-77199048D02*
X105632780Y-77675238D01*
X104632780Y-78103810D02*
X105632780Y-78103810D01*
X105632780Y-78437143D02*
X104632780Y-78770476D01*
X104632780Y-78770476D02*
X105632780Y-79103809D01*
X105156590Y-79437143D02*
X105156590Y-79770476D01*
X104632780Y-79913333D02*
X104632780Y-79437143D01*
X104632780Y-79437143D02*
X105632780Y-79437143D01*
X105632780Y-79437143D02*
X105632780Y-79913333D01*
X104632780Y-80913333D02*
X105108971Y-80580000D01*
X104632780Y-80341905D02*
X105632780Y-80341905D01*
X105632780Y-80341905D02*
X105632780Y-80722857D01*
X105632780Y-80722857D02*
X105585161Y-80818095D01*
X105585161Y-80818095D02*
X105537542Y-80865714D01*
X105537542Y-80865714D02*
X105442304Y-80913333D01*
X105442304Y-80913333D02*
X105299447Y-80913333D01*
X105299447Y-80913333D02*
X105204209Y-80865714D01*
X105204209Y-80865714D02*
X105156590Y-80818095D01*
X105156590Y-80818095D02*
X105108971Y-80722857D01*
X105108971Y-80722857D02*
X105108971Y-80341905D01*
X201343409Y-78627619D02*
X201343409Y-78960952D01*
X201867219Y-78960952D02*
X200867219Y-78960952D01*
X200867219Y-78960952D02*
X200867219Y-78484762D01*
X200867219Y-77484761D02*
X200867219Y-76913333D01*
X201867219Y-77199047D02*
X200867219Y-77199047D01*
X201867219Y-76008571D02*
X201391028Y-76341904D01*
X201867219Y-76579999D02*
X200867219Y-76579999D01*
X200867219Y-76579999D02*
X200867219Y-76199047D01*
X200867219Y-76199047D02*
X200914838Y-76103809D01*
X200914838Y-76103809D02*
X200962457Y-76056190D01*
X200962457Y-76056190D02*
X201057695Y-76008571D01*
X201057695Y-76008571D02*
X201200552Y-76008571D01*
X201200552Y-76008571D02*
X201295790Y-76056190D01*
X201295790Y-76056190D02*
X201343409Y-76103809D01*
X201343409Y-76103809D02*
X201391028Y-76199047D01*
X201391028Y-76199047D02*
X201391028Y-76579999D01*
X201581504Y-75627618D02*
X201581504Y-75151428D01*
X201867219Y-75722856D02*
X200867219Y-75389523D01*
X200867219Y-75389523D02*
X201867219Y-75056190D01*
X201867219Y-74722856D02*
X200867219Y-74722856D01*
X200867219Y-74722856D02*
X201867219Y-74151428D01*
X201867219Y-74151428D02*
X200867219Y-74151428D01*
X201819600Y-73722856D02*
X201867219Y-73579999D01*
X201867219Y-73579999D02*
X201867219Y-73341904D01*
X201867219Y-73341904D02*
X201819600Y-73246666D01*
X201819600Y-73246666D02*
X201771980Y-73199047D01*
X201771980Y-73199047D02*
X201676742Y-73151428D01*
X201676742Y-73151428D02*
X201581504Y-73151428D01*
X201581504Y-73151428D02*
X201486266Y-73199047D01*
X201486266Y-73199047D02*
X201438647Y-73246666D01*
X201438647Y-73246666D02*
X201391028Y-73341904D01*
X201391028Y-73341904D02*
X201343409Y-73532380D01*
X201343409Y-73532380D02*
X201295790Y-73627618D01*
X201295790Y-73627618D02*
X201248171Y-73675237D01*
X201248171Y-73675237D02*
X201152933Y-73722856D01*
X201152933Y-73722856D02*
X201057695Y-73722856D01*
X201057695Y-73722856D02*
X200962457Y-73675237D01*
X200962457Y-73675237D02*
X200914838Y-73627618D01*
X200914838Y-73627618D02*
X200867219Y-73532380D01*
X200867219Y-73532380D02*
X200867219Y-73294285D01*
X200867219Y-73294285D02*
X200914838Y-73151428D01*
D11*
X107440225Y-84750657D02*
X107297368Y-84679228D01*
X107297368Y-84679228D02*
X107083082Y-84679228D01*
X107083082Y-84679228D02*
X106868796Y-84750657D01*
X106868796Y-84750657D02*
X106725939Y-84893514D01*
X106725939Y-84893514D02*
X106654510Y-85036371D01*
X106654510Y-85036371D02*
X106583082Y-85322085D01*
X106583082Y-85322085D02*
X106583082Y-85536371D01*
X106583082Y-85536371D02*
X106654510Y-85822085D01*
X106654510Y-85822085D02*
X106725939Y-85964942D01*
X106725939Y-85964942D02*
X106868796Y-86107800D01*
X106868796Y-86107800D02*
X107083082Y-86179228D01*
X107083082Y-86179228D02*
X107225939Y-86179228D01*
X107225939Y-86179228D02*
X107440225Y-86107800D01*
X107440225Y-86107800D02*
X107511653Y-86036371D01*
X107511653Y-86036371D02*
X107511653Y-85536371D01*
X107511653Y-85536371D02*
X107225939Y-85536371D01*
X108154510Y-86179228D02*
X108154510Y-85179228D01*
X108154510Y-84679228D02*
X108083082Y-84750657D01*
X108083082Y-84750657D02*
X108154510Y-84822085D01*
X108154510Y-84822085D02*
X108225939Y-84750657D01*
X108225939Y-84750657D02*
X108154510Y-84679228D01*
X108154510Y-84679228D02*
X108154510Y-84822085D01*
X108868796Y-86179228D02*
X108868796Y-85179228D01*
X108868796Y-85464942D02*
X108940225Y-85322085D01*
X108940225Y-85322085D02*
X109011654Y-85250657D01*
X109011654Y-85250657D02*
X109154511Y-85179228D01*
X109154511Y-85179228D02*
X109297368Y-85179228D01*
X110011653Y-86179228D02*
X109868796Y-86107800D01*
X109868796Y-86107800D02*
X109797367Y-86036371D01*
X109797367Y-86036371D02*
X109725939Y-85893514D01*
X109725939Y-85893514D02*
X109725939Y-85464942D01*
X109725939Y-85464942D02*
X109797367Y-85322085D01*
X109797367Y-85322085D02*
X109868796Y-85250657D01*
X109868796Y-85250657D02*
X110011653Y-85179228D01*
X110011653Y-85179228D02*
X110225939Y-85179228D01*
X110225939Y-85179228D02*
X110368796Y-85250657D01*
X110368796Y-85250657D02*
X110440225Y-85322085D01*
X110440225Y-85322085D02*
X110511653Y-85464942D01*
X110511653Y-85464942D02*
X110511653Y-85893514D01*
X110511653Y-85893514D02*
X110440225Y-86036371D01*
X110440225Y-86036371D02*
X110368796Y-86107800D01*
X110368796Y-86107800D02*
X110225939Y-86179228D01*
X110225939Y-86179228D02*
X110011653Y-86179228D01*
X111797368Y-85179228D02*
X111797368Y-86179228D01*
X111154510Y-85179228D02*
X111154510Y-85964942D01*
X111154510Y-85964942D02*
X111225939Y-86107800D01*
X111225939Y-86107800D02*
X111368796Y-86179228D01*
X111368796Y-86179228D02*
X111583082Y-86179228D01*
X111583082Y-86179228D02*
X111725939Y-86107800D01*
X111725939Y-86107800D02*
X111797368Y-86036371D01*
X113083082Y-86107800D02*
X112940225Y-86179228D01*
X112940225Y-86179228D02*
X112654511Y-86179228D01*
X112654511Y-86179228D02*
X112511653Y-86107800D01*
X112511653Y-86107800D02*
X112440225Y-85964942D01*
X112440225Y-85964942D02*
X112440225Y-85393514D01*
X112440225Y-85393514D02*
X112511653Y-85250657D01*
X112511653Y-85250657D02*
X112654511Y-85179228D01*
X112654511Y-85179228D02*
X112940225Y-85179228D01*
X112940225Y-85179228D02*
X113083082Y-85250657D01*
X113083082Y-85250657D02*
X113154511Y-85393514D01*
X113154511Y-85393514D02*
X113154511Y-85536371D01*
X113154511Y-85536371D02*
X112440225Y-85679228D01*
X113583082Y-85179228D02*
X114154510Y-85179228D01*
X113797367Y-84679228D02*
X113797367Y-85964942D01*
X113797367Y-85964942D02*
X113868796Y-86107800D01*
X113868796Y-86107800D02*
X114011653Y-86179228D01*
X114011653Y-86179228D02*
X114154510Y-86179228D01*
X114440225Y-85179228D02*
X115011653Y-85179228D01*
X114654510Y-84679228D02*
X114654510Y-85964942D01*
X114654510Y-85964942D02*
X114725939Y-86107800D01*
X114725939Y-86107800D02*
X114868796Y-86179228D01*
X114868796Y-86179228D02*
X115011653Y-86179228D01*
X116083082Y-86107800D02*
X115940225Y-86179228D01*
X115940225Y-86179228D02*
X115654511Y-86179228D01*
X115654511Y-86179228D02*
X115511653Y-86107800D01*
X115511653Y-86107800D02*
X115440225Y-85964942D01*
X115440225Y-85964942D02*
X115440225Y-85393514D01*
X115440225Y-85393514D02*
X115511653Y-85250657D01*
X115511653Y-85250657D02*
X115654511Y-85179228D01*
X115654511Y-85179228D02*
X115940225Y-85179228D01*
X115940225Y-85179228D02*
X116083082Y-85250657D01*
X116083082Y-85250657D02*
X116154511Y-85393514D01*
X116154511Y-85393514D02*
X116154511Y-85536371D01*
X116154511Y-85536371D02*
X115440225Y-85679228D01*
X106654510Y-88594144D02*
X106654510Y-87094144D01*
X106654510Y-87094144D02*
X107225939Y-87094144D01*
X107225939Y-87094144D02*
X107368796Y-87165573D01*
X107368796Y-87165573D02*
X107440225Y-87237001D01*
X107440225Y-87237001D02*
X107511653Y-87379858D01*
X107511653Y-87379858D02*
X107511653Y-87594144D01*
X107511653Y-87594144D02*
X107440225Y-87737001D01*
X107440225Y-87737001D02*
X107368796Y-87808430D01*
X107368796Y-87808430D02*
X107225939Y-87879858D01*
X107225939Y-87879858D02*
X106654510Y-87879858D01*
X109011653Y-88451287D02*
X108940225Y-88522716D01*
X108940225Y-88522716D02*
X108725939Y-88594144D01*
X108725939Y-88594144D02*
X108583082Y-88594144D01*
X108583082Y-88594144D02*
X108368796Y-88522716D01*
X108368796Y-88522716D02*
X108225939Y-88379858D01*
X108225939Y-88379858D02*
X108154510Y-88237001D01*
X108154510Y-88237001D02*
X108083082Y-87951287D01*
X108083082Y-87951287D02*
X108083082Y-87737001D01*
X108083082Y-87737001D02*
X108154510Y-87451287D01*
X108154510Y-87451287D02*
X108225939Y-87308430D01*
X108225939Y-87308430D02*
X108368796Y-87165573D01*
X108368796Y-87165573D02*
X108583082Y-87094144D01*
X108583082Y-87094144D02*
X108725939Y-87094144D01*
X108725939Y-87094144D02*
X108940225Y-87165573D01*
X108940225Y-87165573D02*
X109011653Y-87237001D01*
X110154510Y-87808430D02*
X110368796Y-87879858D01*
X110368796Y-87879858D02*
X110440225Y-87951287D01*
X110440225Y-87951287D02*
X110511653Y-88094144D01*
X110511653Y-88094144D02*
X110511653Y-88308430D01*
X110511653Y-88308430D02*
X110440225Y-88451287D01*
X110440225Y-88451287D02*
X110368796Y-88522716D01*
X110368796Y-88522716D02*
X110225939Y-88594144D01*
X110225939Y-88594144D02*
X109654510Y-88594144D01*
X109654510Y-88594144D02*
X109654510Y-87094144D01*
X109654510Y-87094144D02*
X110154510Y-87094144D01*
X110154510Y-87094144D02*
X110297368Y-87165573D01*
X110297368Y-87165573D02*
X110368796Y-87237001D01*
X110368796Y-87237001D02*
X110440225Y-87379858D01*
X110440225Y-87379858D02*
X110440225Y-87522716D01*
X110440225Y-87522716D02*
X110368796Y-87665573D01*
X110368796Y-87665573D02*
X110297368Y-87737001D01*
X110297368Y-87737001D02*
X110154510Y-87808430D01*
X110154510Y-87808430D02*
X109654510Y-87808430D01*
X112083082Y-87594144D02*
X112654510Y-87594144D01*
X112297367Y-87094144D02*
X112297367Y-88379858D01*
X112297367Y-88379858D02*
X112368796Y-88522716D01*
X112368796Y-88522716D02*
X112511653Y-88594144D01*
X112511653Y-88594144D02*
X112654510Y-88594144D01*
X113725939Y-88522716D02*
X113583082Y-88594144D01*
X113583082Y-88594144D02*
X113297368Y-88594144D01*
X113297368Y-88594144D02*
X113154510Y-88522716D01*
X113154510Y-88522716D02*
X113083082Y-88379858D01*
X113083082Y-88379858D02*
X113083082Y-87808430D01*
X113083082Y-87808430D02*
X113154510Y-87665573D01*
X113154510Y-87665573D02*
X113297368Y-87594144D01*
X113297368Y-87594144D02*
X113583082Y-87594144D01*
X113583082Y-87594144D02*
X113725939Y-87665573D01*
X113725939Y-87665573D02*
X113797368Y-87808430D01*
X113797368Y-87808430D02*
X113797368Y-87951287D01*
X113797368Y-87951287D02*
X113083082Y-88094144D01*
X114368796Y-88522716D02*
X114511653Y-88594144D01*
X114511653Y-88594144D02*
X114797367Y-88594144D01*
X114797367Y-88594144D02*
X114940224Y-88522716D01*
X114940224Y-88522716D02*
X115011653Y-88379858D01*
X115011653Y-88379858D02*
X115011653Y-88308430D01*
X115011653Y-88308430D02*
X114940224Y-88165573D01*
X114940224Y-88165573D02*
X114797367Y-88094144D01*
X114797367Y-88094144D02*
X114583082Y-88094144D01*
X114583082Y-88094144D02*
X114440224Y-88022716D01*
X114440224Y-88022716D02*
X114368796Y-87879858D01*
X114368796Y-87879858D02*
X114368796Y-87808430D01*
X114368796Y-87808430D02*
X114440224Y-87665573D01*
X114440224Y-87665573D02*
X114583082Y-87594144D01*
X114583082Y-87594144D02*
X114797367Y-87594144D01*
X114797367Y-87594144D02*
X114940224Y-87665573D01*
X115440225Y-87594144D02*
X116011653Y-87594144D01*
X115654510Y-87094144D02*
X115654510Y-88379858D01*
X115654510Y-88379858D02*
X115725939Y-88522716D01*
X115725939Y-88522716D02*
X115868796Y-88594144D01*
X115868796Y-88594144D02*
X116011653Y-88594144D01*
X118083082Y-89165573D02*
X118011653Y-89094144D01*
X118011653Y-89094144D02*
X117868796Y-88879858D01*
X117868796Y-88879858D02*
X117797368Y-88737001D01*
X117797368Y-88737001D02*
X117725939Y-88522716D01*
X117725939Y-88522716D02*
X117654510Y-88165573D01*
X117654510Y-88165573D02*
X117654510Y-87879858D01*
X117654510Y-87879858D02*
X117725939Y-87522716D01*
X117725939Y-87522716D02*
X117797368Y-87308430D01*
X117797368Y-87308430D02*
X117868796Y-87165573D01*
X117868796Y-87165573D02*
X118011653Y-86951287D01*
X118011653Y-86951287D02*
X118083082Y-86879858D01*
X118440225Y-87094144D02*
X118940225Y-88594144D01*
X118940225Y-88594144D02*
X119440225Y-87094144D01*
X120225939Y-87094144D02*
X120368796Y-87094144D01*
X120368796Y-87094144D02*
X120511653Y-87165573D01*
X120511653Y-87165573D02*
X120583082Y-87237001D01*
X120583082Y-87237001D02*
X120654510Y-87379858D01*
X120654510Y-87379858D02*
X120725939Y-87665573D01*
X120725939Y-87665573D02*
X120725939Y-88022716D01*
X120725939Y-88022716D02*
X120654510Y-88308430D01*
X120654510Y-88308430D02*
X120583082Y-88451287D01*
X120583082Y-88451287D02*
X120511653Y-88522716D01*
X120511653Y-88522716D02*
X120368796Y-88594144D01*
X120368796Y-88594144D02*
X120225939Y-88594144D01*
X120225939Y-88594144D02*
X120083082Y-88522716D01*
X120083082Y-88522716D02*
X120011653Y-88451287D01*
X120011653Y-88451287D02*
X119940224Y-88308430D01*
X119940224Y-88308430D02*
X119868796Y-88022716D01*
X119868796Y-88022716D02*
X119868796Y-87665573D01*
X119868796Y-87665573D02*
X119940224Y-87379858D01*
X119940224Y-87379858D02*
X120011653Y-87237001D01*
X120011653Y-87237001D02*
X120083082Y-87165573D01*
X120083082Y-87165573D02*
X120225939Y-87094144D01*
X121225938Y-89165573D02*
X121297367Y-89094144D01*
X121297367Y-89094144D02*
X121440224Y-88879858D01*
X121440224Y-88879858D02*
X121511653Y-88737001D01*
X121511653Y-88737001D02*
X121583081Y-88522716D01*
X121583081Y-88522716D02*
X121654510Y-88165573D01*
X121654510Y-88165573D02*
X121654510Y-87879858D01*
X121654510Y-87879858D02*
X121583081Y-87522716D01*
X121583081Y-87522716D02*
X121511653Y-87308430D01*
X121511653Y-87308430D02*
X121440224Y-87165573D01*
X121440224Y-87165573D02*
X121297367Y-86951287D01*
X121297367Y-86951287D02*
X121225938Y-86879858D01*
X106654510Y-91009060D02*
X106654510Y-89509060D01*
X107511653Y-91009060D02*
X106868796Y-90151917D01*
X107511653Y-89509060D02*
X106654510Y-90366203D01*
X108797368Y-91009060D02*
X108797368Y-90223346D01*
X108797368Y-90223346D02*
X108725939Y-90080489D01*
X108725939Y-90080489D02*
X108583082Y-90009060D01*
X108583082Y-90009060D02*
X108297368Y-90009060D01*
X108297368Y-90009060D02*
X108154510Y-90080489D01*
X108797368Y-90937632D02*
X108654510Y-91009060D01*
X108654510Y-91009060D02*
X108297368Y-91009060D01*
X108297368Y-91009060D02*
X108154510Y-90937632D01*
X108154510Y-90937632D02*
X108083082Y-90794774D01*
X108083082Y-90794774D02*
X108083082Y-90651917D01*
X108083082Y-90651917D02*
X108154510Y-90509060D01*
X108154510Y-90509060D02*
X108297368Y-90437632D01*
X108297368Y-90437632D02*
X108654510Y-90437632D01*
X108654510Y-90437632D02*
X108797368Y-90366203D01*
X110154511Y-91009060D02*
X110154511Y-89509060D01*
X110154511Y-90937632D02*
X110011653Y-91009060D01*
X110011653Y-91009060D02*
X109725939Y-91009060D01*
X109725939Y-91009060D02*
X109583082Y-90937632D01*
X109583082Y-90937632D02*
X109511653Y-90866203D01*
X109511653Y-90866203D02*
X109440225Y-90723346D01*
X109440225Y-90723346D02*
X109440225Y-90294774D01*
X109440225Y-90294774D02*
X109511653Y-90151917D01*
X109511653Y-90151917D02*
X109583082Y-90080489D01*
X109583082Y-90080489D02*
X109725939Y-90009060D01*
X109725939Y-90009060D02*
X110011653Y-90009060D01*
X110011653Y-90009060D02*
X110154511Y-90080489D01*
X110725939Y-90009060D02*
X111011654Y-91009060D01*
X111011654Y-91009060D02*
X111297368Y-90294774D01*
X111297368Y-90294774D02*
X111583082Y-91009060D01*
X111583082Y-91009060D02*
X111868796Y-90009060D01*
X113083083Y-91009060D02*
X113083083Y-90223346D01*
X113083083Y-90223346D02*
X113011654Y-90080489D01*
X113011654Y-90080489D02*
X112868797Y-90009060D01*
X112868797Y-90009060D02*
X112583083Y-90009060D01*
X112583083Y-90009060D02*
X112440225Y-90080489D01*
X113083083Y-90937632D02*
X112940225Y-91009060D01*
X112940225Y-91009060D02*
X112583083Y-91009060D01*
X112583083Y-91009060D02*
X112440225Y-90937632D01*
X112440225Y-90937632D02*
X112368797Y-90794774D01*
X112368797Y-90794774D02*
X112368797Y-90651917D01*
X112368797Y-90651917D02*
X112440225Y-90509060D01*
X112440225Y-90509060D02*
X112583083Y-90437632D01*
X112583083Y-90437632D02*
X112940225Y-90437632D01*
X112940225Y-90437632D02*
X113083083Y-90366203D01*
X114011654Y-91009060D02*
X113868797Y-90937632D01*
X113868797Y-90937632D02*
X113797368Y-90794774D01*
X113797368Y-90794774D02*
X113797368Y-89509060D01*
X114797368Y-91009060D02*
X114654511Y-90937632D01*
X114654511Y-90937632D02*
X114583082Y-90866203D01*
X114583082Y-90866203D02*
X114511654Y-90723346D01*
X114511654Y-90723346D02*
X114511654Y-90294774D01*
X114511654Y-90294774D02*
X114583082Y-90151917D01*
X114583082Y-90151917D02*
X114654511Y-90080489D01*
X114654511Y-90080489D02*
X114797368Y-90009060D01*
X114797368Y-90009060D02*
X115011654Y-90009060D01*
X115011654Y-90009060D02*
X115154511Y-90080489D01*
X115154511Y-90080489D02*
X115225940Y-90151917D01*
X115225940Y-90151917D02*
X115297368Y-90294774D01*
X115297368Y-90294774D02*
X115297368Y-90723346D01*
X115297368Y-90723346D02*
X115225940Y-90866203D01*
X115225940Y-90866203D02*
X115154511Y-90937632D01*
X115154511Y-90937632D02*
X115011654Y-91009060D01*
X115011654Y-91009060D02*
X114797368Y-91009060D01*
X115940225Y-90009060D02*
X115940225Y-91009060D01*
X115940225Y-90151917D02*
X116011654Y-90080489D01*
X116011654Y-90080489D02*
X116154511Y-90009060D01*
X116154511Y-90009060D02*
X116368797Y-90009060D01*
X116368797Y-90009060D02*
X116511654Y-90080489D01*
X116511654Y-90080489D02*
X116583083Y-90223346D01*
X116583083Y-90223346D02*
X116583083Y-91009060D01*
X119154511Y-91009060D02*
X118440225Y-91009060D01*
X118440225Y-91009060D02*
X118440225Y-89509060D01*
X119654511Y-90866203D02*
X119725940Y-90937632D01*
X119725940Y-90937632D02*
X119654511Y-91009060D01*
X119654511Y-91009060D02*
X119583083Y-90937632D01*
X119583083Y-90937632D02*
X119654511Y-90866203D01*
X119654511Y-90866203D02*
X119654511Y-91009060D01*
X107440225Y-91995405D02*
X107297368Y-91923976D01*
X107297368Y-91923976D02*
X107083082Y-91923976D01*
X107083082Y-91923976D02*
X106868796Y-91995405D01*
X106868796Y-91995405D02*
X106725939Y-92138262D01*
X106725939Y-92138262D02*
X106654510Y-92281119D01*
X106654510Y-92281119D02*
X106583082Y-92566833D01*
X106583082Y-92566833D02*
X106583082Y-92781119D01*
X106583082Y-92781119D02*
X106654510Y-93066833D01*
X106654510Y-93066833D02*
X106725939Y-93209690D01*
X106725939Y-93209690D02*
X106868796Y-93352548D01*
X106868796Y-93352548D02*
X107083082Y-93423976D01*
X107083082Y-93423976D02*
X107225939Y-93423976D01*
X107225939Y-93423976D02*
X107440225Y-93352548D01*
X107440225Y-93352548D02*
X107511653Y-93281119D01*
X107511653Y-93281119D02*
X107511653Y-92781119D01*
X107511653Y-92781119D02*
X107225939Y-92781119D01*
X108797368Y-92423976D02*
X108797368Y-93423976D01*
X108154510Y-92423976D02*
X108154510Y-93209690D01*
X108154510Y-93209690D02*
X108225939Y-93352548D01*
X108225939Y-93352548D02*
X108368796Y-93423976D01*
X108368796Y-93423976D02*
X108583082Y-93423976D01*
X108583082Y-93423976D02*
X108725939Y-93352548D01*
X108725939Y-93352548D02*
X108797368Y-93281119D01*
X109511653Y-93423976D02*
X109511653Y-92423976D01*
X109511653Y-91923976D02*
X109440225Y-91995405D01*
X109440225Y-91995405D02*
X109511653Y-92066833D01*
X109511653Y-92066833D02*
X109583082Y-91995405D01*
X109583082Y-91995405D02*
X109511653Y-91923976D01*
X109511653Y-91923976D02*
X109511653Y-92066833D01*
X110440225Y-93423976D02*
X110297368Y-93352548D01*
X110297368Y-93352548D02*
X110225939Y-93209690D01*
X110225939Y-93209690D02*
X110225939Y-91923976D01*
X111225939Y-93423976D02*
X111083082Y-93352548D01*
X111083082Y-93352548D02*
X111011653Y-93209690D01*
X111011653Y-93209690D02*
X111011653Y-91923976D01*
X112440225Y-93423976D02*
X112440225Y-92638262D01*
X112440225Y-92638262D02*
X112368796Y-92495405D01*
X112368796Y-92495405D02*
X112225939Y-92423976D01*
X112225939Y-92423976D02*
X111940225Y-92423976D01*
X111940225Y-92423976D02*
X111797367Y-92495405D01*
X112440225Y-93352548D02*
X112297367Y-93423976D01*
X112297367Y-93423976D02*
X111940225Y-93423976D01*
X111940225Y-93423976D02*
X111797367Y-93352548D01*
X111797367Y-93352548D02*
X111725939Y-93209690D01*
X111725939Y-93209690D02*
X111725939Y-93066833D01*
X111725939Y-93066833D02*
X111797367Y-92923976D01*
X111797367Y-92923976D02*
X111940225Y-92852548D01*
X111940225Y-92852548D02*
X112297367Y-92852548D01*
X112297367Y-92852548D02*
X112440225Y-92781119D01*
X113797368Y-92423976D02*
X113797368Y-93423976D01*
X113154510Y-92423976D02*
X113154510Y-93209690D01*
X113154510Y-93209690D02*
X113225939Y-93352548D01*
X113225939Y-93352548D02*
X113368796Y-93423976D01*
X113368796Y-93423976D02*
X113583082Y-93423976D01*
X113583082Y-93423976D02*
X113725939Y-93352548D01*
X113725939Y-93352548D02*
X113797368Y-93281119D01*
X114511653Y-93423976D02*
X114511653Y-92423976D01*
X114511653Y-92566833D02*
X114583082Y-92495405D01*
X114583082Y-92495405D02*
X114725939Y-92423976D01*
X114725939Y-92423976D02*
X114940225Y-92423976D01*
X114940225Y-92423976D02*
X115083082Y-92495405D01*
X115083082Y-92495405D02*
X115154511Y-92638262D01*
X115154511Y-92638262D02*
X115154511Y-93423976D01*
X115154511Y-92638262D02*
X115225939Y-92495405D01*
X115225939Y-92495405D02*
X115368796Y-92423976D01*
X115368796Y-92423976D02*
X115583082Y-92423976D01*
X115583082Y-92423976D02*
X115725939Y-92495405D01*
X115725939Y-92495405D02*
X115797368Y-92638262D01*
X115797368Y-92638262D02*
X115797368Y-93423976D01*
X117083082Y-93352548D02*
X116940225Y-93423976D01*
X116940225Y-93423976D02*
X116654511Y-93423976D01*
X116654511Y-93423976D02*
X116511653Y-93352548D01*
X116511653Y-93352548D02*
X116440225Y-93209690D01*
X116440225Y-93209690D02*
X116440225Y-92638262D01*
X116440225Y-92638262D02*
X116511653Y-92495405D01*
X116511653Y-92495405D02*
X116654511Y-92423976D01*
X116654511Y-92423976D02*
X116940225Y-92423976D01*
X116940225Y-92423976D02*
X117083082Y-92495405D01*
X117083082Y-92495405D02*
X117154511Y-92638262D01*
X117154511Y-92638262D02*
X117154511Y-92781119D01*
X117154511Y-92781119D02*
X116440225Y-92923976D01*
X118940224Y-93423976D02*
X118940224Y-91923976D01*
X118940224Y-91923976D02*
X119297367Y-91923976D01*
X119297367Y-91923976D02*
X119511653Y-91995405D01*
X119511653Y-91995405D02*
X119654510Y-92138262D01*
X119654510Y-92138262D02*
X119725939Y-92281119D01*
X119725939Y-92281119D02*
X119797367Y-92566833D01*
X119797367Y-92566833D02*
X119797367Y-92781119D01*
X119797367Y-92781119D02*
X119725939Y-93066833D01*
X119725939Y-93066833D02*
X119654510Y-93209690D01*
X119654510Y-93209690D02*
X119511653Y-93352548D01*
X119511653Y-93352548D02*
X119297367Y-93423976D01*
X119297367Y-93423976D02*
X118940224Y-93423976D01*
X120440224Y-93423976D02*
X120440224Y-91923976D01*
X120440224Y-91923976D02*
X120797367Y-91923976D01*
X120797367Y-91923976D02*
X121011653Y-91995405D01*
X121011653Y-91995405D02*
X121154510Y-92138262D01*
X121154510Y-92138262D02*
X121225939Y-92281119D01*
X121225939Y-92281119D02*
X121297367Y-92566833D01*
X121297367Y-92566833D02*
X121297367Y-92781119D01*
X121297367Y-92781119D02*
X121225939Y-93066833D01*
X121225939Y-93066833D02*
X121154510Y-93209690D01*
X121154510Y-93209690D02*
X121011653Y-93352548D01*
X121011653Y-93352548D02*
X120797367Y-93423976D01*
X120797367Y-93423976D02*
X120440224Y-93423976D01*
X121940224Y-93423976D02*
X121940224Y-91923976D01*
X121940224Y-91923976D02*
X122440224Y-92995405D01*
X122440224Y-92995405D02*
X122940224Y-91923976D01*
X122940224Y-91923976D02*
X122940224Y-93423976D01*
D12*
X168574438Y-62301418D02*
X170574438Y-60968085D01*
X168574438Y-60968085D02*
X170574438Y-62301418D01*
X170574438Y-60206180D02*
X168574438Y-60206180D01*
X170003009Y-59349037D02*
X170003009Y-58396656D01*
X170574438Y-59539513D02*
X168574438Y-58872847D01*
X168574438Y-58872847D02*
X170574438Y-58206180D01*
X168574438Y-57158561D02*
X168574438Y-56777608D01*
X168574438Y-56777608D02*
X168669676Y-56587132D01*
X168669676Y-56587132D02*
X168860152Y-56396656D01*
X168860152Y-56396656D02*
X169241104Y-56301418D01*
X169241104Y-56301418D02*
X169907771Y-56301418D01*
X169907771Y-56301418D02*
X170288723Y-56396656D01*
X170288723Y-56396656D02*
X170479200Y-56587132D01*
X170479200Y-56587132D02*
X170574438Y-56777608D01*
X170574438Y-56777608D02*
X170574438Y-57158561D01*
X170574438Y-57158561D02*
X170479200Y-57349037D01*
X170479200Y-57349037D02*
X170288723Y-57539513D01*
X170288723Y-57539513D02*
X169907771Y-57634751D01*
X169907771Y-57634751D02*
X169241104Y-57634751D01*
X169241104Y-57634751D02*
X168860152Y-57539513D01*
X168860152Y-57539513D02*
X168669676Y-57349037D01*
X168669676Y-57349037D02*
X168574438Y-57158561D01*
X172746707Y-65491895D02*
X172746707Y-64825228D01*
X173794326Y-64539514D02*
X173794326Y-65491895D01*
X173794326Y-65491895D02*
X171794326Y-65491895D01*
X171794326Y-65491895D02*
X171794326Y-64539514D01*
X173699088Y-63777609D02*
X173794326Y-63491895D01*
X173794326Y-63491895D02*
X173794326Y-63015704D01*
X173794326Y-63015704D02*
X173699088Y-62825228D01*
X173699088Y-62825228D02*
X173603849Y-62729990D01*
X173603849Y-62729990D02*
X173413373Y-62634752D01*
X173413373Y-62634752D02*
X173222897Y-62634752D01*
X173222897Y-62634752D02*
X173032421Y-62729990D01*
X173032421Y-62729990D02*
X172937183Y-62825228D01*
X172937183Y-62825228D02*
X172841945Y-63015704D01*
X172841945Y-63015704D02*
X172746707Y-63396657D01*
X172746707Y-63396657D02*
X172651468Y-63587133D01*
X172651468Y-63587133D02*
X172556230Y-63682371D01*
X172556230Y-63682371D02*
X172365754Y-63777609D01*
X172365754Y-63777609D02*
X172175278Y-63777609D01*
X172175278Y-63777609D02*
X171984802Y-63682371D01*
X171984802Y-63682371D02*
X171889564Y-63587133D01*
X171889564Y-63587133D02*
X171794326Y-63396657D01*
X171794326Y-63396657D02*
X171794326Y-62920466D01*
X171794326Y-62920466D02*
X171889564Y-62634752D01*
X173794326Y-61777609D02*
X171794326Y-61777609D01*
X171794326Y-61777609D02*
X171794326Y-61015704D01*
X171794326Y-61015704D02*
X171889564Y-60825228D01*
X171889564Y-60825228D02*
X171984802Y-60729990D01*
X171984802Y-60729990D02*
X172175278Y-60634752D01*
X172175278Y-60634752D02*
X172460992Y-60634752D01*
X172460992Y-60634752D02*
X172651468Y-60729990D01*
X172651468Y-60729990D02*
X172746707Y-60825228D01*
X172746707Y-60825228D02*
X172841945Y-61015704D01*
X172841945Y-61015704D02*
X172841945Y-61777609D01*
X171794326Y-59968085D02*
X171794326Y-58729990D01*
X171794326Y-58729990D02*
X172556230Y-59396657D01*
X172556230Y-59396657D02*
X172556230Y-59110942D01*
X172556230Y-59110942D02*
X172651468Y-58920466D01*
X172651468Y-58920466D02*
X172746707Y-58825228D01*
X172746707Y-58825228D02*
X172937183Y-58729990D01*
X172937183Y-58729990D02*
X173413373Y-58729990D01*
X173413373Y-58729990D02*
X173603849Y-58825228D01*
X173603849Y-58825228D02*
X173699088Y-58920466D01*
X173699088Y-58920466D02*
X173794326Y-59110942D01*
X173794326Y-59110942D02*
X173794326Y-59682371D01*
X173794326Y-59682371D02*
X173699088Y-59872847D01*
X173699088Y-59872847D02*
X173603849Y-59968085D01*
X171984802Y-57968085D02*
X171889564Y-57872847D01*
X171889564Y-57872847D02*
X171794326Y-57682371D01*
X171794326Y-57682371D02*
X171794326Y-57206180D01*
X171794326Y-57206180D02*
X171889564Y-57015704D01*
X171889564Y-57015704D02*
X171984802Y-56920466D01*
X171984802Y-56920466D02*
X172175278Y-56825228D01*
X172175278Y-56825228D02*
X172365754Y-56825228D01*
X172365754Y-56825228D02*
X172651468Y-56920466D01*
X172651468Y-56920466D02*
X173794326Y-58063323D01*
X173794326Y-58063323D02*
X173794326Y-56825228D01*
X173603849Y-54825228D02*
X173699088Y-54920466D01*
X173699088Y-54920466D02*
X173794326Y-55206180D01*
X173794326Y-55206180D02*
X173794326Y-55396656D01*
X173794326Y-55396656D02*
X173699088Y-55682371D01*
X173699088Y-55682371D02*
X173508611Y-55872847D01*
X173508611Y-55872847D02*
X173318135Y-55968085D01*
X173318135Y-55968085D02*
X172937183Y-56063323D01*
X172937183Y-56063323D02*
X172651468Y-56063323D01*
X172651468Y-56063323D02*
X172270516Y-55968085D01*
X172270516Y-55968085D02*
X172080040Y-55872847D01*
X172080040Y-55872847D02*
X171889564Y-55682371D01*
X171889564Y-55682371D02*
X171794326Y-55396656D01*
X171794326Y-55396656D02*
X171794326Y-55206180D01*
X171794326Y-55206180D02*
X171889564Y-54920466D01*
X171889564Y-54920466D02*
X171984802Y-54825228D01*
X171794326Y-54158561D02*
X171794326Y-52920466D01*
X171794326Y-52920466D02*
X172556230Y-53587133D01*
X172556230Y-53587133D02*
X172556230Y-53301418D01*
X172556230Y-53301418D02*
X172651468Y-53110942D01*
X172651468Y-53110942D02*
X172746707Y-53015704D01*
X172746707Y-53015704D02*
X172937183Y-52920466D01*
X172937183Y-52920466D02*
X173413373Y-52920466D01*
X173413373Y-52920466D02*
X173603849Y-53015704D01*
X173603849Y-53015704D02*
X173699088Y-53110942D01*
X173699088Y-53110942D02*
X173794326Y-53301418D01*
X173794326Y-53301418D02*
X173794326Y-53872847D01*
X173794326Y-53872847D02*
X173699088Y-54063323D01*
X173699088Y-54063323D02*
X173603849Y-54158561D01*
D13*
X167000000Y-51927600D02*
X168100000Y-51927600D01*
X168500000Y-51927600D02*
X169600000Y-51927600D01*
X170000000Y-51927600D02*
X171100000Y-51927600D01*
X171500000Y-51927600D02*
X172600000Y-51927600D01*
X173000000Y-51927600D02*
X174100000Y-51927600D01*
X174500000Y-51927600D02*
X175000000Y-51927600D01*
X175000000Y-51927600D02*
X175000000Y-53027600D01*
X175000000Y-53427600D02*
X175000000Y-54527600D01*
X175000000Y-54927600D02*
X175000000Y-56027600D01*
X175000000Y-56427600D02*
X175000000Y-57527600D01*
X175000000Y-57927600D02*
X175000000Y-59027600D01*
X175000000Y-59427600D02*
X175000000Y-60527600D01*
X175000000Y-60927600D02*
X175000000Y-62027600D01*
X175000000Y-62427600D02*
X175000000Y-63527600D01*
X175000000Y-63927600D02*
X175000000Y-65027600D01*
X175000000Y-65427600D02*
X175000000Y-66527600D01*
X175000000Y-66580000D02*
X173900000Y-66580000D01*
X173500000Y-66580000D02*
X172400000Y-66580000D01*
X172000000Y-66580000D02*
X170900000Y-66580000D01*
X170500000Y-66580000D02*
X169400000Y-66580000D01*
X169000000Y-66580000D02*
X167900000Y-66580000D01*
X167500000Y-66580000D02*
X167000000Y-66580000D01*
X167000000Y-66580000D02*
X167000000Y-65480000D01*
X167000000Y-65080000D02*
X167000000Y-63980000D01*
X167000000Y-63580000D02*
X167000000Y-62480000D01*
X167000000Y-62080000D02*
X167000000Y-60980000D01*
X167000000Y-60580000D02*
X167000000Y-59480000D01*
X167000000Y-59080000D02*
X167000000Y-57980000D01*
X167000000Y-57580000D02*
X167000000Y-56480000D01*
X167000000Y-56080000D02*
X167000000Y-54980000D01*
X167000000Y-54580000D02*
X167000000Y-53480000D01*
X167000000Y-53080000D02*
X167000000Y-51980000D01*
D10*
X147547618Y-47840400D02*
X147404761Y-47792780D01*
X147404761Y-47792780D02*
X147166666Y-47792780D01*
X147166666Y-47792780D02*
X147071428Y-47840400D01*
X147071428Y-47840400D02*
X147023809Y-47888019D01*
X147023809Y-47888019D02*
X146976190Y-47983257D01*
X146976190Y-47983257D02*
X146976190Y-48078495D01*
X146976190Y-48078495D02*
X147023809Y-48173733D01*
X147023809Y-48173733D02*
X147071428Y-48221352D01*
X147071428Y-48221352D02*
X147166666Y-48268971D01*
X147166666Y-48268971D02*
X147357142Y-48316590D01*
X147357142Y-48316590D02*
X147452380Y-48364209D01*
X147452380Y-48364209D02*
X147499999Y-48411828D01*
X147499999Y-48411828D02*
X147547618Y-48507066D01*
X147547618Y-48507066D02*
X147547618Y-48602304D01*
X147547618Y-48602304D02*
X147499999Y-48697542D01*
X147499999Y-48697542D02*
X147452380Y-48745161D01*
X147452380Y-48745161D02*
X147357142Y-48792780D01*
X147357142Y-48792780D02*
X147119047Y-48792780D01*
X147119047Y-48792780D02*
X146976190Y-48745161D01*
X146547618Y-47792780D02*
X146547618Y-48792780D01*
X145547619Y-48745161D02*
X145642857Y-48792780D01*
X145642857Y-48792780D02*
X145785714Y-48792780D01*
X145785714Y-48792780D02*
X145928571Y-48745161D01*
X145928571Y-48745161D02*
X146023809Y-48649923D01*
X146023809Y-48649923D02*
X146071428Y-48554685D01*
X146071428Y-48554685D02*
X146119047Y-48364209D01*
X146119047Y-48364209D02*
X146119047Y-48221352D01*
X146119047Y-48221352D02*
X146071428Y-48030876D01*
X146071428Y-48030876D02*
X146023809Y-47935638D01*
X146023809Y-47935638D02*
X145928571Y-47840400D01*
X145928571Y-47840400D02*
X145785714Y-47792780D01*
X145785714Y-47792780D02*
X145690476Y-47792780D01*
X145690476Y-47792780D02*
X145547619Y-47840400D01*
X145547619Y-47840400D02*
X145500000Y-47888019D01*
X145500000Y-47888019D02*
X145500000Y-48221352D01*
X145500000Y-48221352D02*
X145690476Y-48221352D01*
X144357142Y-48078495D02*
X143880952Y-48078495D01*
X144452380Y-47792780D02*
X144119047Y-48792780D01*
X144119047Y-48792780D02*
X143785714Y-47792780D01*
X143452380Y-47792780D02*
X143452380Y-48792780D01*
X143452380Y-48792780D02*
X143119047Y-48078495D01*
X143119047Y-48078495D02*
X142785714Y-48792780D01*
X142785714Y-48792780D02*
X142785714Y-47792780D01*
X142309523Y-47792780D02*
X142309523Y-48792780D01*
X142309523Y-48792780D02*
X141928571Y-48792780D01*
X141928571Y-48792780D02*
X141833333Y-48745161D01*
X141833333Y-48745161D02*
X141785714Y-48697542D01*
X141785714Y-48697542D02*
X141738095Y-48602304D01*
X141738095Y-48602304D02*
X141738095Y-48459447D01*
X141738095Y-48459447D02*
X141785714Y-48364209D01*
X141785714Y-48364209D02*
X141833333Y-48316590D01*
X141833333Y-48316590D02*
X141928571Y-48268971D01*
X141928571Y-48268971D02*
X142309523Y-48268971D01*
X140833333Y-47792780D02*
X141309523Y-47792780D01*
X141309523Y-47792780D02*
X141309523Y-48792780D01*
X140499999Y-47792780D02*
X140499999Y-48792780D01*
X133047619Y-47888019D02*
X133095238Y-47840400D01*
X133095238Y-47840400D02*
X133238095Y-47792780D01*
X133238095Y-47792780D02*
X133333333Y-47792780D01*
X133333333Y-47792780D02*
X133476190Y-47840400D01*
X133476190Y-47840400D02*
X133571428Y-47935638D01*
X133571428Y-47935638D02*
X133619047Y-48030876D01*
X133619047Y-48030876D02*
X133666666Y-48221352D01*
X133666666Y-48221352D02*
X133666666Y-48364209D01*
X133666666Y-48364209D02*
X133619047Y-48554685D01*
X133619047Y-48554685D02*
X133571428Y-48649923D01*
X133571428Y-48649923D02*
X133476190Y-48745161D01*
X133476190Y-48745161D02*
X133333333Y-48792780D01*
X133333333Y-48792780D02*
X133238095Y-48792780D01*
X133238095Y-48792780D02*
X133095238Y-48745161D01*
X133095238Y-48745161D02*
X133047619Y-48697542D01*
X132428571Y-48792780D02*
X132238095Y-48792780D01*
X132238095Y-48792780D02*
X132142857Y-48745161D01*
X132142857Y-48745161D02*
X132047619Y-48649923D01*
X132047619Y-48649923D02*
X132000000Y-48459447D01*
X132000000Y-48459447D02*
X132000000Y-48126114D01*
X132000000Y-48126114D02*
X132047619Y-47935638D01*
X132047619Y-47935638D02*
X132142857Y-47840400D01*
X132142857Y-47840400D02*
X132238095Y-47792780D01*
X132238095Y-47792780D02*
X132428571Y-47792780D01*
X132428571Y-47792780D02*
X132523809Y-47840400D01*
X132523809Y-47840400D02*
X132619047Y-47935638D01*
X132619047Y-47935638D02*
X132666666Y-48126114D01*
X132666666Y-48126114D02*
X132666666Y-48459447D01*
X132666666Y-48459447D02*
X132619047Y-48649923D01*
X132619047Y-48649923D02*
X132523809Y-48745161D01*
X132523809Y-48745161D02*
X132428571Y-48792780D01*
X131571428Y-47792780D02*
X131571428Y-48792780D01*
X131571428Y-48792780D02*
X131238095Y-48078495D01*
X131238095Y-48078495D02*
X130904762Y-48792780D01*
X130904762Y-48792780D02*
X130904762Y-47792780D01*
X130428571Y-47792780D02*
X130428571Y-48792780D01*
X130428571Y-48792780D02*
X130047619Y-48792780D01*
X130047619Y-48792780D02*
X129952381Y-48745161D01*
X129952381Y-48745161D02*
X129904762Y-48697542D01*
X129904762Y-48697542D02*
X129857143Y-48602304D01*
X129857143Y-48602304D02*
X129857143Y-48459447D01*
X129857143Y-48459447D02*
X129904762Y-48364209D01*
X129904762Y-48364209D02*
X129952381Y-48316590D01*
X129952381Y-48316590D02*
X130047619Y-48268971D01*
X130047619Y-48268971D02*
X130428571Y-48268971D01*
X129476190Y-48078495D02*
X129000000Y-48078495D01*
X129571428Y-47792780D02*
X129238095Y-48792780D01*
X129238095Y-48792780D02*
X128904762Y-47792780D01*
X128000000Y-47792780D02*
X128333333Y-48268971D01*
X128571428Y-47792780D02*
X128571428Y-48792780D01*
X128571428Y-48792780D02*
X128190476Y-48792780D01*
X128190476Y-48792780D02*
X128095238Y-48745161D01*
X128095238Y-48745161D02*
X128047619Y-48697542D01*
X128047619Y-48697542D02*
X128000000Y-48602304D01*
X128000000Y-48602304D02*
X128000000Y-48459447D01*
X128000000Y-48459447D02*
X128047619Y-48364209D01*
X128047619Y-48364209D02*
X128095238Y-48316590D01*
X128095238Y-48316590D02*
X128190476Y-48268971D01*
X128190476Y-48268971D02*
X128571428Y-48268971D01*
X127619047Y-48078495D02*
X127142857Y-48078495D01*
X127714285Y-47792780D02*
X127380952Y-48792780D01*
X127380952Y-48792780D02*
X127047619Y-47792780D01*
X126857142Y-48792780D02*
X126285714Y-48792780D01*
X126571428Y-47792780D02*
X126571428Y-48792780D01*
X125761904Y-48792780D02*
X125571428Y-48792780D01*
X125571428Y-48792780D02*
X125476190Y-48745161D01*
X125476190Y-48745161D02*
X125380952Y-48649923D01*
X125380952Y-48649923D02*
X125333333Y-48459447D01*
X125333333Y-48459447D02*
X125333333Y-48126114D01*
X125333333Y-48126114D02*
X125380952Y-47935638D01*
X125380952Y-47935638D02*
X125476190Y-47840400D01*
X125476190Y-47840400D02*
X125571428Y-47792780D01*
X125571428Y-47792780D02*
X125761904Y-47792780D01*
X125761904Y-47792780D02*
X125857142Y-47840400D01*
X125857142Y-47840400D02*
X125952380Y-47935638D01*
X125952380Y-47935638D02*
X125999999Y-48126114D01*
X125999999Y-48126114D02*
X125999999Y-48459447D01*
X125999999Y-48459447D02*
X125952380Y-48649923D01*
X125952380Y-48649923D02*
X125857142Y-48745161D01*
X125857142Y-48745161D02*
X125761904Y-48792780D01*
X124333333Y-47792780D02*
X124666666Y-48268971D01*
X124904761Y-47792780D02*
X124904761Y-48792780D01*
X124904761Y-48792780D02*
X124523809Y-48792780D01*
X124523809Y-48792780D02*
X124428571Y-48745161D01*
X124428571Y-48745161D02*
X124380952Y-48697542D01*
X124380952Y-48697542D02*
X124333333Y-48602304D01*
X124333333Y-48602304D02*
X124333333Y-48459447D01*
X124333333Y-48459447D02*
X124380952Y-48364209D01*
X124380952Y-48364209D02*
X124428571Y-48316590D01*
X124428571Y-48316590D02*
X124523809Y-48268971D01*
X124523809Y-48268971D02*
X124904761Y-48268971D01*
D14*
X114357142Y-67439580D02*
X114309523Y-67487200D01*
X114309523Y-67487200D02*
X114166666Y-67534819D01*
X114166666Y-67534819D02*
X114071428Y-67534819D01*
X114071428Y-67534819D02*
X113928571Y-67487200D01*
X113928571Y-67487200D02*
X113833333Y-67391961D01*
X113833333Y-67391961D02*
X113785714Y-67296723D01*
X113785714Y-67296723D02*
X113738095Y-67106247D01*
X113738095Y-67106247D02*
X113738095Y-66963390D01*
X113738095Y-66963390D02*
X113785714Y-66772914D01*
X113785714Y-66772914D02*
X113833333Y-66677676D01*
X113833333Y-66677676D02*
X113928571Y-66582438D01*
X113928571Y-66582438D02*
X114071428Y-66534819D01*
X114071428Y-66534819D02*
X114166666Y-66534819D01*
X114166666Y-66534819D02*
X114309523Y-66582438D01*
X114309523Y-66582438D02*
X114357142Y-66630057D01*
X115309523Y-67534819D02*
X114738095Y-67534819D01*
X115023809Y-67534819D02*
X115023809Y-66534819D01*
X115023809Y-66534819D02*
X114928571Y-66677676D01*
X114928571Y-66677676D02*
X114833333Y-66772914D01*
X114833333Y-66772914D02*
X114738095Y-66820533D01*
X115928571Y-66534819D02*
X116023809Y-66534819D01*
X116023809Y-66534819D02*
X116119047Y-66582438D01*
X116119047Y-66582438D02*
X116166666Y-66630057D01*
X116166666Y-66630057D02*
X116214285Y-66725295D01*
X116214285Y-66725295D02*
X116261904Y-66915771D01*
X116261904Y-66915771D02*
X116261904Y-67153866D01*
X116261904Y-67153866D02*
X116214285Y-67344342D01*
X116214285Y-67344342D02*
X116166666Y-67439580D01*
X116166666Y-67439580D02*
X116119047Y-67487200D01*
X116119047Y-67487200D02*
X116023809Y-67534819D01*
X116023809Y-67534819D02*
X115928571Y-67534819D01*
X115928571Y-67534819D02*
X115833333Y-67487200D01*
X115833333Y-67487200D02*
X115785714Y-67439580D01*
X115785714Y-67439580D02*
X115738095Y-67344342D01*
X115738095Y-67344342D02*
X115690476Y-67153866D01*
X115690476Y-67153866D02*
X115690476Y-66915771D01*
X115690476Y-66915771D02*
X115738095Y-66725295D01*
X115738095Y-66725295D02*
X115785714Y-66630057D01*
X115785714Y-66630057D02*
X115833333Y-66582438D01*
X115833333Y-66582438D02*
X115928571Y-66534819D01*
X173956819Y-110841904D02*
X173956819Y-110270476D01*
X174956819Y-110556190D02*
X173956819Y-110556190D01*
X174956819Y-109937142D02*
X173956819Y-109937142D01*
X173956819Y-109937142D02*
X173956819Y-109556190D01*
X173956819Y-109556190D02*
X174004438Y-109460952D01*
X174004438Y-109460952D02*
X174052057Y-109413333D01*
X174052057Y-109413333D02*
X174147295Y-109365714D01*
X174147295Y-109365714D02*
X174290152Y-109365714D01*
X174290152Y-109365714D02*
X174385390Y-109413333D01*
X174385390Y-109413333D02*
X174433009Y-109460952D01*
X174433009Y-109460952D02*
X174480628Y-109556190D01*
X174480628Y-109556190D02*
X174480628Y-109937142D01*
X174052057Y-108984761D02*
X174004438Y-108937142D01*
X174004438Y-108937142D02*
X173956819Y-108841904D01*
X173956819Y-108841904D02*
X173956819Y-108603809D01*
X173956819Y-108603809D02*
X174004438Y-108508571D01*
X174004438Y-108508571D02*
X174052057Y-108460952D01*
X174052057Y-108460952D02*
X174147295Y-108413333D01*
X174147295Y-108413333D02*
X174242533Y-108413333D01*
X174242533Y-108413333D02*
X174385390Y-108460952D01*
X174385390Y-108460952D02*
X174956819Y-109032380D01*
X174956819Y-109032380D02*
X174956819Y-108413333D01*
X140954819Y-78746666D02*
X140478628Y-79079999D01*
X140954819Y-79318094D02*
X139954819Y-79318094D01*
X139954819Y-79318094D02*
X139954819Y-78937142D01*
X139954819Y-78937142D02*
X140002438Y-78841904D01*
X140002438Y-78841904D02*
X140050057Y-78794285D01*
X140050057Y-78794285D02*
X140145295Y-78746666D01*
X140145295Y-78746666D02*
X140288152Y-78746666D01*
X140288152Y-78746666D02*
X140383390Y-78794285D01*
X140383390Y-78794285D02*
X140431009Y-78841904D01*
X140431009Y-78841904D02*
X140478628Y-78937142D01*
X140478628Y-78937142D02*
X140478628Y-79318094D01*
X139954819Y-77841904D02*
X139954819Y-78318094D01*
X139954819Y-78318094D02*
X140431009Y-78365713D01*
X140431009Y-78365713D02*
X140383390Y-78318094D01*
X140383390Y-78318094D02*
X140335771Y-78222856D01*
X140335771Y-78222856D02*
X140335771Y-77984761D01*
X140335771Y-77984761D02*
X140383390Y-77889523D01*
X140383390Y-77889523D02*
X140431009Y-77841904D01*
X140431009Y-77841904D02*
X140526247Y-77794285D01*
X140526247Y-77794285D02*
X140764342Y-77794285D01*
X140764342Y-77794285D02*
X140859580Y-77841904D01*
X140859580Y-77841904D02*
X140907200Y-77889523D01*
X140907200Y-77889523D02*
X140954819Y-77984761D01*
X140954819Y-77984761D02*
X140954819Y-78222856D01*
X140954819Y-78222856D02*
X140907200Y-78318094D01*
X140907200Y-78318094D02*
X140859580Y-78365713D01*
X120238094Y-55625180D02*
X119666666Y-55625180D01*
X119952380Y-54625180D02*
X119952380Y-55625180D01*
X119333332Y-54625180D02*
X119333332Y-55625180D01*
X119333332Y-55625180D02*
X118952380Y-55625180D01*
X118952380Y-55625180D02*
X118857142Y-55577561D01*
X118857142Y-55577561D02*
X118809523Y-55529942D01*
X118809523Y-55529942D02*
X118761904Y-55434704D01*
X118761904Y-55434704D02*
X118761904Y-55291847D01*
X118761904Y-55291847D02*
X118809523Y-55196609D01*
X118809523Y-55196609D02*
X118857142Y-55148990D01*
X118857142Y-55148990D02*
X118952380Y-55101371D01*
X118952380Y-55101371D02*
X119333332Y-55101371D01*
X117809523Y-54625180D02*
X118380951Y-54625180D01*
X118095237Y-54625180D02*
X118095237Y-55625180D01*
X118095237Y-55625180D02*
X118190475Y-55482323D01*
X118190475Y-55482323D02*
X118285713Y-55387085D01*
X118285713Y-55387085D02*
X118380951Y-55339466D01*
X116952380Y-55291847D02*
X116952380Y-54625180D01*
X117190475Y-55672800D02*
X117428570Y-54958514D01*
X117428570Y-54958514D02*
X116809523Y-54958514D01*
X119761904Y-49623180D02*
X119190476Y-49623180D01*
X119476190Y-48623180D02*
X119476190Y-49623180D01*
X118857142Y-48623180D02*
X118857142Y-49623180D01*
X118857142Y-49623180D02*
X118476190Y-49623180D01*
X118476190Y-49623180D02*
X118380952Y-49575561D01*
X118380952Y-49575561D02*
X118333333Y-49527942D01*
X118333333Y-49527942D02*
X118285714Y-49432704D01*
X118285714Y-49432704D02*
X118285714Y-49289847D01*
X118285714Y-49289847D02*
X118333333Y-49194609D01*
X118333333Y-49194609D02*
X118380952Y-49146990D01*
X118380952Y-49146990D02*
X118476190Y-49099371D01*
X118476190Y-49099371D02*
X118857142Y-49099371D01*
X117428571Y-49623180D02*
X117619047Y-49623180D01*
X117619047Y-49623180D02*
X117714285Y-49575561D01*
X117714285Y-49575561D02*
X117761904Y-49527942D01*
X117761904Y-49527942D02*
X117857142Y-49385085D01*
X117857142Y-49385085D02*
X117904761Y-49194609D01*
X117904761Y-49194609D02*
X117904761Y-48813657D01*
X117904761Y-48813657D02*
X117857142Y-48718419D01*
X117857142Y-48718419D02*
X117809523Y-48670800D01*
X117809523Y-48670800D02*
X117714285Y-48623180D01*
X117714285Y-48623180D02*
X117523809Y-48623180D01*
X117523809Y-48623180D02*
X117428571Y-48670800D01*
X117428571Y-48670800D02*
X117380952Y-48718419D01*
X117380952Y-48718419D02*
X117333333Y-48813657D01*
X117333333Y-48813657D02*
X117333333Y-49051752D01*
X117333333Y-49051752D02*
X117380952Y-49146990D01*
X117380952Y-49146990D02*
X117428571Y-49194609D01*
X117428571Y-49194609D02*
X117523809Y-49242228D01*
X117523809Y-49242228D02*
X117714285Y-49242228D01*
X117714285Y-49242228D02*
X117809523Y-49194609D01*
X117809523Y-49194609D02*
X117857142Y-49146990D01*
X117857142Y-49146990D02*
X117904761Y-49051752D01*
X159859580Y-83222857D02*
X159907200Y-83270476D01*
X159907200Y-83270476D02*
X159954819Y-83413333D01*
X159954819Y-83413333D02*
X159954819Y-83508571D01*
X159954819Y-83508571D02*
X159907200Y-83651428D01*
X159907200Y-83651428D02*
X159811961Y-83746666D01*
X159811961Y-83746666D02*
X159716723Y-83794285D01*
X159716723Y-83794285D02*
X159526247Y-83841904D01*
X159526247Y-83841904D02*
X159383390Y-83841904D01*
X159383390Y-83841904D02*
X159192914Y-83794285D01*
X159192914Y-83794285D02*
X159097676Y-83746666D01*
X159097676Y-83746666D02*
X159002438Y-83651428D01*
X159002438Y-83651428D02*
X158954819Y-83508571D01*
X158954819Y-83508571D02*
X158954819Y-83413333D01*
X158954819Y-83413333D02*
X159002438Y-83270476D01*
X159002438Y-83270476D02*
X159050057Y-83222857D01*
X159954819Y-82270476D02*
X159954819Y-82841904D01*
X159954819Y-82556190D02*
X158954819Y-82556190D01*
X158954819Y-82556190D02*
X159097676Y-82651428D01*
X159097676Y-82651428D02*
X159192914Y-82746666D01*
X159192914Y-82746666D02*
X159240533Y-82841904D01*
X159050057Y-81889523D02*
X159002438Y-81841904D01*
X159002438Y-81841904D02*
X158954819Y-81746666D01*
X158954819Y-81746666D02*
X158954819Y-81508571D01*
X158954819Y-81508571D02*
X159002438Y-81413333D01*
X159002438Y-81413333D02*
X159050057Y-81365714D01*
X159050057Y-81365714D02*
X159145295Y-81318095D01*
X159145295Y-81318095D02*
X159240533Y-81318095D01*
X159240533Y-81318095D02*
X159383390Y-81365714D01*
X159383390Y-81365714D02*
X159954819Y-81937142D01*
X159954819Y-81937142D02*
X159954819Y-81318095D01*
X144454819Y-79722857D02*
X143978628Y-80056190D01*
X144454819Y-80294285D02*
X143454819Y-80294285D01*
X143454819Y-80294285D02*
X143454819Y-79913333D01*
X143454819Y-79913333D02*
X143502438Y-79818095D01*
X143502438Y-79818095D02*
X143550057Y-79770476D01*
X143550057Y-79770476D02*
X143645295Y-79722857D01*
X143645295Y-79722857D02*
X143788152Y-79722857D01*
X143788152Y-79722857D02*
X143883390Y-79770476D01*
X143883390Y-79770476D02*
X143931009Y-79818095D01*
X143931009Y-79818095D02*
X143978628Y-79913333D01*
X143978628Y-79913333D02*
X143978628Y-80294285D01*
X144454819Y-78770476D02*
X144454819Y-79341904D01*
X144454819Y-79056190D02*
X143454819Y-79056190D01*
X143454819Y-79056190D02*
X143597676Y-79151428D01*
X143597676Y-79151428D02*
X143692914Y-79246666D01*
X143692914Y-79246666D02*
X143740533Y-79341904D01*
X143454819Y-78151428D02*
X143454819Y-78056190D01*
X143454819Y-78056190D02*
X143502438Y-77960952D01*
X143502438Y-77960952D02*
X143550057Y-77913333D01*
X143550057Y-77913333D02*
X143645295Y-77865714D01*
X143645295Y-77865714D02*
X143835771Y-77818095D01*
X143835771Y-77818095D02*
X144073866Y-77818095D01*
X144073866Y-77818095D02*
X144264342Y-77865714D01*
X144264342Y-77865714D02*
X144359580Y-77913333D01*
X144359580Y-77913333D02*
X144407200Y-77960952D01*
X144407200Y-77960952D02*
X144454819Y-78056190D01*
X144454819Y-78056190D02*
X144454819Y-78151428D01*
X144454819Y-78151428D02*
X144407200Y-78246666D01*
X144407200Y-78246666D02*
X144359580Y-78294285D01*
X144359580Y-78294285D02*
X144264342Y-78341904D01*
X144264342Y-78341904D02*
X144073866Y-78389523D01*
X144073866Y-78389523D02*
X143835771Y-78389523D01*
X143835771Y-78389523D02*
X143645295Y-78341904D01*
X143645295Y-78341904D02*
X143550057Y-78294285D01*
X143550057Y-78294285D02*
X143502438Y-78246666D01*
X143502438Y-78246666D02*
X143454819Y-78151428D01*
X197423987Y-88819197D02*
X196947797Y-88819197D01*
X196947797Y-88819197D02*
X196947797Y-87819197D01*
X197709702Y-88771578D02*
X197852559Y-88819197D01*
X197852559Y-88819197D02*
X198090654Y-88819197D01*
X198090654Y-88819197D02*
X198185892Y-88771578D01*
X198185892Y-88771578D02*
X198233511Y-88723958D01*
X198233511Y-88723958D02*
X198281130Y-88628720D01*
X198281130Y-88628720D02*
X198281130Y-88533482D01*
X198281130Y-88533482D02*
X198233511Y-88438244D01*
X198233511Y-88438244D02*
X198185892Y-88390625D01*
X198185892Y-88390625D02*
X198090654Y-88343006D01*
X198090654Y-88343006D02*
X197900178Y-88295387D01*
X197900178Y-88295387D02*
X197804940Y-88247768D01*
X197804940Y-88247768D02*
X197757321Y-88200149D01*
X197757321Y-88200149D02*
X197709702Y-88104911D01*
X197709702Y-88104911D02*
X197709702Y-88009673D01*
X197709702Y-88009673D02*
X197757321Y-87914435D01*
X197757321Y-87914435D02*
X197804940Y-87866816D01*
X197804940Y-87866816D02*
X197900178Y-87819197D01*
X197900178Y-87819197D02*
X198138273Y-87819197D01*
X198138273Y-87819197D02*
X198281130Y-87866816D01*
X198662083Y-87914435D02*
X198709702Y-87866816D01*
X198709702Y-87866816D02*
X198804940Y-87819197D01*
X198804940Y-87819197D02*
X199043035Y-87819197D01*
X199043035Y-87819197D02*
X199138273Y-87866816D01*
X199138273Y-87866816D02*
X199185892Y-87914435D01*
X199185892Y-87914435D02*
X199233511Y-88009673D01*
X199233511Y-88009673D02*
X199233511Y-88104911D01*
X199233511Y-88104911D02*
X199185892Y-88247768D01*
X199185892Y-88247768D02*
X198614464Y-88819197D01*
X198614464Y-88819197D02*
X199233511Y-88819197D01*
X115238094Y-49625180D02*
X114666666Y-49625180D01*
X114952380Y-48625180D02*
X114952380Y-49625180D01*
X114333332Y-48625180D02*
X114333332Y-49625180D01*
X114333332Y-49625180D02*
X113952380Y-49625180D01*
X113952380Y-49625180D02*
X113857142Y-49577561D01*
X113857142Y-49577561D02*
X113809523Y-49529942D01*
X113809523Y-49529942D02*
X113761904Y-49434704D01*
X113761904Y-49434704D02*
X113761904Y-49291847D01*
X113761904Y-49291847D02*
X113809523Y-49196609D01*
X113809523Y-49196609D02*
X113857142Y-49148990D01*
X113857142Y-49148990D02*
X113952380Y-49101371D01*
X113952380Y-49101371D02*
X114333332Y-49101371D01*
X112809523Y-48625180D02*
X113380951Y-48625180D01*
X113095237Y-48625180D02*
X113095237Y-49625180D01*
X113095237Y-49625180D02*
X113190475Y-49482323D01*
X113190475Y-49482323D02*
X113285713Y-49387085D01*
X113285713Y-49387085D02*
X113380951Y-49339466D01*
X112190475Y-49625180D02*
X112095237Y-49625180D01*
X112095237Y-49625180D02*
X111999999Y-49577561D01*
X111999999Y-49577561D02*
X111952380Y-49529942D01*
X111952380Y-49529942D02*
X111904761Y-49434704D01*
X111904761Y-49434704D02*
X111857142Y-49244228D01*
X111857142Y-49244228D02*
X111857142Y-49006133D01*
X111857142Y-49006133D02*
X111904761Y-48815657D01*
X111904761Y-48815657D02*
X111952380Y-48720419D01*
X111952380Y-48720419D02*
X111999999Y-48672800D01*
X111999999Y-48672800D02*
X112095237Y-48625180D01*
X112095237Y-48625180D02*
X112190475Y-48625180D01*
X112190475Y-48625180D02*
X112285713Y-48672800D01*
X112285713Y-48672800D02*
X112333332Y-48720419D01*
X112333332Y-48720419D02*
X112380951Y-48815657D01*
X112380951Y-48815657D02*
X112428570Y-49006133D01*
X112428570Y-49006133D02*
X112428570Y-49244228D01*
X112428570Y-49244228D02*
X112380951Y-49434704D01*
X112380951Y-49434704D02*
X112333332Y-49529942D01*
X112333332Y-49529942D02*
X112285713Y-49577561D01*
X112285713Y-49577561D02*
X112190475Y-49625180D01*
X136954819Y-78746666D02*
X136478628Y-79079999D01*
X136954819Y-79318094D02*
X135954819Y-79318094D01*
X135954819Y-79318094D02*
X135954819Y-78937142D01*
X135954819Y-78937142D02*
X136002438Y-78841904D01*
X136002438Y-78841904D02*
X136050057Y-78794285D01*
X136050057Y-78794285D02*
X136145295Y-78746666D01*
X136145295Y-78746666D02*
X136288152Y-78746666D01*
X136288152Y-78746666D02*
X136383390Y-78794285D01*
X136383390Y-78794285D02*
X136431009Y-78841904D01*
X136431009Y-78841904D02*
X136478628Y-78937142D01*
X136478628Y-78937142D02*
X136478628Y-79318094D01*
X136383390Y-78175237D02*
X136335771Y-78270475D01*
X136335771Y-78270475D02*
X136288152Y-78318094D01*
X136288152Y-78318094D02*
X136192914Y-78365713D01*
X136192914Y-78365713D02*
X136145295Y-78365713D01*
X136145295Y-78365713D02*
X136050057Y-78318094D01*
X136050057Y-78318094D02*
X136002438Y-78270475D01*
X136002438Y-78270475D02*
X135954819Y-78175237D01*
X135954819Y-78175237D02*
X135954819Y-77984761D01*
X135954819Y-77984761D02*
X136002438Y-77889523D01*
X136002438Y-77889523D02*
X136050057Y-77841904D01*
X136050057Y-77841904D02*
X136145295Y-77794285D01*
X136145295Y-77794285D02*
X136192914Y-77794285D01*
X136192914Y-77794285D02*
X136288152Y-77841904D01*
X136288152Y-77841904D02*
X136335771Y-77889523D01*
X136335771Y-77889523D02*
X136383390Y-77984761D01*
X136383390Y-77984761D02*
X136383390Y-78175237D01*
X136383390Y-78175237D02*
X136431009Y-78270475D01*
X136431009Y-78270475D02*
X136478628Y-78318094D01*
X136478628Y-78318094D02*
X136573866Y-78365713D01*
X136573866Y-78365713D02*
X136764342Y-78365713D01*
X136764342Y-78365713D02*
X136859580Y-78318094D01*
X136859580Y-78318094D02*
X136907200Y-78270475D01*
X136907200Y-78270475D02*
X136954819Y-78175237D01*
X136954819Y-78175237D02*
X136954819Y-77984761D01*
X136954819Y-77984761D02*
X136907200Y-77889523D01*
X136907200Y-77889523D02*
X136859580Y-77841904D01*
X136859580Y-77841904D02*
X136764342Y-77794285D01*
X136764342Y-77794285D02*
X136573866Y-77794285D01*
X136573866Y-77794285D02*
X136478628Y-77841904D01*
X136478628Y-77841904D02*
X136431009Y-77889523D01*
X136431009Y-77889523D02*
X136383390Y-77984761D01*
X174359580Y-73222857D02*
X174407200Y-73270476D01*
X174407200Y-73270476D02*
X174454819Y-73413333D01*
X174454819Y-73413333D02*
X174454819Y-73508571D01*
X174454819Y-73508571D02*
X174407200Y-73651428D01*
X174407200Y-73651428D02*
X174311961Y-73746666D01*
X174311961Y-73746666D02*
X174216723Y-73794285D01*
X174216723Y-73794285D02*
X174026247Y-73841904D01*
X174026247Y-73841904D02*
X173883390Y-73841904D01*
X173883390Y-73841904D02*
X173692914Y-73794285D01*
X173692914Y-73794285D02*
X173597676Y-73746666D01*
X173597676Y-73746666D02*
X173502438Y-73651428D01*
X173502438Y-73651428D02*
X173454819Y-73508571D01*
X173454819Y-73508571D02*
X173454819Y-73413333D01*
X173454819Y-73413333D02*
X173502438Y-73270476D01*
X173502438Y-73270476D02*
X173550057Y-73222857D01*
X174454819Y-72270476D02*
X174454819Y-72841904D01*
X174454819Y-72556190D02*
X173454819Y-72556190D01*
X173454819Y-72556190D02*
X173597676Y-72651428D01*
X173597676Y-72651428D02*
X173692914Y-72746666D01*
X173692914Y-72746666D02*
X173740533Y-72841904D01*
X173454819Y-71413333D02*
X173454819Y-71603809D01*
X173454819Y-71603809D02*
X173502438Y-71699047D01*
X173502438Y-71699047D02*
X173550057Y-71746666D01*
X173550057Y-71746666D02*
X173692914Y-71841904D01*
X173692914Y-71841904D02*
X173883390Y-71889523D01*
X173883390Y-71889523D02*
X174264342Y-71889523D01*
X174264342Y-71889523D02*
X174359580Y-71841904D01*
X174359580Y-71841904D02*
X174407200Y-71794285D01*
X174407200Y-71794285D02*
X174454819Y-71699047D01*
X174454819Y-71699047D02*
X174454819Y-71508571D01*
X174454819Y-71508571D02*
X174407200Y-71413333D01*
X174407200Y-71413333D02*
X174359580Y-71365714D01*
X174359580Y-71365714D02*
X174264342Y-71318095D01*
X174264342Y-71318095D02*
X174026247Y-71318095D01*
X174026247Y-71318095D02*
X173931009Y-71365714D01*
X173931009Y-71365714D02*
X173883390Y-71413333D01*
X173883390Y-71413333D02*
X173835771Y-71508571D01*
X173835771Y-71508571D02*
X173835771Y-71699047D01*
X173835771Y-71699047D02*
X173883390Y-71794285D01*
X173883390Y-71794285D02*
X173931009Y-71841904D01*
X173931009Y-71841904D02*
X174026247Y-71889523D01*
X162238095Y-70034819D02*
X162238095Y-70844342D01*
X162238095Y-70844342D02*
X162285714Y-70939580D01*
X162285714Y-70939580D02*
X162333333Y-70987200D01*
X162333333Y-70987200D02*
X162428571Y-71034819D01*
X162428571Y-71034819D02*
X162619047Y-71034819D01*
X162619047Y-71034819D02*
X162714285Y-70987200D01*
X162714285Y-70987200D02*
X162761904Y-70939580D01*
X162761904Y-70939580D02*
X162809523Y-70844342D01*
X162809523Y-70844342D02*
X162809523Y-70034819D01*
X163190476Y-70034819D02*
X163809523Y-70034819D01*
X163809523Y-70034819D02*
X163476190Y-70415771D01*
X163476190Y-70415771D02*
X163619047Y-70415771D01*
X163619047Y-70415771D02*
X163714285Y-70463390D01*
X163714285Y-70463390D02*
X163761904Y-70511009D01*
X163761904Y-70511009D02*
X163809523Y-70606247D01*
X163809523Y-70606247D02*
X163809523Y-70844342D01*
X163809523Y-70844342D02*
X163761904Y-70939580D01*
X163761904Y-70939580D02*
X163714285Y-70987200D01*
X163714285Y-70987200D02*
X163619047Y-71034819D01*
X163619047Y-71034819D02*
X163333333Y-71034819D01*
X163333333Y-71034819D02*
X163238095Y-70987200D01*
X163238095Y-70987200D02*
X163190476Y-70939580D01*
X177359580Y-73222857D02*
X177407200Y-73270476D01*
X177407200Y-73270476D02*
X177454819Y-73413333D01*
X177454819Y-73413333D02*
X177454819Y-73508571D01*
X177454819Y-73508571D02*
X177407200Y-73651428D01*
X177407200Y-73651428D02*
X177311961Y-73746666D01*
X177311961Y-73746666D02*
X177216723Y-73794285D01*
X177216723Y-73794285D02*
X177026247Y-73841904D01*
X177026247Y-73841904D02*
X176883390Y-73841904D01*
X176883390Y-73841904D02*
X176692914Y-73794285D01*
X176692914Y-73794285D02*
X176597676Y-73746666D01*
X176597676Y-73746666D02*
X176502438Y-73651428D01*
X176502438Y-73651428D02*
X176454819Y-73508571D01*
X176454819Y-73508571D02*
X176454819Y-73413333D01*
X176454819Y-73413333D02*
X176502438Y-73270476D01*
X176502438Y-73270476D02*
X176550057Y-73222857D01*
X177454819Y-72270476D02*
X177454819Y-72841904D01*
X177454819Y-72556190D02*
X176454819Y-72556190D01*
X176454819Y-72556190D02*
X176597676Y-72651428D01*
X176597676Y-72651428D02*
X176692914Y-72746666D01*
X176692914Y-72746666D02*
X176740533Y-72841904D01*
X177454819Y-71794285D02*
X177454819Y-71603809D01*
X177454819Y-71603809D02*
X177407200Y-71508571D01*
X177407200Y-71508571D02*
X177359580Y-71460952D01*
X177359580Y-71460952D02*
X177216723Y-71365714D01*
X177216723Y-71365714D02*
X177026247Y-71318095D01*
X177026247Y-71318095D02*
X176645295Y-71318095D01*
X176645295Y-71318095D02*
X176550057Y-71365714D01*
X176550057Y-71365714D02*
X176502438Y-71413333D01*
X176502438Y-71413333D02*
X176454819Y-71508571D01*
X176454819Y-71508571D02*
X176454819Y-71699047D01*
X176454819Y-71699047D02*
X176502438Y-71794285D01*
X176502438Y-71794285D02*
X176550057Y-71841904D01*
X176550057Y-71841904D02*
X176645295Y-71889523D01*
X176645295Y-71889523D02*
X176883390Y-71889523D01*
X176883390Y-71889523D02*
X176978628Y-71841904D01*
X176978628Y-71841904D02*
X177026247Y-71794285D01*
X177026247Y-71794285D02*
X177073866Y-71699047D01*
X177073866Y-71699047D02*
X177073866Y-71508571D01*
X177073866Y-71508571D02*
X177026247Y-71413333D01*
X177026247Y-71413333D02*
X176978628Y-71365714D01*
X176978628Y-71365714D02*
X176883390Y-71318095D01*
X186454819Y-52318094D02*
X186454819Y-51746666D01*
X187454819Y-52032380D02*
X186454819Y-52032380D01*
X187454819Y-51413332D02*
X186454819Y-51413332D01*
X186454819Y-51413332D02*
X186454819Y-51032380D01*
X186454819Y-51032380D02*
X186502438Y-50937142D01*
X186502438Y-50937142D02*
X186550057Y-50889523D01*
X186550057Y-50889523D02*
X186645295Y-50841904D01*
X186645295Y-50841904D02*
X186788152Y-50841904D01*
X186788152Y-50841904D02*
X186883390Y-50889523D01*
X186883390Y-50889523D02*
X186931009Y-50937142D01*
X186931009Y-50937142D02*
X186978628Y-51032380D01*
X186978628Y-51032380D02*
X186978628Y-51413332D01*
X187454819Y-49889523D02*
X187454819Y-50460951D01*
X187454819Y-50175237D02*
X186454819Y-50175237D01*
X186454819Y-50175237D02*
X186597676Y-50270475D01*
X186597676Y-50270475D02*
X186692914Y-50365713D01*
X186692914Y-50365713D02*
X186740533Y-50460951D01*
X186454819Y-48984761D02*
X186454819Y-49460951D01*
X186454819Y-49460951D02*
X186931009Y-49508570D01*
X186931009Y-49508570D02*
X186883390Y-49460951D01*
X186883390Y-49460951D02*
X186835771Y-49365713D01*
X186835771Y-49365713D02*
X186835771Y-49127618D01*
X186835771Y-49127618D02*
X186883390Y-49032380D01*
X186883390Y-49032380D02*
X186931009Y-48984761D01*
X186931009Y-48984761D02*
X187026247Y-48937142D01*
X187026247Y-48937142D02*
X187264342Y-48937142D01*
X187264342Y-48937142D02*
X187359580Y-48984761D01*
X187359580Y-48984761D02*
X187407200Y-49032380D01*
X187407200Y-49032380D02*
X187454819Y-49127618D01*
X187454819Y-49127618D02*
X187454819Y-49365713D01*
X187454819Y-49365713D02*
X187407200Y-49460951D01*
X187407200Y-49460951D02*
X187359580Y-49508570D01*
X192952819Y-51841904D02*
X192952819Y-51270476D01*
X193952819Y-51556190D02*
X192952819Y-51556190D01*
X193952819Y-50937142D02*
X192952819Y-50937142D01*
X192952819Y-50937142D02*
X192952819Y-50556190D01*
X192952819Y-50556190D02*
X193000438Y-50460952D01*
X193000438Y-50460952D02*
X193048057Y-50413333D01*
X193048057Y-50413333D02*
X193143295Y-50365714D01*
X193143295Y-50365714D02*
X193286152Y-50365714D01*
X193286152Y-50365714D02*
X193381390Y-50413333D01*
X193381390Y-50413333D02*
X193429009Y-50460952D01*
X193429009Y-50460952D02*
X193476628Y-50556190D01*
X193476628Y-50556190D02*
X193476628Y-50937142D01*
X193381390Y-49794285D02*
X193333771Y-49889523D01*
X193333771Y-49889523D02*
X193286152Y-49937142D01*
X193286152Y-49937142D02*
X193190914Y-49984761D01*
X193190914Y-49984761D02*
X193143295Y-49984761D01*
X193143295Y-49984761D02*
X193048057Y-49937142D01*
X193048057Y-49937142D02*
X193000438Y-49889523D01*
X193000438Y-49889523D02*
X192952819Y-49794285D01*
X192952819Y-49794285D02*
X192952819Y-49603809D01*
X192952819Y-49603809D02*
X193000438Y-49508571D01*
X193000438Y-49508571D02*
X193048057Y-49460952D01*
X193048057Y-49460952D02*
X193143295Y-49413333D01*
X193143295Y-49413333D02*
X193190914Y-49413333D01*
X193190914Y-49413333D02*
X193286152Y-49460952D01*
X193286152Y-49460952D02*
X193333771Y-49508571D01*
X193333771Y-49508571D02*
X193381390Y-49603809D01*
X193381390Y-49603809D02*
X193381390Y-49794285D01*
X193381390Y-49794285D02*
X193429009Y-49889523D01*
X193429009Y-49889523D02*
X193476628Y-49937142D01*
X193476628Y-49937142D02*
X193571866Y-49984761D01*
X193571866Y-49984761D02*
X193762342Y-49984761D01*
X193762342Y-49984761D02*
X193857580Y-49937142D01*
X193857580Y-49937142D02*
X193905200Y-49889523D01*
X193905200Y-49889523D02*
X193952819Y-49794285D01*
X193952819Y-49794285D02*
X193952819Y-49603809D01*
X193952819Y-49603809D02*
X193905200Y-49508571D01*
X193905200Y-49508571D02*
X193857580Y-49460952D01*
X193857580Y-49460952D02*
X193762342Y-49413333D01*
X193762342Y-49413333D02*
X193571866Y-49413333D01*
X193571866Y-49413333D02*
X193476628Y-49460952D01*
X193476628Y-49460952D02*
X193429009Y-49508571D01*
X193429009Y-49508571D02*
X193381390Y-49603809D01*
X139859580Y-102586666D02*
X139907200Y-102634285D01*
X139907200Y-102634285D02*
X139954819Y-102777142D01*
X139954819Y-102777142D02*
X139954819Y-102872380D01*
X139954819Y-102872380D02*
X139907200Y-103015237D01*
X139907200Y-103015237D02*
X139811961Y-103110475D01*
X139811961Y-103110475D02*
X139716723Y-103158094D01*
X139716723Y-103158094D02*
X139526247Y-103205713D01*
X139526247Y-103205713D02*
X139383390Y-103205713D01*
X139383390Y-103205713D02*
X139192914Y-103158094D01*
X139192914Y-103158094D02*
X139097676Y-103110475D01*
X139097676Y-103110475D02*
X139002438Y-103015237D01*
X139002438Y-103015237D02*
X138954819Y-102872380D01*
X138954819Y-102872380D02*
X138954819Y-102777142D01*
X138954819Y-102777142D02*
X139002438Y-102634285D01*
X139002438Y-102634285D02*
X139050057Y-102586666D01*
X138954819Y-102253332D02*
X138954819Y-101634285D01*
X138954819Y-101634285D02*
X139335771Y-101967618D01*
X139335771Y-101967618D02*
X139335771Y-101824761D01*
X139335771Y-101824761D02*
X139383390Y-101729523D01*
X139383390Y-101729523D02*
X139431009Y-101681904D01*
X139431009Y-101681904D02*
X139526247Y-101634285D01*
X139526247Y-101634285D02*
X139764342Y-101634285D01*
X139764342Y-101634285D02*
X139859580Y-101681904D01*
X139859580Y-101681904D02*
X139907200Y-101729523D01*
X139907200Y-101729523D02*
X139954819Y-101824761D01*
X139954819Y-101824761D02*
X139954819Y-102110475D01*
X139954819Y-102110475D02*
X139907200Y-102205713D01*
X139907200Y-102205713D02*
X139859580Y-102253332D01*
X197397630Y-80164319D02*
X196921440Y-80164319D01*
X196921440Y-80164319D02*
X196921440Y-79164319D01*
X197683345Y-80116700D02*
X197826202Y-80164319D01*
X197826202Y-80164319D02*
X198064297Y-80164319D01*
X198064297Y-80164319D02*
X198159535Y-80116700D01*
X198159535Y-80116700D02*
X198207154Y-80069080D01*
X198207154Y-80069080D02*
X198254773Y-79973842D01*
X198254773Y-79973842D02*
X198254773Y-79878604D01*
X198254773Y-79878604D02*
X198207154Y-79783366D01*
X198207154Y-79783366D02*
X198159535Y-79735747D01*
X198159535Y-79735747D02*
X198064297Y-79688128D01*
X198064297Y-79688128D02*
X197873821Y-79640509D01*
X197873821Y-79640509D02*
X197778583Y-79592890D01*
X197778583Y-79592890D02*
X197730964Y-79545271D01*
X197730964Y-79545271D02*
X197683345Y-79450033D01*
X197683345Y-79450033D02*
X197683345Y-79354795D01*
X197683345Y-79354795D02*
X197730964Y-79259557D01*
X197730964Y-79259557D02*
X197778583Y-79211938D01*
X197778583Y-79211938D02*
X197873821Y-79164319D01*
X197873821Y-79164319D02*
X198111916Y-79164319D01*
X198111916Y-79164319D02*
X198254773Y-79211938D01*
X199207154Y-80164319D02*
X198635726Y-80164319D01*
X198921440Y-80164319D02*
X198921440Y-79164319D01*
X198921440Y-79164319D02*
X198826202Y-79307176D01*
X198826202Y-79307176D02*
X198730964Y-79402414D01*
X198730964Y-79402414D02*
X198635726Y-79450033D01*
X197738095Y-106834819D02*
X197738095Y-105834819D01*
X197738095Y-106311009D02*
X198309523Y-106311009D01*
X198309523Y-106834819D02*
X198309523Y-105834819D01*
X198738095Y-105930057D02*
X198785714Y-105882438D01*
X198785714Y-105882438D02*
X198880952Y-105834819D01*
X198880952Y-105834819D02*
X199119047Y-105834819D01*
X199119047Y-105834819D02*
X199214285Y-105882438D01*
X199214285Y-105882438D02*
X199261904Y-105930057D01*
X199261904Y-105930057D02*
X199309523Y-106025295D01*
X199309523Y-106025295D02*
X199309523Y-106120533D01*
X199309523Y-106120533D02*
X199261904Y-106263390D01*
X199261904Y-106263390D02*
X198690476Y-106834819D01*
X198690476Y-106834819D02*
X199309523Y-106834819D01*
X186456819Y-61318094D02*
X186456819Y-60746666D01*
X187456819Y-61032380D02*
X186456819Y-61032380D01*
X187456819Y-60413332D02*
X186456819Y-60413332D01*
X186456819Y-60413332D02*
X186456819Y-60032380D01*
X186456819Y-60032380D02*
X186504438Y-59937142D01*
X186504438Y-59937142D02*
X186552057Y-59889523D01*
X186552057Y-59889523D02*
X186647295Y-59841904D01*
X186647295Y-59841904D02*
X186790152Y-59841904D01*
X186790152Y-59841904D02*
X186885390Y-59889523D01*
X186885390Y-59889523D02*
X186933009Y-59937142D01*
X186933009Y-59937142D02*
X186980628Y-60032380D01*
X186980628Y-60032380D02*
X186980628Y-60413332D01*
X187456819Y-58889523D02*
X187456819Y-59460951D01*
X187456819Y-59175237D02*
X186456819Y-59175237D01*
X186456819Y-59175237D02*
X186599676Y-59270475D01*
X186599676Y-59270475D02*
X186694914Y-59365713D01*
X186694914Y-59365713D02*
X186742533Y-59460951D01*
X186456819Y-58556189D02*
X186456819Y-57889523D01*
X186456819Y-57889523D02*
X187456819Y-58318094D01*
X180456819Y-110841904D02*
X180456819Y-110270476D01*
X181456819Y-110556190D02*
X180456819Y-110556190D01*
X181456819Y-109937142D02*
X180456819Y-109937142D01*
X180456819Y-109937142D02*
X180456819Y-109556190D01*
X180456819Y-109556190D02*
X180504438Y-109460952D01*
X180504438Y-109460952D02*
X180552057Y-109413333D01*
X180552057Y-109413333D02*
X180647295Y-109365714D01*
X180647295Y-109365714D02*
X180790152Y-109365714D01*
X180790152Y-109365714D02*
X180885390Y-109413333D01*
X180885390Y-109413333D02*
X180933009Y-109460952D01*
X180933009Y-109460952D02*
X180980628Y-109556190D01*
X180980628Y-109556190D02*
X180980628Y-109937142D01*
X180456819Y-109032380D02*
X180456819Y-108413333D01*
X180456819Y-108413333D02*
X180837771Y-108746666D01*
X180837771Y-108746666D02*
X180837771Y-108603809D01*
X180837771Y-108603809D02*
X180885390Y-108508571D01*
X180885390Y-108508571D02*
X180933009Y-108460952D01*
X180933009Y-108460952D02*
X181028247Y-108413333D01*
X181028247Y-108413333D02*
X181266342Y-108413333D01*
X181266342Y-108413333D02*
X181361580Y-108460952D01*
X181361580Y-108460952D02*
X181409200Y-108508571D01*
X181409200Y-108508571D02*
X181456819Y-108603809D01*
X181456819Y-108603809D02*
X181456819Y-108889523D01*
X181456819Y-108889523D02*
X181409200Y-108984761D01*
X181409200Y-108984761D02*
X181361580Y-109032380D01*
X188333333Y-72034819D02*
X188000000Y-71558628D01*
X187761905Y-72034819D02*
X187761905Y-71034819D01*
X187761905Y-71034819D02*
X188142857Y-71034819D01*
X188142857Y-71034819D02*
X188238095Y-71082438D01*
X188238095Y-71082438D02*
X188285714Y-71130057D01*
X188285714Y-71130057D02*
X188333333Y-71225295D01*
X188333333Y-71225295D02*
X188333333Y-71368152D01*
X188333333Y-71368152D02*
X188285714Y-71463390D01*
X188285714Y-71463390D02*
X188238095Y-71511009D01*
X188238095Y-71511009D02*
X188142857Y-71558628D01*
X188142857Y-71558628D02*
X187761905Y-71558628D01*
X188666667Y-71034819D02*
X189285714Y-71034819D01*
X189285714Y-71034819D02*
X188952381Y-71415771D01*
X188952381Y-71415771D02*
X189095238Y-71415771D01*
X189095238Y-71415771D02*
X189190476Y-71463390D01*
X189190476Y-71463390D02*
X189238095Y-71511009D01*
X189238095Y-71511009D02*
X189285714Y-71606247D01*
X189285714Y-71606247D02*
X189285714Y-71844342D01*
X189285714Y-71844342D02*
X189238095Y-71939580D01*
X189238095Y-71939580D02*
X189190476Y-71987200D01*
X189190476Y-71987200D02*
X189095238Y-72034819D01*
X189095238Y-72034819D02*
X188809524Y-72034819D01*
X188809524Y-72034819D02*
X188714286Y-71987200D01*
X188714286Y-71987200D02*
X188666667Y-71939580D01*
X128923026Y-95423318D02*
X128875407Y-95470938D01*
X128875407Y-95470938D02*
X128732550Y-95518557D01*
X128732550Y-95518557D02*
X128637312Y-95518557D01*
X128637312Y-95518557D02*
X128494455Y-95470938D01*
X128494455Y-95470938D02*
X128399217Y-95375699D01*
X128399217Y-95375699D02*
X128351598Y-95280461D01*
X128351598Y-95280461D02*
X128303979Y-95089985D01*
X128303979Y-95089985D02*
X128303979Y-94947128D01*
X128303979Y-94947128D02*
X128351598Y-94756652D01*
X128351598Y-94756652D02*
X128399217Y-94661414D01*
X128399217Y-94661414D02*
X128494455Y-94566176D01*
X128494455Y-94566176D02*
X128637312Y-94518557D01*
X128637312Y-94518557D02*
X128732550Y-94518557D01*
X128732550Y-94518557D02*
X128875407Y-94566176D01*
X128875407Y-94566176D02*
X128923026Y-94613795D01*
X129303979Y-94613795D02*
X129351598Y-94566176D01*
X129351598Y-94566176D02*
X129446836Y-94518557D01*
X129446836Y-94518557D02*
X129684931Y-94518557D01*
X129684931Y-94518557D02*
X129780169Y-94566176D01*
X129780169Y-94566176D02*
X129827788Y-94613795D01*
X129827788Y-94613795D02*
X129875407Y-94709033D01*
X129875407Y-94709033D02*
X129875407Y-94804271D01*
X129875407Y-94804271D02*
X129827788Y-94947128D01*
X129827788Y-94947128D02*
X129256360Y-95518557D01*
X129256360Y-95518557D02*
X129875407Y-95518557D01*
X159954819Y-52222857D02*
X159954819Y-52699047D01*
X159954819Y-52699047D02*
X158954819Y-52699047D01*
X159907200Y-51937142D02*
X159954819Y-51794285D01*
X159954819Y-51794285D02*
X159954819Y-51556190D01*
X159954819Y-51556190D02*
X159907200Y-51460952D01*
X159907200Y-51460952D02*
X159859580Y-51413333D01*
X159859580Y-51413333D02*
X159764342Y-51365714D01*
X159764342Y-51365714D02*
X159669104Y-51365714D01*
X159669104Y-51365714D02*
X159573866Y-51413333D01*
X159573866Y-51413333D02*
X159526247Y-51460952D01*
X159526247Y-51460952D02*
X159478628Y-51556190D01*
X159478628Y-51556190D02*
X159431009Y-51746666D01*
X159431009Y-51746666D02*
X159383390Y-51841904D01*
X159383390Y-51841904D02*
X159335771Y-51889523D01*
X159335771Y-51889523D02*
X159240533Y-51937142D01*
X159240533Y-51937142D02*
X159145295Y-51937142D01*
X159145295Y-51937142D02*
X159050057Y-51889523D01*
X159050057Y-51889523D02*
X159002438Y-51841904D01*
X159002438Y-51841904D02*
X158954819Y-51746666D01*
X158954819Y-51746666D02*
X158954819Y-51508571D01*
X158954819Y-51508571D02*
X159002438Y-51365714D01*
X158954819Y-51032380D02*
X158954819Y-50413333D01*
X158954819Y-50413333D02*
X159335771Y-50746666D01*
X159335771Y-50746666D02*
X159335771Y-50603809D01*
X159335771Y-50603809D02*
X159383390Y-50508571D01*
X159383390Y-50508571D02*
X159431009Y-50460952D01*
X159431009Y-50460952D02*
X159526247Y-50413333D01*
X159526247Y-50413333D02*
X159764342Y-50413333D01*
X159764342Y-50413333D02*
X159859580Y-50460952D01*
X159859580Y-50460952D02*
X159907200Y-50508571D01*
X159907200Y-50508571D02*
X159954819Y-50603809D01*
X159954819Y-50603809D02*
X159954819Y-50889523D01*
X159954819Y-50889523D02*
X159907200Y-50984761D01*
X159907200Y-50984761D02*
X159859580Y-51032380D01*
X180359580Y-73222857D02*
X180407200Y-73270476D01*
X180407200Y-73270476D02*
X180454819Y-73413333D01*
X180454819Y-73413333D02*
X180454819Y-73508571D01*
X180454819Y-73508571D02*
X180407200Y-73651428D01*
X180407200Y-73651428D02*
X180311961Y-73746666D01*
X180311961Y-73746666D02*
X180216723Y-73794285D01*
X180216723Y-73794285D02*
X180026247Y-73841904D01*
X180026247Y-73841904D02*
X179883390Y-73841904D01*
X179883390Y-73841904D02*
X179692914Y-73794285D01*
X179692914Y-73794285D02*
X179597676Y-73746666D01*
X179597676Y-73746666D02*
X179502438Y-73651428D01*
X179502438Y-73651428D02*
X179454819Y-73508571D01*
X179454819Y-73508571D02*
X179454819Y-73413333D01*
X179454819Y-73413333D02*
X179502438Y-73270476D01*
X179502438Y-73270476D02*
X179550057Y-73222857D01*
X180454819Y-72270476D02*
X180454819Y-72841904D01*
X180454819Y-72556190D02*
X179454819Y-72556190D01*
X179454819Y-72556190D02*
X179597676Y-72651428D01*
X179597676Y-72651428D02*
X179692914Y-72746666D01*
X179692914Y-72746666D02*
X179740533Y-72841904D01*
X179883390Y-71699047D02*
X179835771Y-71794285D01*
X179835771Y-71794285D02*
X179788152Y-71841904D01*
X179788152Y-71841904D02*
X179692914Y-71889523D01*
X179692914Y-71889523D02*
X179645295Y-71889523D01*
X179645295Y-71889523D02*
X179550057Y-71841904D01*
X179550057Y-71841904D02*
X179502438Y-71794285D01*
X179502438Y-71794285D02*
X179454819Y-71699047D01*
X179454819Y-71699047D02*
X179454819Y-71508571D01*
X179454819Y-71508571D02*
X179502438Y-71413333D01*
X179502438Y-71413333D02*
X179550057Y-71365714D01*
X179550057Y-71365714D02*
X179645295Y-71318095D01*
X179645295Y-71318095D02*
X179692914Y-71318095D01*
X179692914Y-71318095D02*
X179788152Y-71365714D01*
X179788152Y-71365714D02*
X179835771Y-71413333D01*
X179835771Y-71413333D02*
X179883390Y-71508571D01*
X179883390Y-71508571D02*
X179883390Y-71699047D01*
X179883390Y-71699047D02*
X179931009Y-71794285D01*
X179931009Y-71794285D02*
X179978628Y-71841904D01*
X179978628Y-71841904D02*
X180073866Y-71889523D01*
X180073866Y-71889523D02*
X180264342Y-71889523D01*
X180264342Y-71889523D02*
X180359580Y-71841904D01*
X180359580Y-71841904D02*
X180407200Y-71794285D01*
X180407200Y-71794285D02*
X180454819Y-71699047D01*
X180454819Y-71699047D02*
X180454819Y-71508571D01*
X180454819Y-71508571D02*
X180407200Y-71413333D01*
X180407200Y-71413333D02*
X180359580Y-71365714D01*
X180359580Y-71365714D02*
X180264342Y-71318095D01*
X180264342Y-71318095D02*
X180073866Y-71318095D01*
X180073866Y-71318095D02*
X179978628Y-71365714D01*
X179978628Y-71365714D02*
X179931009Y-71413333D01*
X179931009Y-71413333D02*
X179883390Y-71508571D01*
X192166666Y-100534819D02*
X192166666Y-101249104D01*
X192166666Y-101249104D02*
X192119047Y-101391961D01*
X192119047Y-101391961D02*
X192023809Y-101487200D01*
X192023809Y-101487200D02*
X191880952Y-101534819D01*
X191880952Y-101534819D02*
X191785714Y-101534819D01*
X193166666Y-101534819D02*
X192595238Y-101534819D01*
X192880952Y-101534819D02*
X192880952Y-100534819D01*
X192880952Y-100534819D02*
X192785714Y-100677676D01*
X192785714Y-100677676D02*
X192690476Y-100772914D01*
X192690476Y-100772914D02*
X192595238Y-100820533D01*
X111254819Y-78302857D02*
X111254819Y-78779047D01*
X111254819Y-78779047D02*
X110254819Y-78779047D01*
X111207200Y-78017142D02*
X111254819Y-77874285D01*
X111254819Y-77874285D02*
X111254819Y-77636190D01*
X111254819Y-77636190D02*
X111207200Y-77540952D01*
X111207200Y-77540952D02*
X111159580Y-77493333D01*
X111159580Y-77493333D02*
X111064342Y-77445714D01*
X111064342Y-77445714D02*
X110969104Y-77445714D01*
X110969104Y-77445714D02*
X110873866Y-77493333D01*
X110873866Y-77493333D02*
X110826247Y-77540952D01*
X110826247Y-77540952D02*
X110778628Y-77636190D01*
X110778628Y-77636190D02*
X110731009Y-77826666D01*
X110731009Y-77826666D02*
X110683390Y-77921904D01*
X110683390Y-77921904D02*
X110635771Y-77969523D01*
X110635771Y-77969523D02*
X110540533Y-78017142D01*
X110540533Y-78017142D02*
X110445295Y-78017142D01*
X110445295Y-78017142D02*
X110350057Y-77969523D01*
X110350057Y-77969523D02*
X110302438Y-77921904D01*
X110302438Y-77921904D02*
X110254819Y-77826666D01*
X110254819Y-77826666D02*
X110254819Y-77588571D01*
X110254819Y-77588571D02*
X110302438Y-77445714D01*
X110588152Y-76588571D02*
X111254819Y-76588571D01*
X110207200Y-76826666D02*
X110921485Y-77064761D01*
X110921485Y-77064761D02*
X110921485Y-76445714D01*
X186359580Y-86722857D02*
X186407200Y-86770476D01*
X186407200Y-86770476D02*
X186454819Y-86913333D01*
X186454819Y-86913333D02*
X186454819Y-87008571D01*
X186454819Y-87008571D02*
X186407200Y-87151428D01*
X186407200Y-87151428D02*
X186311961Y-87246666D01*
X186311961Y-87246666D02*
X186216723Y-87294285D01*
X186216723Y-87294285D02*
X186026247Y-87341904D01*
X186026247Y-87341904D02*
X185883390Y-87341904D01*
X185883390Y-87341904D02*
X185692914Y-87294285D01*
X185692914Y-87294285D02*
X185597676Y-87246666D01*
X185597676Y-87246666D02*
X185502438Y-87151428D01*
X185502438Y-87151428D02*
X185454819Y-87008571D01*
X185454819Y-87008571D02*
X185454819Y-86913333D01*
X185454819Y-86913333D02*
X185502438Y-86770476D01*
X185502438Y-86770476D02*
X185550057Y-86722857D01*
X186454819Y-85770476D02*
X186454819Y-86341904D01*
X186454819Y-86056190D02*
X185454819Y-86056190D01*
X185454819Y-86056190D02*
X185597676Y-86151428D01*
X185597676Y-86151428D02*
X185692914Y-86246666D01*
X185692914Y-86246666D02*
X185740533Y-86341904D01*
X185454819Y-84865714D02*
X185454819Y-85341904D01*
X185454819Y-85341904D02*
X185931009Y-85389523D01*
X185931009Y-85389523D02*
X185883390Y-85341904D01*
X185883390Y-85341904D02*
X185835771Y-85246666D01*
X185835771Y-85246666D02*
X185835771Y-85008571D01*
X185835771Y-85008571D02*
X185883390Y-84913333D01*
X185883390Y-84913333D02*
X185931009Y-84865714D01*
X185931009Y-84865714D02*
X186026247Y-84818095D01*
X186026247Y-84818095D02*
X186264342Y-84818095D01*
X186264342Y-84818095D02*
X186359580Y-84865714D01*
X186359580Y-84865714D02*
X186407200Y-84913333D01*
X186407200Y-84913333D02*
X186454819Y-85008571D01*
X186454819Y-85008571D02*
X186454819Y-85246666D01*
X186454819Y-85246666D02*
X186407200Y-85341904D01*
X186407200Y-85341904D02*
X186359580Y-85389523D01*
X171454819Y-99142857D02*
X170978628Y-99476190D01*
X171454819Y-99714285D02*
X170454819Y-99714285D01*
X170454819Y-99714285D02*
X170454819Y-99333333D01*
X170454819Y-99333333D02*
X170502438Y-99238095D01*
X170502438Y-99238095D02*
X170550057Y-99190476D01*
X170550057Y-99190476D02*
X170645295Y-99142857D01*
X170645295Y-99142857D02*
X170788152Y-99142857D01*
X170788152Y-99142857D02*
X170883390Y-99190476D01*
X170883390Y-99190476D02*
X170931009Y-99238095D01*
X170931009Y-99238095D02*
X170978628Y-99333333D01*
X170978628Y-99333333D02*
X170978628Y-99714285D01*
X171454819Y-98190476D02*
X171454819Y-98761904D01*
X171454819Y-98476190D02*
X170454819Y-98476190D01*
X170454819Y-98476190D02*
X170597676Y-98571428D01*
X170597676Y-98571428D02*
X170692914Y-98666666D01*
X170692914Y-98666666D02*
X170740533Y-98761904D01*
X170550057Y-97809523D02*
X170502438Y-97761904D01*
X170502438Y-97761904D02*
X170454819Y-97666666D01*
X170454819Y-97666666D02*
X170454819Y-97428571D01*
X170454819Y-97428571D02*
X170502438Y-97333333D01*
X170502438Y-97333333D02*
X170550057Y-97285714D01*
X170550057Y-97285714D02*
X170645295Y-97238095D01*
X170645295Y-97238095D02*
X170740533Y-97238095D01*
X170740533Y-97238095D02*
X170883390Y-97285714D01*
X170883390Y-97285714D02*
X171454819Y-97857142D01*
X171454819Y-97857142D02*
X171454819Y-97238095D01*
X115238094Y-55625180D02*
X114666666Y-55625180D01*
X114952380Y-54625180D02*
X114952380Y-55625180D01*
X114333332Y-54625180D02*
X114333332Y-55625180D01*
X114333332Y-55625180D02*
X113952380Y-55625180D01*
X113952380Y-55625180D02*
X113857142Y-55577561D01*
X113857142Y-55577561D02*
X113809523Y-55529942D01*
X113809523Y-55529942D02*
X113761904Y-55434704D01*
X113761904Y-55434704D02*
X113761904Y-55291847D01*
X113761904Y-55291847D02*
X113809523Y-55196609D01*
X113809523Y-55196609D02*
X113857142Y-55148990D01*
X113857142Y-55148990D02*
X113952380Y-55101371D01*
X113952380Y-55101371D02*
X114333332Y-55101371D01*
X112809523Y-54625180D02*
X113380951Y-54625180D01*
X113095237Y-54625180D02*
X113095237Y-55625180D01*
X113095237Y-55625180D02*
X113190475Y-55482323D01*
X113190475Y-55482323D02*
X113285713Y-55387085D01*
X113285713Y-55387085D02*
X113380951Y-55339466D01*
X112476189Y-55625180D02*
X111857142Y-55625180D01*
X111857142Y-55625180D02*
X112190475Y-55244228D01*
X112190475Y-55244228D02*
X112047618Y-55244228D01*
X112047618Y-55244228D02*
X111952380Y-55196609D01*
X111952380Y-55196609D02*
X111904761Y-55148990D01*
X111904761Y-55148990D02*
X111857142Y-55053752D01*
X111857142Y-55053752D02*
X111857142Y-54815657D01*
X111857142Y-54815657D02*
X111904761Y-54720419D01*
X111904761Y-54720419D02*
X111952380Y-54672800D01*
X111952380Y-54672800D02*
X112047618Y-54625180D01*
X112047618Y-54625180D02*
X112333332Y-54625180D01*
X112333332Y-54625180D02*
X112428570Y-54672800D01*
X112428570Y-54672800D02*
X112476189Y-54720419D01*
X122780590Y-102518557D02*
X122447257Y-102042366D01*
X122209162Y-102518557D02*
X122209162Y-101518557D01*
X122209162Y-101518557D02*
X122590114Y-101518557D01*
X122590114Y-101518557D02*
X122685352Y-101566176D01*
X122685352Y-101566176D02*
X122732971Y-101613795D01*
X122732971Y-101613795D02*
X122780590Y-101709033D01*
X122780590Y-101709033D02*
X122780590Y-101851890D01*
X122780590Y-101851890D02*
X122732971Y-101947128D01*
X122732971Y-101947128D02*
X122685352Y-101994747D01*
X122685352Y-101994747D02*
X122590114Y-102042366D01*
X122590114Y-102042366D02*
X122209162Y-102042366D01*
X123732971Y-102518557D02*
X123161543Y-102518557D01*
X123447257Y-102518557D02*
X123447257Y-101518557D01*
X123447257Y-101518557D02*
X123352019Y-101661414D01*
X123352019Y-101661414D02*
X123256781Y-101756652D01*
X123256781Y-101756652D02*
X123161543Y-101804271D01*
X124590114Y-101851890D02*
X124590114Y-102518557D01*
X124352019Y-101470938D02*
X124113924Y-102185223D01*
X124113924Y-102185223D02*
X124732971Y-102185223D01*
X186954819Y-105841904D02*
X186954819Y-105270476D01*
X187954819Y-105556190D02*
X186954819Y-105556190D01*
X187954819Y-104937142D02*
X186954819Y-104937142D01*
X186954819Y-104937142D02*
X186954819Y-104556190D01*
X186954819Y-104556190D02*
X187002438Y-104460952D01*
X187002438Y-104460952D02*
X187050057Y-104413333D01*
X187050057Y-104413333D02*
X187145295Y-104365714D01*
X187145295Y-104365714D02*
X187288152Y-104365714D01*
X187288152Y-104365714D02*
X187383390Y-104413333D01*
X187383390Y-104413333D02*
X187431009Y-104460952D01*
X187431009Y-104460952D02*
X187478628Y-104556190D01*
X187478628Y-104556190D02*
X187478628Y-104937142D01*
X187288152Y-103508571D02*
X187954819Y-103508571D01*
X186907200Y-103746666D02*
X187621485Y-103984761D01*
X187621485Y-103984761D02*
X187621485Y-103365714D01*
X192952819Y-56341904D02*
X192952819Y-55770476D01*
X193952819Y-56056190D02*
X192952819Y-56056190D01*
X193952819Y-55437142D02*
X192952819Y-55437142D01*
X192952819Y-55437142D02*
X192952819Y-55056190D01*
X192952819Y-55056190D02*
X193000438Y-54960952D01*
X193000438Y-54960952D02*
X193048057Y-54913333D01*
X193048057Y-54913333D02*
X193143295Y-54865714D01*
X193143295Y-54865714D02*
X193286152Y-54865714D01*
X193286152Y-54865714D02*
X193381390Y-54913333D01*
X193381390Y-54913333D02*
X193429009Y-54960952D01*
X193429009Y-54960952D02*
X193476628Y-55056190D01*
X193476628Y-55056190D02*
X193476628Y-55437142D01*
X192952819Y-54532380D02*
X192952819Y-53865714D01*
X192952819Y-53865714D02*
X193952819Y-54294285D01*
X130454819Y-79906666D02*
X129978628Y-80239999D01*
X130454819Y-80478094D02*
X129454819Y-80478094D01*
X129454819Y-80478094D02*
X129454819Y-80097142D01*
X129454819Y-80097142D02*
X129502438Y-80001904D01*
X129502438Y-80001904D02*
X129550057Y-79954285D01*
X129550057Y-79954285D02*
X129645295Y-79906666D01*
X129645295Y-79906666D02*
X129788152Y-79906666D01*
X129788152Y-79906666D02*
X129883390Y-79954285D01*
X129883390Y-79954285D02*
X129931009Y-80001904D01*
X129931009Y-80001904D02*
X129978628Y-80097142D01*
X129978628Y-80097142D02*
X129978628Y-80478094D01*
X129788152Y-79049523D02*
X130454819Y-79049523D01*
X129407200Y-79287618D02*
X130121485Y-79525713D01*
X130121485Y-79525713D02*
X130121485Y-78906666D01*
X120954819Y-71382857D02*
X120478628Y-71716190D01*
X120954819Y-71954285D02*
X119954819Y-71954285D01*
X119954819Y-71954285D02*
X119954819Y-71573333D01*
X119954819Y-71573333D02*
X120002438Y-71478095D01*
X120002438Y-71478095D02*
X120050057Y-71430476D01*
X120050057Y-71430476D02*
X120145295Y-71382857D01*
X120145295Y-71382857D02*
X120288152Y-71382857D01*
X120288152Y-71382857D02*
X120383390Y-71430476D01*
X120383390Y-71430476D02*
X120431009Y-71478095D01*
X120431009Y-71478095D02*
X120478628Y-71573333D01*
X120478628Y-71573333D02*
X120478628Y-71954285D01*
X120954819Y-70430476D02*
X120954819Y-71001904D01*
X120954819Y-70716190D02*
X119954819Y-70716190D01*
X119954819Y-70716190D02*
X120097676Y-70811428D01*
X120097676Y-70811428D02*
X120192914Y-70906666D01*
X120192914Y-70906666D02*
X120240533Y-71001904D01*
X120954819Y-69478095D02*
X120954819Y-70049523D01*
X120954819Y-69763809D02*
X119954819Y-69763809D01*
X119954819Y-69763809D02*
X120097676Y-69859047D01*
X120097676Y-69859047D02*
X120192914Y-69954285D01*
X120192914Y-69954285D02*
X120240533Y-70049523D01*
X186333333Y-77439580D02*
X186285714Y-77487200D01*
X186285714Y-77487200D02*
X186142857Y-77534819D01*
X186142857Y-77534819D02*
X186047619Y-77534819D01*
X186047619Y-77534819D02*
X185904762Y-77487200D01*
X185904762Y-77487200D02*
X185809524Y-77391961D01*
X185809524Y-77391961D02*
X185761905Y-77296723D01*
X185761905Y-77296723D02*
X185714286Y-77106247D01*
X185714286Y-77106247D02*
X185714286Y-76963390D01*
X185714286Y-76963390D02*
X185761905Y-76772914D01*
X185761905Y-76772914D02*
X185809524Y-76677676D01*
X185809524Y-76677676D02*
X185904762Y-76582438D01*
X185904762Y-76582438D02*
X186047619Y-76534819D01*
X186047619Y-76534819D02*
X186142857Y-76534819D01*
X186142857Y-76534819D02*
X186285714Y-76582438D01*
X186285714Y-76582438D02*
X186333333Y-76630057D01*
X187190476Y-76534819D02*
X187000000Y-76534819D01*
X187000000Y-76534819D02*
X186904762Y-76582438D01*
X186904762Y-76582438D02*
X186857143Y-76630057D01*
X186857143Y-76630057D02*
X186761905Y-76772914D01*
X186761905Y-76772914D02*
X186714286Y-76963390D01*
X186714286Y-76963390D02*
X186714286Y-77344342D01*
X186714286Y-77344342D02*
X186761905Y-77439580D01*
X186761905Y-77439580D02*
X186809524Y-77487200D01*
X186809524Y-77487200D02*
X186904762Y-77534819D01*
X186904762Y-77534819D02*
X187095238Y-77534819D01*
X187095238Y-77534819D02*
X187190476Y-77487200D01*
X187190476Y-77487200D02*
X187238095Y-77439580D01*
X187238095Y-77439580D02*
X187285714Y-77344342D01*
X187285714Y-77344342D02*
X187285714Y-77106247D01*
X187285714Y-77106247D02*
X187238095Y-77011009D01*
X187238095Y-77011009D02*
X187190476Y-76963390D01*
X187190476Y-76963390D02*
X187095238Y-76915771D01*
X187095238Y-76915771D02*
X186904762Y-76915771D01*
X186904762Y-76915771D02*
X186809524Y-76963390D01*
X186809524Y-76963390D02*
X186761905Y-77011009D01*
X186761905Y-77011009D02*
X186714286Y-77106247D01*
X177570181Y-86846295D02*
X176760658Y-86846295D01*
X176760658Y-86846295D02*
X176665420Y-86893914D01*
X176665420Y-86893914D02*
X176617801Y-86941533D01*
X176617801Y-86941533D02*
X176570181Y-87036771D01*
X176570181Y-87036771D02*
X176570181Y-87227247D01*
X176570181Y-87227247D02*
X176617801Y-87322485D01*
X176617801Y-87322485D02*
X176665420Y-87370104D01*
X176665420Y-87370104D02*
X176760658Y-87417723D01*
X176760658Y-87417723D02*
X177570181Y-87417723D01*
X176570181Y-88417723D02*
X176570181Y-87846295D01*
X176570181Y-88132009D02*
X177570181Y-88132009D01*
X177570181Y-88132009D02*
X177427324Y-88036771D01*
X177427324Y-88036771D02*
X177332086Y-87941533D01*
X177332086Y-87941533D02*
X177284467Y-87846295D01*
X180253421Y-84382399D02*
X180491516Y-84382399D01*
X180396278Y-84620494D02*
X180491516Y-84382399D01*
X180491516Y-84382399D02*
X180396278Y-84144304D01*
X180681992Y-84525256D02*
X180491516Y-84382399D01*
X180491516Y-84382399D02*
X180681992Y-84239542D01*
X181343782Y-84382400D02*
X181105687Y-84382400D01*
X181200925Y-84144305D02*
X181105687Y-84382400D01*
X181105687Y-84382400D02*
X181200925Y-84620495D01*
X180915211Y-84239543D02*
X181105687Y-84382400D01*
X181105687Y-84382400D02*
X180915211Y-84525257D01*
X180456819Y-105841904D02*
X180456819Y-105270476D01*
X181456819Y-105556190D02*
X180456819Y-105556190D01*
X181456819Y-104937142D02*
X180456819Y-104937142D01*
X180456819Y-104937142D02*
X180456819Y-104556190D01*
X180456819Y-104556190D02*
X180504438Y-104460952D01*
X180504438Y-104460952D02*
X180552057Y-104413333D01*
X180552057Y-104413333D02*
X180647295Y-104365714D01*
X180647295Y-104365714D02*
X180790152Y-104365714D01*
X180790152Y-104365714D02*
X180885390Y-104413333D01*
X180885390Y-104413333D02*
X180933009Y-104460952D01*
X180933009Y-104460952D02*
X180980628Y-104556190D01*
X180980628Y-104556190D02*
X180980628Y-104937142D01*
X181456819Y-103413333D02*
X181456819Y-103984761D01*
X181456819Y-103699047D02*
X180456819Y-103699047D01*
X180456819Y-103699047D02*
X180599676Y-103794285D01*
X180599676Y-103794285D02*
X180694914Y-103889523D01*
X180694914Y-103889523D02*
X180742533Y-103984761D01*
X192956819Y-60841904D02*
X192956819Y-60270476D01*
X193956819Y-60556190D02*
X192956819Y-60556190D01*
X193956819Y-59937142D02*
X192956819Y-59937142D01*
X192956819Y-59937142D02*
X192956819Y-59556190D01*
X192956819Y-59556190D02*
X193004438Y-59460952D01*
X193004438Y-59460952D02*
X193052057Y-59413333D01*
X193052057Y-59413333D02*
X193147295Y-59365714D01*
X193147295Y-59365714D02*
X193290152Y-59365714D01*
X193290152Y-59365714D02*
X193385390Y-59413333D01*
X193385390Y-59413333D02*
X193433009Y-59460952D01*
X193433009Y-59460952D02*
X193480628Y-59556190D01*
X193480628Y-59556190D02*
X193480628Y-59937142D01*
X193956819Y-58889523D02*
X193956819Y-58699047D01*
X193956819Y-58699047D02*
X193909200Y-58603809D01*
X193909200Y-58603809D02*
X193861580Y-58556190D01*
X193861580Y-58556190D02*
X193718723Y-58460952D01*
X193718723Y-58460952D02*
X193528247Y-58413333D01*
X193528247Y-58413333D02*
X193147295Y-58413333D01*
X193147295Y-58413333D02*
X193052057Y-58460952D01*
X193052057Y-58460952D02*
X193004438Y-58508571D01*
X193004438Y-58508571D02*
X192956819Y-58603809D01*
X192956819Y-58603809D02*
X192956819Y-58794285D01*
X192956819Y-58794285D02*
X193004438Y-58889523D01*
X193004438Y-58889523D02*
X193052057Y-58937142D01*
X193052057Y-58937142D02*
X193147295Y-58984761D01*
X193147295Y-58984761D02*
X193385390Y-58984761D01*
X193385390Y-58984761D02*
X193480628Y-58937142D01*
X193480628Y-58937142D02*
X193528247Y-58889523D01*
X193528247Y-58889523D02*
X193575866Y-58794285D01*
X193575866Y-58794285D02*
X193575866Y-58603809D01*
X193575866Y-58603809D02*
X193528247Y-58508571D01*
X193528247Y-58508571D02*
X193480628Y-58460952D01*
X193480628Y-58460952D02*
X193385390Y-58413333D01*
X106738095Y-106834819D02*
X106738095Y-105834819D01*
X106738095Y-106311009D02*
X107309523Y-106311009D01*
X107309523Y-106834819D02*
X107309523Y-105834819D01*
X107690476Y-105834819D02*
X108309523Y-105834819D01*
X108309523Y-105834819D02*
X107976190Y-106215771D01*
X107976190Y-106215771D02*
X108119047Y-106215771D01*
X108119047Y-106215771D02*
X108214285Y-106263390D01*
X108214285Y-106263390D02*
X108261904Y-106311009D01*
X108261904Y-106311009D02*
X108309523Y-106406247D01*
X108309523Y-106406247D02*
X108309523Y-106644342D01*
X108309523Y-106644342D02*
X108261904Y-106739580D01*
X108261904Y-106739580D02*
X108214285Y-106787200D01*
X108214285Y-106787200D02*
X108119047Y-106834819D01*
X108119047Y-106834819D02*
X107833333Y-106834819D01*
X107833333Y-106834819D02*
X107738095Y-106787200D01*
X107738095Y-106787200D02*
X107690476Y-106739580D01*
X166859580Y-86666666D02*
X166907200Y-86714285D01*
X166907200Y-86714285D02*
X166954819Y-86857142D01*
X166954819Y-86857142D02*
X166954819Y-86952380D01*
X166954819Y-86952380D02*
X166907200Y-87095237D01*
X166907200Y-87095237D02*
X166811961Y-87190475D01*
X166811961Y-87190475D02*
X166716723Y-87238094D01*
X166716723Y-87238094D02*
X166526247Y-87285713D01*
X166526247Y-87285713D02*
X166383390Y-87285713D01*
X166383390Y-87285713D02*
X166192914Y-87238094D01*
X166192914Y-87238094D02*
X166097676Y-87190475D01*
X166097676Y-87190475D02*
X166002438Y-87095237D01*
X166002438Y-87095237D02*
X165954819Y-86952380D01*
X165954819Y-86952380D02*
X165954819Y-86857142D01*
X165954819Y-86857142D02*
X166002438Y-86714285D01*
X166002438Y-86714285D02*
X166050057Y-86666666D01*
X165954819Y-86333332D02*
X165954819Y-85666666D01*
X165954819Y-85666666D02*
X166954819Y-86095237D01*
X170651980Y-83420250D02*
X170413885Y-83420250D01*
X170509123Y-83182155D02*
X170413885Y-83420250D01*
X170413885Y-83420250D02*
X170509123Y-83658345D01*
X170223409Y-83277393D02*
X170413885Y-83420250D01*
X170413885Y-83420250D02*
X170223409Y-83563107D01*
X169561619Y-83420249D02*
X169799714Y-83420249D01*
X169704476Y-83658344D02*
X169799714Y-83420249D01*
X169799714Y-83420249D02*
X169704476Y-83182154D01*
X169990190Y-83563106D02*
X169799714Y-83420249D01*
X169799714Y-83420249D02*
X169990190Y-83277392D01*
X180954819Y-100142857D02*
X180478628Y-100476190D01*
X180954819Y-100714285D02*
X179954819Y-100714285D01*
X179954819Y-100714285D02*
X179954819Y-100333333D01*
X179954819Y-100333333D02*
X180002438Y-100238095D01*
X180002438Y-100238095D02*
X180050057Y-100190476D01*
X180050057Y-100190476D02*
X180145295Y-100142857D01*
X180145295Y-100142857D02*
X180288152Y-100142857D01*
X180288152Y-100142857D02*
X180383390Y-100190476D01*
X180383390Y-100190476D02*
X180431009Y-100238095D01*
X180431009Y-100238095D02*
X180478628Y-100333333D01*
X180478628Y-100333333D02*
X180478628Y-100714285D01*
X180954819Y-99190476D02*
X180954819Y-99761904D01*
X180954819Y-99476190D02*
X179954819Y-99476190D01*
X179954819Y-99476190D02*
X180097676Y-99571428D01*
X180097676Y-99571428D02*
X180192914Y-99666666D01*
X180192914Y-99666666D02*
X180240533Y-99761904D01*
X179954819Y-98333333D02*
X179954819Y-98523809D01*
X179954819Y-98523809D02*
X180002438Y-98619047D01*
X180002438Y-98619047D02*
X180050057Y-98666666D01*
X180050057Y-98666666D02*
X180192914Y-98761904D01*
X180192914Y-98761904D02*
X180383390Y-98809523D01*
X180383390Y-98809523D02*
X180764342Y-98809523D01*
X180764342Y-98809523D02*
X180859580Y-98761904D01*
X180859580Y-98761904D02*
X180907200Y-98714285D01*
X180907200Y-98714285D02*
X180954819Y-98619047D01*
X180954819Y-98619047D02*
X180954819Y-98428571D01*
X180954819Y-98428571D02*
X180907200Y-98333333D01*
X180907200Y-98333333D02*
X180859580Y-98285714D01*
X180859580Y-98285714D02*
X180764342Y-98238095D01*
X180764342Y-98238095D02*
X180526247Y-98238095D01*
X180526247Y-98238095D02*
X180431009Y-98285714D01*
X180431009Y-98285714D02*
X180383390Y-98333333D01*
X180383390Y-98333333D02*
X180335771Y-98428571D01*
X180335771Y-98428571D02*
X180335771Y-98619047D01*
X180335771Y-98619047D02*
X180383390Y-98714285D01*
X180383390Y-98714285D02*
X180431009Y-98761904D01*
X180431009Y-98761904D02*
X180526247Y-98809523D01*
X197738095Y-55534819D02*
X197738095Y-54534819D01*
X197738095Y-55011009D02*
X198309523Y-55011009D01*
X198309523Y-55534819D02*
X198309523Y-54534819D01*
X199309523Y-55534819D02*
X198738095Y-55534819D01*
X199023809Y-55534819D02*
X199023809Y-54534819D01*
X199023809Y-54534819D02*
X198928571Y-54677676D01*
X198928571Y-54677676D02*
X198833333Y-54772914D01*
X198833333Y-54772914D02*
X198738095Y-54820533D01*
X183333333Y-92939580D02*
X183285714Y-92987200D01*
X183285714Y-92987200D02*
X183142857Y-93034819D01*
X183142857Y-93034819D02*
X183047619Y-93034819D01*
X183047619Y-93034819D02*
X182904762Y-92987200D01*
X182904762Y-92987200D02*
X182809524Y-92891961D01*
X182809524Y-92891961D02*
X182761905Y-92796723D01*
X182761905Y-92796723D02*
X182714286Y-92606247D01*
X182714286Y-92606247D02*
X182714286Y-92463390D01*
X182714286Y-92463390D02*
X182761905Y-92272914D01*
X182761905Y-92272914D02*
X182809524Y-92177676D01*
X182809524Y-92177676D02*
X182904762Y-92082438D01*
X182904762Y-92082438D02*
X183047619Y-92034819D01*
X183047619Y-92034819D02*
X183142857Y-92034819D01*
X183142857Y-92034819D02*
X183285714Y-92082438D01*
X183285714Y-92082438D02*
X183333333Y-92130057D01*
X184285714Y-93034819D02*
X183714286Y-93034819D01*
X184000000Y-93034819D02*
X184000000Y-92034819D01*
X184000000Y-92034819D02*
X183904762Y-92177676D01*
X183904762Y-92177676D02*
X183809524Y-92272914D01*
X183809524Y-92272914D02*
X183714286Y-92320533D01*
X119404761Y-64034819D02*
X119071428Y-63558628D01*
X118833333Y-64034819D02*
X118833333Y-63034819D01*
X118833333Y-63034819D02*
X119214285Y-63034819D01*
X119214285Y-63034819D02*
X119309523Y-63082438D01*
X119309523Y-63082438D02*
X119357142Y-63130057D01*
X119357142Y-63130057D02*
X119404761Y-63225295D01*
X119404761Y-63225295D02*
X119404761Y-63368152D01*
X119404761Y-63368152D02*
X119357142Y-63463390D01*
X119357142Y-63463390D02*
X119309523Y-63511009D01*
X119309523Y-63511009D02*
X119214285Y-63558628D01*
X119214285Y-63558628D02*
X118833333Y-63558628D01*
X119690476Y-63034819D02*
X120023809Y-64034819D01*
X120023809Y-64034819D02*
X120357142Y-63034819D01*
X121214285Y-64034819D02*
X120642857Y-64034819D01*
X120928571Y-64034819D02*
X120928571Y-63034819D01*
X120928571Y-63034819D02*
X120833333Y-63177676D01*
X120833333Y-63177676D02*
X120738095Y-63272914D01*
X120738095Y-63272914D02*
X120642857Y-63320533D01*
X186456819Y-56818094D02*
X186456819Y-56246666D01*
X187456819Y-56532380D02*
X186456819Y-56532380D01*
X187456819Y-55913332D02*
X186456819Y-55913332D01*
X186456819Y-55913332D02*
X186456819Y-55532380D01*
X186456819Y-55532380D02*
X186504438Y-55437142D01*
X186504438Y-55437142D02*
X186552057Y-55389523D01*
X186552057Y-55389523D02*
X186647295Y-55341904D01*
X186647295Y-55341904D02*
X186790152Y-55341904D01*
X186790152Y-55341904D02*
X186885390Y-55389523D01*
X186885390Y-55389523D02*
X186933009Y-55437142D01*
X186933009Y-55437142D02*
X186980628Y-55532380D01*
X186980628Y-55532380D02*
X186980628Y-55913332D01*
X187456819Y-54389523D02*
X187456819Y-54960951D01*
X187456819Y-54675237D02*
X186456819Y-54675237D01*
X186456819Y-54675237D02*
X186599676Y-54770475D01*
X186599676Y-54770475D02*
X186694914Y-54865713D01*
X186694914Y-54865713D02*
X186742533Y-54960951D01*
X186456819Y-53532380D02*
X186456819Y-53722856D01*
X186456819Y-53722856D02*
X186504438Y-53818094D01*
X186504438Y-53818094D02*
X186552057Y-53865713D01*
X186552057Y-53865713D02*
X186694914Y-53960951D01*
X186694914Y-53960951D02*
X186885390Y-54008570D01*
X186885390Y-54008570D02*
X187266342Y-54008570D01*
X187266342Y-54008570D02*
X187361580Y-53960951D01*
X187361580Y-53960951D02*
X187409200Y-53913332D01*
X187409200Y-53913332D02*
X187456819Y-53818094D01*
X187456819Y-53818094D02*
X187456819Y-53627618D01*
X187456819Y-53627618D02*
X187409200Y-53532380D01*
X187409200Y-53532380D02*
X187361580Y-53484761D01*
X187361580Y-53484761D02*
X187266342Y-53437142D01*
X187266342Y-53437142D02*
X187028247Y-53437142D01*
X187028247Y-53437142D02*
X186933009Y-53484761D01*
X186933009Y-53484761D02*
X186885390Y-53532380D01*
X186885390Y-53532380D02*
X186837771Y-53627618D01*
X186837771Y-53627618D02*
X186837771Y-53818094D01*
X186837771Y-53818094D02*
X186885390Y-53913332D01*
X186885390Y-53913332D02*
X186933009Y-53960951D01*
X186933009Y-53960951D02*
X187028247Y-54008570D01*
X106738095Y-55534819D02*
X106738095Y-54534819D01*
X106738095Y-55011009D02*
X107309523Y-55011009D01*
X107309523Y-55534819D02*
X107309523Y-54534819D01*
X108214285Y-54868152D02*
X108214285Y-55534819D01*
X107976190Y-54487200D02*
X107738095Y-55201485D01*
X107738095Y-55201485D02*
X108357142Y-55201485D01*
X162454819Y-99222857D02*
X161978628Y-99556190D01*
X162454819Y-99794285D02*
X161454819Y-99794285D01*
X161454819Y-99794285D02*
X161454819Y-99413333D01*
X161454819Y-99413333D02*
X161502438Y-99318095D01*
X161502438Y-99318095D02*
X161550057Y-99270476D01*
X161550057Y-99270476D02*
X161645295Y-99222857D01*
X161645295Y-99222857D02*
X161788152Y-99222857D01*
X161788152Y-99222857D02*
X161883390Y-99270476D01*
X161883390Y-99270476D02*
X161931009Y-99318095D01*
X161931009Y-99318095D02*
X161978628Y-99413333D01*
X161978628Y-99413333D02*
X161978628Y-99794285D01*
X162454819Y-98270476D02*
X162454819Y-98841904D01*
X162454819Y-98556190D02*
X161454819Y-98556190D01*
X161454819Y-98556190D02*
X161597676Y-98651428D01*
X161597676Y-98651428D02*
X161692914Y-98746666D01*
X161692914Y-98746666D02*
X161740533Y-98841904D01*
X161454819Y-97937142D02*
X161454819Y-97318095D01*
X161454819Y-97318095D02*
X161835771Y-97651428D01*
X161835771Y-97651428D02*
X161835771Y-97508571D01*
X161835771Y-97508571D02*
X161883390Y-97413333D01*
X161883390Y-97413333D02*
X161931009Y-97365714D01*
X161931009Y-97365714D02*
X162026247Y-97318095D01*
X162026247Y-97318095D02*
X162264342Y-97318095D01*
X162264342Y-97318095D02*
X162359580Y-97365714D01*
X162359580Y-97365714D02*
X162407200Y-97413333D01*
X162407200Y-97413333D02*
X162454819Y-97508571D01*
X162454819Y-97508571D02*
X162454819Y-97794285D01*
X162454819Y-97794285D02*
X162407200Y-97889523D01*
X162407200Y-97889523D02*
X162359580Y-97937142D01*
X166357142Y-78439580D02*
X166309523Y-78487200D01*
X166309523Y-78487200D02*
X166166666Y-78534819D01*
X166166666Y-78534819D02*
X166071428Y-78534819D01*
X166071428Y-78534819D02*
X165928571Y-78487200D01*
X165928571Y-78487200D02*
X165833333Y-78391961D01*
X165833333Y-78391961D02*
X165785714Y-78296723D01*
X165785714Y-78296723D02*
X165738095Y-78106247D01*
X165738095Y-78106247D02*
X165738095Y-77963390D01*
X165738095Y-77963390D02*
X165785714Y-77772914D01*
X165785714Y-77772914D02*
X165833333Y-77677676D01*
X165833333Y-77677676D02*
X165928571Y-77582438D01*
X165928571Y-77582438D02*
X166071428Y-77534819D01*
X166071428Y-77534819D02*
X166166666Y-77534819D01*
X166166666Y-77534819D02*
X166309523Y-77582438D01*
X166309523Y-77582438D02*
X166357142Y-77630057D01*
X167309523Y-78534819D02*
X166738095Y-78534819D01*
X167023809Y-78534819D02*
X167023809Y-77534819D01*
X167023809Y-77534819D02*
X166928571Y-77677676D01*
X166928571Y-77677676D02*
X166833333Y-77772914D01*
X166833333Y-77772914D02*
X166738095Y-77820533D01*
X167642857Y-77534819D02*
X168261904Y-77534819D01*
X168261904Y-77534819D02*
X167928571Y-77915771D01*
X167928571Y-77915771D02*
X168071428Y-77915771D01*
X168071428Y-77915771D02*
X168166666Y-77963390D01*
X168166666Y-77963390D02*
X168214285Y-78011009D01*
X168214285Y-78011009D02*
X168261904Y-78106247D01*
X168261904Y-78106247D02*
X168261904Y-78344342D01*
X168261904Y-78344342D02*
X168214285Y-78439580D01*
X168214285Y-78439580D02*
X168166666Y-78487200D01*
X168166666Y-78487200D02*
X168071428Y-78534819D01*
X168071428Y-78534819D02*
X167785714Y-78534819D01*
X167785714Y-78534819D02*
X167690476Y-78487200D01*
X167690476Y-78487200D02*
X167642857Y-78439580D01*
X143454819Y-107746666D02*
X142978628Y-108079999D01*
X143454819Y-108318094D02*
X142454819Y-108318094D01*
X142454819Y-108318094D02*
X142454819Y-107937142D01*
X142454819Y-107937142D02*
X142502438Y-107841904D01*
X142502438Y-107841904D02*
X142550057Y-107794285D01*
X142550057Y-107794285D02*
X142645295Y-107746666D01*
X142645295Y-107746666D02*
X142788152Y-107746666D01*
X142788152Y-107746666D02*
X142883390Y-107794285D01*
X142883390Y-107794285D02*
X142931009Y-107841904D01*
X142931009Y-107841904D02*
X142978628Y-107937142D01*
X142978628Y-107937142D02*
X142978628Y-108318094D01*
X142454819Y-107413332D02*
X142454819Y-106746666D01*
X142454819Y-106746666D02*
X143454819Y-107175237D01*
X123756781Y-99018557D02*
X123423448Y-98542366D01*
X123185353Y-99018557D02*
X123185353Y-98018557D01*
X123185353Y-98018557D02*
X123566305Y-98018557D01*
X123566305Y-98018557D02*
X123661543Y-98066176D01*
X123661543Y-98066176D02*
X123709162Y-98113795D01*
X123709162Y-98113795D02*
X123756781Y-98209033D01*
X123756781Y-98209033D02*
X123756781Y-98351890D01*
X123756781Y-98351890D02*
X123709162Y-98447128D01*
X123709162Y-98447128D02*
X123661543Y-98494747D01*
X123661543Y-98494747D02*
X123566305Y-98542366D01*
X123566305Y-98542366D02*
X123185353Y-98542366D01*
X124613924Y-98018557D02*
X124423448Y-98018557D01*
X124423448Y-98018557D02*
X124328210Y-98066176D01*
X124328210Y-98066176D02*
X124280591Y-98113795D01*
X124280591Y-98113795D02*
X124185353Y-98256652D01*
X124185353Y-98256652D02*
X124137734Y-98447128D01*
X124137734Y-98447128D02*
X124137734Y-98828080D01*
X124137734Y-98828080D02*
X124185353Y-98923318D01*
X124185353Y-98923318D02*
X124232972Y-98970938D01*
X124232972Y-98970938D02*
X124328210Y-99018557D01*
X124328210Y-99018557D02*
X124518686Y-99018557D01*
X124518686Y-99018557D02*
X124613924Y-98970938D01*
X124613924Y-98970938D02*
X124661543Y-98923318D01*
X124661543Y-98923318D02*
X124709162Y-98828080D01*
X124709162Y-98828080D02*
X124709162Y-98589985D01*
X124709162Y-98589985D02*
X124661543Y-98494747D01*
X124661543Y-98494747D02*
X124613924Y-98447128D01*
X124613924Y-98447128D02*
X124518686Y-98399509D01*
X124518686Y-98399509D02*
X124328210Y-98399509D01*
X124328210Y-98399509D02*
X124232972Y-98447128D01*
X124232972Y-98447128D02*
X124185353Y-98494747D01*
X124185353Y-98494747D02*
X124137734Y-98589985D01*
X115913333Y-74034819D02*
X115580000Y-73558628D01*
X115341905Y-74034819D02*
X115341905Y-73034819D01*
X115341905Y-73034819D02*
X115722857Y-73034819D01*
X115722857Y-73034819D02*
X115818095Y-73082438D01*
X115818095Y-73082438D02*
X115865714Y-73130057D01*
X115865714Y-73130057D02*
X115913333Y-73225295D01*
X115913333Y-73225295D02*
X115913333Y-73368152D01*
X115913333Y-73368152D02*
X115865714Y-73463390D01*
X115865714Y-73463390D02*
X115818095Y-73511009D01*
X115818095Y-73511009D02*
X115722857Y-73558628D01*
X115722857Y-73558628D02*
X115341905Y-73558628D01*
X116389524Y-74034819D02*
X116580000Y-74034819D01*
X116580000Y-74034819D02*
X116675238Y-73987200D01*
X116675238Y-73987200D02*
X116722857Y-73939580D01*
X116722857Y-73939580D02*
X116818095Y-73796723D01*
X116818095Y-73796723D02*
X116865714Y-73606247D01*
X116865714Y-73606247D02*
X116865714Y-73225295D01*
X116865714Y-73225295D02*
X116818095Y-73130057D01*
X116818095Y-73130057D02*
X116770476Y-73082438D01*
X116770476Y-73082438D02*
X116675238Y-73034819D01*
X116675238Y-73034819D02*
X116484762Y-73034819D01*
X116484762Y-73034819D02*
X116389524Y-73082438D01*
X116389524Y-73082438D02*
X116341905Y-73130057D01*
X116341905Y-73130057D02*
X116294286Y-73225295D01*
X116294286Y-73225295D02*
X116294286Y-73463390D01*
X116294286Y-73463390D02*
X116341905Y-73558628D01*
X116341905Y-73558628D02*
X116389524Y-73606247D01*
X116389524Y-73606247D02*
X116484762Y-73653866D01*
X116484762Y-73653866D02*
X116675238Y-73653866D01*
X116675238Y-73653866D02*
X116770476Y-73606247D01*
X116770476Y-73606247D02*
X116818095Y-73558628D01*
X116818095Y-73558628D02*
X116865714Y-73463390D01*
X137374819Y-87651904D02*
X138184342Y-87651904D01*
X138184342Y-87651904D02*
X138279580Y-87604285D01*
X138279580Y-87604285D02*
X138327200Y-87556666D01*
X138327200Y-87556666D02*
X138374819Y-87461428D01*
X138374819Y-87461428D02*
X138374819Y-87270952D01*
X138374819Y-87270952D02*
X138327200Y-87175714D01*
X138327200Y-87175714D02*
X138279580Y-87128095D01*
X138279580Y-87128095D02*
X138184342Y-87080476D01*
X138184342Y-87080476D02*
X137374819Y-87080476D01*
X137470057Y-86651904D02*
X137422438Y-86604285D01*
X137422438Y-86604285D02*
X137374819Y-86509047D01*
X137374819Y-86509047D02*
X137374819Y-86270952D01*
X137374819Y-86270952D02*
X137422438Y-86175714D01*
X137422438Y-86175714D02*
X137470057Y-86128095D01*
X137470057Y-86128095D02*
X137565295Y-86080476D01*
X137565295Y-86080476D02*
X137660533Y-86080476D01*
X137660533Y-86080476D02*
X137803390Y-86128095D01*
X137803390Y-86128095D02*
X138374819Y-86699523D01*
X138374819Y-86699523D02*
X138374819Y-86080476D01*
X128345119Y-90699999D02*
X128583214Y-90699999D01*
X128487976Y-90938094D02*
X128583214Y-90699999D01*
X128583214Y-90699999D02*
X128487976Y-90461904D01*
X128773690Y-90842856D02*
X128583214Y-90699999D01*
X128583214Y-90699999D02*
X128773690Y-90557142D01*
X186952819Y-110841904D02*
X186952819Y-110270476D01*
X187952819Y-110556190D02*
X186952819Y-110556190D01*
X187952819Y-109937142D02*
X186952819Y-109937142D01*
X186952819Y-109937142D02*
X186952819Y-109556190D01*
X186952819Y-109556190D02*
X187000438Y-109460952D01*
X187000438Y-109460952D02*
X187048057Y-109413333D01*
X187048057Y-109413333D02*
X187143295Y-109365714D01*
X187143295Y-109365714D02*
X187286152Y-109365714D01*
X187286152Y-109365714D02*
X187381390Y-109413333D01*
X187381390Y-109413333D02*
X187429009Y-109460952D01*
X187429009Y-109460952D02*
X187476628Y-109556190D01*
X187476628Y-109556190D02*
X187476628Y-109937142D01*
X186952819Y-108460952D02*
X186952819Y-108937142D01*
X186952819Y-108937142D02*
X187429009Y-108984761D01*
X187429009Y-108984761D02*
X187381390Y-108937142D01*
X187381390Y-108937142D02*
X187333771Y-108841904D01*
X187333771Y-108841904D02*
X187333771Y-108603809D01*
X187333771Y-108603809D02*
X187381390Y-108508571D01*
X187381390Y-108508571D02*
X187429009Y-108460952D01*
X187429009Y-108460952D02*
X187524247Y-108413333D01*
X187524247Y-108413333D02*
X187762342Y-108413333D01*
X187762342Y-108413333D02*
X187857580Y-108460952D01*
X187857580Y-108460952D02*
X187905200Y-108508571D01*
X187905200Y-108508571D02*
X187952819Y-108603809D01*
X187952819Y-108603809D02*
X187952819Y-108841904D01*
X187952819Y-108841904D02*
X187905200Y-108937142D01*
X187905200Y-108937142D02*
X187857580Y-108984761D01*
X147954819Y-78746666D02*
X147478628Y-79079999D01*
X147954819Y-79318094D02*
X146954819Y-79318094D01*
X146954819Y-79318094D02*
X146954819Y-78937142D01*
X146954819Y-78937142D02*
X147002438Y-78841904D01*
X147002438Y-78841904D02*
X147050057Y-78794285D01*
X147050057Y-78794285D02*
X147145295Y-78746666D01*
X147145295Y-78746666D02*
X147288152Y-78746666D01*
X147288152Y-78746666D02*
X147383390Y-78794285D01*
X147383390Y-78794285D02*
X147431009Y-78841904D01*
X147431009Y-78841904D02*
X147478628Y-78937142D01*
X147478628Y-78937142D02*
X147478628Y-79318094D01*
X147050057Y-78365713D02*
X147002438Y-78318094D01*
X147002438Y-78318094D02*
X146954819Y-78222856D01*
X146954819Y-78222856D02*
X146954819Y-77984761D01*
X146954819Y-77984761D02*
X147002438Y-77889523D01*
X147002438Y-77889523D02*
X147050057Y-77841904D01*
X147050057Y-77841904D02*
X147145295Y-77794285D01*
X147145295Y-77794285D02*
X147240533Y-77794285D01*
X147240533Y-77794285D02*
X147383390Y-77841904D01*
X147383390Y-77841904D02*
X147954819Y-78413332D01*
X147954819Y-78413332D02*
X147954819Y-77794285D01*
X192952819Y-66318094D02*
X192952819Y-65746666D01*
X193952819Y-66032380D02*
X192952819Y-66032380D01*
X193952819Y-65413332D02*
X192952819Y-65413332D01*
X192952819Y-65413332D02*
X192952819Y-65032380D01*
X192952819Y-65032380D02*
X193000438Y-64937142D01*
X193000438Y-64937142D02*
X193048057Y-64889523D01*
X193048057Y-64889523D02*
X193143295Y-64841904D01*
X193143295Y-64841904D02*
X193286152Y-64841904D01*
X193286152Y-64841904D02*
X193381390Y-64889523D01*
X193381390Y-64889523D02*
X193429009Y-64937142D01*
X193429009Y-64937142D02*
X193476628Y-65032380D01*
X193476628Y-65032380D02*
X193476628Y-65413332D01*
X193952819Y-63889523D02*
X193952819Y-64460951D01*
X193952819Y-64175237D02*
X192952819Y-64175237D01*
X192952819Y-64175237D02*
X193095676Y-64270475D01*
X193095676Y-64270475D02*
X193190914Y-64365713D01*
X193190914Y-64365713D02*
X193238533Y-64460951D01*
X193952819Y-62937142D02*
X193952819Y-63508570D01*
X193952819Y-63222856D02*
X192952819Y-63222856D01*
X192952819Y-63222856D02*
X193095676Y-63318094D01*
X193095676Y-63318094D02*
X193190914Y-63413332D01*
X193190914Y-63413332D02*
X193238533Y-63508570D01*
X126954819Y-79826666D02*
X126478628Y-80159999D01*
X126954819Y-80398094D02*
X125954819Y-80398094D01*
X125954819Y-80398094D02*
X125954819Y-80017142D01*
X125954819Y-80017142D02*
X126002438Y-79921904D01*
X126002438Y-79921904D02*
X126050057Y-79874285D01*
X126050057Y-79874285D02*
X126145295Y-79826666D01*
X126145295Y-79826666D02*
X126288152Y-79826666D01*
X126288152Y-79826666D02*
X126383390Y-79874285D01*
X126383390Y-79874285D02*
X126431009Y-79921904D01*
X126431009Y-79921904D02*
X126478628Y-80017142D01*
X126478628Y-80017142D02*
X126478628Y-80398094D01*
X126954819Y-78874285D02*
X126954819Y-79445713D01*
X126954819Y-79159999D02*
X125954819Y-79159999D01*
X125954819Y-79159999D02*
X126097676Y-79255237D01*
X126097676Y-79255237D02*
X126192914Y-79350475D01*
X126192914Y-79350475D02*
X126240533Y-79445713D01*
X151904761Y-64034819D02*
X151571428Y-63558628D01*
X151333333Y-64034819D02*
X151333333Y-63034819D01*
X151333333Y-63034819D02*
X151714285Y-63034819D01*
X151714285Y-63034819D02*
X151809523Y-63082438D01*
X151809523Y-63082438D02*
X151857142Y-63130057D01*
X151857142Y-63130057D02*
X151904761Y-63225295D01*
X151904761Y-63225295D02*
X151904761Y-63368152D01*
X151904761Y-63368152D02*
X151857142Y-63463390D01*
X151857142Y-63463390D02*
X151809523Y-63511009D01*
X151809523Y-63511009D02*
X151714285Y-63558628D01*
X151714285Y-63558628D02*
X151333333Y-63558628D01*
X152190476Y-63034819D02*
X152523809Y-64034819D01*
X152523809Y-64034819D02*
X152857142Y-63034819D01*
X153142857Y-63130057D02*
X153190476Y-63082438D01*
X153190476Y-63082438D02*
X153285714Y-63034819D01*
X153285714Y-63034819D02*
X153523809Y-63034819D01*
X153523809Y-63034819D02*
X153619047Y-63082438D01*
X153619047Y-63082438D02*
X153666666Y-63130057D01*
X153666666Y-63130057D02*
X153714285Y-63225295D01*
X153714285Y-63225295D02*
X153714285Y-63320533D01*
X153714285Y-63320533D02*
X153666666Y-63463390D01*
X153666666Y-63463390D02*
X153095238Y-64034819D01*
X153095238Y-64034819D02*
X153714285Y-64034819D01*
D15*
X107230000Y-66010000D02*
X107230000Y-66025000D01*
X107230000Y-66010000D02*
X111770000Y-66010000D01*
X107230000Y-68135000D02*
X107230000Y-68150000D01*
X107230000Y-68150000D02*
X111770000Y-68150000D01*
X111770000Y-66010000D02*
X111770000Y-66025000D01*
X111770000Y-68135000D02*
X111770000Y-68150000D01*
X175800000Y-107880000D02*
X179200000Y-107880000D01*
X175800000Y-111280000D02*
X175800000Y-107880000D01*
X179200000Y-107880000D02*
X179200000Y-111280000D01*
X179200000Y-111280000D02*
X175800000Y-111280000D01*
X139130000Y-67890000D02*
X139130000Y-74430000D01*
X139130000Y-74430000D02*
X141870000Y-74430000D01*
X140500000Y-67120000D02*
X140500000Y-67890000D01*
X140500000Y-75200000D02*
X140500000Y-74430000D01*
X141870000Y-67890000D02*
X139130000Y-67890000D01*
X141870000Y-74430000D02*
X141870000Y-67890000D01*
X116800000Y-56380000D02*
X120200000Y-56380000D01*
X116800000Y-59780000D02*
X116800000Y-56380000D01*
X120200000Y-56380000D02*
X120200000Y-59780000D01*
X120200000Y-59780000D02*
X116800000Y-59780000D01*
X116800000Y-50380000D02*
X120200000Y-50380000D01*
X116800000Y-53780000D02*
X116800000Y-50380000D01*
X120200000Y-50380000D02*
X120200000Y-53780000D01*
X120200000Y-53780000D02*
X116800000Y-53780000D01*
X160430000Y-80310000D02*
X160430000Y-84850000D01*
X160445000Y-80310000D02*
X160430000Y-80310000D01*
X160445000Y-84850000D02*
X160430000Y-84850000D01*
X162570000Y-80310000D02*
X162555000Y-80310000D01*
X162570000Y-80310000D02*
X162570000Y-84850000D01*
X162570000Y-84850000D02*
X162555000Y-84850000D01*
X142630000Y-67730000D02*
X142630000Y-74270000D01*
X142630000Y-74270000D02*
X145370000Y-74270000D01*
X144000000Y-66960000D02*
X144000000Y-67730000D01*
X144000000Y-75040000D02*
X144000000Y-74270000D01*
X145370000Y-67730000D02*
X142630000Y-67730000D01*
X145370000Y-74270000D02*
X145370000Y-67730000D01*
X196670000Y-81710000D02*
X198000000Y-81710000D01*
X196670000Y-83040000D02*
X196670000Y-81710000D01*
X196670000Y-84310000D02*
X196670000Y-86910000D01*
X196670000Y-84310000D02*
X199330000Y-84310000D01*
X196670000Y-86910000D02*
X199330000Y-86910000D01*
X199330000Y-84310000D02*
X199330000Y-86910000D01*
X111800000Y-50380000D02*
X115200000Y-50380000D01*
X111800000Y-53780000D02*
X111800000Y-50380000D01*
X115200000Y-50380000D02*
X115200000Y-53780000D01*
X115200000Y-53780000D02*
X111800000Y-53780000D01*
X135130000Y-67810000D02*
X135130000Y-74350000D01*
X135130000Y-74350000D02*
X137870000Y-74350000D01*
X136500000Y-67040000D02*
X136500000Y-67810000D01*
X136500000Y-75120000D02*
X136500000Y-74350000D01*
X137870000Y-67810000D02*
X135130000Y-67810000D01*
X137870000Y-74350000D02*
X137870000Y-67810000D01*
X172930000Y-75810000D02*
X172945000Y-75810000D01*
X172930000Y-80350000D02*
X172930000Y-75810000D01*
X172930000Y-80350000D02*
X172945000Y-80350000D01*
X175055000Y-75810000D02*
X175070000Y-75810000D01*
X175055000Y-80350000D02*
X175070000Y-80350000D01*
X175070000Y-80350000D02*
X175070000Y-75810000D01*
D16*
X161990000Y-67589000D02*
X161990000Y-50444000D01*
X163895000Y-69494000D02*
X177865000Y-69494000D01*
X166385000Y-48539000D02*
X166388728Y-47528728D01*
X166888728Y-47029000D02*
X174884000Y-47029000D01*
X175384000Y-47529000D02*
X175384000Y-48539000D01*
D13*
X177865000Y-48539000D02*
X163895000Y-48539000D01*
D16*
X177865000Y-48539000D02*
X163895000Y-48539000D01*
X179770000Y-67589000D02*
X179770000Y-50444000D01*
X161990000Y-50444000D02*
G75*
G02*
X163895000Y-48539000I1905001J-1D01*
G01*
X163895000Y-69494000D02*
G75*
G02*
X161990000Y-67589000I1J1905001D01*
G01*
X166388728Y-47528728D02*
G75*
G02*
X166888728Y-47029001I500018J-291D01*
G01*
X174884000Y-47029000D02*
G75*
G02*
X175384000Y-47529000I0J-500000D01*
G01*
X177865000Y-48539000D02*
G75*
G02*
X179770000Y-50444000I0J-1905000D01*
G01*
X179770000Y-67589000D02*
G75*
G02*
X177865000Y-69494000I-1905000J0D01*
G01*
D17*
X162132000Y-48830000D02*
G75*
G02*
X161628000Y-48830000I-252000J0D01*
G01*
X161628000Y-48830000D02*
G75*
G02*
X162132000Y-48830000I252000J0D01*
G01*
X163275000Y-49710000D02*
G75*
G02*
X162771000Y-49710000I-252000J0D01*
G01*
X162771000Y-49710000D02*
G75*
G02*
X163275000Y-49710000I252000J0D01*
G01*
D15*
X175930000Y-75810000D02*
X175930000Y-80350000D01*
X175945000Y-75810000D02*
X175930000Y-75810000D01*
X175945000Y-80350000D02*
X175930000Y-80350000D01*
X178070000Y-75810000D02*
X178055000Y-75810000D01*
X178070000Y-75810000D02*
X178070000Y-80350000D01*
X178070000Y-80350000D02*
X178055000Y-80350000D01*
X182300000Y-48880000D02*
X185700000Y-48880000D01*
X182300000Y-52280000D02*
X182300000Y-48880000D01*
X185700000Y-48880000D02*
X185700000Y-52280000D01*
X185700000Y-52280000D02*
X182300000Y-52280000D01*
X188800000Y-48880000D02*
X192200000Y-48880000D01*
X188800000Y-52280000D02*
X188800000Y-48880000D01*
X192200000Y-48880000D02*
X192200000Y-52280000D01*
X192200000Y-52280000D02*
X188800000Y-52280000D01*
X138430000Y-95150000D02*
X138430000Y-99690000D01*
X138445000Y-95150000D02*
X138430000Y-95150000D01*
X138445000Y-99690000D02*
X138430000Y-99690000D01*
X140570000Y-95150000D02*
X140555000Y-95150000D01*
X140570000Y-95150000D02*
X140570000Y-99690000D01*
X140570000Y-99690000D02*
X140555000Y-99690000D01*
X196670000Y-73210000D02*
X198000000Y-73210000D01*
X196670000Y-74540000D02*
X196670000Y-73210000D01*
X196670000Y-75810000D02*
X196670000Y-78410000D01*
X196670000Y-75810000D02*
X199330000Y-75810000D01*
X196670000Y-78410000D02*
X199330000Y-78410000D01*
X199330000Y-75810000D02*
X199330000Y-78410000D01*
X182300000Y-57880000D02*
X185700000Y-57880000D01*
X182300000Y-61280000D02*
X182300000Y-57880000D01*
X185700000Y-57880000D02*
X185700000Y-61280000D01*
X185700000Y-61280000D02*
X182300000Y-61280000D01*
X182300000Y-107880000D02*
X185700000Y-107880000D01*
X182300000Y-111280000D02*
X182300000Y-107880000D01*
X185700000Y-107880000D02*
X185700000Y-111280000D01*
X185700000Y-111280000D02*
X182300000Y-111280000D01*
X184880000Y-74080000D02*
X185650000Y-74080000D01*
X185650000Y-72710000D02*
X185650000Y-75450000D01*
X185650000Y-75450000D02*
X192190000Y-75450000D01*
X192190000Y-72710000D02*
X185650000Y-72710000D01*
X192190000Y-75450000D02*
X192190000Y-72710000D01*
X192960000Y-74080000D02*
X192190000Y-74080000D01*
X131819693Y-93993738D02*
X131819693Y-94008738D01*
X131819693Y-93993738D02*
X136359693Y-93993738D01*
X131819693Y-96118738D02*
X131819693Y-96133738D01*
X131819693Y-96133738D02*
X136359693Y-96133738D01*
X136359693Y-93993738D02*
X136359693Y-94008738D01*
X136359693Y-96118738D02*
X136359693Y-96133738D01*
X152905000Y-50250000D02*
X152905000Y-52910000D01*
X155505000Y-50250000D02*
X152905000Y-50250000D01*
X155505000Y-50250000D02*
X155505000Y-52910000D01*
X155505000Y-52910000D02*
X152905000Y-52910000D01*
X156775000Y-50250000D02*
X158105000Y-50250000D01*
X158105000Y-50250000D02*
X158105000Y-51580000D01*
X178930000Y-75810000D02*
X178930000Y-80350000D01*
X178945000Y-75810000D02*
X178930000Y-75810000D01*
X178945000Y-80350000D02*
X178930000Y-80350000D01*
X181070000Y-75810000D02*
X181055000Y-75810000D01*
X181070000Y-75810000D02*
X181070000Y-80350000D01*
X181070000Y-80350000D02*
X181055000Y-80350000D01*
X189630000Y-99490000D02*
X189630000Y-89210000D01*
X192230000Y-96890000D02*
X192230000Y-99490000D01*
X192230000Y-99490000D02*
X189630000Y-99490000D01*
X194830000Y-89210000D02*
X189630000Y-89210000D01*
X194830000Y-96890000D02*
X192230000Y-96890000D01*
X194830000Y-96890000D02*
X194830000Y-89210000D01*
X194830000Y-98160000D02*
X194830000Y-99490000D01*
X194830000Y-99490000D02*
X193500000Y-99490000D01*
X106670000Y-74790000D02*
X108000000Y-74790000D01*
X106670000Y-76120000D02*
X106670000Y-74790000D01*
X106670000Y-77390000D02*
X106670000Y-79990000D01*
X106670000Y-77390000D02*
X109330000Y-77390000D01*
X106670000Y-79990000D02*
X109330000Y-79990000D01*
X109330000Y-77390000D02*
X109330000Y-79990000D01*
X182930000Y-83810000D02*
X182930000Y-88350000D01*
X182945000Y-83810000D02*
X182930000Y-83810000D01*
X182945000Y-88350000D02*
X182930000Y-88350000D01*
X185070000Y-83810000D02*
X185055000Y-83810000D01*
X185070000Y-83810000D02*
X185070000Y-88350000D01*
X185070000Y-88350000D02*
X185055000Y-88350000D01*
X167130000Y-95230000D02*
X167130000Y-101770000D01*
X167130000Y-101770000D02*
X169870000Y-101770000D01*
X168500000Y-94460000D02*
X168500000Y-95230000D01*
X168500000Y-102540000D02*
X168500000Y-101770000D01*
X169870000Y-95230000D02*
X167130000Y-95230000D01*
X169870000Y-101770000D02*
X169870000Y-95230000D01*
X111800000Y-56380000D02*
X115200000Y-56380000D01*
X111800000Y-59780000D02*
X111800000Y-56380000D01*
X115200000Y-56380000D02*
X115200000Y-59780000D01*
X115200000Y-59780000D02*
X111800000Y-59780000D01*
X127469693Y-102063738D02*
X128239693Y-102063738D01*
X128239693Y-100693738D02*
X128239693Y-103433738D01*
X128239693Y-103433738D02*
X134779693Y-103433738D01*
X134779693Y-100693738D02*
X128239693Y-100693738D01*
X134779693Y-103433738D02*
X134779693Y-100693738D01*
X135549693Y-102063738D02*
X134779693Y-102063738D01*
X188800000Y-102880000D02*
X192200000Y-102880000D01*
X188800000Y-106280000D02*
X188800000Y-102880000D01*
X192200000Y-102880000D02*
X192200000Y-106280000D01*
X192200000Y-106280000D02*
X188800000Y-106280000D01*
X188800000Y-53380000D02*
X192200000Y-53380000D01*
X188800000Y-56780000D02*
X188800000Y-53380000D01*
X192200000Y-53380000D02*
X192200000Y-56780000D01*
X192200000Y-56780000D02*
X188800000Y-56780000D01*
X128630000Y-68890000D02*
X128630000Y-75430000D01*
X128630000Y-75430000D02*
X131370000Y-75430000D01*
X130000000Y-68120000D02*
X130000000Y-68890000D01*
X130000000Y-76200000D02*
X130000000Y-75430000D01*
X131370000Y-68890000D02*
X128630000Y-68890000D01*
X131370000Y-75430000D02*
X131370000Y-68890000D01*
X121630000Y-68890000D02*
X121630000Y-75430000D01*
X121630000Y-75430000D02*
X124370000Y-75430000D01*
X123000000Y-68120000D02*
X123000000Y-68890000D01*
X123000000Y-76200000D02*
X123000000Y-75430000D01*
X124370000Y-68890000D02*
X121630000Y-68890000D01*
X124370000Y-75430000D02*
X124370000Y-68890000D01*
X189230000Y-76025000D02*
X189230000Y-76010000D01*
X189230000Y-78150000D02*
X189230000Y-78135000D01*
X193770000Y-76010000D02*
X189230000Y-76010000D01*
X193770000Y-76025000D02*
X193770000Y-76010000D01*
X193770000Y-78150000D02*
X189230000Y-78150000D01*
X193770000Y-78150000D02*
X193770000Y-78135000D01*
D18*
X174345301Y-85768776D02*
X174345301Y-89447624D01*
X179704701Y-89447624D02*
X179704701Y-85768776D01*
D19*
G36*
X175590500Y-91977000D02*
G01*
X175209500Y-91977000D01*
X175209500Y-91723000D01*
X175590500Y-91723000D01*
X175590500Y-91977000D01*
G37*
D15*
X182300000Y-102880000D02*
X185700000Y-102880000D01*
X182300000Y-106280000D02*
X182300000Y-102880000D01*
X185700000Y-102880000D02*
X185700000Y-106280000D01*
X185700000Y-106280000D02*
X182300000Y-106280000D01*
X188800000Y-57880000D02*
X192200000Y-57880000D01*
X188800000Y-61280000D02*
X188800000Y-57880000D01*
X192200000Y-57880000D02*
X192200000Y-61280000D01*
X192200000Y-61280000D02*
X188800000Y-61280000D01*
D18*
X163871100Y-84379100D02*
X163871100Y-88620900D01*
X169128900Y-88620900D02*
X169128900Y-84379100D01*
D15*
X176630000Y-96230000D02*
X176630000Y-102770000D01*
X176630000Y-102770000D02*
X179370000Y-102770000D01*
X178000000Y-95460000D02*
X178000000Y-96230000D01*
X178000000Y-103540000D02*
X178000000Y-102770000D01*
X179370000Y-96230000D02*
X176630000Y-96230000D01*
X179370000Y-102770000D02*
X179370000Y-96230000D01*
X181230000Y-93510000D02*
X181230000Y-93525000D01*
X181230000Y-93510000D02*
X185770000Y-93510000D01*
X181230000Y-95635000D02*
X181230000Y-95650000D01*
X181230000Y-95650000D02*
X185770000Y-95650000D01*
X185770000Y-93510000D02*
X185770000Y-93525000D01*
X185770000Y-95635000D02*
X185770000Y-95650000D01*
X123430000Y-51960000D02*
X123430000Y-55825000D01*
X123430000Y-60335000D02*
X123430000Y-64200000D01*
X125030000Y-51960000D02*
X123430000Y-51960000D01*
X127529000Y-51960000D02*
X126770000Y-51960000D01*
X130029000Y-51960000D02*
X129270000Y-51960000D01*
X133370000Y-51960000D02*
X131771000Y-51960000D01*
X133370000Y-51960000D02*
X133370000Y-55825000D01*
X133370000Y-60335000D02*
X133370000Y-64200000D01*
X133370000Y-64200000D02*
X123430000Y-64200000D01*
X182300000Y-53380000D02*
X185700000Y-53380000D01*
X182300000Y-56780000D02*
X182300000Y-53380000D01*
X185700000Y-53380000D02*
X185700000Y-56780000D01*
X185700000Y-56780000D02*
X182300000Y-56780000D01*
X163130000Y-95230000D02*
X163130000Y-101770000D01*
X163130000Y-101770000D02*
X165870000Y-101770000D01*
X164500000Y-94460000D02*
X164500000Y-95230000D01*
X164500000Y-102540000D02*
X164500000Y-101770000D01*
X165870000Y-95230000D02*
X163130000Y-95230000D01*
X165870000Y-101770000D02*
X165870000Y-95230000D01*
X164730000Y-79010000D02*
X164730000Y-79025000D01*
X164730000Y-79010000D02*
X169270000Y-79010000D01*
X164730000Y-81135000D02*
X164730000Y-81150000D01*
X164730000Y-81150000D02*
X169270000Y-81150000D01*
X169270000Y-79010000D02*
X169270000Y-79025000D01*
X169270000Y-81135000D02*
X169270000Y-81150000D01*
X141630000Y-96730000D02*
X141630000Y-103270000D01*
X141630000Y-103270000D02*
X144370000Y-103270000D01*
X143000000Y-95960000D02*
X143000000Y-96730000D01*
X143000000Y-104040000D02*
X143000000Y-103270000D01*
X144370000Y-96730000D02*
X141630000Y-96730000D01*
X144370000Y-103270000D02*
X144370000Y-96730000D01*
X127469693Y-98563738D02*
X128239693Y-98563738D01*
X128239693Y-97193738D02*
X128239693Y-99933738D01*
X128239693Y-99933738D02*
X134779693Y-99933738D01*
X134779693Y-97193738D02*
X128239693Y-97193738D01*
X134779693Y-99933738D02*
X134779693Y-97193738D01*
X135549693Y-98563738D02*
X134779693Y-98563738D01*
X108040000Y-71080000D02*
X108810000Y-71080000D01*
X108810000Y-69710000D02*
X108810000Y-72450000D01*
X108810000Y-72450000D02*
X115350000Y-72450000D01*
X115350000Y-69710000D02*
X108810000Y-69710000D01*
X115350000Y-72450000D02*
X115350000Y-69710000D01*
X116120000Y-71080000D02*
X115350000Y-71080000D01*
D18*
X128077500Y-83588000D02*
X128077500Y-90192000D01*
X128077500Y-90192000D02*
X129319560Y-90192000D01*
X129461431Y-83588000D02*
X128077500Y-83588000D01*
X131280440Y-90192000D02*
X132001431Y-90192000D01*
X132001431Y-83588000D02*
X131138569Y-83588000D01*
X133678569Y-90192000D02*
X134541431Y-90192000D01*
X134541431Y-83588000D02*
X133678569Y-83588000D01*
X136218569Y-90192000D02*
X137081431Y-90192000D01*
X137081431Y-83588000D02*
X136218569Y-83588000D01*
X138758569Y-90192000D02*
X139621431Y-90192000D01*
X139621431Y-83588000D02*
X138758569Y-83588000D01*
X141298569Y-90192000D02*
X142161431Y-90192000D01*
X142161431Y-83588000D02*
X141298569Y-83588000D01*
X143838569Y-90192000D02*
X144701431Y-90192000D01*
X144701431Y-83588000D02*
X143838569Y-83588000D01*
X146378569Y-90192000D02*
X147762500Y-90192000D01*
X147762500Y-83588000D02*
X146378569Y-83588000D01*
X147762500Y-90192000D02*
X147762500Y-83588000D01*
X128077500Y-86585200D02*
G75*
G02*
X128077500Y-87194800I0J-304800D01*
G01*
D15*
X188800000Y-107880000D02*
X192200000Y-107880000D01*
X188800000Y-111280000D02*
X188800000Y-107880000D01*
X192200000Y-107880000D02*
X192200000Y-111280000D01*
X192200000Y-111280000D02*
X188800000Y-111280000D01*
X146130000Y-67730000D02*
X146130000Y-74270000D01*
X146130000Y-74270000D02*
X148870000Y-74270000D01*
X147500000Y-66960000D02*
X147500000Y-67730000D01*
X147500000Y-75040000D02*
X147500000Y-74270000D01*
X148870000Y-67730000D02*
X146130000Y-67730000D01*
X148870000Y-74270000D02*
X148870000Y-67730000D01*
X188800000Y-62880000D02*
X192200000Y-62880000D01*
X188800000Y-66280000D02*
X188800000Y-62880000D01*
X192200000Y-62880000D02*
X192200000Y-66280000D01*
X192200000Y-66280000D02*
X188800000Y-66280000D01*
X125130000Y-68890000D02*
X125130000Y-75430000D01*
X125130000Y-75430000D02*
X127870000Y-75430000D01*
X126500000Y-68120000D02*
X126500000Y-68890000D01*
X126500000Y-76200000D02*
X126500000Y-75430000D01*
X127870000Y-68890000D02*
X125130000Y-68890000D01*
X127870000Y-75430000D02*
X127870000Y-68890000D01*
X139030000Y-51910000D02*
X139030000Y-55775000D01*
X139030000Y-60285000D02*
X139030000Y-64150000D01*
X140630000Y-51910000D02*
X139030000Y-51910000D01*
X143129000Y-51910000D02*
X142370000Y-51910000D01*
X145629000Y-51910000D02*
X144870000Y-51910000D01*
X148970000Y-51910000D02*
X147371000Y-51910000D01*
X148970000Y-51910000D02*
X148970000Y-55775000D01*
X148970000Y-60285000D02*
X148970000Y-64150000D01*
X148970000Y-64150000D02*
X139030000Y-64150000D01*
%LPC*%
D20*
X107000000Y-67080000D03*
X112000000Y-67080000D03*
D21*
X177500000Y-109580000D03*
D20*
X140500000Y-66080000D03*
D22*
X140500000Y-76240000D03*
D21*
X118500000Y-58080000D03*
X118500000Y-52080000D03*
D20*
X161500000Y-80080000D03*
X161500000Y-85080000D03*
X144000000Y-76080000D03*
D22*
X144000000Y-65920000D03*
D23*
X198000000Y-83040000D03*
D24*
X198000000Y-85580000D03*
D21*
X113500000Y-52080000D03*
D20*
X136500000Y-66000000D03*
D22*
X136500000Y-76160000D03*
D20*
X174000000Y-80580000D03*
X174000000Y-75580000D03*
D25*
X162425000Y-51460000D03*
D26*
X163260000Y-51460000D03*
D25*
X162425000Y-54000000D03*
D26*
X163260000Y-54000000D03*
D25*
X162425000Y-56540000D03*
D26*
X163260000Y-56540000D03*
D25*
X162425000Y-59080000D03*
D26*
X163260000Y-59080000D03*
D25*
X162425000Y-61620000D03*
D26*
X163260000Y-61620000D03*
D25*
X162425000Y-64160000D03*
D26*
X163260000Y-64160000D03*
D25*
X162425000Y-66700000D03*
D26*
X163260000Y-66700000D03*
X178500000Y-66700000D03*
D27*
X179335000Y-66700000D03*
D26*
X178500000Y-64160000D03*
D27*
X179335000Y-64160000D03*
D26*
X178500000Y-61620000D03*
D27*
X179335000Y-61620000D03*
D26*
X178500000Y-59080000D03*
D27*
X179335000Y-59080000D03*
D26*
X178500000Y-56540000D03*
D27*
X179335000Y-56540000D03*
D26*
X178500000Y-54000000D03*
D27*
X179335000Y-54000000D03*
D26*
X178500000Y-51460000D03*
D27*
X179335000Y-51460000D03*
D20*
X177000000Y-75580000D03*
X177000000Y-80580000D03*
D21*
X184000000Y-50580000D03*
X190500000Y-50580000D03*
D20*
X139500000Y-94920000D03*
X139500000Y-99920000D03*
D23*
X198000000Y-74540000D03*
D24*
X198000000Y-77080000D03*
D28*
X198500000Y-109580000D03*
D29*
X198500000Y-109580000D03*
D21*
X184000000Y-59580000D03*
X184000000Y-109580000D03*
D20*
X194000000Y-74080000D03*
D22*
X183840000Y-74080000D03*
D20*
X131589693Y-95063738D03*
X136589693Y-95063738D03*
D23*
X156775000Y-51580000D03*
D24*
X154235000Y-51580000D03*
D20*
X180000000Y-75580000D03*
X180000000Y-80580000D03*
D23*
X193500000Y-98160000D03*
D24*
X190960000Y-98160000D03*
X193500000Y-95620000D03*
X190960000Y-95620000D03*
X193500000Y-93080000D03*
X190960000Y-93080000D03*
X193500000Y-90540000D03*
X190960000Y-90540000D03*
D23*
X108000000Y-76120000D03*
D24*
X108000000Y-78660000D03*
D20*
X184000000Y-83580000D03*
X184000000Y-88580000D03*
X168500000Y-93420000D03*
D22*
X168500000Y-103580000D03*
D21*
X113500000Y-58080000D03*
D20*
X126429693Y-102063738D03*
D22*
X136589693Y-102063738D03*
D21*
X190500000Y-104580000D03*
X190500000Y-55080000D03*
D20*
X130000000Y-67080000D03*
D22*
X130000000Y-77240000D03*
D20*
X123000000Y-67080000D03*
D22*
X123000000Y-77240000D03*
D20*
X194000000Y-77080000D03*
X189000000Y-77080000D03*
D30*
X179300000Y-84636400D03*
X178650002Y-84636400D03*
X178000000Y-84636400D03*
X177350002Y-84636400D03*
X176700003Y-84636400D03*
X176050002Y-84636400D03*
X175400003Y-84636400D03*
X174750002Y-84636400D03*
X174750002Y-90580000D03*
X175400000Y-90580000D03*
X176050002Y-90580000D03*
X176700000Y-90580000D03*
X177349999Y-90580000D03*
X178000000Y-90580000D03*
X178649999Y-90580000D03*
X179300000Y-90580000D03*
D21*
X184000000Y-104580000D03*
X190500000Y-59580000D03*
D28*
X107500000Y-109580000D03*
D29*
X107500000Y-109580000D03*
D31*
X168405000Y-83674250D03*
X167135000Y-83674250D03*
X165865000Y-83674250D03*
X164595000Y-83674250D03*
X164595000Y-89325750D03*
X165865000Y-89325750D03*
X167135000Y-89325750D03*
X168405000Y-89325750D03*
D20*
X178000000Y-94420000D03*
D22*
X178000000Y-104580000D03*
D28*
X198500000Y-51580000D03*
D29*
X198500000Y-51580000D03*
D20*
X181000000Y-94580000D03*
X186000000Y-94580000D03*
D32*
X132800000Y-58080000D03*
X124000000Y-58080000D03*
D33*
X125900000Y-51080000D03*
X128400000Y-51080000D03*
X130900000Y-51080000D03*
D21*
X184000000Y-55080000D03*
D28*
X107500000Y-51580000D03*
D29*
X107500000Y-51580000D03*
D20*
X164500000Y-103580000D03*
D22*
X164500000Y-93420000D03*
D20*
X164500000Y-80080000D03*
X169500000Y-80080000D03*
X143000000Y-105080000D03*
D22*
X143000000Y-94920000D03*
D20*
X136589693Y-98563738D03*
D22*
X126429693Y-98563738D03*
D20*
X117160000Y-71080000D03*
D22*
X107000000Y-71080000D03*
D34*
X130300000Y-90700000D03*
D35*
X132840000Y-90700000D03*
X135380000Y-90700000D03*
X137920000Y-90700000D03*
X140460000Y-90700000D03*
X143000000Y-90700000D03*
X145540000Y-90700000D03*
X145540000Y-83080000D03*
X143000000Y-83080000D03*
X140460000Y-83080000D03*
X137920000Y-83080000D03*
X135380000Y-83080000D03*
X132840000Y-83080000D03*
X130300000Y-83080000D03*
D21*
X190500000Y-109580000D03*
D20*
X147500000Y-76080000D03*
D22*
X147500000Y-65920000D03*
D21*
X190500000Y-64580000D03*
D20*
X126500000Y-67080000D03*
D22*
X126500000Y-77240000D03*
D32*
X148400000Y-58030000D03*
X139600000Y-58030000D03*
D33*
X141500000Y-51030000D03*
X144000000Y-51030000D03*
X146500000Y-51030000D03*
%LPD*%
M02*
