G04 #@! TF.GenerationSoftware,KiCad,Pcbnew,9.0.0*
G04 #@! TF.CreationDate,2025-02-23T14:29:25+01:00*
G04 #@! TF.ProjectId,pcb_v0,7063625f-7630-42e6-9b69-6361645f7063,rev?*
G04 #@! TF.SameCoordinates,Original*
G04 #@! TF.FileFunction,Copper,L1,Top*
G04 #@! TF.FilePolarity,Positive*
%FSLAX46Y46*%
G04 Gerber Fmt 4.6, Leading zero omitted, Abs format (unit mm)*
G04 Created by KiCad (PCBNEW 9.0.0) date 2025-02-23 14:29:25*
%MOMM*%
%LPD*%
G01*
G04 APERTURE LIST*
G04 Aperture macros list*
%AMRoundRect*
0 Rectangle with rounded corners*
0 $1 Rounding radius*
0 $2 $3 $4 $5 $6 $7 $8 $9 X,Y pos of 4 corners*
0 Add a 4 corners polygon primitive as box body*
4,1,4,$2,$3,$4,$5,$6,$7,$8,$9,$2,$3,0*
0 Add four circle primitives for the rounded corners*
1,1,$1+$1,$2,$3*
1,1,$1+$1,$4,$5*
1,1,$1+$1,$6,$7*
1,1,$1+$1,$8,$9*
0 Add four rect primitives between the rounded corners*
20,1,$1+$1,$2,$3,$4,$5,0*
20,1,$1+$1,$4,$5,$6,$7,0*
20,1,$1+$1,$6,$7,$8,$9,0*
20,1,$1+$1,$8,$9,$2,$3,0*%
G04 Aperture macros list end*
G04 #@! TA.AperFunction,ComponentPad*
%ADD10C,1.600000*%
G04 #@! TD*
G04 #@! TA.AperFunction,ComponentPad*
%ADD11R,3.000000X3.000000*%
G04 #@! TD*
G04 #@! TA.AperFunction,ComponentPad*
%ADD12O,1.600000X1.600000*%
G04 #@! TD*
G04 #@! TA.AperFunction,ComponentPad*
%ADD13R,1.700000X1.700000*%
G04 #@! TD*
G04 #@! TA.AperFunction,ComponentPad*
%ADD14O,1.700000X1.700000*%
G04 #@! TD*
G04 #@! TA.AperFunction,SMDPad,CuDef*
%ADD15RoundRect,0.152400X1.063600X0.609600X-1.063600X0.609600X-1.063600X-0.609600X1.063600X-0.609600X0*%
G04 #@! TD*
G04 #@! TA.AperFunction,ComponentPad*
%ADD16C,1.524000*%
G04 #@! TD*
G04 #@! TA.AperFunction,SMDPad,CuDef*
%ADD17RoundRect,0.152400X-1.063600X-0.609600X1.063600X-0.609600X1.063600X0.609600X-1.063600X0.609600X0*%
G04 #@! TD*
G04 #@! TA.AperFunction,ComponentPad*
%ADD18C,2.600000*%
G04 #@! TD*
G04 #@! TA.AperFunction,ConnectorPad*
%ADD19C,4.400000*%
G04 #@! TD*
G04 #@! TA.AperFunction,SMDPad,CuDef*
%ADD20R,0.355600X1.778000*%
G04 #@! TD*
G04 #@! TA.AperFunction,SMDPad,CuDef*
%ADD21R,0.558800X1.663700*%
G04 #@! TD*
G04 #@! TA.AperFunction,WasherPad*
%ADD22C,4.000000*%
G04 #@! TD*
G04 #@! TA.AperFunction,ComponentPad*
%ADD23C,1.800000*%
G04 #@! TD*
G04 #@! TA.AperFunction,ComponentPad*
%ADD24R,1.295400X1.295400*%
G04 #@! TD*
G04 #@! TA.AperFunction,ComponentPad*
%ADD25C,1.295400*%
G04 #@! TD*
G04 #@! TA.AperFunction,ViaPad*
%ADD26C,0.800000*%
G04 #@! TD*
G04 #@! TA.AperFunction,Conductor*
%ADD27C,0.400000*%
G04 #@! TD*
G04 #@! TA.AperFunction,Conductor*
%ADD28C,1.000000*%
G04 #@! TD*
G04 APERTURE END LIST*
D10*
X107000000Y-67080000D03*
X112000000Y-67080000D03*
D11*
X177500000Y-109580000D03*
D10*
X140500000Y-66080000D03*
D12*
X140500000Y-76240000D03*
D11*
X118500000Y-58080000D03*
X118500000Y-52080000D03*
D10*
X161500000Y-80080000D03*
X161500000Y-85080000D03*
X144000000Y-76080000D03*
D12*
X144000000Y-65920000D03*
D13*
X198000000Y-83040000D03*
D14*
X198000000Y-85580000D03*
D11*
X113500000Y-52080000D03*
D10*
X136500000Y-66000000D03*
D12*
X136500000Y-76160000D03*
D10*
X174000000Y-80580000D03*
X174000000Y-75580000D03*
D15*
X162425000Y-51460000D03*
D16*
X163260000Y-51460000D03*
D15*
X162425000Y-54000000D03*
D16*
X163260000Y-54000000D03*
D15*
X162425000Y-56540000D03*
D16*
X163260000Y-56540000D03*
D15*
X162425000Y-59080000D03*
D16*
X163260000Y-59080000D03*
D15*
X162425000Y-61620000D03*
D16*
X163260000Y-61620000D03*
D15*
X162425000Y-64160000D03*
D16*
X163260000Y-64160000D03*
D15*
X162425000Y-66700000D03*
D16*
X163260000Y-66700000D03*
X178500000Y-66700000D03*
D17*
X179335000Y-66700000D03*
D16*
X178500000Y-64160000D03*
D17*
X179335000Y-64160000D03*
D16*
X178500000Y-61620000D03*
D17*
X179335000Y-61620000D03*
D16*
X178500000Y-59080000D03*
D17*
X179335000Y-59080000D03*
D16*
X178500000Y-56540000D03*
D17*
X179335000Y-56540000D03*
D16*
X178500000Y-54000000D03*
D17*
X179335000Y-54000000D03*
D16*
X178500000Y-51460000D03*
D17*
X179335000Y-51460000D03*
D10*
X177000000Y-75580000D03*
X177000000Y-80580000D03*
D11*
X184000000Y-50580000D03*
X190500000Y-50580000D03*
D10*
X139500000Y-94920000D03*
X139500000Y-99920000D03*
D13*
X198000000Y-74540000D03*
D14*
X198000000Y-77080000D03*
D18*
X198500000Y-109580000D03*
D19*
X198500000Y-109580000D03*
D11*
X184000000Y-59580000D03*
X184000000Y-109580000D03*
D10*
X194000000Y-74080000D03*
D12*
X183840000Y-74080000D03*
D10*
X131589693Y-95063738D03*
X136589693Y-95063738D03*
D13*
X156775000Y-51580000D03*
D14*
X154235000Y-51580000D03*
D10*
X180000000Y-75580000D03*
X180000000Y-80580000D03*
D13*
X193500000Y-98160000D03*
D14*
X190960000Y-98160000D03*
X193500000Y-95620000D03*
X190960000Y-95620000D03*
X193500000Y-93080000D03*
X190960000Y-93080000D03*
X193500000Y-90540000D03*
X190960000Y-90540000D03*
D13*
X108000000Y-76120000D03*
D14*
X108000000Y-78660000D03*
D10*
X184000000Y-83580000D03*
X184000000Y-88580000D03*
X168500000Y-93420000D03*
D12*
X168500000Y-103580000D03*
D11*
X113500000Y-58080000D03*
D10*
X126429693Y-102063738D03*
D12*
X136589693Y-102063738D03*
D11*
X190500000Y-104580000D03*
X190500000Y-55080000D03*
D10*
X130000000Y-67080000D03*
D12*
X130000000Y-77240000D03*
D10*
X123000000Y-67080000D03*
D12*
X123000000Y-77240000D03*
D10*
X194000000Y-77080000D03*
X189000000Y-77080000D03*
D20*
X179300000Y-84636400D03*
X178650002Y-84636400D03*
X178000000Y-84636400D03*
X177350002Y-84636400D03*
X176700003Y-84636400D03*
X176050002Y-84636400D03*
X175400003Y-84636400D03*
X174750002Y-84636400D03*
X174750002Y-90580000D03*
X175400000Y-90580000D03*
X176050002Y-90580000D03*
X176700000Y-90580000D03*
X177349999Y-90580000D03*
X178000000Y-90580000D03*
X178649999Y-90580000D03*
X179300000Y-90580000D03*
D11*
X184000000Y-104580000D03*
X190500000Y-59580000D03*
D18*
X107500000Y-109580000D03*
D19*
X107500000Y-109580000D03*
D21*
X168405000Y-83674250D03*
X167135000Y-83674250D03*
X165865000Y-83674250D03*
X164595000Y-83674250D03*
X164595000Y-89325750D03*
X165865000Y-89325750D03*
X167135000Y-89325750D03*
X168405000Y-89325750D03*
D10*
X178000000Y-94420000D03*
D12*
X178000000Y-104580000D03*
D18*
X198500000Y-51580000D03*
D19*
X198500000Y-51580000D03*
D10*
X181000000Y-94580000D03*
X186000000Y-94580000D03*
D22*
X132800000Y-58080000D03*
X124000000Y-58080000D03*
D23*
X125900000Y-51080000D03*
X128400000Y-51080000D03*
X130900000Y-51080000D03*
D11*
X184000000Y-55080000D03*
D18*
X107500000Y-51580000D03*
D19*
X107500000Y-51580000D03*
D10*
X164500000Y-103580000D03*
D12*
X164500000Y-93420000D03*
D10*
X164500000Y-80080000D03*
X169500000Y-80080000D03*
X143000000Y-105080000D03*
D12*
X143000000Y-94920000D03*
D10*
X136589693Y-98563738D03*
D12*
X126429693Y-98563738D03*
D10*
X117160000Y-71080000D03*
D12*
X107000000Y-71080000D03*
D24*
X130300000Y-90700000D03*
D25*
X132840000Y-90700000D03*
X135380000Y-90700000D03*
X137920000Y-90700000D03*
X140460000Y-90700000D03*
X143000000Y-90700000D03*
X145540000Y-90700000D03*
X145540000Y-83080000D03*
X143000000Y-83080000D03*
X140460000Y-83080000D03*
X137920000Y-83080000D03*
X135380000Y-83080000D03*
X132840000Y-83080000D03*
X130300000Y-83080000D03*
D11*
X190500000Y-109580000D03*
D10*
X147500000Y-76080000D03*
D12*
X147500000Y-65920000D03*
D11*
X190500000Y-64580000D03*
D10*
X126500000Y-67080000D03*
D12*
X126500000Y-77240000D03*
D22*
X148400000Y-58030000D03*
X139600000Y-58030000D03*
D23*
X141500000Y-51030000D03*
X144000000Y-51030000D03*
X146500000Y-51030000D03*
D26*
X168000000Y-51000000D03*
X148487268Y-88440258D03*
X187500003Y-90580000D03*
X144578703Y-88365453D03*
X176050002Y-88130002D03*
X186500000Y-90580000D03*
X171000000Y-86580000D03*
X174000000Y-72080000D03*
X158500000Y-68080000D03*
X157500000Y-68080000D03*
D27*
X178033200Y-92480000D02*
X177349999Y-91796799D01*
X190960000Y-90540000D02*
X190040000Y-90540000D01*
X190040000Y-90540000D02*
X188100000Y-92480000D01*
X190960000Y-93080000D02*
X190960000Y-90540000D01*
X188100000Y-92480000D02*
X178033200Y-92480000D01*
X177349999Y-91796799D02*
X177349999Y-90580000D01*
X197000000Y-101080000D02*
X198500000Y-102580000D01*
X196600000Y-111480000D02*
X109400000Y-111480000D01*
X168405000Y-81886471D02*
X168405000Y-83674250D01*
X181000000Y-100080000D02*
X182000000Y-101080000D01*
X144050000Y-48480000D02*
X141500000Y-51030000D01*
X181000000Y-94580000D02*
X181000000Y-100080000D01*
X169500000Y-80080000D02*
X173500000Y-80080000D01*
X184000000Y-83580000D02*
X180356400Y-83580000D01*
X109400000Y-111480000D02*
X107500000Y-109580000D01*
X163000000Y-78580000D02*
X165098529Y-78580000D01*
X198500000Y-109580000D02*
X196600000Y-111480000D01*
X165098529Y-78580000D02*
X168405000Y-81886471D01*
X161500000Y-80080000D02*
X163000000Y-78580000D01*
X180356400Y-83580000D02*
X179300000Y-84636400D01*
X178000000Y-91580000D02*
X178300000Y-91880000D01*
X178500000Y-54000000D02*
X172980000Y-48480000D01*
X186331371Y-91880000D02*
X187500003Y-90711368D01*
X187500003Y-90711368D02*
X187500003Y-90580000D01*
X173500000Y-80080000D02*
X174000000Y-80580000D01*
X172980000Y-48480000D02*
X144050000Y-48480000D01*
X198500000Y-102580000D02*
X198500000Y-109580000D01*
X178300000Y-91880000D02*
X186331371Y-91880000D01*
X182000000Y-101080000D02*
X197000000Y-101080000D01*
X178000000Y-90580000D02*
X178000000Y-91580000D01*
X173500000Y-85580000D02*
X173500000Y-83580000D01*
X170500000Y-83080000D02*
X167500000Y-80080000D01*
X173000000Y-83080000D02*
X170500000Y-83080000D01*
X176050002Y-90580000D02*
X176050002Y-88130002D01*
X167500000Y-62580000D02*
X166540000Y-61620000D01*
X167500000Y-80080000D02*
X167500000Y-62580000D01*
X166540000Y-61620000D02*
X163260000Y-61620000D01*
X176050002Y-88130002D02*
X173500000Y-85580000D01*
X173500000Y-83580000D02*
X173000000Y-83080000D01*
X178649999Y-89430001D02*
X179000000Y-89080000D01*
X179300000Y-89380000D02*
X179300000Y-90580000D01*
X179000000Y-89080000D02*
X179300000Y-89380000D01*
X176700000Y-89363199D02*
X176700000Y-90580000D01*
X178500000Y-56540000D02*
X171040000Y-49080000D01*
X186500000Y-90580000D02*
X181500000Y-90580000D01*
X186500000Y-90580000D02*
X186500000Y-62080000D01*
X180000000Y-89080000D02*
X179000000Y-89080000D01*
X179000000Y-89080000D02*
X176983199Y-89080000D01*
X176983199Y-89080000D02*
X176700000Y-89363199D01*
X181500000Y-90580000D02*
X180000000Y-89080000D01*
X148450000Y-49080000D02*
X146500000Y-51030000D01*
X186500000Y-62080000D02*
X184000000Y-59580000D01*
X178649999Y-90580000D02*
X178649999Y-89430001D01*
X171040000Y-49080000D02*
X148450000Y-49080000D01*
D28*
X168500000Y-93420000D02*
X168405000Y-93325000D01*
X168405000Y-89325750D02*
X168405000Y-87485000D01*
X168405000Y-87485000D02*
X167500000Y-86580000D01*
X168405000Y-93325000D02*
X168405000Y-89325750D01*
X171000000Y-86580000D02*
X169310000Y-86580000D01*
X174000000Y-72080000D02*
X177500000Y-72080000D01*
X165500000Y-86580000D02*
X164595000Y-85675000D01*
X167500000Y-86580000D02*
X165500000Y-86580000D01*
X184000000Y-50580000D02*
X179380000Y-50580000D01*
X169310000Y-86580000D02*
X168405000Y-87485000D01*
X177500000Y-72080000D02*
X181800000Y-67780000D01*
X164595000Y-85675000D02*
X164595000Y-83674250D01*
X181800000Y-67780000D02*
X181800000Y-52780000D01*
X181800000Y-52780000D02*
X184000000Y-50580000D01*
X179380000Y-50580000D02*
X178500000Y-51460000D01*
D27*
X189000000Y-93080000D02*
X173500000Y-93080000D01*
X172500000Y-85580000D02*
X171826100Y-84906100D01*
X190960000Y-95040000D02*
X189000000Y-93080000D01*
X172500000Y-92080000D02*
X172500000Y-85580000D01*
X171826100Y-84906100D02*
X166455600Y-84906100D01*
X190960000Y-95620000D02*
X190960000Y-95040000D01*
X173500000Y-93080000D02*
X172500000Y-92080000D01*
X190960000Y-95620000D02*
X190960000Y-98160000D01*
X166455600Y-84906100D02*
X165865000Y-84315500D01*
X165865000Y-84315500D02*
X165865000Y-83674250D01*
X189000000Y-77080000D02*
X189000000Y-80580000D01*
X193500000Y-98160000D02*
X196000000Y-95660000D01*
X196000000Y-95660000D02*
X196000000Y-91580000D01*
X195500000Y-87080000D02*
X195500000Y-91080000D01*
X196000000Y-91580000D02*
X195500000Y-91080000D01*
X189000000Y-80580000D02*
X195500000Y-87080000D01*
X195500000Y-91080000D02*
X193500000Y-93080000D01*
X161735000Y-59080000D02*
X163260000Y-59080000D01*
X154235000Y-51580000D02*
X161735000Y-59080000D01*
X156775000Y-51580000D02*
X161735000Y-56540000D01*
X161735000Y-56540000D02*
X163260000Y-56540000D01*
X117160000Y-72920000D02*
X113960000Y-76120000D01*
X113960000Y-76120000D02*
X108000000Y-76120000D01*
X117160000Y-71080000D02*
X117160000Y-72920000D01*
X158500000Y-82080000D02*
X158500000Y-68080000D01*
X143000000Y-94920000D02*
X144160000Y-94920000D01*
X145500000Y-93580000D02*
X145500000Y-90840000D01*
X149880000Y-90700000D02*
X151250000Y-89330000D01*
X151250000Y-89330000D02*
X158500000Y-82080000D01*
X145540000Y-90700000D02*
X149880000Y-90700000D01*
X144160000Y-94920000D02*
X145500000Y-93580000D01*
X143000000Y-94920000D02*
X139500000Y-94920000D01*
X157500000Y-81580000D02*
X152500000Y-86580000D01*
X126429693Y-102063738D02*
X126429693Y-98563738D01*
X131589693Y-95063738D02*
X129929693Y-95063738D01*
X157500000Y-68080000D02*
X157500000Y-81580000D01*
X130300000Y-90700000D02*
X130300000Y-91880000D01*
X129929693Y-95063738D02*
X126429693Y-98563738D01*
X152500000Y-86580000D02*
X134420000Y-86580000D01*
X134420000Y-86580000D02*
X130300000Y-90700000D01*
X131589693Y-93169693D02*
X131589693Y-95063738D01*
X130300000Y-91880000D02*
X131589693Y-93169693D01*
X140500000Y-76240000D02*
X140500000Y-78060000D01*
X135380000Y-83080000D02*
X135480000Y-83080000D01*
X140490000Y-78070000D02*
X141000000Y-78580000D01*
X141000000Y-78580000D02*
X145000000Y-78580000D01*
X135480000Y-83080000D02*
X140500000Y-78060000D01*
X140500000Y-78060000D02*
X140490000Y-78070000D01*
X145000000Y-78580000D02*
X147500000Y-76080000D01*
X132840000Y-90700000D02*
X132840000Y-91314045D01*
X132840000Y-91314045D02*
X136589693Y-95063738D01*
X136589693Y-95063738D02*
X136589693Y-98563738D01*
X161500000Y-85080000D02*
X164595000Y-88175000D01*
X164595000Y-88175000D02*
X164595000Y-89325750D01*
X165865000Y-92055000D02*
X165865000Y-89325750D01*
X163500000Y-86080000D02*
X163500000Y-81080000D01*
X164500000Y-80080000D02*
X167135000Y-82715000D01*
X163500000Y-81080000D02*
X164500000Y-80080000D01*
X167135000Y-82715000D02*
X167135000Y-83674250D01*
X165865000Y-89325750D02*
X165865000Y-88445000D01*
X165865000Y-88445000D02*
X163500000Y-86080000D01*
X164500000Y-93420000D02*
X165865000Y-92055000D01*
X164500000Y-95580000D02*
X167135000Y-92945000D01*
X164500000Y-103580000D02*
X164500000Y-95580000D01*
X167135000Y-92945000D02*
X167135000Y-89325750D01*
X168500000Y-103580000D02*
X164500000Y-103580000D01*
X184000000Y-88580000D02*
X180654600Y-88580000D01*
X178000000Y-85925400D02*
X178000000Y-84636400D01*
X180654600Y-88580000D02*
X178000000Y-85925400D01*
X174000000Y-75580000D02*
X175400003Y-76980003D01*
X175400003Y-76980003D02*
X175400003Y-84636400D01*
X178800000Y-81969600D02*
X177350002Y-83419598D01*
X180000000Y-75580000D02*
X178800000Y-76780000D01*
X178800000Y-76780000D02*
X178800000Y-81969600D01*
X177350002Y-83419598D02*
X177350002Y-84636400D01*
X178650002Y-83419598D02*
X178650002Y-84636400D01*
X180000000Y-82069600D02*
X178650002Y-83419598D01*
X180000000Y-80580000D02*
X180000000Y-82069600D01*
X176050002Y-81529998D02*
X176050002Y-84636400D01*
X177000000Y-80580000D02*
X176050002Y-81529998D01*
X178200000Y-76780000D02*
X178200000Y-81531472D01*
X176700003Y-83031469D02*
X176700003Y-84636400D01*
X177000000Y-75580000D02*
X178200000Y-76780000D01*
X178200000Y-81531472D02*
X176700003Y-83031469D01*
X130000000Y-77240000D02*
X132840000Y-80080000D01*
X130000000Y-77120000D02*
X130000000Y-77660000D01*
X132840000Y-80080000D02*
X132840000Y-83080000D01*
X127500000Y-58080000D02*
X127500000Y-52680000D01*
X116600000Y-54980000D02*
X122000000Y-54980000D01*
X130000000Y-77240000D02*
X132500000Y-74740000D01*
X127500000Y-52680000D02*
X125900000Y-51080000D01*
X132500000Y-74740000D02*
X132500000Y-63080000D01*
X132500000Y-63080000D02*
X127500000Y-58080000D01*
X122000000Y-54980000D02*
X125900000Y-51080000D01*
X113500000Y-58080000D02*
X116600000Y-54980000D01*
X128400000Y-57900000D02*
X136500000Y-66000000D01*
X128400000Y-51080000D02*
X128400000Y-57900000D01*
X139500000Y-99920000D02*
X139500000Y-101580000D01*
X136589693Y-102063738D02*
X137356262Y-102063738D01*
X137356262Y-102063738D02*
X139500000Y-99920000D01*
X139500000Y-101580000D02*
X143000000Y-105080000D01*
X163260000Y-64160000D02*
X158420000Y-64160000D01*
X158420000Y-64160000D02*
X155000000Y-67580000D01*
X155000000Y-67580000D02*
X155000000Y-73620000D01*
X155000000Y-73620000D02*
X145540000Y-83080000D01*
G04 #@! TA.AperFunction,Conductor*
G36*
X180943039Y-47100185D02*
G01*
X180988794Y-47152989D01*
X181000000Y-47204500D01*
X181000000Y-49455500D01*
X180980315Y-49522539D01*
X180927511Y-49568294D01*
X180876000Y-49579500D01*
X179281455Y-49579500D01*
X179187256Y-49598237D01*
X179187235Y-49598241D01*
X179184812Y-49598724D01*
X179088164Y-49617949D01*
X179073281Y-49624114D01*
X179064301Y-49627833D01*
X179064295Y-49627835D01*
X178906092Y-49693364D01*
X178906079Y-49693371D01*
X178742219Y-49802859D01*
X178689654Y-49855425D01*
X178602861Y-49942218D01*
X178602858Y-49942221D01*
X178383899Y-50161181D01*
X178322576Y-50194666D01*
X178296218Y-50197500D01*
X178205458Y-50197500D01*
X178168453Y-50200412D01*
X178168447Y-50200413D01*
X178010045Y-50246434D01*
X178010042Y-50246435D01*
X177868056Y-50330405D01*
X177868046Y-50330413D01*
X177771854Y-50426604D01*
X177757061Y-50439239D01*
X177677536Y-50497018D01*
X177537021Y-50637533D01*
X177420213Y-50798305D01*
X177329994Y-50975367D01*
X177329993Y-50975370D01*
X177268587Y-51164362D01*
X177252844Y-51263760D01*
X177237500Y-51360639D01*
X177237500Y-51559361D01*
X177238806Y-51567606D01*
X177268587Y-51755637D01*
X177329993Y-51944629D01*
X177329994Y-51944632D01*
X177408264Y-52098243D01*
X177420213Y-52121694D01*
X177537019Y-52282464D01*
X177537021Y-52282466D01*
X177677539Y-52422984D01*
X177757060Y-52480758D01*
X177763786Y-52486007D01*
X177767979Y-52489518D01*
X177868053Y-52589592D01*
X177934208Y-52628716D01*
X177941975Y-52635220D01*
X177955962Y-52656197D01*
X177973170Y-52674627D01*
X177975015Y-52684773D01*
X177980736Y-52693353D01*
X177981161Y-52718564D01*
X177985673Y-52743369D01*
X177981740Y-52752900D01*
X177981915Y-52763212D01*
X177968643Y-52784649D01*
X177959028Y-52807958D01*
X177948643Y-52816956D01*
X177945137Y-52822620D01*
X177938391Y-52825838D01*
X177925487Y-52837021D01*
X177868370Y-52870800D01*
X177868357Y-52870810D01*
X177796360Y-52942806D01*
X177796360Y-52942807D01*
X178415905Y-53562352D01*
X178328429Y-53585792D01*
X178227070Y-53644311D01*
X178144311Y-53727070D01*
X178085792Y-53828429D01*
X178062352Y-53915905D01*
X177447730Y-53301282D01*
X177447729Y-53301283D01*
X177420643Y-53338564D01*
X177330457Y-53515562D01*
X177269075Y-53704476D01*
X177269075Y-53704479D01*
X177238000Y-53900678D01*
X177238000Y-53987980D01*
X177218315Y-54055019D01*
X177165511Y-54100774D01*
X177096353Y-54110718D01*
X177032797Y-54081693D01*
X177026319Y-54075661D01*
X171486545Y-48535887D01*
X171371807Y-48459222D01*
X171244332Y-48406421D01*
X171244322Y-48406418D01*
X171108996Y-48379500D01*
X171108994Y-48379500D01*
X171108993Y-48379500D01*
X148381007Y-48379500D01*
X148381003Y-48379500D01*
X148283760Y-48398843D01*
X148283758Y-48398843D01*
X148272591Y-48401065D01*
X148245671Y-48406420D01*
X148192866Y-48428292D01*
X148118189Y-48459225D01*
X148118188Y-48459226D01*
X148097199Y-48473249D01*
X148097192Y-48473253D01*
X148003457Y-48535886D01*
X148003453Y-48535889D01*
X146913550Y-49625791D01*
X146852227Y-49659276D01*
X146806471Y-49660582D01*
X146610222Y-49629500D01*
X146389778Y-49629500D01*
X146317201Y-49640995D01*
X146172047Y-49663985D01*
X145962396Y-49732103D01*
X145962393Y-49732104D01*
X145765974Y-49832187D01*
X145587641Y-49961752D01*
X145587636Y-49961756D01*
X145431756Y-50117636D01*
X145431752Y-50117641D01*
X145350318Y-50229727D01*
X145294989Y-50272393D01*
X145225375Y-50278372D01*
X145163580Y-50245767D01*
X145149682Y-50229727D01*
X145068247Y-50117641D01*
X145068243Y-50117636D01*
X144912363Y-49961756D01*
X144912358Y-49961752D01*
X144734025Y-49832187D01*
X144734024Y-49832186D01*
X144734022Y-49832185D01*
X144638148Y-49783334D01*
X144537606Y-49732104D01*
X144537603Y-49732103D01*
X144327952Y-49663985D01*
X144219086Y-49646742D01*
X144110222Y-49629500D01*
X143889778Y-49629500D01*
X143817201Y-49640995D01*
X143672047Y-49663985D01*
X143462396Y-49732103D01*
X143462393Y-49732104D01*
X143265974Y-49832187D01*
X143087641Y-49961752D01*
X143087636Y-49961756D01*
X142931756Y-50117636D01*
X142850008Y-50230153D01*
X142794678Y-50272818D01*
X142725064Y-50278797D01*
X142663269Y-50246191D01*
X142651416Y-50232513D01*
X142651065Y-50232485D01*
X141982962Y-50900589D01*
X141965925Y-50837007D01*
X141900099Y-50722993D01*
X141807007Y-50629901D01*
X141692993Y-50564075D01*
X141629407Y-50547037D01*
X142297513Y-49878932D01*
X142233756Y-49832611D01*
X142037410Y-49732567D01*
X141827835Y-49664473D01*
X141610181Y-49630000D01*
X141389819Y-49630000D01*
X141172164Y-49664473D01*
X140962589Y-49732567D01*
X140766233Y-49832616D01*
X140702485Y-49878931D01*
X140702485Y-49878932D01*
X141370590Y-50547037D01*
X141307007Y-50564075D01*
X141192993Y-50629901D01*
X141099901Y-50722993D01*
X141034075Y-50837007D01*
X141017037Y-50900590D01*
X140348932Y-50232485D01*
X140348931Y-50232485D01*
X140302616Y-50296233D01*
X140202567Y-50492589D01*
X140134473Y-50702164D01*
X140100000Y-50919818D01*
X140100000Y-51140181D01*
X140134473Y-51357835D01*
X140202567Y-51567410D01*
X140302611Y-51763756D01*
X140348932Y-51827513D01*
X141017037Y-51159408D01*
X141034075Y-51222993D01*
X141099901Y-51337007D01*
X141192993Y-51430099D01*
X141307007Y-51495925D01*
X141370590Y-51512962D01*
X140702485Y-52181065D01*
X140702485Y-52181066D01*
X140766243Y-52227388D01*
X140962589Y-52327432D01*
X141172164Y-52395526D01*
X141389819Y-52430000D01*
X141610181Y-52430000D01*
X141827835Y-52395526D01*
X142037410Y-52327432D01*
X142233760Y-52227386D01*
X142297513Y-52181066D01*
X142297514Y-52181066D01*
X141629409Y-51512962D01*
X141692993Y-51495925D01*
X141807007Y-51430099D01*
X141900099Y-51337007D01*
X141965925Y-51222993D01*
X141982962Y-51159410D01*
X142651066Y-51827514D01*
X142652547Y-51827397D01*
X142704700Y-51787180D01*
X142774314Y-51781200D01*
X142836109Y-51813806D01*
X142850008Y-51829846D01*
X142931752Y-51942359D01*
X143087636Y-52098243D01*
X143087641Y-52098247D01*
X143201632Y-52181065D01*
X143265978Y-52227815D01*
X143383743Y-52287820D01*
X143462393Y-52327895D01*
X143462396Y-52327896D01*
X143567221Y-52361955D01*
X143672049Y-52396015D01*
X143889778Y-52430500D01*
X143889779Y-52430500D01*
X144110221Y-52430500D01*
X144110222Y-52430500D01*
X144327951Y-52396015D01*
X144537606Y-52327895D01*
X144734022Y-52227815D01*
X144912365Y-52098242D01*
X145068242Y-51942365D01*
X145149682Y-51830270D01*
X145205011Y-51787606D01*
X145274624Y-51781627D01*
X145336420Y-51814232D01*
X145350313Y-51830265D01*
X145429925Y-51939842D01*
X145431758Y-51942365D01*
X145587636Y-52098243D01*
X145587641Y-52098247D01*
X145701632Y-52181065D01*
X145765978Y-52227815D01*
X145883743Y-52287820D01*
X145962393Y-52327895D01*
X145962396Y-52327896D01*
X146067221Y-52361955D01*
X146172049Y-52396015D01*
X146389778Y-52430500D01*
X146389779Y-52430500D01*
X146610221Y-52430500D01*
X146610222Y-52430500D01*
X146827951Y-52396015D01*
X147037606Y-52327895D01*
X147234022Y-52227815D01*
X147412365Y-52098242D01*
X147568242Y-51942365D01*
X147697815Y-51764022D01*
X147797895Y-51567606D01*
X147866015Y-51357951D01*
X147900500Y-51140222D01*
X147900500Y-50919778D01*
X147869416Y-50723523D01*
X147878370Y-50654233D01*
X147904205Y-50616450D01*
X148703837Y-49816819D01*
X148765160Y-49783334D01*
X148791518Y-49780500D01*
X170698481Y-49780500D01*
X170765520Y-49800185D01*
X170786162Y-49816819D01*
X177216407Y-56247064D01*
X177249892Y-56308387D01*
X177251199Y-56354143D01*
X177237500Y-56440633D01*
X177237500Y-56639360D01*
X177268587Y-56835637D01*
X177329993Y-57024629D01*
X177329994Y-57024632D01*
X177420213Y-57201694D01*
X177537019Y-57362464D01*
X177537021Y-57362466D01*
X177677539Y-57502984D01*
X177757060Y-57560758D01*
X177763824Y-57566039D01*
X177767998Y-57569537D01*
X177868053Y-57669592D01*
X177933737Y-57708437D01*
X177941522Y-57714962D01*
X177955488Y-57735926D01*
X177972679Y-57754338D01*
X177974528Y-57764506D01*
X177980260Y-57773110D01*
X177980674Y-57798297D01*
X177985182Y-57823079D01*
X177981239Y-57832634D01*
X177981410Y-57842970D01*
X177968143Y-57864381D01*
X177958536Y-57887669D01*
X177948122Y-57896692D01*
X177944609Y-57902363D01*
X177937871Y-57905575D01*
X177924996Y-57916731D01*
X177870501Y-57948960D01*
X177868053Y-57950408D01*
X177868046Y-57950413D01*
X177771854Y-58046604D01*
X177757061Y-58059239D01*
X177677536Y-58117018D01*
X177537021Y-58257533D01*
X177420213Y-58418305D01*
X177329994Y-58595367D01*
X177329993Y-58595370D01*
X177268587Y-58784362D01*
X177237500Y-58980639D01*
X177237500Y-59179360D01*
X177268587Y-59375637D01*
X177329993Y-59564629D01*
X177329994Y-59564632D01*
X177398370Y-59698825D01*
X177420213Y-59741694D01*
X177537019Y-59902464D01*
X177537021Y-59902466D01*
X177677539Y-60042984D01*
X177757060Y-60100758D01*
X177763824Y-60106039D01*
X177767998Y-60109537D01*
X177868053Y-60209592D01*
X177933737Y-60248437D01*
X177941522Y-60254962D01*
X177955488Y-60275926D01*
X177972679Y-60294338D01*
X177974528Y-60304506D01*
X177980260Y-60313110D01*
X177980674Y-60338297D01*
X177985182Y-60363079D01*
X177981239Y-60372634D01*
X177981410Y-60382970D01*
X177968143Y-60404381D01*
X177958536Y-60427669D01*
X177948122Y-60436692D01*
X177944609Y-60442363D01*
X177937871Y-60445575D01*
X177924996Y-60456732D01*
X177868053Y-60490408D01*
X177868046Y-60490413D01*
X177771854Y-60586604D01*
X177757061Y-60599239D01*
X177677536Y-60657018D01*
X177537021Y-60797533D01*
X177420213Y-60958305D01*
X177329994Y-61135367D01*
X177329993Y-61135370D01*
X177268587Y-61324362D01*
X177237500Y-61520639D01*
X177237500Y-61719360D01*
X177268587Y-61915637D01*
X177329993Y-62104629D01*
X177329994Y-62104632D01*
X177403138Y-62248182D01*
X177420213Y-62281694D01*
X177537019Y-62442464D01*
X177537021Y-62442466D01*
X177677539Y-62582984D01*
X177757060Y-62640758D01*
X177763824Y-62646039D01*
X177767998Y-62649537D01*
X177868053Y-62749592D01*
X177933737Y-62788437D01*
X177941522Y-62794962D01*
X177955488Y-62815926D01*
X177972679Y-62834338D01*
X177974528Y-62844506D01*
X177980260Y-62853110D01*
X177980674Y-62878297D01*
X177985182Y-62903079D01*
X177981239Y-62912634D01*
X177981410Y-62922970D01*
X177968143Y-62944381D01*
X177958536Y-62967669D01*
X177948122Y-62976692D01*
X177944609Y-62982363D01*
X177937871Y-62985575D01*
X177924996Y-62996732D01*
X177868053Y-63030408D01*
X177868046Y-63030413D01*
X177771854Y-63126604D01*
X177757061Y-63139239D01*
X177677536Y-63197018D01*
X177537021Y-63337533D01*
X177420213Y-63498305D01*
X177329994Y-63675367D01*
X177329993Y-63675370D01*
X177268587Y-63864362D01*
X177237500Y-64060639D01*
X177237500Y-64259360D01*
X177268587Y-64455637D01*
X177329993Y-64644629D01*
X177329994Y-64644632D01*
X177406500Y-64794781D01*
X177420213Y-64821694D01*
X177537019Y-64982464D01*
X177537021Y-64982466D01*
X177677539Y-65122984D01*
X177757060Y-65180758D01*
X177763824Y-65186039D01*
X177767998Y-65189537D01*
X177868053Y-65289592D01*
X177933737Y-65328437D01*
X177941522Y-65334962D01*
X177955488Y-65355926D01*
X177972679Y-65374338D01*
X177974528Y-65384506D01*
X177980260Y-65393110D01*
X177980674Y-65418297D01*
X177985182Y-65443079D01*
X177981239Y-65452634D01*
X177981410Y-65462970D01*
X177968143Y-65484381D01*
X177958536Y-65507669D01*
X177948122Y-65516692D01*
X177944609Y-65522363D01*
X177937871Y-65525575D01*
X177924996Y-65536732D01*
X177868053Y-65570408D01*
X177868046Y-65570413D01*
X177771854Y-65666604D01*
X177757061Y-65679239D01*
X177677536Y-65737018D01*
X177537021Y-65877533D01*
X177420213Y-66038305D01*
X177329994Y-66215367D01*
X177329993Y-66215370D01*
X177268587Y-66404362D01*
X177237500Y-66600639D01*
X177237500Y-66799360D01*
X177268587Y-66995637D01*
X177329993Y-67184629D01*
X177329994Y-67184632D01*
X177404608Y-67331067D01*
X177420213Y-67361694D01*
X177537019Y-67522464D01*
X177537021Y-67522466D01*
X177677539Y-67662984D01*
X177757060Y-67720758D01*
X177771851Y-67733390D01*
X177868053Y-67829592D01*
X178010041Y-67913564D01*
X178037419Y-67921518D01*
X178168447Y-67959586D01*
X178168450Y-67959586D01*
X178168452Y-67959587D01*
X178205466Y-67962500D01*
X178400639Y-67962500D01*
X178599361Y-67962500D01*
X179903217Y-67962500D01*
X179970256Y-67982185D01*
X180016011Y-68034989D01*
X180025955Y-68104147D01*
X179996930Y-68167703D01*
X179990898Y-68174181D01*
X177121899Y-71043181D01*
X177060576Y-71076666D01*
X177034218Y-71079500D01*
X173901457Y-71079500D01*
X173708170Y-71117947D01*
X173708160Y-71117950D01*
X173526092Y-71193364D01*
X173526079Y-71193371D01*
X173362218Y-71302860D01*
X173362214Y-71302863D01*
X173222863Y-71442214D01*
X173222860Y-71442218D01*
X173113371Y-71606079D01*
X173113364Y-71606092D01*
X173037950Y-71788160D01*
X173037947Y-71788170D01*
X172999500Y-71981456D01*
X172999500Y-71981459D01*
X172999500Y-72178541D01*
X172999500Y-72178543D01*
X172999499Y-72178543D01*
X173037947Y-72371829D01*
X173037949Y-72371835D01*
X173053156Y-72408548D01*
X173060625Y-72478016D01*
X173029350Y-72540495D01*
X172969261Y-72576148D01*
X172938595Y-72580000D01*
X168324500Y-72580000D01*
X168257461Y-72560315D01*
X168211706Y-72507511D01*
X168200500Y-72456000D01*
X168200500Y-62511004D01*
X168173581Y-62375677D01*
X168173580Y-62375676D01*
X168173580Y-62375672D01*
X168140386Y-62295534D01*
X168120778Y-62248195D01*
X168120771Y-62248182D01*
X168064598Y-62164114D01*
X168044112Y-62133454D01*
X166986545Y-61075887D01*
X166871807Y-60999222D01*
X166744332Y-60946421D01*
X166744322Y-60946418D01*
X166608996Y-60919500D01*
X166608994Y-60919500D01*
X166608993Y-60919500D01*
X164374774Y-60919500D01*
X164307735Y-60899815D01*
X164274457Y-60868387D01*
X164222981Y-60797536D01*
X164082464Y-60657019D01*
X164002937Y-60599239D01*
X163996175Y-60593960D01*
X163992000Y-60590461D01*
X163891947Y-60490408D01*
X163826259Y-60451560D01*
X163818477Y-60445038D01*
X163804510Y-60424073D01*
X163787321Y-60405663D01*
X163785471Y-60395492D01*
X163779740Y-60386890D01*
X163779324Y-60361702D01*
X163774817Y-60336921D01*
X163778758Y-60327366D01*
X163778588Y-60317030D01*
X163791856Y-60295616D01*
X163801462Y-60272332D01*
X163811874Y-60263309D01*
X163815389Y-60257638D01*
X163822127Y-60254425D01*
X163835004Y-60243268D01*
X163891947Y-60209592D01*
X163988148Y-60113389D01*
X164002939Y-60100758D01*
X164082464Y-60042981D01*
X164222981Y-59902464D01*
X164339787Y-59741694D01*
X164430005Y-59564632D01*
X164491413Y-59375636D01*
X164522500Y-59179361D01*
X164522500Y-58980639D01*
X164491413Y-58784364D01*
X164430005Y-58595368D01*
X164430005Y-58595367D01*
X164355687Y-58449512D01*
X164339787Y-58418306D01*
X164222981Y-58257536D01*
X164082464Y-58117019D01*
X164002937Y-58059239D01*
X163996175Y-58053960D01*
X163992000Y-58050461D01*
X163891947Y-57950408D01*
X163826259Y-57911560D01*
X163818477Y-57905038D01*
X163804510Y-57884073D01*
X163787321Y-57865663D01*
X163785471Y-57855492D01*
X163779740Y-57846890D01*
X163779324Y-57821702D01*
X163774817Y-57796921D01*
X163778758Y-57787366D01*
X163778588Y-57777030D01*
X163791856Y-57755616D01*
X163801462Y-57732332D01*
X163811874Y-57723309D01*
X163815389Y-57717638D01*
X163822127Y-57714425D01*
X163835004Y-57703268D01*
X163891947Y-57669592D01*
X163988148Y-57573389D01*
X164002939Y-57560758D01*
X164082464Y-57502981D01*
X164222981Y-57362464D01*
X164339787Y-57201694D01*
X164430005Y-57024632D01*
X164491413Y-56835636D01*
X164522500Y-56639361D01*
X164522500Y-56440639D01*
X164491413Y-56244364D01*
X164444755Y-56100765D01*
X164430006Y-56055370D01*
X164430005Y-56055367D01*
X164339786Y-55878305D01*
X164310543Y-55838055D01*
X164222981Y-55717536D01*
X164082464Y-55577019D01*
X164002938Y-55519240D01*
X163996175Y-55513960D01*
X163992000Y-55510461D01*
X163891947Y-55410408D01*
X163826259Y-55371560D01*
X163818477Y-55365038D01*
X163804510Y-55344073D01*
X163787321Y-55325663D01*
X163785471Y-55315492D01*
X163779740Y-55306890D01*
X163779324Y-55281702D01*
X163774817Y-55256921D01*
X163778758Y-55247366D01*
X163778588Y-55237030D01*
X163791856Y-55215616D01*
X163801462Y-55192332D01*
X163811874Y-55183309D01*
X163815389Y-55177638D01*
X163822127Y-55174425D01*
X163835004Y-55163268D01*
X163891947Y-55129592D01*
X163988148Y-55033389D01*
X164002939Y-55020758D01*
X164082464Y-54962981D01*
X164222981Y-54822464D01*
X164339787Y-54661694D01*
X164430005Y-54484632D01*
X164491413Y-54295636D01*
X164522500Y-54099361D01*
X164522500Y-53900639D01*
X164491413Y-53704364D01*
X164430005Y-53515368D01*
X164430005Y-53515367D01*
X164339786Y-53338305D01*
X164222981Y-53177536D01*
X164082464Y-53037019D01*
X164002938Y-52979240D01*
X163996175Y-52973960D01*
X163992000Y-52970461D01*
X163891947Y-52870408D01*
X163826259Y-52831560D01*
X163818477Y-52825038D01*
X163804510Y-52804073D01*
X163787321Y-52785663D01*
X163785471Y-52775492D01*
X163779740Y-52766890D01*
X163779324Y-52741702D01*
X163774817Y-52716921D01*
X163778758Y-52707366D01*
X163778588Y-52697030D01*
X163791856Y-52675616D01*
X163801462Y-52652332D01*
X163811874Y-52643309D01*
X163815389Y-52637638D01*
X163822127Y-52634425D01*
X163835004Y-52623268D01*
X163891947Y-52589592D01*
X163988148Y-52493389D01*
X164002939Y-52480758D01*
X164082464Y-52422981D01*
X164222981Y-52282464D01*
X164339787Y-52121694D01*
X164430005Y-51944632D01*
X164491413Y-51755636D01*
X164522500Y-51559361D01*
X164522500Y-51360639D01*
X164491413Y-51164364D01*
X164447756Y-51029999D01*
X164430006Y-50975370D01*
X164430005Y-50975367D01*
X164377427Y-50872179D01*
X164339787Y-50798306D01*
X164222981Y-50637536D01*
X164082464Y-50497019D01*
X164048738Y-50472516D01*
X164002938Y-50439240D01*
X163988147Y-50426608D01*
X163891947Y-50330408D01*
X163891946Y-50330407D01*
X163891943Y-50330405D01*
X163749957Y-50246435D01*
X163749954Y-50246434D01*
X163591552Y-50200413D01*
X163591546Y-50200412D01*
X163554541Y-50197500D01*
X163554534Y-50197500D01*
X161295466Y-50197500D01*
X161295458Y-50197500D01*
X161258453Y-50200412D01*
X161258447Y-50200413D01*
X161100045Y-50246434D01*
X161100042Y-50246435D01*
X160958056Y-50330405D01*
X160958047Y-50330412D01*
X160841412Y-50447047D01*
X160841405Y-50447056D01*
X160757435Y-50589042D01*
X160757434Y-50589045D01*
X160711413Y-50747447D01*
X160711412Y-50747453D01*
X160708500Y-50784458D01*
X160708500Y-52135541D01*
X160711412Y-52172546D01*
X160711413Y-52172552D01*
X160757434Y-52330954D01*
X160757435Y-52330957D01*
X160841405Y-52472943D01*
X160841412Y-52472952D01*
X160958047Y-52589587D01*
X160958050Y-52589589D01*
X160958053Y-52589592D01*
X161014996Y-52623268D01*
X161062679Y-52674338D01*
X161075182Y-52743079D01*
X161048536Y-52807669D01*
X161014996Y-52836732D01*
X160958053Y-52870408D01*
X160958047Y-52870412D01*
X160841412Y-52987047D01*
X160841405Y-52987056D01*
X160757435Y-53129042D01*
X160757434Y-53129045D01*
X160711413Y-53287447D01*
X160711412Y-53287453D01*
X160708500Y-53324458D01*
X160708500Y-54223481D01*
X160688815Y-54290520D01*
X160636011Y-54336275D01*
X160566853Y-54346219D01*
X160503297Y-54317194D01*
X160496819Y-54311162D01*
X158161818Y-51976161D01*
X158128333Y-51914838D01*
X158125499Y-51888480D01*
X158125499Y-50682129D01*
X158125498Y-50682123D01*
X158119091Y-50622516D01*
X158068797Y-50487671D01*
X158068793Y-50487664D01*
X157982547Y-50372455D01*
X157982544Y-50372452D01*
X157867335Y-50286206D01*
X157867328Y-50286202D01*
X157732482Y-50235908D01*
X157732483Y-50235908D01*
X157672883Y-50229501D01*
X157672881Y-50229500D01*
X157672873Y-50229500D01*
X157672864Y-50229500D01*
X155877129Y-50229500D01*
X155877123Y-50229501D01*
X155817516Y-50235908D01*
X155682671Y-50286202D01*
X155682664Y-50286206D01*
X155567455Y-50372452D01*
X155567452Y-50372455D01*
X155481206Y-50487664D01*
X155481203Y-50487669D01*
X155432189Y-50619083D01*
X155390317Y-50675016D01*
X155324853Y-50699433D01*
X155256580Y-50684581D01*
X155228326Y-50663430D01*
X155114786Y-50549890D01*
X154942820Y-50424951D01*
X154753414Y-50328444D01*
X154753413Y-50328443D01*
X154753412Y-50328443D01*
X154551243Y-50262754D01*
X154551241Y-50262753D01*
X154551240Y-50262753D01*
X154389957Y-50237208D01*
X154341287Y-50229500D01*
X154128713Y-50229500D01*
X154080042Y-50237208D01*
X153918760Y-50262753D01*
X153716585Y-50328444D01*
X153527179Y-50424951D01*
X153355213Y-50549890D01*
X153204890Y-50700213D01*
X153079951Y-50872179D01*
X152983444Y-51061585D01*
X152917753Y-51263760D01*
X152884500Y-51473713D01*
X152884500Y-51686286D01*
X152907237Y-51829846D01*
X152917754Y-51896243D01*
X152983389Y-52098247D01*
X152983444Y-52098414D01*
X153079951Y-52287820D01*
X153204890Y-52459786D01*
X153355213Y-52610109D01*
X153527179Y-52735048D01*
X153527181Y-52735049D01*
X153527184Y-52735051D01*
X153716588Y-52831557D01*
X153918757Y-52897246D01*
X154128713Y-52930500D01*
X154128714Y-52930500D01*
X154341286Y-52930500D01*
X154341287Y-52930500D01*
X154497771Y-52905715D01*
X154567064Y-52914670D01*
X154604850Y-52940507D01*
X160672181Y-59007838D01*
X160705666Y-59069161D01*
X160708500Y-59095519D01*
X160708500Y-59755541D01*
X160711412Y-59792546D01*
X160711413Y-59792552D01*
X160757434Y-59950954D01*
X160757435Y-59950957D01*
X160841405Y-60092943D01*
X160841412Y-60092952D01*
X160958047Y-60209587D01*
X160958050Y-60209589D01*
X160958053Y-60209592D01*
X161014996Y-60243268D01*
X161062679Y-60294338D01*
X161075182Y-60363079D01*
X161048536Y-60427669D01*
X161014996Y-60456732D01*
X160958053Y-60490408D01*
X160958047Y-60490412D01*
X160841412Y-60607047D01*
X160841405Y-60607056D01*
X160757435Y-60749042D01*
X160757434Y-60749045D01*
X160711413Y-60907447D01*
X160711412Y-60907453D01*
X160708500Y-60944458D01*
X160708500Y-62295541D01*
X160711412Y-62332546D01*
X160711413Y-62332552D01*
X160757434Y-62490954D01*
X160757435Y-62490957D01*
X160841405Y-62632943D01*
X160841412Y-62632952D01*
X160958047Y-62749587D01*
X160958050Y-62749589D01*
X160958053Y-62749592D01*
X161014996Y-62783268D01*
X161062679Y-62834338D01*
X161075182Y-62903079D01*
X161048536Y-62967669D01*
X161014996Y-62996732D01*
X160958053Y-63030408D01*
X160958047Y-63030412D01*
X160841412Y-63147047D01*
X160841405Y-63147056D01*
X160757435Y-63289042D01*
X160757434Y-63289045D01*
X160733887Y-63370095D01*
X160696281Y-63428981D01*
X160632808Y-63458187D01*
X160614811Y-63459500D01*
X158351003Y-63459500D01*
X158253760Y-63478843D01*
X158253758Y-63478843D01*
X158242591Y-63481065D01*
X158215671Y-63486420D01*
X158162866Y-63508292D01*
X158088189Y-63539225D01*
X158088188Y-63539226D01*
X158067199Y-63553249D01*
X158067192Y-63553253D01*
X157973457Y-63615886D01*
X157973453Y-63615889D01*
X154455888Y-67133453D01*
X154455887Y-67133454D01*
X154379222Y-67248192D01*
X154326421Y-67375667D01*
X154326418Y-67375679D01*
X154304044Y-67488163D01*
X154304044Y-67488167D01*
X154299500Y-67511007D01*
X154299500Y-73278480D01*
X154279815Y-73345519D01*
X154263181Y-73366161D01*
X145733033Y-81896308D01*
X145671710Y-81929793D01*
X145635333Y-81930854D01*
X145635229Y-81932182D01*
X145630372Y-81931800D01*
X145630365Y-81931800D01*
X145449635Y-81931800D01*
X145408254Y-81938354D01*
X145271132Y-81960072D01*
X145099241Y-82015923D01*
X144938208Y-82097974D01*
X144792003Y-82204196D01*
X144664196Y-82332003D01*
X144557974Y-82478208D01*
X144475923Y-82639241D01*
X144420072Y-82811132D01*
X144401556Y-82928038D01*
X144391800Y-82989635D01*
X144391800Y-83170365D01*
X144394000Y-83184254D01*
X144420072Y-83348867D01*
X144420072Y-83348869D01*
X144420073Y-83348871D01*
X144475922Y-83520756D01*
X144557840Y-83681529D01*
X144557974Y-83681791D01*
X144664196Y-83827996D01*
X144792003Y-83955803D01*
X144922260Y-84050438D01*
X144938212Y-84062028D01*
X145099244Y-84144078D01*
X145271129Y-84199927D01*
X145449635Y-84228200D01*
X145449636Y-84228200D01*
X145630364Y-84228200D01*
X145630365Y-84228200D01*
X145808871Y-84199927D01*
X145980756Y-84144078D01*
X146141788Y-84062028D01*
X146223879Y-84002385D01*
X146287996Y-83955803D01*
X146287998Y-83955800D01*
X146288002Y-83955798D01*
X146415798Y-83828002D01*
X146415800Y-83827998D01*
X146415803Y-83827996D01*
X146469868Y-83753580D01*
X146522028Y-83681788D01*
X146604078Y-83520756D01*
X146659927Y-83348871D01*
X146688200Y-83170365D01*
X146688200Y-82989635D01*
X146688200Y-82989633D01*
X146687818Y-82984782D01*
X146690138Y-82984599D01*
X146697813Y-82924841D01*
X146723687Y-82886968D01*
X155544114Y-74066543D01*
X155574819Y-74020587D01*
X155620775Y-73951811D01*
X155673580Y-73824328D01*
X155700500Y-73688993D01*
X155700500Y-67921518D01*
X155720185Y-67854479D01*
X155736819Y-67833837D01*
X158673837Y-64896819D01*
X158735160Y-64863334D01*
X158761518Y-64860500D01*
X160614811Y-64860500D01*
X160681850Y-64880185D01*
X160727605Y-64932989D01*
X160733887Y-64949905D01*
X160757434Y-65030954D01*
X160757435Y-65030957D01*
X160841405Y-65172943D01*
X160841412Y-65172952D01*
X160958047Y-65289587D01*
X160958050Y-65289589D01*
X160958053Y-65289592D01*
X161014996Y-65323268D01*
X161062679Y-65374338D01*
X161075182Y-65443079D01*
X161048536Y-65507669D01*
X161014996Y-65536732D01*
X160958053Y-65570408D01*
X160958047Y-65570412D01*
X160841412Y-65687047D01*
X160841405Y-65687056D01*
X160757435Y-65829042D01*
X160757434Y-65829045D01*
X160711413Y-65987447D01*
X160711412Y-65987453D01*
X160708500Y-66024458D01*
X160708500Y-67375541D01*
X160711412Y-67412546D01*
X160711413Y-67412552D01*
X160757434Y-67570954D01*
X160757435Y-67570957D01*
X160841405Y-67712943D01*
X160841412Y-67712952D01*
X160958047Y-67829587D01*
X160958051Y-67829590D01*
X160958053Y-67829592D01*
X161100041Y-67913564D01*
X161127419Y-67921518D01*
X161258447Y-67959586D01*
X161258450Y-67959586D01*
X161258452Y-67959587D01*
X161295466Y-67962500D01*
X161295474Y-67962500D01*
X163554526Y-67962500D01*
X163554534Y-67962500D01*
X163591548Y-67959587D01*
X163591550Y-67959586D01*
X163591552Y-67959586D01*
X163633323Y-67947449D01*
X163749959Y-67913564D01*
X163891947Y-67829592D01*
X163988148Y-67733389D01*
X164002939Y-67720758D01*
X164082464Y-67662981D01*
X164222981Y-67522464D01*
X164339787Y-67361694D01*
X164430005Y-67184632D01*
X164491413Y-66995636D01*
X164522500Y-66799361D01*
X164522500Y-66600639D01*
X164491413Y-66404364D01*
X164436187Y-66234394D01*
X164430006Y-66215370D01*
X164430005Y-66215367D01*
X164361031Y-66080000D01*
X164339787Y-66038306D01*
X164222981Y-65877536D01*
X164082464Y-65737019D01*
X164067911Y-65726446D01*
X164002938Y-65679240D01*
X163996175Y-65673960D01*
X163992000Y-65670461D01*
X163891947Y-65570408D01*
X163826259Y-65531560D01*
X163818477Y-65525038D01*
X163804510Y-65504073D01*
X163787321Y-65485663D01*
X163785471Y-65475492D01*
X163779740Y-65466890D01*
X163779324Y-65441702D01*
X163774817Y-65416921D01*
X163778758Y-65407366D01*
X163778588Y-65397030D01*
X163791856Y-65375616D01*
X163801462Y-65352332D01*
X163811874Y-65343309D01*
X163815389Y-65337638D01*
X163822127Y-65334425D01*
X163835004Y-65323268D01*
X163891947Y-65289592D01*
X163988148Y-65193389D01*
X164002939Y-65180758D01*
X164082464Y-65122981D01*
X164222981Y-64982464D01*
X164339787Y-64821694D01*
X164430005Y-64644632D01*
X164491413Y-64455636D01*
X164522500Y-64259361D01*
X164522500Y-64060639D01*
X164491413Y-63864364D01*
X164430005Y-63675368D01*
X164430005Y-63675367D01*
X164339786Y-63498305D01*
X164331151Y-63486420D01*
X164222981Y-63337536D01*
X164082464Y-63197019D01*
X164002937Y-63139239D01*
X163996175Y-63133960D01*
X163992000Y-63130461D01*
X163891947Y-63030408D01*
X163826259Y-62991560D01*
X163818477Y-62985038D01*
X163804510Y-62964073D01*
X163787321Y-62945663D01*
X163785471Y-62935492D01*
X163779740Y-62926890D01*
X163779324Y-62901702D01*
X163774817Y-62876921D01*
X163778758Y-62867366D01*
X163778588Y-62857030D01*
X163791856Y-62835616D01*
X163801462Y-62812332D01*
X163811874Y-62803309D01*
X163815389Y-62797638D01*
X163822127Y-62794425D01*
X163835004Y-62783268D01*
X163891947Y-62749592D01*
X163988148Y-62653389D01*
X164002939Y-62640758D01*
X164082464Y-62582981D01*
X164222981Y-62442464D01*
X164274457Y-62371613D01*
X164329786Y-62328949D01*
X164374774Y-62320500D01*
X166198481Y-62320500D01*
X166265520Y-62340185D01*
X166286162Y-62356819D01*
X166763181Y-62833838D01*
X166796666Y-62895161D01*
X166799500Y-62921519D01*
X166799500Y-72456000D01*
X166779815Y-72523039D01*
X166727011Y-72568794D01*
X166675500Y-72580000D01*
X160000000Y-72580000D01*
X160000000Y-111955500D01*
X159980315Y-112022539D01*
X159927511Y-112068294D01*
X159876000Y-112079500D01*
X109027364Y-112079500D01*
X108960325Y-112059815D01*
X108914570Y-112007011D01*
X108904626Y-111937853D01*
X108933651Y-111874297D01*
X108961392Y-111850506D01*
X109064872Y-111785484D01*
X109224573Y-111658126D01*
X108082737Y-110516290D01*
X108216602Y-110419033D01*
X108339033Y-110296602D01*
X108436290Y-110162737D01*
X109578126Y-111304573D01*
X109705484Y-111144872D01*
X109866827Y-110888096D01*
X109998401Y-110614880D01*
X109998407Y-110614866D01*
X110098561Y-110328645D01*
X110098565Y-110328633D01*
X110166045Y-110032982D01*
X110166047Y-110032966D01*
X110199999Y-109731633D01*
X110200000Y-109731631D01*
X110200000Y-109428368D01*
X110199999Y-109428366D01*
X110166047Y-109127033D01*
X110166045Y-109127017D01*
X110098565Y-108831366D01*
X110098561Y-108831354D01*
X109998407Y-108545133D01*
X109998401Y-108545119D01*
X109866827Y-108271903D01*
X109705484Y-108015127D01*
X109578127Y-107855425D01*
X108436290Y-108997262D01*
X108339033Y-108863398D01*
X108216602Y-108740967D01*
X108082736Y-108643709D01*
X109224573Y-107501871D01*
X109064872Y-107374515D01*
X108808096Y-107213172D01*
X108534880Y-107081598D01*
X108534866Y-107081592D01*
X108248645Y-106981438D01*
X108248633Y-106981434D01*
X107952982Y-106913954D01*
X107952966Y-106913952D01*
X107651633Y-106880000D01*
X107348366Y-106880000D01*
X107047033Y-106913952D01*
X107047017Y-106913954D01*
X106751366Y-106981434D01*
X106751354Y-106981438D01*
X106465133Y-107081592D01*
X106465119Y-107081598D01*
X106191903Y-107213172D01*
X105935127Y-107374515D01*
X105775425Y-107501871D01*
X106917263Y-108643709D01*
X106783398Y-108740967D01*
X106660967Y-108863398D01*
X106563709Y-108997263D01*
X105421871Y-107855425D01*
X105294515Y-108015127D01*
X105133172Y-108271903D01*
X105001598Y-108545119D01*
X105001592Y-108545133D01*
X104901438Y-108831354D01*
X104901434Y-108831366D01*
X104833954Y-109127017D01*
X104833952Y-109127033D01*
X104800000Y-109428366D01*
X104800000Y-109731633D01*
X104833952Y-110032966D01*
X104833954Y-110032982D01*
X104901434Y-110328633D01*
X104901438Y-110328645D01*
X105001592Y-110614866D01*
X105001598Y-110614880D01*
X105133172Y-110888096D01*
X105294515Y-111144872D01*
X105421871Y-111304573D01*
X106563708Y-110162736D01*
X106660967Y-110296602D01*
X106783398Y-110419033D01*
X106917262Y-110516290D01*
X105775425Y-111658127D01*
X105935127Y-111785484D01*
X106038608Y-111850506D01*
X106084899Y-111902841D01*
X106095547Y-111971894D01*
X106067172Y-112035743D01*
X106008783Y-112074115D01*
X105972636Y-112079500D01*
X104624500Y-112079500D01*
X104557461Y-112059815D01*
X104511706Y-112007011D01*
X104500500Y-111955500D01*
X104500500Y-98461386D01*
X125129193Y-98461386D01*
X125129193Y-98666089D01*
X125161215Y-98868272D01*
X125224474Y-99062961D01*
X125317408Y-99245351D01*
X125437721Y-99410951D01*
X125582477Y-99555707D01*
X125678078Y-99625164D01*
X125720744Y-99680493D01*
X125729193Y-99725482D01*
X125729193Y-100901993D01*
X125709508Y-100969032D01*
X125678078Y-101002311D01*
X125582480Y-101071766D01*
X125582475Y-101071770D01*
X125437721Y-101216524D01*
X125317408Y-101382124D01*
X125224474Y-101564514D01*
X125161215Y-101759203D01*
X125129193Y-101961386D01*
X125129193Y-102166089D01*
X125161215Y-102368272D01*
X125224474Y-102562961D01*
X125317408Y-102745351D01*
X125437721Y-102910951D01*
X125582479Y-103055709D01*
X125737442Y-103168294D01*
X125748083Y-103176025D01*
X125864300Y-103235241D01*
X125930469Y-103268956D01*
X125930471Y-103268956D01*
X125930474Y-103268958D01*
X125950504Y-103275466D01*
X126125158Y-103332215D01*
X126226250Y-103348226D01*
X126327341Y-103364238D01*
X126327342Y-103364238D01*
X126532044Y-103364238D01*
X126532045Y-103364238D01*
X126734227Y-103332215D01*
X126928912Y-103268958D01*
X127111303Y-103176025D01*
X127204283Y-103108470D01*
X127276906Y-103055709D01*
X127276908Y-103055706D01*
X127276912Y-103055704D01*
X127421659Y-102910957D01*
X127421661Y-102910953D01*
X127421664Y-102910951D01*
X127474425Y-102838328D01*
X127541980Y-102745348D01*
X127634913Y-102562957D01*
X127698170Y-102368272D01*
X127730193Y-102166090D01*
X127730193Y-101961386D01*
X135289193Y-101961386D01*
X135289193Y-102166089D01*
X135321215Y-102368272D01*
X135384474Y-102562961D01*
X135477408Y-102745351D01*
X135597721Y-102910951D01*
X135742479Y-103055709D01*
X135897442Y-103168294D01*
X135908083Y-103176025D01*
X136024300Y-103235241D01*
X136090469Y-103268956D01*
X136090471Y-103268956D01*
X136090474Y-103268958D01*
X136110504Y-103275466D01*
X136285158Y-103332215D01*
X136386250Y-103348226D01*
X136487341Y-103364238D01*
X136487342Y-103364238D01*
X136692044Y-103364238D01*
X136692045Y-103364238D01*
X136894227Y-103332215D01*
X137088912Y-103268958D01*
X137271303Y-103176025D01*
X137364283Y-103108470D01*
X137436906Y-103055709D01*
X137436908Y-103055706D01*
X137436912Y-103055704D01*
X137581659Y-102910957D01*
X137581661Y-102910953D01*
X137581664Y-102910951D01*
X137637713Y-102833804D01*
X137701980Y-102745348D01*
X137741466Y-102667851D01*
X137783064Y-102621042D01*
X137802805Y-102607852D01*
X138636592Y-101774063D01*
X138697913Y-101740580D01*
X138767604Y-101745564D01*
X138823538Y-101787435D01*
X138838832Y-101814294D01*
X138879222Y-101911807D01*
X138955887Y-102026545D01*
X138955888Y-102026546D01*
X141683194Y-104753850D01*
X141716679Y-104815173D01*
X141717986Y-104860929D01*
X141699500Y-104977642D01*
X141699500Y-105182351D01*
X141731522Y-105384534D01*
X141794781Y-105579223D01*
X141887715Y-105761613D01*
X142008028Y-105927213D01*
X142152786Y-106071971D01*
X142307749Y-106184556D01*
X142318390Y-106192287D01*
X142434607Y-106251503D01*
X142500776Y-106285218D01*
X142500778Y-106285218D01*
X142500781Y-106285220D01*
X142605137Y-106319127D01*
X142695465Y-106348477D01*
X142796557Y-106364488D01*
X142897648Y-106380500D01*
X142897649Y-106380500D01*
X143102351Y-106380500D01*
X143102352Y-106380500D01*
X143304534Y-106348477D01*
X143499219Y-106285220D01*
X143681610Y-106192287D01*
X143774590Y-106124732D01*
X143847213Y-106071971D01*
X143847215Y-106071968D01*
X143847219Y-106071966D01*
X143991966Y-105927219D01*
X143991968Y-105927215D01*
X143991971Y-105927213D01*
X144044732Y-105854590D01*
X144112287Y-105761610D01*
X144205220Y-105579219D01*
X144268477Y-105384534D01*
X144300500Y-105182352D01*
X144300500Y-104977648D01*
X144274766Y-104815173D01*
X144268477Y-104775465D01*
X144205218Y-104580776D01*
X144171503Y-104514607D01*
X144112287Y-104398390D01*
X144104556Y-104387749D01*
X143991971Y-104232786D01*
X143847213Y-104088028D01*
X143681613Y-103967715D01*
X143681612Y-103967714D01*
X143681610Y-103967713D01*
X143624653Y-103938691D01*
X143499223Y-103874781D01*
X143304534Y-103811522D01*
X143129995Y-103783878D01*
X143102352Y-103779500D01*
X142897648Y-103779500D01*
X142897643Y-103779500D01*
X142780929Y-103797986D01*
X142711636Y-103789032D01*
X142673850Y-103763194D01*
X140236819Y-101326162D01*
X140222115Y-101299234D01*
X140205523Y-101273416D01*
X140204631Y-101267215D01*
X140203334Y-101264839D01*
X140200500Y-101238481D01*
X140200500Y-101081744D01*
X140220185Y-101014705D01*
X140251615Y-100981426D01*
X140347215Y-100911969D01*
X140347215Y-100911968D01*
X140347219Y-100911966D01*
X140491966Y-100767219D01*
X140491968Y-100767215D01*
X140491971Y-100767213D01*
X140544732Y-100694590D01*
X140612287Y-100601610D01*
X140705220Y-100419219D01*
X140768477Y-100224534D01*
X140800500Y-100022352D01*
X140800500Y-99817648D01*
X140785902Y-99725482D01*
X140768477Y-99615465D01*
X140705218Y-99420776D01*
X140671503Y-99354607D01*
X140612287Y-99238390D01*
X140604556Y-99227749D01*
X140491971Y-99072786D01*
X140347213Y-98928028D01*
X140181613Y-98807715D01*
X140181612Y-98807714D01*
X140181610Y-98807713D01*
X140124653Y-98778691D01*
X139999223Y-98714781D01*
X139804534Y-98651522D01*
X139629995Y-98623878D01*
X139602352Y-98619500D01*
X139397648Y-98619500D01*
X139373329Y-98623351D01*
X139195465Y-98651522D01*
X139000776Y-98714781D01*
X138818386Y-98807715D01*
X138652786Y-98928028D01*
X138508028Y-99072786D01*
X138387715Y-99238386D01*
X138294781Y-99420776D01*
X138231522Y-99615465D01*
X138199500Y-99817648D01*
X138199500Y-100022351D01*
X138217986Y-100139069D01*
X138209031Y-100208363D01*
X138183194Y-100246148D01*
X137465844Y-100963497D01*
X137404521Y-100996982D01*
X137334829Y-100991998D01*
X137305280Y-100976136D01*
X137287883Y-100963497D01*
X137271303Y-100951451D01*
X137262530Y-100946981D01*
X137088916Y-100858519D01*
X136894227Y-100795260D01*
X136717142Y-100767213D01*
X136692045Y-100763238D01*
X136487341Y-100763238D01*
X136463022Y-100767089D01*
X136285158Y-100795260D01*
X136090469Y-100858519D01*
X135908079Y-100951453D01*
X135742479Y-101071766D01*
X135597721Y-101216524D01*
X135477408Y-101382124D01*
X135384474Y-101564514D01*
X135321215Y-101759203D01*
X135289193Y-101961386D01*
X127730193Y-101961386D01*
X127706896Y-101814294D01*
X127698170Y-101759203D01*
X127634911Y-101564514D01*
X127601196Y-101498345D01*
X127541980Y-101382128D01*
X127501319Y-101326162D01*
X127421664Y-101216524D01*
X127276910Y-101071770D01*
X127276905Y-101071766D01*
X127181308Y-101002311D01*
X127138642Y-100946981D01*
X127130193Y-100901993D01*
X127130193Y-99725482D01*
X127149878Y-99658443D01*
X127181308Y-99625164D01*
X127276908Y-99555707D01*
X127276908Y-99555706D01*
X127276912Y-99555704D01*
X127421659Y-99410957D01*
X127421661Y-99410953D01*
X127421664Y-99410951D01*
X127474425Y-99338328D01*
X127541980Y-99245348D01*
X127634913Y-99062957D01*
X127698170Y-98868272D01*
X127730193Y-98666090D01*
X127730193Y-98461386D01*
X127711706Y-98344667D01*
X127720660Y-98275374D01*
X127746495Y-98237591D01*
X130183530Y-95800557D01*
X130210457Y-95785853D01*
X130236276Y-95769261D01*
X130242476Y-95768369D01*
X130244853Y-95767072D01*
X130271211Y-95764238D01*
X130427949Y-95764238D01*
X130494988Y-95783923D01*
X130528268Y-95815354D01*
X130597723Y-95910953D01*
X130742479Y-96055709D01*
X130838155Y-96125220D01*
X130908083Y-96176025D01*
X130995370Y-96220500D01*
X131090469Y-96268956D01*
X131090471Y-96268956D01*
X131090474Y-96268958D01*
X131194830Y-96302865D01*
X131285158Y-96332215D01*
X131386250Y-96348226D01*
X131487341Y-96364238D01*
X131487342Y-96364238D01*
X131692044Y-96364238D01*
X131692045Y-96364238D01*
X131894227Y-96332215D01*
X132088912Y-96268958D01*
X132271303Y-96176025D01*
X132364283Y-96108470D01*
X132436906Y-96055709D01*
X132436908Y-96055706D01*
X132436912Y-96055704D01*
X132581659Y-95910957D01*
X132581661Y-95910953D01*
X132581664Y-95910951D01*
X132651118Y-95815354D01*
X132701980Y-95745348D01*
X132794913Y-95562957D01*
X132858170Y-95368272D01*
X132890193Y-95166090D01*
X132890193Y-94961386D01*
X132858170Y-94759204D01*
X132844314Y-94716561D01*
X132814636Y-94625220D01*
X132794913Y-94564519D01*
X132794911Y-94564516D01*
X132794911Y-94564514D01*
X132732976Y-94442961D01*
X132701980Y-94382128D01*
X132655133Y-94317648D01*
X132581664Y-94216524D01*
X132436910Y-94071770D01*
X132436905Y-94071766D01*
X132341308Y-94002311D01*
X132298642Y-93946981D01*
X132290193Y-93901993D01*
X132290193Y-93100697D01*
X132290192Y-93100695D01*
X132263274Y-92965371D01*
X132263273Y-92965367D01*
X132263273Y-92965365D01*
X132255287Y-92946086D01*
X132213816Y-92845965D01*
X132210468Y-92837882D01*
X132150537Y-92748189D01*
X132133808Y-92723152D01*
X132133807Y-92723151D01*
X132036235Y-92625579D01*
X131298149Y-91887493D01*
X131264666Y-91826172D01*
X131269650Y-91756480D01*
X131301456Y-91713992D01*
X131298978Y-91711513D01*
X131305238Y-91705251D01*
X131305246Y-91705246D01*
X131391496Y-91590031D01*
X131441791Y-91455183D01*
X131448200Y-91395573D01*
X131448199Y-90827895D01*
X131467883Y-90760858D01*
X131520687Y-90715103D01*
X131589846Y-90705159D01*
X131653402Y-90734184D01*
X131691176Y-90792962D01*
X131694672Y-90808499D01*
X131697744Y-90827897D01*
X131720073Y-90968871D01*
X131775922Y-91140756D01*
X131847125Y-91280500D01*
X131857974Y-91301791D01*
X131964196Y-91447996D01*
X131964202Y-91448002D01*
X132091998Y-91575798D01*
X132230371Y-91676331D01*
X132260587Y-91707759D01*
X132264752Y-91713992D01*
X132295884Y-91760586D01*
X132295888Y-91760591D01*
X135272887Y-94737589D01*
X135306372Y-94798912D01*
X135307679Y-94844667D01*
X135289193Y-94961385D01*
X135289193Y-95166089D01*
X135321215Y-95368272D01*
X135384474Y-95562961D01*
X135448384Y-95688391D01*
X135464745Y-95720500D01*
X135477408Y-95745351D01*
X135597721Y-95910951D01*
X135742477Y-96055707D01*
X135838078Y-96125164D01*
X135880744Y-96180493D01*
X135889193Y-96225482D01*
X135889193Y-97401993D01*
X135869508Y-97469032D01*
X135838078Y-97502311D01*
X135742480Y-97571766D01*
X135742475Y-97571770D01*
X135597721Y-97716524D01*
X135477408Y-97882124D01*
X135384474Y-98064514D01*
X135321215Y-98259203D01*
X135289193Y-98461386D01*
X135289193Y-98666089D01*
X135321215Y-98868272D01*
X135384474Y-99062961D01*
X135477408Y-99245351D01*
X135597721Y-99410951D01*
X135742479Y-99555709D01*
X135838078Y-99625164D01*
X135908083Y-99676025D01*
X136005148Y-99725482D01*
X136090469Y-99768956D01*
X136090471Y-99768956D01*
X136090474Y-99768958D01*
X136194830Y-99802865D01*
X136285158Y-99832215D01*
X136386250Y-99848226D01*
X136487341Y-99864238D01*
X136487342Y-99864238D01*
X136692044Y-99864238D01*
X136692045Y-99864238D01*
X136894227Y-99832215D01*
X137088912Y-99768958D01*
X137271303Y-99676025D01*
X137364283Y-99608470D01*
X137436906Y-99555709D01*
X137436908Y-99555706D01*
X137436912Y-99555704D01*
X137581659Y-99410957D01*
X137581661Y-99410953D01*
X137581664Y-99410951D01*
X137634425Y-99338328D01*
X137701980Y-99245348D01*
X137794913Y-99062957D01*
X137858170Y-98868272D01*
X137890193Y-98666090D01*
X137890193Y-98461386D01*
X137858170Y-98259204D01*
X137794913Y-98064519D01*
X137794911Y-98064516D01*
X137794911Y-98064514D01*
X137761196Y-97998345D01*
X137701980Y-97882128D01*
X137694249Y-97871487D01*
X137581664Y-97716524D01*
X137436910Y-97571770D01*
X137436905Y-97571766D01*
X137341308Y-97502311D01*
X137298642Y-97446981D01*
X137290193Y-97401993D01*
X137290193Y-96225482D01*
X137309878Y-96158443D01*
X137341308Y-96125164D01*
X137436908Y-96055707D01*
X137436908Y-96055706D01*
X137436912Y-96055704D01*
X137581659Y-95910957D01*
X137581661Y-95910953D01*
X137581664Y-95910951D01*
X137651118Y-95815354D01*
X137701980Y-95745348D01*
X137794913Y-95562957D01*
X137858170Y-95368272D01*
X137890193Y-95166090D01*
X137890193Y-94961386D01*
X137858170Y-94759204D01*
X137844314Y-94716561D01*
X137814636Y-94625220D01*
X137794913Y-94564519D01*
X137794911Y-94564516D01*
X137794911Y-94564514D01*
X137732976Y-94442961D01*
X137701980Y-94382128D01*
X137655133Y-94317648D01*
X137581664Y-94216524D01*
X137436906Y-94071766D01*
X137271306Y-93951453D01*
X137271305Y-93951452D01*
X137271303Y-93951451D01*
X137208044Y-93919219D01*
X137088916Y-93858519D01*
X136894227Y-93795260D01*
X136719688Y-93767616D01*
X136692045Y-93763238D01*
X136487341Y-93763238D01*
X136370622Y-93781724D01*
X136301329Y-93772769D01*
X136263544Y-93746932D01*
X133884507Y-91367895D01*
X133851022Y-91306572D01*
X133856006Y-91236880D01*
X133861699Y-91223929D01*
X133904078Y-91140756D01*
X133959927Y-90968871D01*
X133988200Y-90790365D01*
X133988200Y-90609635D01*
X134231800Y-90609635D01*
X134231800Y-90790365D01*
X134260073Y-90968871D01*
X134315922Y-91140756D01*
X134387125Y-91280500D01*
X134397974Y-91301791D01*
X134504196Y-91447996D01*
X134632003Y-91575803D01*
X134719499Y-91639371D01*
X134778212Y-91682028D01*
X134939244Y-91764078D01*
X135111129Y-91819927D01*
X135289635Y-91848200D01*
X135289636Y-91848200D01*
X135470364Y-91848200D01*
X135470365Y-91848200D01*
X135648871Y-91819927D01*
X135820756Y-91764078D01*
X135981788Y-91682028D01*
X136091617Y-91602233D01*
X136127996Y-91575803D01*
X136127998Y-91575800D01*
X136128002Y-91575798D01*
X136255798Y-91448002D01*
X136255800Y-91447998D01*
X136255803Y-91447996D01*
X136313999Y-91367895D01*
X136362028Y-91301788D01*
X136444078Y-91140756D01*
X136499927Y-90968871D01*
X136528200Y-90790365D01*
X136528200Y-90609635D01*
X136771800Y-90609635D01*
X136771800Y-90790365D01*
X136800073Y-90968871D01*
X136855922Y-91140756D01*
X136927125Y-91280500D01*
X136937974Y-91301791D01*
X137044196Y-91447996D01*
X137172003Y-91575803D01*
X137259499Y-91639371D01*
X137318212Y-91682028D01*
X137479244Y-91764078D01*
X137651129Y-91819927D01*
X137829635Y-91848200D01*
X137829636Y-91848200D01*
X138010364Y-91848200D01*
X138010365Y-91848200D01*
X138188871Y-91819927D01*
X138360756Y-91764078D01*
X138521788Y-91682028D01*
X138631617Y-91602233D01*
X138667996Y-91575803D01*
X138667998Y-91575800D01*
X138668002Y-91575798D01*
X138795798Y-91448002D01*
X138795800Y-91447998D01*
X138795803Y-91447996D01*
X138853999Y-91367895D01*
X138902028Y-91301788D01*
X138984078Y-91140756D01*
X139039927Y-90968871D01*
X139068200Y-90790365D01*
X139068200Y-90609635D01*
X139311800Y-90609635D01*
X139311800Y-90790365D01*
X139340073Y-90968871D01*
X139395922Y-91140756D01*
X139467125Y-91280500D01*
X139477974Y-91301791D01*
X139584196Y-91447996D01*
X139712003Y-91575803D01*
X139799499Y-91639371D01*
X139858212Y-91682028D01*
X140019244Y-91764078D01*
X140191129Y-91819927D01*
X140369635Y-91848200D01*
X140369636Y-91848200D01*
X140550364Y-91848200D01*
X140550365Y-91848200D01*
X140728871Y-91819927D01*
X140900756Y-91764078D01*
X141061788Y-91682028D01*
X141171617Y-91602233D01*
X141207996Y-91575803D01*
X141207998Y-91575800D01*
X141208002Y-91575798D01*
X141335798Y-91448002D01*
X141335800Y-91447998D01*
X141335803Y-91447996D01*
X141393999Y-91367895D01*
X141442028Y-91301788D01*
X141524078Y-91140756D01*
X141579927Y-90968871D01*
X141608200Y-90790365D01*
X141608200Y-90609635D01*
X141851800Y-90609635D01*
X141851800Y-90790365D01*
X141880073Y-90968871D01*
X141935922Y-91140756D01*
X142007125Y-91280500D01*
X142017974Y-91301791D01*
X142124196Y-91447996D01*
X142252003Y-91575803D01*
X142339499Y-91639371D01*
X142398212Y-91682028D01*
X142559244Y-91764078D01*
X142731129Y-91819927D01*
X142909635Y-91848200D01*
X142909636Y-91848200D01*
X143090364Y-91848200D01*
X143090365Y-91848200D01*
X143268871Y-91819927D01*
X143440756Y-91764078D01*
X143601788Y-91682028D01*
X143711617Y-91602233D01*
X143747996Y-91575803D01*
X143747998Y-91575800D01*
X143748002Y-91575798D01*
X143875798Y-91448002D01*
X143875800Y-91447998D01*
X143875803Y-91447996D01*
X143933999Y-91367895D01*
X143982028Y-91301788D01*
X144064078Y-91140756D01*
X144119927Y-90968871D01*
X144148200Y-90790365D01*
X144148200Y-90609635D01*
X144119927Y-90431129D01*
X144064078Y-90259244D01*
X143982028Y-90098212D01*
X143936746Y-90035886D01*
X143875803Y-89952003D01*
X143747996Y-89824196D01*
X143601791Y-89717974D01*
X143601790Y-89717973D01*
X143601788Y-89717972D01*
X143440756Y-89635922D01*
X143268871Y-89580073D01*
X143268869Y-89580072D01*
X143268867Y-89580072D01*
X143130823Y-89558208D01*
X143090365Y-89551800D01*
X142909635Y-89551800D01*
X142869177Y-89558208D01*
X142731132Y-89580072D01*
X142559241Y-89635923D01*
X142398208Y-89717974D01*
X142252003Y-89824196D01*
X142124196Y-89952003D01*
X142017974Y-90098208D01*
X141935923Y-90259241D01*
X141880072Y-90431132D01*
X141862440Y-90542457D01*
X141851800Y-90609635D01*
X141608200Y-90609635D01*
X141579927Y-90431129D01*
X141524078Y-90259244D01*
X141442028Y-90098212D01*
X141396746Y-90035886D01*
X141335803Y-89952003D01*
X141207996Y-89824196D01*
X141061791Y-89717974D01*
X141061790Y-89717973D01*
X141061788Y-89717972D01*
X140900756Y-89635922D01*
X140728871Y-89580073D01*
X140728869Y-89580072D01*
X140728867Y-89580072D01*
X140590823Y-89558208D01*
X140550365Y-89551800D01*
X140369635Y-89551800D01*
X140329177Y-89558208D01*
X140191132Y-89580072D01*
X140019241Y-89635923D01*
X139858208Y-89717974D01*
X139712003Y-89824196D01*
X139584196Y-89952003D01*
X139477974Y-90098208D01*
X139395923Y-90259241D01*
X139340072Y-90431132D01*
X139322440Y-90542457D01*
X139311800Y-90609635D01*
X139068200Y-90609635D01*
X139039927Y-90431129D01*
X138984078Y-90259244D01*
X138902028Y-90098212D01*
X138856746Y-90035886D01*
X138795803Y-89952003D01*
X138667996Y-89824196D01*
X138521791Y-89717974D01*
X138521790Y-89717973D01*
X138521788Y-89717972D01*
X138360756Y-89635922D01*
X138188871Y-89580073D01*
X138188869Y-89580072D01*
X138188867Y-89580072D01*
X138050823Y-89558208D01*
X138010365Y-89551800D01*
X137829635Y-89551800D01*
X137789177Y-89558208D01*
X137651132Y-89580072D01*
X137479241Y-89635923D01*
X137318208Y-89717974D01*
X137172003Y-89824196D01*
X137044196Y-89952003D01*
X136937974Y-90098208D01*
X136855923Y-90259241D01*
X136800072Y-90431132D01*
X136782440Y-90542457D01*
X136771800Y-90609635D01*
X136528200Y-90609635D01*
X136499927Y-90431129D01*
X136444078Y-90259244D01*
X136362028Y-90098212D01*
X136316746Y-90035886D01*
X136255803Y-89952003D01*
X136127996Y-89824196D01*
X135981791Y-89717974D01*
X135981790Y-89717973D01*
X135981788Y-89717972D01*
X135820756Y-89635922D01*
X135648871Y-89580073D01*
X135648869Y-89580072D01*
X135648867Y-89580072D01*
X135510823Y-89558208D01*
X135470365Y-89551800D01*
X135289635Y-89551800D01*
X135249177Y-89558208D01*
X135111132Y-89580072D01*
X134939241Y-89635923D01*
X134778208Y-89717974D01*
X134632003Y-89824196D01*
X134504196Y-89952003D01*
X134397974Y-90098208D01*
X134315923Y-90259241D01*
X134260072Y-90431132D01*
X134242440Y-90542457D01*
X134231800Y-90609635D01*
X133988200Y-90609635D01*
X133959927Y-90431129D01*
X133904078Y-90259244D01*
X133822028Y-90098212D01*
X133776746Y-90035886D01*
X133715803Y-89952003D01*
X133587996Y-89824196D01*
X133441791Y-89717974D01*
X133441790Y-89717973D01*
X133441788Y-89717972D01*
X133280756Y-89635922D01*
X133108871Y-89580073D01*
X133108869Y-89580072D01*
X133108867Y-89580072D01*
X132970823Y-89558208D01*
X132930365Y-89551800D01*
X132749635Y-89551800D01*
X132749634Y-89551800D01*
X132747384Y-89551977D01*
X132746542Y-89551800D01*
X132744763Y-89551800D01*
X132744763Y-89551426D01*
X132679007Y-89537611D01*
X132629251Y-89488559D01*
X132613914Y-89420393D01*
X132637865Y-89354757D01*
X132649969Y-89340686D01*
X134673838Y-87316819D01*
X134735161Y-87283334D01*
X134761519Y-87280500D01*
X152009481Y-87280500D01*
X152076520Y-87300185D01*
X152122275Y-87352989D01*
X152132219Y-87422147D01*
X152103194Y-87485703D01*
X152097163Y-87492178D01*
X151370649Y-88218693D01*
X150786016Y-88803326D01*
X150786015Y-88803327D01*
X149626162Y-89963181D01*
X149564839Y-89996666D01*
X149538481Y-89999500D01*
X146513492Y-89999500D01*
X146446453Y-89979815D01*
X146420000Y-89954830D01*
X146418970Y-89955711D01*
X146415799Y-89951999D01*
X146287996Y-89824196D01*
X146141791Y-89717974D01*
X146141790Y-89717973D01*
X146141788Y-89717972D01*
X145980756Y-89635922D01*
X145808871Y-89580073D01*
X145808869Y-89580072D01*
X145808867Y-89580072D01*
X145670823Y-89558208D01*
X145630365Y-89551800D01*
X145449635Y-89551800D01*
X145409177Y-89558208D01*
X145271132Y-89580072D01*
X145099241Y-89635923D01*
X144938208Y-89717974D01*
X144792003Y-89824196D01*
X144664196Y-89952003D01*
X144557974Y-90098208D01*
X144475923Y-90259241D01*
X144420072Y-90431132D01*
X144402440Y-90542457D01*
X144391800Y-90609635D01*
X144391800Y-90790365D01*
X144420073Y-90968871D01*
X144475922Y-91140756D01*
X144547125Y-91280500D01*
X144557974Y-91301791D01*
X144664196Y-91447996D01*
X144763181Y-91546981D01*
X144796666Y-91608304D01*
X144799500Y-91634662D01*
X144799500Y-93238480D01*
X144779815Y-93305519D01*
X144763181Y-93326161D01*
X144091944Y-93997397D01*
X144030621Y-94030882D01*
X143960929Y-94025898D01*
X143916582Y-93997397D01*
X143847213Y-93928028D01*
X143681613Y-93807715D01*
X143681612Y-93807714D01*
X143681610Y-93807713D01*
X143613029Y-93772769D01*
X143499223Y-93714781D01*
X143304534Y-93651522D01*
X143129995Y-93623878D01*
X143102352Y-93619500D01*
X142897648Y-93619500D01*
X142873329Y-93623351D01*
X142695465Y-93651522D01*
X142500776Y-93714781D01*
X142318386Y-93807715D01*
X142152786Y-93928028D01*
X142008030Y-94072784D01*
X141938575Y-94168384D01*
X141883245Y-94211051D01*
X141838256Y-94219500D01*
X140661744Y-94219500D01*
X140594705Y-94199815D01*
X140561425Y-94168384D01*
X140491969Y-94072784D01*
X140347213Y-93928028D01*
X140181613Y-93807715D01*
X140181612Y-93807714D01*
X140181610Y-93807713D01*
X140113029Y-93772769D01*
X139999223Y-93714781D01*
X139804534Y-93651522D01*
X139629995Y-93623878D01*
X139602352Y-93619500D01*
X139397648Y-93619500D01*
X139373329Y-93623351D01*
X139195465Y-93651522D01*
X139000776Y-93714781D01*
X138818386Y-93807715D01*
X138652786Y-93928028D01*
X138508028Y-94072786D01*
X138387715Y-94238386D01*
X138294781Y-94420776D01*
X138231522Y-94615465D01*
X138199500Y-94817648D01*
X138199500Y-95022351D01*
X138231522Y-95224534D01*
X138294781Y-95419223D01*
X138317655Y-95464114D01*
X138383620Y-95593578D01*
X138387715Y-95601613D01*
X138508028Y-95767213D01*
X138652786Y-95911971D01*
X138807749Y-96024556D01*
X138818390Y-96032287D01*
X138934607Y-96091503D01*
X139000776Y-96125218D01*
X139000778Y-96125218D01*
X139000781Y-96125220D01*
X139103031Y-96158443D01*
X139195465Y-96188477D01*
X139296557Y-96204488D01*
X139397648Y-96220500D01*
X139397649Y-96220500D01*
X139602351Y-96220500D01*
X139602352Y-96220500D01*
X139804534Y-96188477D01*
X139999219Y-96125220D01*
X140181610Y-96032287D01*
X140274590Y-95964732D01*
X140347213Y-95911971D01*
X140347215Y-95911968D01*
X140347219Y-95911966D01*
X140491966Y-95767219D01*
X140561425Y-95671615D01*
X140616755Y-95628949D01*
X140661744Y-95620500D01*
X141838256Y-95620500D01*
X141905295Y-95640185D01*
X141938575Y-95671616D01*
X142008030Y-95767215D01*
X142152786Y-95911971D01*
X142307749Y-96024556D01*
X142318390Y-96032287D01*
X142434607Y-96091503D01*
X142500776Y-96125218D01*
X142500778Y-96125218D01*
X142500781Y-96125220D01*
X142603031Y-96158443D01*
X142695465Y-96188477D01*
X142796557Y-96204488D01*
X142897648Y-96220500D01*
X142897649Y-96220500D01*
X143102351Y-96220500D01*
X143102352Y-96220500D01*
X143304534Y-96188477D01*
X143499219Y-96125220D01*
X143681610Y-96032287D01*
X143774590Y-95964732D01*
X143847213Y-95911971D01*
X143847215Y-95911968D01*
X143847219Y-95911966D01*
X143991966Y-95767219D01*
X144061425Y-95671615D01*
X144116755Y-95628949D01*
X144161744Y-95620500D01*
X144228996Y-95620500D01*
X144323959Y-95601610D01*
X144364328Y-95593580D01*
X144438259Y-95562957D01*
X144491807Y-95540777D01*
X144491808Y-95540776D01*
X144491811Y-95540775D01*
X144606543Y-95464114D01*
X146044114Y-94026543D01*
X146120775Y-93911811D01*
X146173580Y-93784329D01*
X146187414Y-93714780D01*
X146200500Y-93648993D01*
X146200500Y-91702552D01*
X146220185Y-91635513D01*
X146251614Y-91602234D01*
X146288002Y-91575798D01*
X146415798Y-91448002D01*
X146415802Y-91447996D01*
X146418970Y-91444289D01*
X146420728Y-91445791D01*
X146468496Y-91408952D01*
X146513492Y-91400500D01*
X149948996Y-91400500D01*
X150040040Y-91382389D01*
X150084328Y-91373580D01*
X150148069Y-91347177D01*
X150211807Y-91320777D01*
X150211808Y-91320776D01*
X150211811Y-91320775D01*
X150326543Y-91244114D01*
X151794114Y-89776543D01*
X151794114Y-89776542D01*
X159044113Y-82526543D01*
X159055180Y-82509981D01*
X159120775Y-82411811D01*
X159126246Y-82398604D01*
X159147078Y-82348309D01*
X159166504Y-82301411D01*
X159173580Y-82284329D01*
X159183994Y-82231972D01*
X159200500Y-82148993D01*
X159200500Y-68690099D01*
X159220185Y-68623060D01*
X159221398Y-68621208D01*
X159298013Y-68506547D01*
X159365894Y-68342666D01*
X159400500Y-68168691D01*
X159400500Y-67991309D01*
X159400500Y-67991306D01*
X159400499Y-67991304D01*
X159365896Y-67817341D01*
X159365893Y-67817332D01*
X159298016Y-67653459D01*
X159298009Y-67653446D01*
X159199464Y-67505965D01*
X159199461Y-67505961D01*
X159074038Y-67380538D01*
X159074034Y-67380535D01*
X158926553Y-67281990D01*
X158926540Y-67281983D01*
X158762667Y-67214106D01*
X158762658Y-67214103D01*
X158588694Y-67179500D01*
X158588691Y-67179500D01*
X158411309Y-67179500D01*
X158411306Y-67179500D01*
X158237341Y-67214103D01*
X158237332Y-67214106D01*
X158073459Y-67281983D01*
X158073446Y-67281990D01*
X158068887Y-67285037D01*
X158002208Y-67305912D01*
X157934829Y-67287425D01*
X157931113Y-67285037D01*
X157926553Y-67281990D01*
X157926540Y-67281983D01*
X157762667Y-67214106D01*
X157762658Y-67214103D01*
X157588694Y-67179500D01*
X157588691Y-67179500D01*
X157411309Y-67179500D01*
X157411306Y-67179500D01*
X157237341Y-67214103D01*
X157237332Y-67214106D01*
X157073459Y-67281983D01*
X157073446Y-67281990D01*
X156925965Y-67380535D01*
X156925961Y-67380538D01*
X156800538Y-67505961D01*
X156800535Y-67505965D01*
X156701990Y-67653446D01*
X156701983Y-67653459D01*
X156634106Y-67817332D01*
X156634103Y-67817341D01*
X156599500Y-67991304D01*
X156599500Y-68168695D01*
X156634103Y-68342658D01*
X156634106Y-68342667D01*
X156701984Y-68506542D01*
X156701985Y-68506543D01*
X156701987Y-68506547D01*
X156778602Y-68621208D01*
X156799480Y-68687885D01*
X156799500Y-68690099D01*
X156799500Y-81238481D01*
X156779815Y-81305520D01*
X156763181Y-81326162D01*
X152246162Y-85843181D01*
X152184839Y-85876666D01*
X152158481Y-85879500D01*
X134351004Y-85879500D01*
X134215677Y-85906418D01*
X134215667Y-85906421D01*
X134088192Y-85959222D01*
X133973454Y-86035887D01*
X130493860Y-89515481D01*
X130432537Y-89548966D01*
X130406179Y-89551800D01*
X129604429Y-89551800D01*
X129604423Y-89551801D01*
X129544816Y-89558208D01*
X129409971Y-89608502D01*
X129409964Y-89608506D01*
X129294755Y-89694752D01*
X129294752Y-89694755D01*
X129208506Y-89809964D01*
X129208502Y-89809971D01*
X129158208Y-89944817D01*
X129151801Y-90004416D01*
X129151800Y-90004435D01*
X129151800Y-91395570D01*
X129151801Y-91395576D01*
X129158208Y-91455183D01*
X129208502Y-91590028D01*
X129208506Y-91590035D01*
X129294752Y-91705244D01*
X129294755Y-91705247D01*
X129409964Y-91791493D01*
X129409973Y-91791498D01*
X129449982Y-91806420D01*
X129518832Y-91832099D01*
X129574766Y-91873969D01*
X129599184Y-91939433D01*
X129599500Y-91948277D01*
X129599500Y-91948994D01*
X129599500Y-91948996D01*
X129599499Y-91948996D01*
X129626418Y-92084322D01*
X129626421Y-92084332D01*
X129679222Y-92211807D01*
X129755887Y-92326545D01*
X129755888Y-92326546D01*
X130852874Y-93423530D01*
X130886359Y-93484853D01*
X130889193Y-93511211D01*
X130889193Y-93901993D01*
X130869508Y-93969032D01*
X130838078Y-94002311D01*
X130742480Y-94071766D01*
X130742475Y-94071770D01*
X130597723Y-94216522D01*
X130528268Y-94312122D01*
X130472938Y-94354789D01*
X130427949Y-94363238D01*
X129860696Y-94363238D01*
X129759895Y-94383288D01*
X129759886Y-94383290D01*
X129752284Y-94384803D01*
X129725364Y-94390158D01*
X129672716Y-94411966D01*
X129668631Y-94413657D01*
X129668613Y-94413664D01*
X129597884Y-94442961D01*
X129499514Y-94508691D01*
X129499512Y-94508692D01*
X129483151Y-94519623D01*
X129483146Y-94519627D01*
X126755840Y-97246932D01*
X126694517Y-97280417D01*
X126648761Y-97281724D01*
X126599662Y-97273947D01*
X126532045Y-97263238D01*
X126327341Y-97263238D01*
X126303022Y-97267089D01*
X126125158Y-97295260D01*
X125930469Y-97358519D01*
X125748079Y-97451453D01*
X125582479Y-97571766D01*
X125437721Y-97716524D01*
X125317408Y-97882124D01*
X125224474Y-98064514D01*
X125161215Y-98259203D01*
X125129193Y-98461386D01*
X104500500Y-98461386D01*
X104500500Y-82989635D01*
X129151800Y-82989635D01*
X129151800Y-83170364D01*
X129180072Y-83348867D01*
X129180072Y-83348869D01*
X129180073Y-83348871D01*
X129235922Y-83520756D01*
X129317840Y-83681529D01*
X129317974Y-83681791D01*
X129424196Y-83827996D01*
X129552003Y-83955803D01*
X129682260Y-84050438D01*
X129698212Y-84062028D01*
X129859244Y-84144078D01*
X130031129Y-84199927D01*
X130209635Y-84228200D01*
X130209636Y-84228200D01*
X130390364Y-84228200D01*
X130390365Y-84228200D01*
X130568871Y-84199927D01*
X130740756Y-84144078D01*
X130901788Y-84062028D01*
X130983879Y-84002385D01*
X131047996Y-83955803D01*
X131047998Y-83955800D01*
X131048002Y-83955798D01*
X131175798Y-83828002D01*
X131175800Y-83827998D01*
X131175803Y-83827996D01*
X131229868Y-83753580D01*
X131282028Y-83681788D01*
X131364078Y-83520756D01*
X131419927Y-83348871D01*
X131448200Y-83170365D01*
X131448200Y-82989635D01*
X131419927Y-82811129D01*
X131364078Y-82639244D01*
X131282028Y-82478212D01*
X131233789Y-82411816D01*
X131175803Y-82332003D01*
X131047996Y-82204196D01*
X130901791Y-82097974D01*
X130901790Y-82097973D01*
X130901788Y-82097972D01*
X130740756Y-82015922D01*
X130568871Y-81960073D01*
X130568869Y-81960072D01*
X130568867Y-81960072D01*
X130444232Y-81940331D01*
X130390365Y-81931800D01*
X130209635Y-81931800D01*
X130168254Y-81938354D01*
X130031132Y-81960072D01*
X129859241Y-82015923D01*
X129698208Y-82097974D01*
X129552003Y-82204196D01*
X129424196Y-82332003D01*
X129317974Y-82478208D01*
X129235923Y-82639241D01*
X129180072Y-82811132D01*
X129151800Y-82989635D01*
X104500500Y-82989635D01*
X104500500Y-75222135D01*
X106649500Y-75222135D01*
X106649500Y-77017870D01*
X106649501Y-77017876D01*
X106655908Y-77077483D01*
X106706202Y-77212328D01*
X106706206Y-77212335D01*
X106792452Y-77327544D01*
X106792455Y-77327547D01*
X106907664Y-77413793D01*
X106907671Y-77413797D01*
X107039082Y-77462810D01*
X107095016Y-77504681D01*
X107119433Y-77570145D01*
X107104582Y-77638418D01*
X107083431Y-77666673D01*
X106969889Y-77780215D01*
X106844951Y-77952179D01*
X106748444Y-78141585D01*
X106682753Y-78343760D01*
X106656665Y-78508477D01*
X106649500Y-78553713D01*
X106649500Y-78766287D01*
X106682754Y-78976243D01*
X106730800Y-79124114D01*
X106748444Y-79178414D01*
X106844951Y-79367820D01*
X106969890Y-79539786D01*
X107120213Y-79690109D01*
X107292179Y-79815048D01*
X107292181Y-79815049D01*
X107292184Y-79815051D01*
X107481588Y-79911557D01*
X107683757Y-79977246D01*
X107893713Y-80010500D01*
X107893714Y-80010500D01*
X108106286Y-80010500D01*
X108106287Y-80010500D01*
X108316243Y-79977246D01*
X108518412Y-79911557D01*
X108707816Y-79815051D01*
X108742512Y-79789843D01*
X108879786Y-79690109D01*
X108879788Y-79690106D01*
X108879792Y-79690104D01*
X109030104Y-79539792D01*
X109030106Y-79539788D01*
X109030109Y-79539786D01*
X109155048Y-79367820D01*
X109155047Y-79367820D01*
X109155051Y-79367816D01*
X109251557Y-79178412D01*
X109317246Y-78976243D01*
X109350500Y-78766287D01*
X109350500Y-78553713D01*
X109317246Y-78343757D01*
X109251557Y-78141588D01*
X109155051Y-77952184D01*
X109155049Y-77952181D01*
X109155048Y-77952179D01*
X109030109Y-77780213D01*
X108916569Y-77666673D01*
X108883084Y-77605350D01*
X108888068Y-77535658D01*
X108929940Y-77479725D01*
X108960915Y-77462810D01*
X109092331Y-77413796D01*
X109207546Y-77327546D01*
X109293796Y-77212331D01*
X109321651Y-77137648D01*
X121699500Y-77137648D01*
X121699500Y-77342351D01*
X121731522Y-77544534D01*
X121794781Y-77739223D01*
X121887715Y-77921613D01*
X122008028Y-78087213D01*
X122152786Y-78231971D01*
X122306649Y-78343757D01*
X122318390Y-78352287D01*
X122434607Y-78411503D01*
X122500776Y-78445218D01*
X122500778Y-78445218D01*
X122500781Y-78445220D01*
X122605137Y-78479127D01*
X122695465Y-78508477D01*
X122796557Y-78524488D01*
X122897648Y-78540500D01*
X122897649Y-78540500D01*
X123102351Y-78540500D01*
X123102352Y-78540500D01*
X123304534Y-78508477D01*
X123499219Y-78445220D01*
X123681610Y-78352287D01*
X123774590Y-78284732D01*
X123847213Y-78231971D01*
X123847215Y-78231968D01*
X123847219Y-78231966D01*
X123991966Y-78087219D01*
X123991968Y-78087215D01*
X123991971Y-78087213D01*
X124044732Y-78014590D01*
X124112287Y-77921610D01*
X124205220Y-77739219D01*
X124268477Y-77544534D01*
X124300500Y-77342352D01*
X124300500Y-77137648D01*
X125199500Y-77137648D01*
X125199500Y-77342351D01*
X125231522Y-77544534D01*
X125294781Y-77739223D01*
X125387715Y-77921613D01*
X125508028Y-78087213D01*
X125652786Y-78231971D01*
X125806649Y-78343757D01*
X125818390Y-78352287D01*
X125934607Y-78411503D01*
X126000776Y-78445218D01*
X126000778Y-78445218D01*
X126000781Y-78445220D01*
X126105137Y-78479127D01*
X126195465Y-78508477D01*
X126296557Y-78524488D01*
X126397648Y-78540500D01*
X126397649Y-78540500D01*
X126602351Y-78540500D01*
X126602352Y-78540500D01*
X126804534Y-78508477D01*
X126999219Y-78445220D01*
X127181610Y-78352287D01*
X127274590Y-78284732D01*
X127347213Y-78231971D01*
X127347215Y-78231968D01*
X127347219Y-78231966D01*
X127491966Y-78087219D01*
X127491968Y-78087215D01*
X127491971Y-78087213D01*
X127544732Y-78014590D01*
X127612287Y-77921610D01*
X127705220Y-77739219D01*
X127768477Y-77544534D01*
X127800500Y-77342352D01*
X127800500Y-77137648D01*
X127768477Y-76935466D01*
X127765797Y-76927219D01*
X127719659Y-76785220D01*
X127705220Y-76740781D01*
X127705218Y-76740777D01*
X127705218Y-76740776D01*
X127658043Y-76648192D01*
X127612287Y-76558390D01*
X127602220Y-76544534D01*
X127491971Y-76392786D01*
X127347213Y-76248028D01*
X127181613Y-76127715D01*
X127181612Y-76127714D01*
X127181610Y-76127713D01*
X127106305Y-76089343D01*
X126999223Y-76034781D01*
X126804534Y-75971522D01*
X126629995Y-75943878D01*
X126602352Y-75939500D01*
X126397648Y-75939500D01*
X126373329Y-75943351D01*
X126195465Y-75971522D01*
X126000776Y-76034781D01*
X125818386Y-76127715D01*
X125652786Y-76248028D01*
X125508028Y-76392786D01*
X125387715Y-76558386D01*
X125294781Y-76740776D01*
X125231522Y-76935465D01*
X125199500Y-77137648D01*
X124300500Y-77137648D01*
X124268477Y-76935466D01*
X124265797Y-76927219D01*
X124219659Y-76785220D01*
X124205220Y-76740781D01*
X124205218Y-76740777D01*
X124205218Y-76740776D01*
X124158043Y-76648192D01*
X124112287Y-76558390D01*
X124102220Y-76544534D01*
X123991971Y-76392786D01*
X123847213Y-76248028D01*
X123681613Y-76127715D01*
X123681612Y-76127714D01*
X123681610Y-76127713D01*
X123606305Y-76089343D01*
X123499223Y-76034781D01*
X123304534Y-75971522D01*
X123129995Y-75943878D01*
X123102352Y-75939500D01*
X122897648Y-75939500D01*
X122873329Y-75943351D01*
X122695465Y-75971522D01*
X122500776Y-76034781D01*
X122318386Y-76127715D01*
X122152786Y-76248028D01*
X122008028Y-76392786D01*
X121887715Y-76558386D01*
X121794781Y-76740776D01*
X121731522Y-76935465D01*
X121699500Y-77137648D01*
X109321651Y-77137648D01*
X109344091Y-77077483D01*
X109350500Y-77017873D01*
X109350500Y-76938357D01*
X109351106Y-76932252D01*
X109362003Y-76905322D01*
X109370185Y-76877461D01*
X109374949Y-76873332D01*
X109377316Y-76867485D01*
X109401044Y-76850720D01*
X109422989Y-76831706D01*
X109430170Y-76830143D01*
X109434381Y-76827169D01*
X109446236Y-76826648D01*
X109474500Y-76820500D01*
X114028996Y-76820500D01*
X114120040Y-76802389D01*
X114164328Y-76793580D01*
X114228069Y-76767177D01*
X114291807Y-76740777D01*
X114291808Y-76740776D01*
X114291811Y-76740775D01*
X114406543Y-76664114D01*
X117704113Y-73366543D01*
X117780774Y-73251812D01*
X117780775Y-73251811D01*
X117833580Y-73124328D01*
X117860500Y-72988993D01*
X117860500Y-72241744D01*
X117880185Y-72174705D01*
X117911615Y-72141426D01*
X118007215Y-72071969D01*
X118007215Y-72071968D01*
X118007219Y-72071966D01*
X118151966Y-71927219D01*
X118151968Y-71927215D01*
X118151971Y-71927213D01*
X118252990Y-71788170D01*
X118272287Y-71761610D01*
X118365220Y-71579219D01*
X118428477Y-71384534D01*
X118460500Y-71182352D01*
X118460500Y-70977648D01*
X118428477Y-70775466D01*
X118365220Y-70580781D01*
X118365218Y-70580778D01*
X118365218Y-70580776D01*
X118331503Y-70514607D01*
X118272287Y-70398390D01*
X118264556Y-70387749D01*
X118151971Y-70232786D01*
X118007213Y-70088028D01*
X117841613Y-69967715D01*
X117841612Y-69967714D01*
X117841610Y-69967713D01*
X117784653Y-69938691D01*
X117659223Y-69874781D01*
X117464534Y-69811522D01*
X117289995Y-69783878D01*
X117262352Y-69779500D01*
X117057648Y-69779500D01*
X117033329Y-69783351D01*
X116855465Y-69811522D01*
X116660776Y-69874781D01*
X116478386Y-69967715D01*
X116312786Y-70088028D01*
X116168028Y-70232786D01*
X116047715Y-70398386D01*
X115954781Y-70580776D01*
X115891522Y-70775465D01*
X115859500Y-70977648D01*
X115859500Y-71182351D01*
X115891522Y-71384534D01*
X115954781Y-71579223D01*
X116047715Y-71761613D01*
X116168028Y-71927213D01*
X116312784Y-72071969D01*
X116408385Y-72141426D01*
X116451051Y-72196755D01*
X116459500Y-72241744D01*
X116459500Y-72578481D01*
X116439815Y-72645520D01*
X116423181Y-72666162D01*
X113706162Y-75383181D01*
X113644839Y-75416666D01*
X113618481Y-75419500D01*
X109474499Y-75419500D01*
X109407460Y-75399815D01*
X109361705Y-75347011D01*
X109350499Y-75295500D01*
X109350499Y-75222129D01*
X109350498Y-75222123D01*
X109350497Y-75222116D01*
X109344091Y-75162517D01*
X109316308Y-75088028D01*
X109293797Y-75027671D01*
X109293793Y-75027664D01*
X109207547Y-74912455D01*
X109207544Y-74912452D01*
X109092335Y-74826206D01*
X109092328Y-74826202D01*
X108957482Y-74775908D01*
X108957483Y-74775908D01*
X108897883Y-74769501D01*
X108897881Y-74769500D01*
X108897873Y-74769500D01*
X108897864Y-74769500D01*
X107102129Y-74769500D01*
X107102123Y-74769501D01*
X107042516Y-74775908D01*
X106907671Y-74826202D01*
X106907664Y-74826206D01*
X106792455Y-74912452D01*
X106792452Y-74912455D01*
X106706206Y-75027664D01*
X106706202Y-75027671D01*
X106655908Y-75162517D01*
X106649501Y-75222116D01*
X106649501Y-75222123D01*
X106649500Y-75222135D01*
X104500500Y-75222135D01*
X104500500Y-70977648D01*
X105699500Y-70977648D01*
X105699500Y-71182351D01*
X105731522Y-71384534D01*
X105794781Y-71579223D01*
X105887715Y-71761613D01*
X106008028Y-71927213D01*
X106152786Y-72071971D01*
X106248385Y-72141426D01*
X106318390Y-72192287D01*
X106415455Y-72241744D01*
X106500776Y-72285218D01*
X106500778Y-72285218D01*
X106500781Y-72285220D01*
X106605137Y-72319127D01*
X106695465Y-72348477D01*
X106796557Y-72364488D01*
X106897648Y-72380500D01*
X106897649Y-72380500D01*
X107102351Y-72380500D01*
X107102352Y-72380500D01*
X107304534Y-72348477D01*
X107499219Y-72285220D01*
X107681610Y-72192287D01*
X107774590Y-72124732D01*
X107847213Y-72071971D01*
X107847215Y-72071968D01*
X107847219Y-72071966D01*
X107991966Y-71927219D01*
X107991968Y-71927215D01*
X107991971Y-71927213D01*
X108092990Y-71788170D01*
X108112287Y-71761610D01*
X108205220Y-71579219D01*
X108268477Y-71384534D01*
X108300500Y-71182352D01*
X108300500Y-70977648D01*
X108268477Y-70775466D01*
X108205220Y-70580781D01*
X108205218Y-70580778D01*
X108205218Y-70580776D01*
X108171503Y-70514607D01*
X108112287Y-70398390D01*
X108104556Y-70387749D01*
X107991971Y-70232786D01*
X107847213Y-70088028D01*
X107681613Y-69967715D01*
X107681612Y-69967714D01*
X107681610Y-69967713D01*
X107624653Y-69938691D01*
X107499223Y-69874781D01*
X107304534Y-69811522D01*
X107129995Y-69783878D01*
X107102352Y-69779500D01*
X106897648Y-69779500D01*
X106873329Y-69783351D01*
X106695465Y-69811522D01*
X106500776Y-69874781D01*
X106318386Y-69967715D01*
X106152786Y-70088028D01*
X106008028Y-70232786D01*
X105887715Y-70398386D01*
X105794781Y-70580776D01*
X105731522Y-70775465D01*
X105699500Y-70977648D01*
X104500500Y-70977648D01*
X104500500Y-66977648D01*
X105699500Y-66977648D01*
X105699500Y-67182351D01*
X105731522Y-67384534D01*
X105794781Y-67579223D01*
X105832604Y-67653453D01*
X105862920Y-67712952D01*
X105887715Y-67761613D01*
X106008028Y-67927213D01*
X106152786Y-68071971D01*
X106285915Y-68168693D01*
X106318390Y-68192287D01*
X106434607Y-68251503D01*
X106500776Y-68285218D01*
X106500778Y-68285218D01*
X106500781Y-68285220D01*
X106605137Y-68319127D01*
X106695465Y-68348477D01*
X106796557Y-68364488D01*
X106897648Y-68380500D01*
X106897649Y-68380500D01*
X107102351Y-68380500D01*
X107102352Y-68380500D01*
X107304534Y-68348477D01*
X107499219Y-68285220D01*
X107681610Y-68192287D01*
X107774590Y-68124732D01*
X107847213Y-68071971D01*
X107847215Y-68071968D01*
X107847219Y-68071966D01*
X107991966Y-67927219D01*
X107991968Y-67927215D01*
X107991971Y-67927213D01*
X108062894Y-67829594D01*
X108112287Y-67761610D01*
X108205220Y-67579219D01*
X108268477Y-67384534D01*
X108300500Y-67182352D01*
X108300500Y-66977648D01*
X110699500Y-66977648D01*
X110699500Y-67182351D01*
X110731522Y-67384534D01*
X110794781Y-67579223D01*
X110832604Y-67653453D01*
X110862920Y-67712952D01*
X110887715Y-67761613D01*
X111008028Y-67927213D01*
X111152786Y-68071971D01*
X111285915Y-68168693D01*
X111318390Y-68192287D01*
X111434607Y-68251503D01*
X111500776Y-68285218D01*
X111500778Y-68285218D01*
X111500781Y-68285220D01*
X111605137Y-68319127D01*
X111695465Y-68348477D01*
X111796557Y-68364488D01*
X111897648Y-68380500D01*
X111897649Y-68380500D01*
X112102351Y-68380500D01*
X112102352Y-68380500D01*
X112304534Y-68348477D01*
X112499219Y-68285220D01*
X112681610Y-68192287D01*
X112774590Y-68124732D01*
X112847213Y-68071971D01*
X112847215Y-68071968D01*
X112847219Y-68071966D01*
X112991966Y-67927219D01*
X112991968Y-67927215D01*
X112991971Y-67927213D01*
X113062894Y-67829594D01*
X113112287Y-67761610D01*
X113205220Y-67579219D01*
X113268477Y-67384534D01*
X113300500Y-67182352D01*
X113300500Y-66977648D01*
X121699500Y-66977648D01*
X121699500Y-67182351D01*
X121731522Y-67384534D01*
X121794781Y-67579223D01*
X121832604Y-67653453D01*
X121862920Y-67712952D01*
X121887715Y-67761613D01*
X122008028Y-67927213D01*
X122152786Y-68071971D01*
X122285915Y-68168693D01*
X122318390Y-68192287D01*
X122434607Y-68251503D01*
X122500776Y-68285218D01*
X122500778Y-68285218D01*
X122500781Y-68285220D01*
X122605137Y-68319127D01*
X122695465Y-68348477D01*
X122796557Y-68364488D01*
X122897648Y-68380500D01*
X122897649Y-68380500D01*
X123102351Y-68380500D01*
X123102352Y-68380500D01*
X123304534Y-68348477D01*
X123499219Y-68285220D01*
X123681610Y-68192287D01*
X123774590Y-68124732D01*
X123847213Y-68071971D01*
X123847215Y-68071968D01*
X123847219Y-68071966D01*
X123991966Y-67927219D01*
X123991968Y-67927215D01*
X123991971Y-67927213D01*
X124062894Y-67829594D01*
X124112287Y-67761610D01*
X124205220Y-67579219D01*
X124268477Y-67384534D01*
X124300500Y-67182352D01*
X124300500Y-66977648D01*
X125199500Y-66977648D01*
X125199500Y-67182351D01*
X125231522Y-67384534D01*
X125294781Y-67579223D01*
X125332604Y-67653453D01*
X125362920Y-67712952D01*
X125387715Y-67761613D01*
X125508028Y-67927213D01*
X125652786Y-68071971D01*
X125785915Y-68168693D01*
X125818390Y-68192287D01*
X125934607Y-68251503D01*
X126000776Y-68285218D01*
X126000778Y-68285218D01*
X126000781Y-68285220D01*
X126105137Y-68319127D01*
X126195465Y-68348477D01*
X126296557Y-68364488D01*
X126397648Y-68380500D01*
X126397649Y-68380500D01*
X126602351Y-68380500D01*
X126602352Y-68380500D01*
X126804534Y-68348477D01*
X126999219Y-68285220D01*
X127181610Y-68192287D01*
X127274590Y-68124732D01*
X127347213Y-68071971D01*
X127347215Y-68071968D01*
X127347219Y-68071966D01*
X127491966Y-67927219D01*
X127491968Y-67927215D01*
X127491971Y-67927213D01*
X127562894Y-67829594D01*
X127612287Y-67761610D01*
X127705220Y-67579219D01*
X127768477Y-67384534D01*
X127800500Y-67182352D01*
X127800500Y-66977648D01*
X128699500Y-66977648D01*
X128699500Y-67182351D01*
X128731522Y-67384534D01*
X128794781Y-67579223D01*
X128832604Y-67653453D01*
X128862920Y-67712952D01*
X128887715Y-67761613D01*
X129008028Y-67927213D01*
X129152786Y-68071971D01*
X129285915Y-68168693D01*
X129318390Y-68192287D01*
X129434607Y-68251503D01*
X129500776Y-68285218D01*
X129500778Y-68285218D01*
X129500781Y-68285220D01*
X129605137Y-68319127D01*
X129695465Y-68348477D01*
X129796557Y-68364488D01*
X129897648Y-68380500D01*
X129897649Y-68380500D01*
X130102351Y-68380500D01*
X130102352Y-68380500D01*
X130304534Y-68348477D01*
X130499219Y-68285220D01*
X130681610Y-68192287D01*
X130774590Y-68124732D01*
X130847213Y-68071971D01*
X130847215Y-68071968D01*
X130847219Y-68071966D01*
X130991966Y-67927219D01*
X130991968Y-67927215D01*
X130991971Y-67927213D01*
X131062894Y-67829594D01*
X131112287Y-67761610D01*
X131205220Y-67579219D01*
X131268477Y-67384534D01*
X131300500Y-67182352D01*
X131300500Y-66977648D01*
X131272262Y-66799361D01*
X131268477Y-66775465D01*
X131237981Y-66681610D01*
X131205220Y-66580781D01*
X131205218Y-66580778D01*
X131205218Y-66580776D01*
X131130203Y-66433553D01*
X131112287Y-66398390D01*
X131059407Y-66325606D01*
X130991971Y-66232786D01*
X130847213Y-66088028D01*
X130681613Y-65967715D01*
X130681612Y-65967714D01*
X130681610Y-65967713D01*
X130624653Y-65938691D01*
X130499223Y-65874781D01*
X130304534Y-65811522D01*
X130111374Y-65780929D01*
X130102352Y-65779500D01*
X129897648Y-65779500D01*
X129888626Y-65780929D01*
X129695465Y-65811522D01*
X129500776Y-65874781D01*
X129318386Y-65967715D01*
X129152786Y-66088028D01*
X129008028Y-66232786D01*
X128887715Y-66398386D01*
X128794781Y-66580776D01*
X128731522Y-66775465D01*
X128699500Y-66977648D01*
X127800500Y-66977648D01*
X127772262Y-66799361D01*
X127768477Y-66775465D01*
X127737981Y-66681610D01*
X127705220Y-66580781D01*
X127705218Y-66580778D01*
X127705218Y-66580776D01*
X127630203Y-66433553D01*
X127612287Y-66398390D01*
X127559407Y-66325606D01*
X127491971Y-66232786D01*
X127347213Y-66088028D01*
X127181613Y-65967715D01*
X127181612Y-65967714D01*
X127181610Y-65967713D01*
X127124653Y-65938691D01*
X126999223Y-65874781D01*
X126804534Y-65811522D01*
X126611374Y-65780929D01*
X126602352Y-65779500D01*
X126397648Y-65779500D01*
X126388626Y-65780929D01*
X126195465Y-65811522D01*
X126000776Y-65874781D01*
X125818386Y-65967715D01*
X125652786Y-66088028D01*
X125508028Y-66232786D01*
X125387715Y-66398386D01*
X125294781Y-66580776D01*
X125231522Y-66775465D01*
X125199500Y-66977648D01*
X124300500Y-66977648D01*
X124272262Y-66799361D01*
X124268477Y-66775465D01*
X124237981Y-66681610D01*
X124205220Y-66580781D01*
X124205218Y-66580778D01*
X124205218Y-66580776D01*
X124130203Y-66433553D01*
X124112287Y-66398390D01*
X124059407Y-66325606D01*
X123991971Y-66232786D01*
X123847213Y-66088028D01*
X123681613Y-65967715D01*
X123681612Y-65967714D01*
X123681610Y-65967713D01*
X123624653Y-65938691D01*
X123499223Y-65874781D01*
X123304534Y-65811522D01*
X123111374Y-65780929D01*
X123102352Y-65779500D01*
X122897648Y-65779500D01*
X122888626Y-65780929D01*
X122695465Y-65811522D01*
X122500776Y-65874781D01*
X122318386Y-65967715D01*
X122152786Y-66088028D01*
X122008028Y-66232786D01*
X121887715Y-66398386D01*
X121794781Y-66580776D01*
X121731522Y-66775465D01*
X121699500Y-66977648D01*
X113300500Y-66977648D01*
X113272262Y-66799361D01*
X113268477Y-66775465D01*
X113237981Y-66681610D01*
X113205220Y-66580781D01*
X113205218Y-66580778D01*
X113205218Y-66580776D01*
X113130203Y-66433553D01*
X113112287Y-66398390D01*
X113059407Y-66325606D01*
X112991971Y-66232786D01*
X112847213Y-66088028D01*
X112681613Y-65967715D01*
X112681612Y-65967714D01*
X112681610Y-65967713D01*
X112624653Y-65938691D01*
X112499223Y-65874781D01*
X112304534Y-65811522D01*
X112111374Y-65780929D01*
X112102352Y-65779500D01*
X111897648Y-65779500D01*
X111888626Y-65780929D01*
X111695465Y-65811522D01*
X111500776Y-65874781D01*
X111318386Y-65967715D01*
X111152786Y-66088028D01*
X111008028Y-66232786D01*
X110887715Y-66398386D01*
X110794781Y-66580776D01*
X110731522Y-66775465D01*
X110699500Y-66977648D01*
X108300500Y-66977648D01*
X108272262Y-66799361D01*
X108268477Y-66775465D01*
X108237981Y-66681610D01*
X108205220Y-66580781D01*
X108205218Y-66580778D01*
X108205218Y-66580776D01*
X108130203Y-66433553D01*
X108112287Y-66398390D01*
X108059407Y-66325606D01*
X107991971Y-66232786D01*
X107847213Y-66088028D01*
X107681613Y-65967715D01*
X107681612Y-65967714D01*
X107681610Y-65967713D01*
X107624653Y-65938691D01*
X107499223Y-65874781D01*
X107304534Y-65811522D01*
X107111374Y-65780929D01*
X107102352Y-65779500D01*
X106897648Y-65779500D01*
X106888626Y-65780929D01*
X106695465Y-65811522D01*
X106500776Y-65874781D01*
X106318386Y-65967715D01*
X106152786Y-66088028D01*
X106008028Y-66232786D01*
X105887715Y-66398386D01*
X105794781Y-66580776D01*
X105731522Y-66775465D01*
X105699500Y-66977648D01*
X104500500Y-66977648D01*
X104500500Y-56532135D01*
X111499500Y-56532135D01*
X111499500Y-59627870D01*
X111499501Y-59627876D01*
X111505908Y-59687483D01*
X111556202Y-59822328D01*
X111556206Y-59822335D01*
X111642452Y-59937544D01*
X111642455Y-59937547D01*
X111757664Y-60023793D01*
X111757671Y-60023797D01*
X111892517Y-60074091D01*
X111892516Y-60074091D01*
X111899444Y-60074835D01*
X111952127Y-60080500D01*
X115047872Y-60080499D01*
X115107483Y-60074091D01*
X115242331Y-60023796D01*
X115357546Y-59937546D01*
X115443796Y-59822331D01*
X115494091Y-59687483D01*
X115500500Y-59627873D01*
X115500499Y-57121518D01*
X115520184Y-57054480D01*
X115536818Y-57033838D01*
X116159481Y-56411175D01*
X116345405Y-56225251D01*
X116406727Y-56191767D01*
X116476419Y-56196751D01*
X116532352Y-56238623D01*
X116556769Y-56304087D01*
X116549267Y-56356266D01*
X116505908Y-56472517D01*
X116502507Y-56504157D01*
X116499501Y-56532123D01*
X116499500Y-56532135D01*
X116499500Y-59627870D01*
X116499501Y-59627876D01*
X116505908Y-59687483D01*
X116556202Y-59822328D01*
X116556206Y-59822335D01*
X116642452Y-59937544D01*
X116642455Y-59937547D01*
X116757664Y-60023793D01*
X116757671Y-60023797D01*
X116892517Y-60074091D01*
X116892516Y-60074091D01*
X116899444Y-60074835D01*
X116952127Y-60080500D01*
X120047872Y-60080499D01*
X120107483Y-60074091D01*
X120242331Y-60023796D01*
X120357546Y-59937546D01*
X120443796Y-59822331D01*
X120494091Y-59687483D01*
X120500500Y-59627873D01*
X120500499Y-57939568D01*
X121499500Y-57939568D01*
X121499500Y-58220431D01*
X121530942Y-58499494D01*
X121530945Y-58499512D01*
X121593439Y-58773317D01*
X121593443Y-58773329D01*
X121686200Y-59038411D01*
X121808053Y-59291442D01*
X121808055Y-59291445D01*
X121957477Y-59529248D01*
X122132584Y-59748825D01*
X122331175Y-59947416D01*
X122550752Y-60122523D01*
X122788555Y-60271945D01*
X123041592Y-60393801D01*
X123240680Y-60463465D01*
X123306670Y-60486556D01*
X123306682Y-60486560D01*
X123580491Y-60549055D01*
X123580497Y-60549055D01*
X123580505Y-60549057D01*
X123766547Y-60570018D01*
X123859569Y-60580499D01*
X123859572Y-60580500D01*
X123859575Y-60580500D01*
X124140428Y-60580500D01*
X124140429Y-60580499D01*
X124283055Y-60564429D01*
X124419494Y-60549057D01*
X124419499Y-60549056D01*
X124419509Y-60549055D01*
X124693318Y-60486560D01*
X124958408Y-60393801D01*
X125211445Y-60271945D01*
X125449248Y-60122523D01*
X125668825Y-59947416D01*
X125867416Y-59748825D01*
X126042523Y-59529248D01*
X126191945Y-59291445D01*
X126313801Y-59038408D01*
X126406560Y-58773318D01*
X126469055Y-58499509D01*
X126478205Y-58418305D01*
X126493300Y-58284328D01*
X126500500Y-58220425D01*
X126500500Y-57939575D01*
X126500499Y-57939570D01*
X126500499Y-57939568D01*
X126469057Y-57660505D01*
X126469054Y-57660487D01*
X126465784Y-57646162D01*
X126406560Y-57386682D01*
X126398086Y-57362466D01*
X126341830Y-57201694D01*
X126313801Y-57121592D01*
X126191945Y-56868555D01*
X126042523Y-56630752D01*
X125867416Y-56411175D01*
X125668825Y-56212584D01*
X125449248Y-56037477D01*
X125211445Y-55888055D01*
X125211442Y-55888053D01*
X124958411Y-55766200D01*
X124693329Y-55673443D01*
X124693317Y-55673439D01*
X124419512Y-55610945D01*
X124419494Y-55610942D01*
X124140431Y-55579500D01*
X124140425Y-55579500D01*
X123859575Y-55579500D01*
X123859568Y-55579500D01*
X123580505Y-55610942D01*
X123580487Y-55610945D01*
X123306682Y-55673439D01*
X123306670Y-55673443D01*
X123041588Y-55766200D01*
X122788557Y-55888053D01*
X122550753Y-56037476D01*
X122331175Y-56212583D01*
X122132583Y-56411175D01*
X121957476Y-56630753D01*
X121808053Y-56868557D01*
X121686200Y-57121588D01*
X121593443Y-57386670D01*
X121593439Y-57386682D01*
X121530945Y-57660487D01*
X121530942Y-57660505D01*
X121499500Y-57939568D01*
X120500499Y-57939568D01*
X120500499Y-56532128D01*
X120494091Y-56472517D01*
X120482201Y-56440639D01*
X120443797Y-56337671D01*
X120443793Y-56337664D01*
X120357547Y-56222455D01*
X120357544Y-56222452D01*
X120242335Y-56136206D01*
X120242328Y-56136202D01*
X120107482Y-56085908D01*
X120107483Y-56085908D01*
X120047883Y-56079501D01*
X120047881Y-56079500D01*
X120047873Y-56079500D01*
X120047864Y-56079500D01*
X116952129Y-56079500D01*
X116952123Y-56079501D01*
X116892516Y-56085908D01*
X116776266Y-56129267D01*
X116706574Y-56134251D01*
X116645251Y-56100765D01*
X116611767Y-56039442D01*
X116616752Y-55969750D01*
X116645250Y-55925406D01*
X116853838Y-55716819D01*
X116915161Y-55683334D01*
X116941519Y-55680500D01*
X122068996Y-55680500D01*
X122160040Y-55662389D01*
X122204328Y-55653580D01*
X122268069Y-55627177D01*
X122331807Y-55600777D01*
X122331808Y-55600776D01*
X122331811Y-55600775D01*
X122446543Y-55524114D01*
X125486449Y-52484206D01*
X125547770Y-52450723D01*
X125593522Y-52449416D01*
X125789778Y-52480500D01*
X125789779Y-52480500D01*
X126010221Y-52480500D01*
X126010222Y-52480500D01*
X126206475Y-52449416D01*
X126275765Y-52458370D01*
X126313551Y-52484208D01*
X126763181Y-52933838D01*
X126796666Y-52995161D01*
X126799500Y-53021519D01*
X126799500Y-58011006D01*
X126799500Y-58148994D01*
X126799500Y-58148996D01*
X126799499Y-58148996D01*
X126826418Y-58284322D01*
X126826421Y-58284332D01*
X126879222Y-58411807D01*
X126955887Y-58526545D01*
X126955888Y-58526546D01*
X131763181Y-63333838D01*
X131796666Y-63395161D01*
X131799500Y-63421519D01*
X131799500Y-74398480D01*
X131779815Y-74465519D01*
X131763181Y-74486161D01*
X130326147Y-75923194D01*
X130264824Y-75956679D01*
X130219068Y-75957986D01*
X130169969Y-75950209D01*
X130102352Y-75939500D01*
X129897648Y-75939500D01*
X129873329Y-75943351D01*
X129695465Y-75971522D01*
X129500776Y-76034781D01*
X129318386Y-76127715D01*
X129152786Y-76248028D01*
X129008028Y-76392786D01*
X128887715Y-76558386D01*
X128794781Y-76740776D01*
X128731522Y-76935465D01*
X128699500Y-77137648D01*
X128699500Y-77342351D01*
X128731522Y-77544534D01*
X128794781Y-77739223D01*
X128887715Y-77921613D01*
X129008028Y-78087213D01*
X129152786Y-78231971D01*
X129306649Y-78343757D01*
X129318390Y-78352287D01*
X129434607Y-78411503D01*
X129500776Y-78445218D01*
X129500778Y-78445218D01*
X129500781Y-78445220D01*
X129605137Y-78479127D01*
X129695465Y-78508477D01*
X129796557Y-78524488D01*
X129897648Y-78540500D01*
X129897649Y-78540500D01*
X130102350Y-78540500D01*
X130102352Y-78540500D01*
X130219068Y-78522013D01*
X130288362Y-78530967D01*
X130326148Y-78556805D01*
X132103181Y-80333838D01*
X132136666Y-80395161D01*
X132139500Y-80421519D01*
X132139500Y-82106507D01*
X132119815Y-82173546D01*
X132094854Y-82200026D01*
X132095711Y-82201030D01*
X132091999Y-82204200D01*
X131964196Y-82332003D01*
X131857974Y-82478208D01*
X131775923Y-82639241D01*
X131720072Y-82811132D01*
X131701556Y-82928038D01*
X131691800Y-82989635D01*
X131691800Y-83170365D01*
X131694000Y-83184254D01*
X131720072Y-83348867D01*
X131720072Y-83348869D01*
X131720073Y-83348871D01*
X131775922Y-83520756D01*
X131857840Y-83681529D01*
X131857974Y-83681791D01*
X131964196Y-83827996D01*
X132092003Y-83955803D01*
X132222260Y-84050438D01*
X132238212Y-84062028D01*
X132399244Y-84144078D01*
X132571129Y-84199927D01*
X132749635Y-84228200D01*
X132749636Y-84228200D01*
X132930364Y-84228200D01*
X132930365Y-84228200D01*
X133108871Y-84199927D01*
X133280756Y-84144078D01*
X133441788Y-84062028D01*
X133523879Y-84002385D01*
X133587996Y-83955803D01*
X133587998Y-83955800D01*
X133588002Y-83955798D01*
X133715798Y-83828002D01*
X133715800Y-83827998D01*
X133715803Y-83827996D01*
X133769868Y-83753580D01*
X133822028Y-83681788D01*
X133904078Y-83520756D01*
X133959927Y-83348871D01*
X133988200Y-83170365D01*
X133988200Y-82989635D01*
X134231800Y-82989635D01*
X134231800Y-83170365D01*
X134234000Y-83184254D01*
X134260072Y-83348867D01*
X134260072Y-83348869D01*
X134260073Y-83348871D01*
X134315922Y-83520756D01*
X134397840Y-83681529D01*
X134397974Y-83681791D01*
X134504196Y-83827996D01*
X134632003Y-83955803D01*
X134762260Y-84050438D01*
X134778212Y-84062028D01*
X134939244Y-84144078D01*
X135111129Y-84199927D01*
X135289635Y-84228200D01*
X135289636Y-84228200D01*
X135470364Y-84228200D01*
X135470365Y-84228200D01*
X135648871Y-84199927D01*
X135820756Y-84144078D01*
X135981788Y-84062028D01*
X136063879Y-84002385D01*
X136127996Y-83955803D01*
X136127998Y-83955800D01*
X136128002Y-83955798D01*
X136255798Y-83828002D01*
X136255800Y-83827998D01*
X136255803Y-83827996D01*
X136309868Y-83753580D01*
X136362028Y-83681788D01*
X136444078Y-83520756D01*
X136499927Y-83348871D01*
X136527780Y-83173015D01*
X136557708Y-83109884D01*
X136617019Y-83072952D01*
X136686882Y-83073950D01*
X136745115Y-83112559D01*
X136772725Y-83173017D01*
X136800559Y-83348751D01*
X136856386Y-83520566D01*
X136938401Y-83681529D01*
X136949558Y-83696886D01*
X136949559Y-83696886D01*
X137526300Y-83120145D01*
X137526300Y-83131832D01*
X137553130Y-83231962D01*
X137604962Y-83321737D01*
X137678263Y-83395038D01*
X137768038Y-83446870D01*
X137868168Y-83473700D01*
X137879853Y-83473700D01*
X137303112Y-84050438D01*
X137303112Y-84050439D01*
X137318477Y-84061602D01*
X137479433Y-84143613D01*
X137651249Y-84199440D01*
X137829669Y-84227700D01*
X138010331Y-84227700D01*
X138188750Y-84199440D01*
X138360566Y-84143613D01*
X138521528Y-84061599D01*
X138521532Y-84061597D01*
X138536886Y-84050440D01*
X138536887Y-84050439D01*
X137960148Y-83473700D01*
X137971832Y-83473700D01*
X138071962Y-83446870D01*
X138161737Y-83395038D01*
X138235038Y-83321737D01*
X138286870Y-83231962D01*
X138313700Y-83131832D01*
X138313700Y-83120147D01*
X138890440Y-83696887D01*
X138890440Y-83696886D01*
X138901597Y-83681532D01*
X138901599Y-83681528D01*
X138983613Y-83520566D01*
X139039440Y-83348750D01*
X139065747Y-83182659D01*
X139065747Y-82989635D01*
X139311800Y-82989635D01*
X139311800Y-83170365D01*
X139313747Y-83182657D01*
X139313747Y-83182658D01*
X139340072Y-83348867D01*
X139340072Y-83348869D01*
X139340073Y-83348871D01*
X139395922Y-83520756D01*
X139477840Y-83681529D01*
X139477974Y-83681791D01*
X139584196Y-83827996D01*
X139712003Y-83955803D01*
X139842260Y-84050438D01*
X139858212Y-84062028D01*
X140019244Y-84144078D01*
X140191129Y-84199927D01*
X140369635Y-84228200D01*
X140369636Y-84228200D01*
X140550364Y-84228200D01*
X140550365Y-84228200D01*
X140728871Y-84199927D01*
X140900756Y-84144078D01*
X141061788Y-84062028D01*
X141143879Y-84002385D01*
X141207996Y-83955803D01*
X141207998Y-83955800D01*
X141208002Y-83955798D01*
X141335798Y-83828002D01*
X141335800Y-83827998D01*
X141335803Y-83827996D01*
X141389868Y-83753580D01*
X141442028Y-83681788D01*
X141524078Y-83520756D01*
X141579927Y-83348871D01*
X141608200Y-83170365D01*
X141608200Y-82989635D01*
X141851800Y-82989635D01*
X141851800Y-83170365D01*
X141854000Y-83184254D01*
X141880072Y-83348867D01*
X141880072Y-83348869D01*
X141880073Y-83348871D01*
X141935922Y-83520756D01*
X142017840Y-83681529D01*
X142017974Y-83681791D01*
X142124196Y-83827996D01*
X142252003Y-83955803D01*
X142382260Y-84050438D01*
X142398212Y-84062028D01*
X142559244Y-84144078D01*
X142731129Y-84199927D01*
X142909635Y-84228200D01*
X142909636Y-84228200D01*
X143090364Y-84228200D01*
X143090365Y-84228200D01*
X143268871Y-84199927D01*
X143440756Y-84144078D01*
X143601788Y-84062028D01*
X143683879Y-84002385D01*
X143747996Y-83955803D01*
X143747998Y-83955800D01*
X143748002Y-83955798D01*
X143875798Y-83828002D01*
X143875800Y-83827998D01*
X143875803Y-83827996D01*
X143929868Y-83753580D01*
X143982028Y-83681788D01*
X144064078Y-83520756D01*
X144119927Y-83348871D01*
X144148200Y-83170365D01*
X144148200Y-82989635D01*
X144119927Y-82811129D01*
X144064078Y-82639244D01*
X143982028Y-82478212D01*
X143933789Y-82411816D01*
X143875803Y-82332003D01*
X143747996Y-82204196D01*
X143601791Y-82097974D01*
X143601790Y-82097973D01*
X143601788Y-82097972D01*
X143440756Y-82015922D01*
X143268871Y-81960073D01*
X143268869Y-81960072D01*
X143268867Y-81960072D01*
X143144232Y-81940331D01*
X143090365Y-81931800D01*
X142909635Y-81931800D01*
X142868254Y-81938354D01*
X142731132Y-81960072D01*
X142559241Y-82015923D01*
X142398208Y-82097974D01*
X142252003Y-82204196D01*
X142124196Y-82332003D01*
X142017974Y-82478208D01*
X141935923Y-82639241D01*
X141880072Y-82811132D01*
X141861556Y-82928038D01*
X141851800Y-82989635D01*
X141608200Y-82989635D01*
X141579927Y-82811129D01*
X141524078Y-82639244D01*
X141442028Y-82478212D01*
X141393789Y-82411816D01*
X141335803Y-82332003D01*
X141207996Y-82204196D01*
X141061791Y-82097974D01*
X141061790Y-82097973D01*
X141061788Y-82097972D01*
X140900756Y-82015922D01*
X140728871Y-81960073D01*
X140728869Y-81960072D01*
X140728867Y-81960072D01*
X140604232Y-81940331D01*
X140550365Y-81931800D01*
X140369635Y-81931800D01*
X140328254Y-81938354D01*
X140191132Y-81960072D01*
X140019241Y-82015923D01*
X139858208Y-82097974D01*
X139712003Y-82204196D01*
X139584196Y-82332003D01*
X139477974Y-82478208D01*
X139395923Y-82639241D01*
X139340072Y-82811132D01*
X139313747Y-82977340D01*
X139311800Y-82989635D01*
X139065747Y-82989635D01*
X139065747Y-82977339D01*
X139039440Y-82811249D01*
X138983613Y-82639433D01*
X138901602Y-82478477D01*
X138890439Y-82463112D01*
X138890438Y-82463112D01*
X138313700Y-83039851D01*
X138313700Y-83028168D01*
X138286870Y-82928038D01*
X138235038Y-82838263D01*
X138161737Y-82764962D01*
X138071962Y-82713130D01*
X137971832Y-82686300D01*
X137960145Y-82686300D01*
X138536886Y-82109559D01*
X138536886Y-82109558D01*
X138521529Y-82098401D01*
X138360566Y-82016386D01*
X138188750Y-81960559D01*
X138010331Y-81932300D01*
X137917718Y-81932300D01*
X137850679Y-81912615D01*
X137804924Y-81859811D01*
X137794980Y-81790653D01*
X137824005Y-81727097D01*
X137830023Y-81720633D01*
X140405421Y-79145235D01*
X140466742Y-79111752D01*
X140536434Y-79116736D01*
X140561989Y-79129815D01*
X140668189Y-79200775D01*
X140668190Y-79200775D01*
X140668191Y-79200776D01*
X140795667Y-79253578D01*
X140795672Y-79253580D01*
X140795676Y-79253580D01*
X140795677Y-79253581D01*
X140931003Y-79280500D01*
X140931006Y-79280500D01*
X145068996Y-79280500D01*
X145160040Y-79262389D01*
X145204328Y-79253580D01*
X145268069Y-79227177D01*
X145331807Y-79200777D01*
X145331808Y-79200776D01*
X145331811Y-79200775D01*
X145446543Y-79124114D01*
X147173852Y-77396803D01*
X147235173Y-77363320D01*
X147280929Y-77362013D01*
X147301177Y-77365220D01*
X147397648Y-77380500D01*
X147397649Y-77380500D01*
X147602351Y-77380500D01*
X147602352Y-77380500D01*
X147804534Y-77348477D01*
X147999219Y-77285220D01*
X148181610Y-77192287D01*
X148274590Y-77124732D01*
X148347213Y-77071971D01*
X148347215Y-77071968D01*
X148347219Y-77071966D01*
X148491966Y-76927219D01*
X148491968Y-76927215D01*
X148491971Y-76927213D01*
X148554164Y-76841610D01*
X148612287Y-76761610D01*
X148705220Y-76579219D01*
X148768477Y-76384534D01*
X148800500Y-76182352D01*
X148800500Y-75977648D01*
X148768477Y-75775466D01*
X148705220Y-75580781D01*
X148705218Y-75580778D01*
X148705218Y-75580776D01*
X148652671Y-75477648D01*
X148612287Y-75398390D01*
X148601237Y-75383181D01*
X148491971Y-75232786D01*
X148347213Y-75088028D01*
X148181613Y-74967715D01*
X148181612Y-74967714D01*
X148181610Y-74967713D01*
X148124653Y-74938691D01*
X147999223Y-74874781D01*
X147804534Y-74811522D01*
X147629995Y-74783878D01*
X147602352Y-74779500D01*
X147397648Y-74779500D01*
X147373329Y-74783351D01*
X147195465Y-74811522D01*
X147000776Y-74874781D01*
X146818386Y-74967715D01*
X146652786Y-75088028D01*
X146508028Y-75232786D01*
X146387715Y-75398386D01*
X146294781Y-75580776D01*
X146231522Y-75775465D01*
X146199500Y-75977648D01*
X146199500Y-76182351D01*
X146217986Y-76299068D01*
X146209031Y-76368362D01*
X146183194Y-76406147D01*
X144746162Y-77843181D01*
X144684839Y-77876666D01*
X144658481Y-77879500D01*
X141341519Y-77879500D01*
X141312078Y-77870855D01*
X141282092Y-77864332D01*
X141277076Y-77860577D01*
X141274480Y-77859815D01*
X141253838Y-77843181D01*
X141236819Y-77826162D01*
X141203334Y-77764839D01*
X141200500Y-77738481D01*
X141200500Y-77401744D01*
X141220185Y-77334705D01*
X141251615Y-77301426D01*
X141347215Y-77231969D01*
X141347215Y-77231968D01*
X141347219Y-77231966D01*
X141491966Y-77087219D01*
X141491968Y-77087215D01*
X141491971Y-77087213D01*
X141585465Y-76958527D01*
X141612287Y-76921610D01*
X141705220Y-76739219D01*
X141768477Y-76544534D01*
X141800500Y-76342352D01*
X141800500Y-76137648D01*
X141775158Y-75977648D01*
X142699500Y-75977648D01*
X142699500Y-76182351D01*
X142731522Y-76384534D01*
X142794781Y-76579223D01*
X142838035Y-76664112D01*
X142876306Y-76739223D01*
X142887715Y-76761613D01*
X143008028Y-76927213D01*
X143152786Y-77071971D01*
X143262892Y-77151966D01*
X143318390Y-77192287D01*
X143434607Y-77251503D01*
X143500776Y-77285218D01*
X143500778Y-77285218D01*
X143500781Y-77285220D01*
X143605137Y-77319127D01*
X143695465Y-77348477D01*
X143796557Y-77364488D01*
X143897648Y-77380500D01*
X143897649Y-77380500D01*
X144102351Y-77380500D01*
X144102352Y-77380500D01*
X144304534Y-77348477D01*
X144499219Y-77285220D01*
X144681610Y-77192287D01*
X144774590Y-77124732D01*
X144847213Y-77071971D01*
X144847215Y-77071968D01*
X144847219Y-77071966D01*
X144991966Y-76927219D01*
X144991968Y-76927215D01*
X144991971Y-76927213D01*
X145054164Y-76841610D01*
X145112287Y-76761610D01*
X145205220Y-76579219D01*
X145268477Y-76384534D01*
X145300500Y-76182352D01*
X145300500Y-75977648D01*
X145268477Y-75775466D01*
X145205220Y-75580781D01*
X145205218Y-75580778D01*
X145205218Y-75580776D01*
X145152671Y-75477648D01*
X145112287Y-75398390D01*
X145101237Y-75383181D01*
X144991971Y-75232786D01*
X144847213Y-75088028D01*
X144681613Y-74967715D01*
X144681612Y-74967714D01*
X144681610Y-74967713D01*
X144624653Y-74938691D01*
X144499223Y-74874781D01*
X144304534Y-74811522D01*
X144129995Y-74783878D01*
X144102352Y-74779500D01*
X143897648Y-74779500D01*
X143873329Y-74783351D01*
X143695465Y-74811522D01*
X143500776Y-74874781D01*
X143318386Y-74967715D01*
X143152786Y-75088028D01*
X143008028Y-75232786D01*
X142887715Y-75398386D01*
X142794781Y-75580776D01*
X142731522Y-75775465D01*
X142699500Y-75977648D01*
X141775158Y-75977648D01*
X141773609Y-75967870D01*
X141768477Y-75935465D01*
X141716490Y-75775466D01*
X141705220Y-75740781D01*
X141705218Y-75740778D01*
X141705218Y-75740776D01*
X141664455Y-75660776D01*
X141612287Y-75558390D01*
X141604556Y-75547749D01*
X141491971Y-75392786D01*
X141347213Y-75248028D01*
X141181613Y-75127715D01*
X141181612Y-75127714D01*
X141181610Y-75127713D01*
X141089501Y-75080781D01*
X140999223Y-75034781D01*
X140804534Y-74971522D01*
X140629995Y-74943878D01*
X140602352Y-74939500D01*
X140397648Y-74939500D01*
X140373329Y-74943351D01*
X140195465Y-74971522D01*
X140000776Y-75034781D01*
X139818386Y-75127715D01*
X139652786Y-75248028D01*
X139508028Y-75392786D01*
X139387715Y-75558386D01*
X139294781Y-75740776D01*
X139231522Y-75935465D01*
X139199500Y-76137648D01*
X139199500Y-76342351D01*
X139231522Y-76544534D01*
X139294781Y-76739223D01*
X139346951Y-76841610D01*
X139366766Y-76880500D01*
X139387715Y-76921613D01*
X139508028Y-77087213D01*
X139652784Y-77231969D01*
X139748385Y-77301426D01*
X139791051Y-77356755D01*
X139799500Y-77401744D01*
X139799500Y-77718480D01*
X139779815Y-77785519D01*
X139763181Y-77806161D01*
X135659359Y-81909982D01*
X135598036Y-81943467D01*
X135552280Y-81944774D01*
X135515787Y-81938994D01*
X135470365Y-81931800D01*
X135289635Y-81931800D01*
X135248254Y-81938354D01*
X135111132Y-81960072D01*
X134939241Y-82015923D01*
X134778208Y-82097974D01*
X134632003Y-82204196D01*
X134504196Y-82332003D01*
X134397974Y-82478208D01*
X134315923Y-82639241D01*
X134260072Y-82811132D01*
X134241556Y-82928038D01*
X134231800Y-82989635D01*
X133988200Y-82989635D01*
X133959927Y-82811129D01*
X133904078Y-82639244D01*
X133822028Y-82478212D01*
X133773789Y-82411816D01*
X133715803Y-82332003D01*
X133588000Y-82204200D01*
X133584289Y-82201030D01*
X133585757Y-82199310D01*
X133548863Y-82151273D01*
X133540500Y-82106507D01*
X133540500Y-80011004D01*
X133513581Y-79875677D01*
X133513580Y-79875676D01*
X133513580Y-79875672D01*
X133460775Y-79748189D01*
X133450480Y-79732781D01*
X133421968Y-79690109D01*
X133384114Y-79633456D01*
X133384111Y-79633453D01*
X131316805Y-77566148D01*
X131283320Y-77504825D01*
X131282013Y-77459068D01*
X131300500Y-77342352D01*
X131300500Y-77137648D01*
X131282013Y-77020929D01*
X131290967Y-76951636D01*
X131316802Y-76913853D01*
X131982628Y-76248028D01*
X132173009Y-76057648D01*
X135199500Y-76057648D01*
X135199500Y-76262351D01*
X135231522Y-76464534D01*
X135294781Y-76659223D01*
X135335542Y-76739219D01*
X135381870Y-76830143D01*
X135387715Y-76841613D01*
X135508028Y-77007213D01*
X135652786Y-77151971D01*
X135807749Y-77264556D01*
X135818390Y-77272287D01*
X135926838Y-77327544D01*
X136000776Y-77365218D01*
X136000778Y-77365218D01*
X136000781Y-77365220D01*
X136097990Y-77396805D01*
X136195465Y-77428477D01*
X136296557Y-77444488D01*
X136397648Y-77460500D01*
X136397649Y-77460500D01*
X136602351Y-77460500D01*
X136602352Y-77460500D01*
X136804534Y-77428477D01*
X136999219Y-77365220D01*
X137181610Y-77272287D01*
X137274590Y-77204732D01*
X137347213Y-77151971D01*
X137347215Y-77151968D01*
X137347219Y-77151966D01*
X137491966Y-77007219D01*
X137491968Y-77007215D01*
X137491971Y-77007213D01*
X137584032Y-76880500D01*
X137612287Y-76841610D01*
X137705220Y-76659219D01*
X137768477Y-76464534D01*
X137800500Y-76262352D01*
X137800500Y-76057648D01*
X137768477Y-75855466D01*
X137705220Y-75660781D01*
X137705218Y-75660778D01*
X137705218Y-75660776D01*
X137653047Y-75558386D01*
X137612287Y-75478390D01*
X137604556Y-75467749D01*
X137491971Y-75312786D01*
X137347213Y-75168028D01*
X137181613Y-75047715D01*
X137181612Y-75047714D01*
X137181610Y-75047713D01*
X137124653Y-75018691D01*
X136999223Y-74954781D01*
X136804534Y-74891522D01*
X136629995Y-74863878D01*
X136602352Y-74859500D01*
X136397648Y-74859500D01*
X136373329Y-74863351D01*
X136195465Y-74891522D01*
X136000776Y-74954781D01*
X135818386Y-75047715D01*
X135652786Y-75168028D01*
X135508028Y-75312786D01*
X135387715Y-75478386D01*
X135294781Y-75660776D01*
X135231522Y-75855465D01*
X135199500Y-76057648D01*
X132173009Y-76057648D01*
X132265562Y-75965095D01*
X133044112Y-75186545D01*
X133044112Y-75186544D01*
X133044114Y-75186543D01*
X133120775Y-75071811D01*
X133173580Y-74944328D01*
X133190454Y-74859500D01*
X133200500Y-74808996D01*
X133200500Y-63990519D01*
X133220185Y-63923480D01*
X133272989Y-63877725D01*
X133342147Y-63867781D01*
X133405703Y-63896806D01*
X133412181Y-63902838D01*
X135183194Y-65673851D01*
X135216679Y-65735174D01*
X135217986Y-65780929D01*
X135199500Y-65897647D01*
X135199500Y-66102351D01*
X135231522Y-66304534D01*
X135294781Y-66499223D01*
X135387715Y-66681613D01*
X135508028Y-66847213D01*
X135652786Y-66991971D01*
X135807749Y-67104556D01*
X135818390Y-67112287D01*
X135911000Y-67159474D01*
X136000776Y-67205218D01*
X136000778Y-67205218D01*
X136000781Y-67205220D01*
X136105137Y-67239127D01*
X136195465Y-67268477D01*
X136280738Y-67281983D01*
X136397648Y-67300500D01*
X136397649Y-67300500D01*
X136602351Y-67300500D01*
X136602352Y-67300500D01*
X136804534Y-67268477D01*
X136999219Y-67205220D01*
X137181610Y-67112287D01*
X137258813Y-67056195D01*
X137319787Y-67011897D01*
X137319788Y-67011896D01*
X137347215Y-66991969D01*
X137347215Y-66991968D01*
X137347219Y-66991966D01*
X137491966Y-66847219D01*
X137491968Y-66847215D01*
X137491971Y-66847213D01*
X137554354Y-66761349D01*
X137612287Y-66681610D01*
X137705220Y-66499219D01*
X137768477Y-66304534D01*
X137800500Y-66102352D01*
X137800500Y-65977682D01*
X139200000Y-65977682D01*
X139200000Y-66182317D01*
X139232009Y-66384417D01*
X139295244Y-66579031D01*
X139388141Y-66761350D01*
X139388147Y-66761359D01*
X139420523Y-66805921D01*
X139420524Y-66805922D01*
X140100000Y-66126446D01*
X140100000Y-66132661D01*
X140127259Y-66234394D01*
X140179920Y-66325606D01*
X140254394Y-66400080D01*
X140345606Y-66452741D01*
X140447339Y-66480000D01*
X140453553Y-66480000D01*
X139774076Y-67159474D01*
X139818650Y-67191859D01*
X140000968Y-67284755D01*
X140195582Y-67347990D01*
X140397683Y-67380000D01*
X140602317Y-67380000D01*
X140804417Y-67347990D01*
X140999031Y-67284755D01*
X141181349Y-67191859D01*
X141225921Y-67159474D01*
X140546447Y-66480000D01*
X140552661Y-66480000D01*
X140654394Y-66452741D01*
X140745606Y-66400080D01*
X140820080Y-66325606D01*
X140872741Y-66234394D01*
X140900000Y-66132661D01*
X140900000Y-66126447D01*
X141579474Y-66805921D01*
X141611859Y-66761349D01*
X141704755Y-66579031D01*
X141767990Y-66384417D01*
X141800000Y-66182317D01*
X141800000Y-65977682D01*
X141776953Y-65832174D01*
X141776953Y-65832173D01*
X141774652Y-65817648D01*
X142699500Y-65817648D01*
X142699500Y-66022351D01*
X142731522Y-66224534D01*
X142794781Y-66419223D01*
X142835542Y-66499219D01*
X142887218Y-66600639D01*
X142887715Y-66601613D01*
X143008028Y-66767213D01*
X143152786Y-66911971D01*
X143267945Y-66995637D01*
X143318390Y-67032287D01*
X143434607Y-67091503D01*
X143500776Y-67125218D01*
X143500778Y-67125218D01*
X143500781Y-67125220D01*
X143605137Y-67159127D01*
X143695465Y-67188477D01*
X143796557Y-67204488D01*
X143897648Y-67220500D01*
X143897649Y-67220500D01*
X144102351Y-67220500D01*
X144102352Y-67220500D01*
X144304534Y-67188477D01*
X144499219Y-67125220D01*
X144681610Y-67032287D01*
X144774590Y-66964732D01*
X144847213Y-66911971D01*
X144847215Y-66911968D01*
X144847219Y-66911966D01*
X144991966Y-66767219D01*
X144991968Y-66767215D01*
X144991971Y-66767213D01*
X145054164Y-66681610D01*
X145112287Y-66601610D01*
X145205220Y-66419219D01*
X145268477Y-66224534D01*
X145300500Y-66022352D01*
X145300500Y-65817648D01*
X146199500Y-65817648D01*
X146199500Y-66022351D01*
X146231522Y-66224534D01*
X146294781Y-66419223D01*
X146335542Y-66499219D01*
X146387218Y-66600639D01*
X146387715Y-66601613D01*
X146508028Y-66767213D01*
X146652786Y-66911971D01*
X146767945Y-66995637D01*
X146818390Y-67032287D01*
X146934607Y-67091503D01*
X147000776Y-67125218D01*
X147000778Y-67125218D01*
X147000781Y-67125220D01*
X147105137Y-67159127D01*
X147195465Y-67188477D01*
X147296557Y-67204488D01*
X147397648Y-67220500D01*
X147397649Y-67220500D01*
X147602351Y-67220500D01*
X147602352Y-67220500D01*
X147804534Y-67188477D01*
X147999219Y-67125220D01*
X148181610Y-67032287D01*
X148274590Y-66964732D01*
X148347213Y-66911971D01*
X148347215Y-66911968D01*
X148347219Y-66911966D01*
X148491966Y-66767219D01*
X148491968Y-66767215D01*
X148491971Y-66767213D01*
X148554164Y-66681610D01*
X148612287Y-66601610D01*
X148705220Y-66419219D01*
X148768477Y-66224534D01*
X148800500Y-66022352D01*
X148800500Y-65817648D01*
X148779816Y-65687056D01*
X148768477Y-65615465D01*
X148732283Y-65504073D01*
X148705220Y-65420781D01*
X148705218Y-65420778D01*
X148705218Y-65420776D01*
X148661219Y-65334425D01*
X148612287Y-65238390D01*
X148604556Y-65227749D01*
X148491971Y-65072786D01*
X148347213Y-64928028D01*
X148181613Y-64807715D01*
X148181612Y-64807714D01*
X148181610Y-64807713D01*
X148124653Y-64778691D01*
X147999223Y-64714781D01*
X147804534Y-64651522D01*
X147629995Y-64623878D01*
X147602352Y-64619500D01*
X147397648Y-64619500D01*
X147373329Y-64623351D01*
X147195465Y-64651522D01*
X147000776Y-64714781D01*
X146818386Y-64807715D01*
X146652786Y-64928028D01*
X146508028Y-65072786D01*
X146387715Y-65238386D01*
X146294781Y-65420776D01*
X146231522Y-65615465D01*
X146199500Y-65817648D01*
X145300500Y-65817648D01*
X145279816Y-65687056D01*
X145268477Y-65615465D01*
X145232283Y-65504073D01*
X145205220Y-65420781D01*
X145205218Y-65420778D01*
X145205218Y-65420776D01*
X145161219Y-65334425D01*
X145112287Y-65238390D01*
X145104556Y-65227749D01*
X144991971Y-65072786D01*
X144847213Y-64928028D01*
X144681613Y-64807715D01*
X144681612Y-64807714D01*
X144681610Y-64807713D01*
X144624653Y-64778691D01*
X144499223Y-64714781D01*
X144304534Y-64651522D01*
X144129995Y-64623878D01*
X144102352Y-64619500D01*
X143897648Y-64619500D01*
X143873329Y-64623351D01*
X143695465Y-64651522D01*
X143500776Y-64714781D01*
X143318386Y-64807715D01*
X143152786Y-64928028D01*
X143008028Y-65072786D01*
X142887715Y-65238386D01*
X142794781Y-65420776D01*
X142731522Y-65615465D01*
X142699500Y-65817648D01*
X141774652Y-65817648D01*
X141767990Y-65775583D01*
X141767990Y-65775582D01*
X141704755Y-65580968D01*
X141611859Y-65398650D01*
X141579474Y-65354077D01*
X141579474Y-65354076D01*
X140900000Y-66033551D01*
X140900000Y-66027339D01*
X140872741Y-65925606D01*
X140820080Y-65834394D01*
X140745606Y-65759920D01*
X140654394Y-65707259D01*
X140552661Y-65680000D01*
X140546446Y-65680000D01*
X141225922Y-65000524D01*
X141225921Y-65000523D01*
X141181359Y-64968147D01*
X141181350Y-64968141D01*
X140999031Y-64875244D01*
X140804417Y-64812009D01*
X140602317Y-64780000D01*
X140397683Y-64780000D01*
X140195582Y-64812009D01*
X140000968Y-64875244D01*
X139818644Y-64968143D01*
X139774077Y-65000523D01*
X139774077Y-65000524D01*
X140453554Y-65680000D01*
X140447339Y-65680000D01*
X140345606Y-65707259D01*
X140254394Y-65759920D01*
X140179920Y-65834394D01*
X140127259Y-65925606D01*
X140100000Y-66027339D01*
X140100000Y-66033553D01*
X139420524Y-65354077D01*
X139420523Y-65354077D01*
X139388143Y-65398644D01*
X139295244Y-65580968D01*
X139232009Y-65775582D01*
X139200000Y-65977682D01*
X137800500Y-65977682D01*
X137800500Y-65897648D01*
X137781787Y-65779500D01*
X137768477Y-65695465D01*
X137713276Y-65525575D01*
X137705220Y-65500781D01*
X137705218Y-65500778D01*
X137705218Y-65500776D01*
X137664455Y-65420776D01*
X137612287Y-65318390D01*
X137604556Y-65307749D01*
X137491971Y-65152786D01*
X137347213Y-65008028D01*
X137181613Y-64887715D01*
X137181612Y-64887714D01*
X137181610Y-64887713D01*
X137124653Y-64858691D01*
X136999223Y-64794781D01*
X136804534Y-64731522D01*
X136629995Y-64703878D01*
X136602352Y-64699500D01*
X136397648Y-64699500D01*
X136280929Y-64717986D01*
X136211636Y-64709031D01*
X136173851Y-64683194D01*
X132243275Y-60752618D01*
X132209790Y-60691295D01*
X132214774Y-60621603D01*
X132256646Y-60565670D01*
X132322110Y-60541253D01*
X132358548Y-60544046D01*
X132380491Y-60549055D01*
X132380497Y-60549055D01*
X132380505Y-60549057D01*
X132566547Y-60570018D01*
X132659569Y-60580499D01*
X132659572Y-60580500D01*
X132659575Y-60580500D01*
X132940428Y-60580500D01*
X132940429Y-60580499D01*
X133083055Y-60564429D01*
X133219494Y-60549057D01*
X133219499Y-60549056D01*
X133219509Y-60549055D01*
X133493318Y-60486560D01*
X133758408Y-60393801D01*
X134011445Y-60271945D01*
X134249248Y-60122523D01*
X134468825Y-59947416D01*
X134667416Y-59748825D01*
X134842523Y-59529248D01*
X134991945Y-59291445D01*
X135113801Y-59038408D01*
X135206560Y-58773318D01*
X135269055Y-58499509D01*
X135278205Y-58418305D01*
X135293300Y-58284328D01*
X135300500Y-58220425D01*
X135300500Y-57939575D01*
X135296039Y-57899979D01*
X135294866Y-57889568D01*
X137099500Y-57889568D01*
X137099500Y-58170431D01*
X137130942Y-58449494D01*
X137130945Y-58449512D01*
X137193439Y-58723317D01*
X137193443Y-58723329D01*
X137286200Y-58988411D01*
X137408053Y-59241442D01*
X137408055Y-59241445D01*
X137557477Y-59479248D01*
X137732584Y-59698825D01*
X137931175Y-59897416D01*
X138150752Y-60072523D01*
X138388555Y-60221945D01*
X138641592Y-60343801D01*
X138820593Y-60406436D01*
X138906670Y-60436556D01*
X138906682Y-60436560D01*
X139180491Y-60499055D01*
X139180497Y-60499055D01*
X139180505Y-60499057D01*
X139366547Y-60520018D01*
X139459569Y-60530499D01*
X139459572Y-60530500D01*
X139459575Y-60530500D01*
X139740428Y-60530500D01*
X139740429Y-60530499D01*
X139883055Y-60514429D01*
X140019494Y-60499057D01*
X140019499Y-60499056D01*
X140019509Y-60499055D01*
X140293318Y-60436560D01*
X140558408Y-60343801D01*
X140811445Y-60221945D01*
X141049248Y-60072523D01*
X141268825Y-59897416D01*
X141467416Y-59698825D01*
X141642523Y-59479248D01*
X141791945Y-59241445D01*
X141913801Y-58988408D01*
X142006560Y-58723318D01*
X142069055Y-58449509D01*
X142100500Y-58170425D01*
X142100500Y-57889575D01*
X142100499Y-57889568D01*
X145899500Y-57889568D01*
X145899500Y-58170431D01*
X145930942Y-58449494D01*
X145930945Y-58449512D01*
X145993439Y-58723317D01*
X145993443Y-58723329D01*
X146086200Y-58988411D01*
X146208053Y-59241442D01*
X146208055Y-59241445D01*
X146357477Y-59479248D01*
X146532584Y-59698825D01*
X146731175Y-59897416D01*
X146950752Y-60072523D01*
X147188555Y-60221945D01*
X147441592Y-60343801D01*
X147620593Y-60406436D01*
X147706670Y-60436556D01*
X147706682Y-60436560D01*
X147980491Y-60499055D01*
X147980497Y-60499055D01*
X147980505Y-60499057D01*
X148166547Y-60520018D01*
X148259569Y-60530499D01*
X148259572Y-60530500D01*
X148259575Y-60530500D01*
X148540428Y-60530500D01*
X148540429Y-60530499D01*
X148683055Y-60514429D01*
X148819494Y-60499057D01*
X148819499Y-60499056D01*
X148819509Y-60499055D01*
X149093318Y-60436560D01*
X149358408Y-60343801D01*
X149611445Y-60221945D01*
X149849248Y-60072523D01*
X150068825Y-59897416D01*
X150267416Y-59698825D01*
X150442523Y-59479248D01*
X150591945Y-59241445D01*
X150713801Y-58988408D01*
X150806560Y-58723318D01*
X150869055Y-58449509D01*
X150900500Y-58170425D01*
X150900500Y-57889575D01*
X150882783Y-57732332D01*
X150869057Y-57610505D01*
X150869054Y-57610487D01*
X150806560Y-57336682D01*
X150806556Y-57336670D01*
X150783465Y-57270680D01*
X150713801Y-57071592D01*
X150591945Y-56818555D01*
X150442523Y-56580752D01*
X150267416Y-56361175D01*
X150068825Y-56162584D01*
X149849248Y-55987477D01*
X149611445Y-55838055D01*
X149611442Y-55838053D01*
X149358411Y-55716200D01*
X149093329Y-55623443D01*
X149093317Y-55623439D01*
X148819512Y-55560945D01*
X148819494Y-55560942D01*
X148540431Y-55529500D01*
X148540425Y-55529500D01*
X148259575Y-55529500D01*
X148259568Y-55529500D01*
X147980505Y-55560942D01*
X147980487Y-55560945D01*
X147706682Y-55623439D01*
X147706670Y-55623443D01*
X147441588Y-55716200D01*
X147188557Y-55838053D01*
X146950753Y-55987476D01*
X146731175Y-56162583D01*
X146532583Y-56361175D01*
X146357476Y-56580753D01*
X146208053Y-56818557D01*
X146086200Y-57071588D01*
X145993443Y-57336670D01*
X145993439Y-57336682D01*
X145930945Y-57610487D01*
X145930942Y-57610505D01*
X145899500Y-57889568D01*
X142100499Y-57889568D01*
X142082783Y-57732332D01*
X142069057Y-57610505D01*
X142069054Y-57610487D01*
X142006560Y-57336682D01*
X142006556Y-57336670D01*
X141983465Y-57270680D01*
X141913801Y-57071592D01*
X141791945Y-56818555D01*
X141642523Y-56580752D01*
X141467416Y-56361175D01*
X141268825Y-56162584D01*
X141049248Y-55987477D01*
X140811445Y-55838055D01*
X140811442Y-55838053D01*
X140558411Y-55716200D01*
X140293329Y-55623443D01*
X140293317Y-55623439D01*
X140019512Y-55560945D01*
X140019494Y-55560942D01*
X139740431Y-55529500D01*
X139740425Y-55529500D01*
X139459575Y-55529500D01*
X139459568Y-55529500D01*
X139180505Y-55560942D01*
X139180487Y-55560945D01*
X138906682Y-55623439D01*
X138906670Y-55623443D01*
X138641588Y-55716200D01*
X138388557Y-55838053D01*
X138150753Y-55987476D01*
X137931175Y-56162583D01*
X137732583Y-56361175D01*
X137557476Y-56580753D01*
X137408053Y-56818557D01*
X137286200Y-57071588D01*
X137193443Y-57336670D01*
X137193439Y-57336682D01*
X137130945Y-57610487D01*
X137130942Y-57610505D01*
X137099500Y-57889568D01*
X135294866Y-57889568D01*
X135269057Y-57660505D01*
X135269054Y-57660487D01*
X135265784Y-57646162D01*
X135206560Y-57386682D01*
X135198086Y-57362466D01*
X135141830Y-57201694D01*
X135113801Y-57121592D01*
X134991945Y-56868555D01*
X134842523Y-56630752D01*
X134667416Y-56411175D01*
X134468825Y-56212584D01*
X134249248Y-56037477D01*
X134011445Y-55888055D01*
X134011442Y-55888053D01*
X133758411Y-55766200D01*
X133493329Y-55673443D01*
X133493317Y-55673439D01*
X133219512Y-55610945D01*
X133219494Y-55610942D01*
X132940431Y-55579500D01*
X132940425Y-55579500D01*
X132659575Y-55579500D01*
X132659568Y-55579500D01*
X132380505Y-55610942D01*
X132380487Y-55610945D01*
X132106682Y-55673439D01*
X132106670Y-55673443D01*
X131841588Y-55766200D01*
X131588557Y-55888053D01*
X131350753Y-56037476D01*
X131131175Y-56212583D01*
X130932583Y-56411175D01*
X130757476Y-56630753D01*
X130608053Y-56868557D01*
X130486200Y-57121588D01*
X130393443Y-57386670D01*
X130393439Y-57386682D01*
X130330945Y-57660487D01*
X130330942Y-57660505D01*
X130299500Y-57939568D01*
X130299500Y-58220431D01*
X130330942Y-58499494D01*
X130330945Y-58499512D01*
X130335953Y-58521451D01*
X130331680Y-58591190D01*
X130290381Y-58647547D01*
X130225169Y-58672630D01*
X130156748Y-58658475D01*
X130127381Y-58636724D01*
X129136819Y-57646162D01*
X129103334Y-57584839D01*
X129100500Y-57558481D01*
X129100500Y-52365351D01*
X129120185Y-52298312D01*
X129151611Y-52265035D01*
X129312365Y-52148242D01*
X129468242Y-51992365D01*
X129549682Y-51880270D01*
X129605011Y-51837606D01*
X129674624Y-51831627D01*
X129736420Y-51864232D01*
X129750313Y-51880265D01*
X129819985Y-51976161D01*
X129831758Y-51992365D01*
X129987636Y-52148243D01*
X129987641Y-52148247D01*
X130096568Y-52227386D01*
X130165978Y-52277815D01*
X130270268Y-52330954D01*
X130362393Y-52377895D01*
X130362396Y-52377896D01*
X130416657Y-52395526D01*
X130572049Y-52446015D01*
X130789778Y-52480500D01*
X130789779Y-52480500D01*
X131010221Y-52480500D01*
X131010222Y-52480500D01*
X131227951Y-52446015D01*
X131437606Y-52377895D01*
X131634022Y-52277815D01*
X131812365Y-52148242D01*
X131968242Y-51992365D01*
X132097815Y-51814022D01*
X132197895Y-51617606D01*
X132266015Y-51407951D01*
X132300500Y-51190222D01*
X132300500Y-50969778D01*
X132266015Y-50752049D01*
X132206787Y-50569761D01*
X132197896Y-50542396D01*
X132197895Y-50542393D01*
X132162290Y-50472516D01*
X132097815Y-50345978D01*
X132055811Y-50288164D01*
X131968247Y-50167641D01*
X131968243Y-50167636D01*
X131812363Y-50011756D01*
X131812358Y-50011752D01*
X131634025Y-49882187D01*
X131634024Y-49882186D01*
X131634022Y-49882185D01*
X131571096Y-49850122D01*
X131437606Y-49782104D01*
X131437603Y-49782103D01*
X131227952Y-49713985D01*
X131097781Y-49693368D01*
X131010222Y-49679500D01*
X130789778Y-49679500D01*
X130717201Y-49690995D01*
X130572047Y-49713985D01*
X130362396Y-49782103D01*
X130362393Y-49782104D01*
X130165974Y-49882187D01*
X129987641Y-50011752D01*
X129987636Y-50011756D01*
X129831756Y-50167636D01*
X129831752Y-50167641D01*
X129750318Y-50279727D01*
X129694989Y-50322393D01*
X129625375Y-50328372D01*
X129563580Y-50295767D01*
X129549682Y-50279727D01*
X129468247Y-50167641D01*
X129468243Y-50167636D01*
X129312363Y-50011756D01*
X129312358Y-50011752D01*
X129134025Y-49882187D01*
X129134024Y-49882186D01*
X129134022Y-49882185D01*
X129071096Y-49850122D01*
X128937606Y-49782104D01*
X128937603Y-49782103D01*
X128727952Y-49713985D01*
X128597781Y-49693368D01*
X128510222Y-49679500D01*
X128289778Y-49679500D01*
X128217201Y-49690995D01*
X128072047Y-49713985D01*
X127862396Y-49782103D01*
X127862393Y-49782104D01*
X127665974Y-49882187D01*
X127487641Y-50011752D01*
X127487636Y-50011756D01*
X127331756Y-50167636D01*
X127331752Y-50167641D01*
X127250318Y-50279727D01*
X127194989Y-50322393D01*
X127125375Y-50328372D01*
X127063580Y-50295767D01*
X127049682Y-50279727D01*
X126968247Y-50167641D01*
X126968243Y-50167636D01*
X126812363Y-50011756D01*
X126812358Y-50011752D01*
X126634025Y-49882187D01*
X126634024Y-49882186D01*
X126634022Y-49882185D01*
X126571096Y-49850122D01*
X126437606Y-49782104D01*
X126437603Y-49782103D01*
X126227952Y-49713985D01*
X126097781Y-49693368D01*
X126010222Y-49679500D01*
X125789778Y-49679500D01*
X125717201Y-49690995D01*
X125572047Y-49713985D01*
X125362396Y-49782103D01*
X125362393Y-49782104D01*
X125165974Y-49882187D01*
X124987641Y-50011752D01*
X124987636Y-50011756D01*
X124831756Y-50167636D01*
X124831752Y-50167641D01*
X124702187Y-50345974D01*
X124602104Y-50542393D01*
X124602103Y-50542396D01*
X124533985Y-50752047D01*
X124514958Y-50872179D01*
X124499500Y-50969778D01*
X124499500Y-51190222D01*
X124530121Y-51383553D01*
X124530583Y-51386471D01*
X124521628Y-51455765D01*
X124495791Y-51493550D01*
X121746162Y-54243181D01*
X121684839Y-54276666D01*
X121658481Y-54279500D01*
X120244048Y-54279500D01*
X120177009Y-54259815D01*
X120131254Y-54207011D01*
X120121310Y-54137853D01*
X120150335Y-54074297D01*
X120200715Y-54039318D01*
X120242328Y-54023797D01*
X120242327Y-54023797D01*
X120242331Y-54023796D01*
X120357546Y-53937546D01*
X120443796Y-53822331D01*
X120494091Y-53687483D01*
X120500500Y-53627873D01*
X120500499Y-50532128D01*
X120494091Y-50472517D01*
X120484591Y-50447047D01*
X120443797Y-50337671D01*
X120443793Y-50337664D01*
X120357547Y-50222455D01*
X120357544Y-50222452D01*
X120242335Y-50136206D01*
X120242328Y-50136202D01*
X120107482Y-50085908D01*
X120107483Y-50085908D01*
X120047883Y-50079501D01*
X120047881Y-50079500D01*
X120047873Y-50079500D01*
X120047864Y-50079500D01*
X116952129Y-50079500D01*
X116952123Y-50079501D01*
X116892516Y-50085908D01*
X116757671Y-50136202D01*
X116757664Y-50136206D01*
X116642455Y-50222452D01*
X116642452Y-50222455D01*
X116556206Y-50337664D01*
X116556202Y-50337671D01*
X116505908Y-50472517D01*
X116499501Y-50532116D01*
X116499501Y-50532123D01*
X116499500Y-50532135D01*
X116499500Y-53627870D01*
X116499501Y-53627876D01*
X116505908Y-53687483D01*
X116556202Y-53822328D01*
X116556206Y-53822335D01*
X116642452Y-53937544D01*
X116642455Y-53937547D01*
X116757664Y-54023793D01*
X116757671Y-54023797D01*
X116799285Y-54039318D01*
X116855219Y-54081189D01*
X116879636Y-54146653D01*
X116864785Y-54214926D01*
X116815380Y-54264332D01*
X116755952Y-54279500D01*
X116531004Y-54279500D01*
X116395677Y-54306418D01*
X116395667Y-54306421D01*
X116268192Y-54359222D01*
X116153454Y-54435887D01*
X114546160Y-56043181D01*
X114484837Y-56076666D01*
X114458479Y-56079500D01*
X111952129Y-56079500D01*
X111952123Y-56079501D01*
X111892516Y-56085908D01*
X111757671Y-56136202D01*
X111757664Y-56136206D01*
X111642455Y-56222452D01*
X111642452Y-56222455D01*
X111556206Y-56337664D01*
X111556202Y-56337671D01*
X111505908Y-56472517D01*
X111502507Y-56504157D01*
X111499501Y-56532123D01*
X111499500Y-56532135D01*
X104500500Y-56532135D01*
X104500500Y-51428366D01*
X104800000Y-51428366D01*
X104800000Y-51731633D01*
X104833952Y-52032966D01*
X104833954Y-52032982D01*
X104901434Y-52328633D01*
X104901438Y-52328645D01*
X105001592Y-52614866D01*
X105001598Y-52614880D01*
X105133172Y-52888096D01*
X105294515Y-53144872D01*
X105421871Y-53304573D01*
X106563708Y-52162736D01*
X106660967Y-52296602D01*
X106783398Y-52419033D01*
X106917262Y-52516290D01*
X105775425Y-53658127D01*
X105935127Y-53785484D01*
X106191903Y-53946827D01*
X106465119Y-54078401D01*
X106465133Y-54078407D01*
X106751354Y-54178561D01*
X106751366Y-54178565D01*
X107047017Y-54246045D01*
X107047033Y-54246047D01*
X107348366Y-54279999D01*
X107348368Y-54280000D01*
X107651632Y-54280000D01*
X107651633Y-54279999D01*
X107952966Y-54246047D01*
X107952982Y-54246045D01*
X108248633Y-54178565D01*
X108248645Y-54178561D01*
X108534866Y-54078407D01*
X108534880Y-54078401D01*
X108808096Y-53946827D01*
X109064872Y-53785484D01*
X109224573Y-53658126D01*
X108082737Y-52516290D01*
X108216602Y-52419033D01*
X108339033Y-52296602D01*
X108436290Y-52162737D01*
X109578126Y-53304573D01*
X109705484Y-53144872D01*
X109866827Y-52888096D01*
X109998401Y-52614880D01*
X109998407Y-52614866D01*
X110098561Y-52328645D01*
X110098565Y-52328633D01*
X110166045Y-52032982D01*
X110166047Y-52032966D01*
X110199999Y-51731633D01*
X110200000Y-51731631D01*
X110200000Y-51428368D01*
X110199999Y-51428366D01*
X110166047Y-51127033D01*
X110166045Y-51127017D01*
X110098565Y-50831366D01*
X110098561Y-50831354D01*
X110007025Y-50569761D01*
X109998407Y-50545133D01*
X109998401Y-50545119D01*
X109992148Y-50532135D01*
X111499500Y-50532135D01*
X111499500Y-53627870D01*
X111499501Y-53627876D01*
X111505908Y-53687483D01*
X111556202Y-53822328D01*
X111556206Y-53822335D01*
X111642452Y-53937544D01*
X111642455Y-53937547D01*
X111757664Y-54023793D01*
X111757671Y-54023797D01*
X111892517Y-54074091D01*
X111892516Y-54074091D01*
X111899444Y-54074835D01*
X111952127Y-54080500D01*
X115047872Y-54080499D01*
X115107483Y-54074091D01*
X115242331Y-54023796D01*
X115357546Y-53937546D01*
X115443796Y-53822331D01*
X115494091Y-53687483D01*
X115500500Y-53627873D01*
X115500499Y-50532128D01*
X115494091Y-50472517D01*
X115484591Y-50447047D01*
X115443797Y-50337671D01*
X115443793Y-50337664D01*
X115357547Y-50222455D01*
X115357544Y-50222452D01*
X115242335Y-50136206D01*
X115242328Y-50136202D01*
X115107482Y-50085908D01*
X115107483Y-50085908D01*
X115047883Y-50079501D01*
X115047881Y-50079500D01*
X115047873Y-50079500D01*
X115047864Y-50079500D01*
X111952129Y-50079500D01*
X111952123Y-50079501D01*
X111892516Y-50085908D01*
X111757671Y-50136202D01*
X111757664Y-50136206D01*
X111642455Y-50222452D01*
X111642452Y-50222455D01*
X111556206Y-50337664D01*
X111556202Y-50337671D01*
X111505908Y-50472517D01*
X111499501Y-50532116D01*
X111499501Y-50532123D01*
X111499500Y-50532135D01*
X109992148Y-50532135D01*
X109866827Y-50271903D01*
X109705484Y-50015127D01*
X109578127Y-49855425D01*
X108436290Y-50997262D01*
X108339033Y-50863398D01*
X108216602Y-50740967D01*
X108082736Y-50643709D01*
X109224573Y-49501871D01*
X109064872Y-49374515D01*
X108808096Y-49213172D01*
X108534880Y-49081598D01*
X108534866Y-49081592D01*
X108248645Y-48981438D01*
X108248633Y-48981434D01*
X107952982Y-48913954D01*
X107952966Y-48913952D01*
X107651633Y-48880000D01*
X107348366Y-48880000D01*
X107047033Y-48913952D01*
X107047017Y-48913954D01*
X106751366Y-48981434D01*
X106751354Y-48981438D01*
X106465133Y-49081592D01*
X106465119Y-49081598D01*
X106191903Y-49213172D01*
X105935127Y-49374515D01*
X105775425Y-49501871D01*
X106917263Y-50643709D01*
X106783398Y-50740967D01*
X106660967Y-50863398D01*
X106563709Y-50997263D01*
X105421871Y-49855425D01*
X105294515Y-50015127D01*
X105133172Y-50271903D01*
X105001598Y-50545119D01*
X105001592Y-50545133D01*
X104901438Y-50831354D01*
X104901434Y-50831366D01*
X104833954Y-51127017D01*
X104833952Y-51127033D01*
X104800000Y-51428366D01*
X104500500Y-51428366D01*
X104500500Y-47204500D01*
X104520185Y-47137461D01*
X104572989Y-47091706D01*
X104624500Y-47080500D01*
X180876000Y-47080500D01*
X180943039Y-47100185D01*
G37*
G04 #@! TD.AperFunction*
M02*
