G04 #@! TF.GenerationSoftware,KiCad,Pcbnew,9.0.0*
G04 #@! TF.CreationDate,2025-02-23T14:29:25+01:00*
G04 #@! TF.ProjectId,pcb_v0,7063625f-7630-42e6-9b69-6361645f7063,rev?*
G04 #@! TF.SameCoordinates,Original*
G04 #@! TF.FileFunction,Soldermask,Bot*
G04 #@! TF.FilePolarity,Negative*
%FSLAX46Y46*%
G04 Gerber Fmt 4.6, Leading zero omitted, Abs format (unit mm)*
G04 Created by KiCad (PCBNEW 9.0.0) date 2025-02-23 14:29:25*
%MOMM*%
%LPD*%
G01*
G04 APERTURE LIST*
%ADD10C,1.600000*%
%ADD11R,3.000000X3.000000*%
%ADD12O,1.600000X1.600000*%
%ADD13R,1.700000X1.700000*%
%ADD14O,1.700000X1.700000*%
%ADD15C,1.524000*%
%ADD16C,2.600000*%
%ADD17C,4.400000*%
%ADD18C,4.000000*%
%ADD19C,1.800000*%
%ADD20R,1.295400X1.295400*%
%ADD21C,1.295400*%
G04 APERTURE END LIST*
D10*
X107000000Y-67080000D03*
X112000000Y-67080000D03*
D11*
X177500000Y-109580000D03*
D10*
X140500000Y-66080000D03*
D12*
X140500000Y-76240000D03*
D11*
X118500000Y-58080000D03*
X118500000Y-52080000D03*
D10*
X161500000Y-80080000D03*
X161500000Y-85080000D03*
X144000000Y-76080000D03*
D12*
X144000000Y-65920000D03*
D13*
X198000000Y-83040000D03*
D14*
X198000000Y-85580000D03*
D11*
X113500000Y-52080000D03*
D10*
X136500000Y-66000000D03*
D12*
X136500000Y-76160000D03*
D10*
X174000000Y-80580000D03*
X174000000Y-75580000D03*
D15*
X163260000Y-51460000D03*
X163260000Y-54000000D03*
X163260000Y-56540000D03*
X163260000Y-59080000D03*
X163260000Y-61620000D03*
X163260000Y-64160000D03*
X163260000Y-66700000D03*
X178500000Y-66700000D03*
X178500000Y-64160000D03*
X178500000Y-61620000D03*
X178500000Y-59080000D03*
X178500000Y-56540000D03*
X178500000Y-54000000D03*
X178500000Y-51460000D03*
D10*
X177000000Y-75580000D03*
X177000000Y-80580000D03*
D11*
X184000000Y-50580000D03*
X190500000Y-50580000D03*
D10*
X139500000Y-94920000D03*
X139500000Y-99920000D03*
D13*
X198000000Y-74540000D03*
D14*
X198000000Y-77080000D03*
D16*
X198500000Y-109580000D03*
D17*
X198500000Y-109580000D03*
D11*
X184000000Y-59580000D03*
X184000000Y-109580000D03*
D10*
X194000000Y-74080000D03*
D12*
X183840000Y-74080000D03*
D10*
X131589693Y-95063738D03*
X136589693Y-95063738D03*
D13*
X156775000Y-51580000D03*
D14*
X154235000Y-51580000D03*
D10*
X180000000Y-75580000D03*
X180000000Y-80580000D03*
D13*
X193500000Y-98160000D03*
D14*
X190960000Y-98160000D03*
X193500000Y-95620000D03*
X190960000Y-95620000D03*
X193500000Y-93080000D03*
X190960000Y-93080000D03*
X193500000Y-90540000D03*
X190960000Y-90540000D03*
D13*
X108000000Y-76120000D03*
D14*
X108000000Y-78660000D03*
D10*
X184000000Y-83580000D03*
X184000000Y-88580000D03*
X168500000Y-93420000D03*
D12*
X168500000Y-103580000D03*
D11*
X113500000Y-58080000D03*
D10*
X126429693Y-102063738D03*
D12*
X136589693Y-102063738D03*
D11*
X190500000Y-104580000D03*
X190500000Y-55080000D03*
D10*
X130000000Y-67080000D03*
D12*
X130000000Y-77240000D03*
D10*
X123000000Y-67080000D03*
D12*
X123000000Y-77240000D03*
D10*
X194000000Y-77080000D03*
X189000000Y-77080000D03*
D11*
X184000000Y-104580000D03*
X190500000Y-59580000D03*
D16*
X107500000Y-109580000D03*
D17*
X107500000Y-109580000D03*
D10*
X178000000Y-94420000D03*
D12*
X178000000Y-104580000D03*
D16*
X198500000Y-51580000D03*
D17*
X198500000Y-51580000D03*
D10*
X181000000Y-94580000D03*
X186000000Y-94580000D03*
D18*
X132800000Y-58080000D03*
X124000000Y-58080000D03*
D19*
X125900000Y-51080000D03*
X128400000Y-51080000D03*
X130900000Y-51080000D03*
D11*
X184000000Y-55080000D03*
D16*
X107500000Y-51580000D03*
D17*
X107500000Y-51580000D03*
D10*
X164500000Y-103580000D03*
D12*
X164500000Y-93420000D03*
D10*
X164500000Y-80080000D03*
X169500000Y-80080000D03*
X143000000Y-105080000D03*
D12*
X143000000Y-94920000D03*
D10*
X136589693Y-98563738D03*
D12*
X126429693Y-98563738D03*
D10*
X117160000Y-71080000D03*
D12*
X107000000Y-71080000D03*
D20*
X130300000Y-90700000D03*
D21*
X132840000Y-90700000D03*
X135380000Y-90700000D03*
X137920000Y-90700000D03*
X140460000Y-90700000D03*
X143000000Y-90700000D03*
X145540000Y-90700000D03*
X145540000Y-83080000D03*
X143000000Y-83080000D03*
X140460000Y-83080000D03*
X137920000Y-83080000D03*
X135380000Y-83080000D03*
X132840000Y-83080000D03*
X130300000Y-83080000D03*
D11*
X190500000Y-109580000D03*
D10*
X147500000Y-76080000D03*
D12*
X147500000Y-65920000D03*
D11*
X190500000Y-64580000D03*
D10*
X126500000Y-67080000D03*
D12*
X126500000Y-77240000D03*
D18*
X148400000Y-58030000D03*
X139600000Y-58030000D03*
D19*
X141500000Y-51030000D03*
X144000000Y-51030000D03*
X146500000Y-51030000D03*
M02*
