M48
; DRILL file {KiCad 9.0.0} date 2025-02-23T14:29:34+0100
; FORMAT={-:-/ absolute / metric / decimal}
; #@! TF.CreationDate,2025-02-23T14:29:34+01:00
; #@! TF.GenerationSoftware,Kicad,Pcbnew,9.0.0
; #@! TF.FileFunction,Plated,1,2,PTH
FMAT,2
METRIC
; #@! TA.AperFunction,Plated,PTH,ViaDrill
T1C0.400
; #@! TA.AperFunction,Plated,PTH,ComponentDrill
T2C0.787
; #@! TA.AperFunction,Plated,PTH,ComponentDrill
T3C0.800
; #@! TA.AperFunction,Plated,PTH,ComponentDrill
T4C0.889
; #@! TA.AperFunction,Plated,PTH,ComponentDrill
T5C1.000
; #@! TA.AperFunction,Plated,PTH,ComponentDrill
T6C1.500
; #@! TA.AperFunction,Plated,PTH,ComponentDrill
T7C2.200
%
G90
G05
T1
X144.579Y-88.365
X148.487Y-88.44
X157.5Y-68.08
X158.5Y-68.08
X168.0Y-51.0
X171.0Y-86.58
X174.0Y-72.08
X176.05Y-88.13
X186.5Y-90.58
X187.5Y-90.58
T2
X130.3Y-83.08
X130.3Y-90.7
X132.84Y-83.08
X132.84Y-90.7
X135.38Y-83.08
X135.38Y-90.7
X137.92Y-83.08
X137.92Y-90.7
X140.46Y-83.08
X140.46Y-90.7
X143.0Y-83.08
X143.0Y-90.7
X145.54Y-83.08
X145.54Y-90.7
T3
X107.0Y-67.08
X107.0Y-71.08
X112.0Y-67.08
X117.16Y-71.08
X123.0Y-67.08
X123.0Y-77.24
X126.43Y-98.564
X126.43Y-102.064
X126.5Y-67.08
X126.5Y-77.24
X130.0Y-67.08
X130.0Y-77.24
X131.59Y-95.064
X136.5Y-66.0
X136.5Y-76.16
X136.59Y-95.064
X136.59Y-98.564
X136.59Y-102.064
X139.5Y-94.92
X139.5Y-99.92
X140.5Y-66.08
X140.5Y-76.24
X143.0Y-94.92
X143.0Y-105.08
X144.0Y-65.92
X144.0Y-76.08
X147.5Y-65.92
X147.5Y-76.08
X161.5Y-80.08
X161.5Y-85.08
X164.5Y-80.08
X164.5Y-93.42
X164.5Y-103.58
X168.5Y-93.42
X168.5Y-103.58
X169.5Y-80.08
X174.0Y-75.58
X174.0Y-80.58
X177.0Y-75.58
X177.0Y-80.58
X178.0Y-94.42
X178.0Y-104.58
X180.0Y-75.58
X180.0Y-80.58
X181.0Y-94.58
X183.84Y-74.08
X184.0Y-83.58
X184.0Y-88.58
X186.0Y-94.58
X189.0Y-77.08
X194.0Y-74.08
X194.0Y-77.08
T4
X163.26Y-51.46
X163.26Y-54.0
X163.26Y-56.54
X163.26Y-59.08
X163.26Y-61.62
X163.26Y-64.16
X163.26Y-66.7
X178.5Y-51.46
X178.5Y-54.0
X178.5Y-56.54
X178.5Y-59.08
X178.5Y-61.62
X178.5Y-64.16
X178.5Y-66.7
T5
X108.0Y-76.12
X108.0Y-78.66
X125.9Y-51.08
X128.4Y-51.08
X130.9Y-51.08
X141.5Y-51.03
X144.0Y-51.03
X146.5Y-51.03
X154.235Y-51.58
X156.775Y-51.58
X190.96Y-90.54
X190.96Y-93.08
X190.96Y-95.62
X190.96Y-98.16
X193.5Y-90.54
X193.5Y-93.08
X193.5Y-95.62
X193.5Y-98.16
X198.0Y-74.54
X198.0Y-77.08
X198.0Y-83.04
X198.0Y-85.58
T6
X113.5Y-52.08
X113.5Y-58.08
X118.5Y-52.08
X118.5Y-58.08
X177.5Y-109.58
X184.0Y-50.58
X184.0Y-55.08
X184.0Y-59.58
X184.0Y-104.58
X184.0Y-109.58
X190.5Y-50.58
X190.5Y-55.08
X190.5Y-59.58
X190.5Y-64.58
X190.5Y-104.58
X190.5Y-109.58
T7
X107.5Y-51.58
X107.5Y-109.58
X198.5Y-51.58
X198.5Y-109.58
M30
