%TF.GenerationSoftware,KiCad,Pcbnew,8.0.3*%
%TF.CreationDate,2025-02-15T10:37:41+01:00*%
%TF.ProjectId,pcb_v0,7063625f-7630-42e6-9b69-6361645f7063,rev?*%
%TF.SameCoordinates,Original*%
%TF.FileFunction,Drillmap*%
%TF.FilePolarity,Positive*%
%FSLAX45Y45*%
G04 Gerber Fmt 4.5, Leading zero omitted, Abs format (unit mm)*
G04 Created by KiCad (PCBNEW 8.0.3) date 2025-02-15 10:37:41*
%MOMM*%
%LPD*%
G01*
G04 APERTURE LIST*
%ADD10C,0.050000*%
%ADD11C,0.200000*%
%ADD12C,0.220000*%
G04 APERTURE END LIST*
D10*
X17950000Y-4600000D02*
X26550000Y-4600000D01*
X26550000Y-11400000D01*
X17950000Y-11400000D01*
X17950000Y-4600000D01*
D11*
D12*
X19600000Y-5685000D02*
X19820000Y-5905000D01*
X19820000Y-5685000D02*
X19600000Y-5905000D01*
X20480000Y-5685000D02*
X20700000Y-5905000D01*
X20700000Y-5685000D02*
X20480000Y-5905000D01*
X21300000Y-5690000D02*
X21520000Y-5910000D01*
X21520000Y-5690000D02*
X21300000Y-5910000D01*
X22180000Y-5690000D02*
X22400000Y-5910000D01*
X22400000Y-5690000D02*
X22180000Y-5910000D01*
D11*
X18208277Y-11713984D02*
X18208277Y-11513984D01*
X18208277Y-11513984D02*
X18255896Y-11513984D01*
X18255896Y-11513984D02*
X18284467Y-11523508D01*
X18284467Y-11523508D02*
X18303515Y-11542555D01*
X18303515Y-11542555D02*
X18313039Y-11561603D01*
X18313039Y-11561603D02*
X18322563Y-11599698D01*
X18322563Y-11599698D02*
X18322563Y-11628269D01*
X18322563Y-11628269D02*
X18313039Y-11666365D01*
X18313039Y-11666365D02*
X18303515Y-11685412D01*
X18303515Y-11685412D02*
X18284467Y-11704460D01*
X18284467Y-11704460D02*
X18255896Y-11713984D01*
X18255896Y-11713984D02*
X18208277Y-11713984D01*
X18408277Y-11713984D02*
X18408277Y-11580650D01*
X18408277Y-11618746D02*
X18417801Y-11599698D01*
X18417801Y-11599698D02*
X18427324Y-11590174D01*
X18427324Y-11590174D02*
X18446372Y-11580650D01*
X18446372Y-11580650D02*
X18465420Y-11580650D01*
X18532086Y-11713984D02*
X18532086Y-11580650D01*
X18532086Y-11513984D02*
X18522563Y-11523508D01*
X18522563Y-11523508D02*
X18532086Y-11533031D01*
X18532086Y-11533031D02*
X18541610Y-11523508D01*
X18541610Y-11523508D02*
X18532086Y-11513984D01*
X18532086Y-11513984D02*
X18532086Y-11533031D01*
X18655896Y-11713984D02*
X18636848Y-11704460D01*
X18636848Y-11704460D02*
X18627324Y-11685412D01*
X18627324Y-11685412D02*
X18627324Y-11513984D01*
X18760658Y-11713984D02*
X18741610Y-11704460D01*
X18741610Y-11704460D02*
X18732086Y-11685412D01*
X18732086Y-11685412D02*
X18732086Y-11513984D01*
X18989229Y-11713984D02*
X18989229Y-11513984D01*
X18989229Y-11513984D02*
X19055896Y-11656841D01*
X19055896Y-11656841D02*
X19122563Y-11513984D01*
X19122563Y-11513984D02*
X19122563Y-11713984D01*
X19303515Y-11713984D02*
X19303515Y-11609222D01*
X19303515Y-11609222D02*
X19293991Y-11590174D01*
X19293991Y-11590174D02*
X19274944Y-11580650D01*
X19274944Y-11580650D02*
X19236848Y-11580650D01*
X19236848Y-11580650D02*
X19217801Y-11590174D01*
X19303515Y-11704460D02*
X19284467Y-11713984D01*
X19284467Y-11713984D02*
X19236848Y-11713984D01*
X19236848Y-11713984D02*
X19217801Y-11704460D01*
X19217801Y-11704460D02*
X19208277Y-11685412D01*
X19208277Y-11685412D02*
X19208277Y-11666365D01*
X19208277Y-11666365D02*
X19217801Y-11647317D01*
X19217801Y-11647317D02*
X19236848Y-11637793D01*
X19236848Y-11637793D02*
X19284467Y-11637793D01*
X19284467Y-11637793D02*
X19303515Y-11628269D01*
X19398753Y-11580650D02*
X19398753Y-11780650D01*
X19398753Y-11590174D02*
X19417801Y-11580650D01*
X19417801Y-11580650D02*
X19455896Y-11580650D01*
X19455896Y-11580650D02*
X19474944Y-11590174D01*
X19474944Y-11590174D02*
X19484467Y-11599698D01*
X19484467Y-11599698D02*
X19493991Y-11618746D01*
X19493991Y-11618746D02*
X19493991Y-11675888D01*
X19493991Y-11675888D02*
X19484467Y-11694936D01*
X19484467Y-11694936D02*
X19474944Y-11704460D01*
X19474944Y-11704460D02*
X19455896Y-11713984D01*
X19455896Y-11713984D02*
X19417801Y-11713984D01*
X19417801Y-11713984D02*
X19398753Y-11704460D01*
X19579705Y-11694936D02*
X19589229Y-11704460D01*
X19589229Y-11704460D02*
X19579705Y-11713984D01*
X19579705Y-11713984D02*
X19570182Y-11704460D01*
X19570182Y-11704460D02*
X19579705Y-11694936D01*
X19579705Y-11694936D02*
X19579705Y-11713984D01*
X19579705Y-11590174D02*
X19589229Y-11599698D01*
X19589229Y-11599698D02*
X19579705Y-11609222D01*
X19579705Y-11609222D02*
X19570182Y-11599698D01*
X19570182Y-11599698D02*
X19579705Y-11590174D01*
X19579705Y-11590174D02*
X19579705Y-11609222D01*
X17747500Y-11942500D02*
X17947500Y-12142500D01*
X17947500Y-11942500D02*
X17747500Y-12142500D01*
X18198753Y-11953031D02*
X18208277Y-11943508D01*
X18208277Y-11943508D02*
X18227324Y-11933984D01*
X18227324Y-11933984D02*
X18274944Y-11933984D01*
X18274944Y-11933984D02*
X18293991Y-11943508D01*
X18293991Y-11943508D02*
X18303515Y-11953031D01*
X18303515Y-11953031D02*
X18313039Y-11972079D01*
X18313039Y-11972079D02*
X18313039Y-11991127D01*
X18313039Y-11991127D02*
X18303515Y-12019698D01*
X18303515Y-12019698D02*
X18189229Y-12133984D01*
X18189229Y-12133984D02*
X18313039Y-12133984D01*
X18398753Y-12114936D02*
X18408277Y-12124460D01*
X18408277Y-12124460D02*
X18398753Y-12133984D01*
X18398753Y-12133984D02*
X18389229Y-12124460D01*
X18389229Y-12124460D02*
X18398753Y-12114936D01*
X18398753Y-12114936D02*
X18398753Y-12133984D01*
X18484467Y-11953031D02*
X18493991Y-11943508D01*
X18493991Y-11943508D02*
X18513039Y-11933984D01*
X18513039Y-11933984D02*
X18560658Y-11933984D01*
X18560658Y-11933984D02*
X18579705Y-11943508D01*
X18579705Y-11943508D02*
X18589229Y-11953031D01*
X18589229Y-11953031D02*
X18598753Y-11972079D01*
X18598753Y-11972079D02*
X18598753Y-11991127D01*
X18598753Y-11991127D02*
X18589229Y-12019698D01*
X18589229Y-12019698D02*
X18474944Y-12133984D01*
X18474944Y-12133984D02*
X18598753Y-12133984D01*
X18722563Y-11933984D02*
X18741610Y-11933984D01*
X18741610Y-11933984D02*
X18760658Y-11943508D01*
X18760658Y-11943508D02*
X18770182Y-11953031D01*
X18770182Y-11953031D02*
X18779705Y-11972079D01*
X18779705Y-11972079D02*
X18789229Y-12010174D01*
X18789229Y-12010174D02*
X18789229Y-12057793D01*
X18789229Y-12057793D02*
X18779705Y-12095888D01*
X18779705Y-12095888D02*
X18770182Y-12114936D01*
X18770182Y-12114936D02*
X18760658Y-12124460D01*
X18760658Y-12124460D02*
X18741610Y-12133984D01*
X18741610Y-12133984D02*
X18722563Y-12133984D01*
X18722563Y-12133984D02*
X18703515Y-12124460D01*
X18703515Y-12124460D02*
X18693991Y-12114936D01*
X18693991Y-12114936D02*
X18684467Y-12095888D01*
X18684467Y-12095888D02*
X18674944Y-12057793D01*
X18674944Y-12057793D02*
X18674944Y-12010174D01*
X18674944Y-12010174D02*
X18684467Y-11972079D01*
X18684467Y-11972079D02*
X18693991Y-11953031D01*
X18693991Y-11953031D02*
X18703515Y-11943508D01*
X18703515Y-11943508D02*
X18722563Y-11933984D01*
X18913039Y-11933984D02*
X18932086Y-11933984D01*
X18932086Y-11933984D02*
X18951134Y-11943508D01*
X18951134Y-11943508D02*
X18960658Y-11953031D01*
X18960658Y-11953031D02*
X18970182Y-11972079D01*
X18970182Y-11972079D02*
X18979705Y-12010174D01*
X18979705Y-12010174D02*
X18979705Y-12057793D01*
X18979705Y-12057793D02*
X18970182Y-12095888D01*
X18970182Y-12095888D02*
X18960658Y-12114936D01*
X18960658Y-12114936D02*
X18951134Y-12124460D01*
X18951134Y-12124460D02*
X18932086Y-12133984D01*
X18932086Y-12133984D02*
X18913039Y-12133984D01*
X18913039Y-12133984D02*
X18893991Y-12124460D01*
X18893991Y-12124460D02*
X18884467Y-12114936D01*
X18884467Y-12114936D02*
X18874944Y-12095888D01*
X18874944Y-12095888D02*
X18865420Y-12057793D01*
X18865420Y-12057793D02*
X18865420Y-12010174D01*
X18865420Y-12010174D02*
X18874944Y-11972079D01*
X18874944Y-11972079D02*
X18884467Y-11953031D01*
X18884467Y-11953031D02*
X18893991Y-11943508D01*
X18893991Y-11943508D02*
X18913039Y-11933984D01*
X19065420Y-12133984D02*
X19065420Y-12000650D01*
X19065420Y-12019698D02*
X19074944Y-12010174D01*
X19074944Y-12010174D02*
X19093991Y-12000650D01*
X19093991Y-12000650D02*
X19122563Y-12000650D01*
X19122563Y-12000650D02*
X19141610Y-12010174D01*
X19141610Y-12010174D02*
X19151134Y-12029222D01*
X19151134Y-12029222D02*
X19151134Y-12133984D01*
X19151134Y-12029222D02*
X19160658Y-12010174D01*
X19160658Y-12010174D02*
X19179705Y-12000650D01*
X19179705Y-12000650D02*
X19208277Y-12000650D01*
X19208277Y-12000650D02*
X19227325Y-12010174D01*
X19227325Y-12010174D02*
X19236848Y-12029222D01*
X19236848Y-12029222D02*
X19236848Y-12133984D01*
X19332086Y-12133984D02*
X19332086Y-12000650D01*
X19332086Y-12019698D02*
X19341610Y-12010174D01*
X19341610Y-12010174D02*
X19360658Y-12000650D01*
X19360658Y-12000650D02*
X19389229Y-12000650D01*
X19389229Y-12000650D02*
X19408277Y-12010174D01*
X19408277Y-12010174D02*
X19417801Y-12029222D01*
X19417801Y-12029222D02*
X19417801Y-12133984D01*
X19417801Y-12029222D02*
X19427325Y-12010174D01*
X19427325Y-12010174D02*
X19446372Y-12000650D01*
X19446372Y-12000650D02*
X19474944Y-12000650D01*
X19474944Y-12000650D02*
X19493991Y-12010174D01*
X19493991Y-12010174D02*
X19503515Y-12029222D01*
X19503515Y-12029222D02*
X19503515Y-12133984D01*
X19893991Y-11924460D02*
X19722563Y-12181603D01*
X20151134Y-11933984D02*
X20170182Y-11933984D01*
X20170182Y-11933984D02*
X20189229Y-11943508D01*
X20189229Y-11943508D02*
X20198753Y-11953031D01*
X20198753Y-11953031D02*
X20208277Y-11972079D01*
X20208277Y-11972079D02*
X20217801Y-12010174D01*
X20217801Y-12010174D02*
X20217801Y-12057793D01*
X20217801Y-12057793D02*
X20208277Y-12095888D01*
X20208277Y-12095888D02*
X20198753Y-12114936D01*
X20198753Y-12114936D02*
X20189229Y-12124460D01*
X20189229Y-12124460D02*
X20170182Y-12133984D01*
X20170182Y-12133984D02*
X20151134Y-12133984D01*
X20151134Y-12133984D02*
X20132087Y-12124460D01*
X20132087Y-12124460D02*
X20122563Y-12114936D01*
X20122563Y-12114936D02*
X20113039Y-12095888D01*
X20113039Y-12095888D02*
X20103515Y-12057793D01*
X20103515Y-12057793D02*
X20103515Y-12010174D01*
X20103515Y-12010174D02*
X20113039Y-11972079D01*
X20113039Y-11972079D02*
X20122563Y-11953031D01*
X20122563Y-11953031D02*
X20132087Y-11943508D01*
X20132087Y-11943508D02*
X20151134Y-11933984D01*
X20303515Y-12114936D02*
X20313039Y-12124460D01*
X20313039Y-12124460D02*
X20303515Y-12133984D01*
X20303515Y-12133984D02*
X20293991Y-12124460D01*
X20293991Y-12124460D02*
X20303515Y-12114936D01*
X20303515Y-12114936D02*
X20303515Y-12133984D01*
X20436848Y-11933984D02*
X20455896Y-11933984D01*
X20455896Y-11933984D02*
X20474944Y-11943508D01*
X20474944Y-11943508D02*
X20484468Y-11953031D01*
X20484468Y-11953031D02*
X20493991Y-11972079D01*
X20493991Y-11972079D02*
X20503515Y-12010174D01*
X20503515Y-12010174D02*
X20503515Y-12057793D01*
X20503515Y-12057793D02*
X20493991Y-12095888D01*
X20493991Y-12095888D02*
X20484468Y-12114936D01*
X20484468Y-12114936D02*
X20474944Y-12124460D01*
X20474944Y-12124460D02*
X20455896Y-12133984D01*
X20455896Y-12133984D02*
X20436848Y-12133984D01*
X20436848Y-12133984D02*
X20417801Y-12124460D01*
X20417801Y-12124460D02*
X20408277Y-12114936D01*
X20408277Y-12114936D02*
X20398753Y-12095888D01*
X20398753Y-12095888D02*
X20389229Y-12057793D01*
X20389229Y-12057793D02*
X20389229Y-12010174D01*
X20389229Y-12010174D02*
X20398753Y-11972079D01*
X20398753Y-11972079D02*
X20408277Y-11953031D01*
X20408277Y-11953031D02*
X20417801Y-11943508D01*
X20417801Y-11943508D02*
X20436848Y-11933984D01*
X20617801Y-12019698D02*
X20598753Y-12010174D01*
X20598753Y-12010174D02*
X20589229Y-12000650D01*
X20589229Y-12000650D02*
X20579706Y-11981603D01*
X20579706Y-11981603D02*
X20579706Y-11972079D01*
X20579706Y-11972079D02*
X20589229Y-11953031D01*
X20589229Y-11953031D02*
X20598753Y-11943508D01*
X20598753Y-11943508D02*
X20617801Y-11933984D01*
X20617801Y-11933984D02*
X20655896Y-11933984D01*
X20655896Y-11933984D02*
X20674944Y-11943508D01*
X20674944Y-11943508D02*
X20684468Y-11953031D01*
X20684468Y-11953031D02*
X20693991Y-11972079D01*
X20693991Y-11972079D02*
X20693991Y-11981603D01*
X20693991Y-11981603D02*
X20684468Y-12000650D01*
X20684468Y-12000650D02*
X20674944Y-12010174D01*
X20674944Y-12010174D02*
X20655896Y-12019698D01*
X20655896Y-12019698D02*
X20617801Y-12019698D01*
X20617801Y-12019698D02*
X20598753Y-12029222D01*
X20598753Y-12029222D02*
X20589229Y-12038746D01*
X20589229Y-12038746D02*
X20579706Y-12057793D01*
X20579706Y-12057793D02*
X20579706Y-12095888D01*
X20579706Y-12095888D02*
X20589229Y-12114936D01*
X20589229Y-12114936D02*
X20598753Y-12124460D01*
X20598753Y-12124460D02*
X20617801Y-12133984D01*
X20617801Y-12133984D02*
X20655896Y-12133984D01*
X20655896Y-12133984D02*
X20674944Y-12124460D01*
X20674944Y-12124460D02*
X20684468Y-12114936D01*
X20684468Y-12114936D02*
X20693991Y-12095888D01*
X20693991Y-12095888D02*
X20693991Y-12057793D01*
X20693991Y-12057793D02*
X20684468Y-12038746D01*
X20684468Y-12038746D02*
X20674944Y-12029222D01*
X20674944Y-12029222D02*
X20655896Y-12019698D01*
X20865420Y-11933984D02*
X20827325Y-11933984D01*
X20827325Y-11933984D02*
X20808277Y-11943508D01*
X20808277Y-11943508D02*
X20798753Y-11953031D01*
X20798753Y-11953031D02*
X20779706Y-11981603D01*
X20779706Y-11981603D02*
X20770182Y-12019698D01*
X20770182Y-12019698D02*
X20770182Y-12095888D01*
X20770182Y-12095888D02*
X20779706Y-12114936D01*
X20779706Y-12114936D02*
X20789229Y-12124460D01*
X20789229Y-12124460D02*
X20808277Y-12133984D01*
X20808277Y-12133984D02*
X20846372Y-12133984D01*
X20846372Y-12133984D02*
X20865420Y-12124460D01*
X20865420Y-12124460D02*
X20874944Y-12114936D01*
X20874944Y-12114936D02*
X20884468Y-12095888D01*
X20884468Y-12095888D02*
X20884468Y-12048269D01*
X20884468Y-12048269D02*
X20874944Y-12029222D01*
X20874944Y-12029222D02*
X20865420Y-12019698D01*
X20865420Y-12019698D02*
X20846372Y-12010174D01*
X20846372Y-12010174D02*
X20808277Y-12010174D01*
X20808277Y-12010174D02*
X20789229Y-12019698D01*
X20789229Y-12019698D02*
X20779706Y-12029222D01*
X20779706Y-12029222D02*
X20770182Y-12048269D01*
X21055896Y-11933984D02*
X21017801Y-11933984D01*
X21017801Y-11933984D02*
X20998753Y-11943508D01*
X20998753Y-11943508D02*
X20989229Y-11953031D01*
X20989229Y-11953031D02*
X20970182Y-11981603D01*
X20970182Y-11981603D02*
X20960658Y-12019698D01*
X20960658Y-12019698D02*
X20960658Y-12095888D01*
X20960658Y-12095888D02*
X20970182Y-12114936D01*
X20970182Y-12114936D02*
X20979706Y-12124460D01*
X20979706Y-12124460D02*
X20998753Y-12133984D01*
X20998753Y-12133984D02*
X21036849Y-12133984D01*
X21036849Y-12133984D02*
X21055896Y-12124460D01*
X21055896Y-12124460D02*
X21065420Y-12114936D01*
X21065420Y-12114936D02*
X21074944Y-12095888D01*
X21074944Y-12095888D02*
X21074944Y-12048269D01*
X21074944Y-12048269D02*
X21065420Y-12029222D01*
X21065420Y-12029222D02*
X21055896Y-12019698D01*
X21055896Y-12019698D02*
X21036849Y-12010174D01*
X21036849Y-12010174D02*
X20998753Y-12010174D01*
X20998753Y-12010174D02*
X20979706Y-12019698D01*
X20979706Y-12019698D02*
X20970182Y-12029222D01*
X20970182Y-12029222D02*
X20960658Y-12048269D01*
X21151134Y-11933984D02*
X21151134Y-11972079D01*
X21227325Y-11933984D02*
X21227325Y-11972079D01*
X21522563Y-12210174D02*
X21513039Y-12200650D01*
X21513039Y-12200650D02*
X21493991Y-12172079D01*
X21493991Y-12172079D02*
X21484468Y-12153031D01*
X21484468Y-12153031D02*
X21474944Y-12124460D01*
X21474944Y-12124460D02*
X21465420Y-12076841D01*
X21465420Y-12076841D02*
X21465420Y-12038746D01*
X21465420Y-12038746D02*
X21474944Y-11991127D01*
X21474944Y-11991127D02*
X21484468Y-11962555D01*
X21484468Y-11962555D02*
X21493991Y-11943508D01*
X21493991Y-11943508D02*
X21513039Y-11914936D01*
X21513039Y-11914936D02*
X21522563Y-11905412D01*
X21684468Y-12000650D02*
X21684468Y-12133984D01*
X21636849Y-11924460D02*
X21589230Y-12067317D01*
X21589230Y-12067317D02*
X21713039Y-12067317D01*
X21941611Y-12133984D02*
X21941611Y-11933984D01*
X22027325Y-12133984D02*
X22027325Y-12029222D01*
X22027325Y-12029222D02*
X22017801Y-12010174D01*
X22017801Y-12010174D02*
X21998753Y-12000650D01*
X21998753Y-12000650D02*
X21970182Y-12000650D01*
X21970182Y-12000650D02*
X21951134Y-12010174D01*
X21951134Y-12010174D02*
X21941611Y-12019698D01*
X22151134Y-12133984D02*
X22132087Y-12124460D01*
X22132087Y-12124460D02*
X22122563Y-12114936D01*
X22122563Y-12114936D02*
X22113039Y-12095888D01*
X22113039Y-12095888D02*
X22113039Y-12038746D01*
X22113039Y-12038746D02*
X22122563Y-12019698D01*
X22122563Y-12019698D02*
X22132087Y-12010174D01*
X22132087Y-12010174D02*
X22151134Y-12000650D01*
X22151134Y-12000650D02*
X22179706Y-12000650D01*
X22179706Y-12000650D02*
X22198753Y-12010174D01*
X22198753Y-12010174D02*
X22208277Y-12019698D01*
X22208277Y-12019698D02*
X22217801Y-12038746D01*
X22217801Y-12038746D02*
X22217801Y-12095888D01*
X22217801Y-12095888D02*
X22208277Y-12114936D01*
X22208277Y-12114936D02*
X22198753Y-12124460D01*
X22198753Y-12124460D02*
X22179706Y-12133984D01*
X22179706Y-12133984D02*
X22151134Y-12133984D01*
X22332087Y-12133984D02*
X22313039Y-12124460D01*
X22313039Y-12124460D02*
X22303515Y-12105412D01*
X22303515Y-12105412D02*
X22303515Y-11933984D01*
X22484468Y-12124460D02*
X22465420Y-12133984D01*
X22465420Y-12133984D02*
X22427325Y-12133984D01*
X22427325Y-12133984D02*
X22408277Y-12124460D01*
X22408277Y-12124460D02*
X22398753Y-12105412D01*
X22398753Y-12105412D02*
X22398753Y-12029222D01*
X22398753Y-12029222D02*
X22408277Y-12010174D01*
X22408277Y-12010174D02*
X22427325Y-12000650D01*
X22427325Y-12000650D02*
X22465420Y-12000650D01*
X22465420Y-12000650D02*
X22484468Y-12010174D01*
X22484468Y-12010174D02*
X22493991Y-12029222D01*
X22493991Y-12029222D02*
X22493991Y-12048269D01*
X22493991Y-12048269D02*
X22398753Y-12067317D01*
X22570182Y-12124460D02*
X22589230Y-12133984D01*
X22589230Y-12133984D02*
X22627325Y-12133984D01*
X22627325Y-12133984D02*
X22646372Y-12124460D01*
X22646372Y-12124460D02*
X22655896Y-12105412D01*
X22655896Y-12105412D02*
X22655896Y-12095888D01*
X22655896Y-12095888D02*
X22646372Y-12076841D01*
X22646372Y-12076841D02*
X22627325Y-12067317D01*
X22627325Y-12067317D02*
X22598753Y-12067317D01*
X22598753Y-12067317D02*
X22579706Y-12057793D01*
X22579706Y-12057793D02*
X22570182Y-12038746D01*
X22570182Y-12038746D02*
X22570182Y-12029222D01*
X22570182Y-12029222D02*
X22579706Y-12010174D01*
X22579706Y-12010174D02*
X22598753Y-12000650D01*
X22598753Y-12000650D02*
X22627325Y-12000650D01*
X22627325Y-12000650D02*
X22646372Y-12010174D01*
X22722563Y-12210174D02*
X22732087Y-12200650D01*
X22732087Y-12200650D02*
X22751134Y-12172079D01*
X22751134Y-12172079D02*
X22760658Y-12153031D01*
X22760658Y-12153031D02*
X22770182Y-12124460D01*
X22770182Y-12124460D02*
X22779706Y-12076841D01*
X22779706Y-12076841D02*
X22779706Y-12038746D01*
X22779706Y-12038746D02*
X22770182Y-11991127D01*
X22770182Y-11991127D02*
X22760658Y-11962555D01*
X22760658Y-11962555D02*
X22751134Y-11943508D01*
X22751134Y-11943508D02*
X22732087Y-11914936D01*
X22732087Y-11914936D02*
X22722563Y-11905412D01*
X23084468Y-12210174D02*
X23074944Y-12200650D01*
X23074944Y-12200650D02*
X23055896Y-12172079D01*
X23055896Y-12172079D02*
X23046372Y-12153031D01*
X23046372Y-12153031D02*
X23036849Y-12124460D01*
X23036849Y-12124460D02*
X23027325Y-12076841D01*
X23027325Y-12076841D02*
X23027325Y-12038746D01*
X23027325Y-12038746D02*
X23036849Y-11991127D01*
X23036849Y-11991127D02*
X23046372Y-11962555D01*
X23046372Y-11962555D02*
X23055896Y-11943508D01*
X23055896Y-11943508D02*
X23074944Y-11914936D01*
X23074944Y-11914936D02*
X23084468Y-11905412D01*
X23160658Y-12000650D02*
X23160658Y-12133984D01*
X23160658Y-12019698D02*
X23170182Y-12010174D01*
X23170182Y-12010174D02*
X23189230Y-12000650D01*
X23189230Y-12000650D02*
X23217801Y-12000650D01*
X23217801Y-12000650D02*
X23236849Y-12010174D01*
X23236849Y-12010174D02*
X23246372Y-12029222D01*
X23246372Y-12029222D02*
X23246372Y-12133984D01*
X23370182Y-12133984D02*
X23351134Y-12124460D01*
X23351134Y-12124460D02*
X23341611Y-12114936D01*
X23341611Y-12114936D02*
X23332087Y-12095888D01*
X23332087Y-12095888D02*
X23332087Y-12038746D01*
X23332087Y-12038746D02*
X23341611Y-12019698D01*
X23341611Y-12019698D02*
X23351134Y-12010174D01*
X23351134Y-12010174D02*
X23370182Y-12000650D01*
X23370182Y-12000650D02*
X23398753Y-12000650D01*
X23398753Y-12000650D02*
X23417801Y-12010174D01*
X23417801Y-12010174D02*
X23427325Y-12019698D01*
X23427325Y-12019698D02*
X23436849Y-12038746D01*
X23436849Y-12038746D02*
X23436849Y-12095888D01*
X23436849Y-12095888D02*
X23427325Y-12114936D01*
X23427325Y-12114936D02*
X23417801Y-12124460D01*
X23417801Y-12124460D02*
X23398753Y-12133984D01*
X23398753Y-12133984D02*
X23370182Y-12133984D01*
X23493992Y-12000650D02*
X23570182Y-12000650D01*
X23522563Y-11933984D02*
X23522563Y-12105412D01*
X23522563Y-12105412D02*
X23532087Y-12124460D01*
X23532087Y-12124460D02*
X23551134Y-12133984D01*
X23551134Y-12133984D02*
X23570182Y-12133984D01*
X23789230Y-12000650D02*
X23789230Y-12200650D01*
X23789230Y-12010174D02*
X23808277Y-12000650D01*
X23808277Y-12000650D02*
X23846373Y-12000650D01*
X23846373Y-12000650D02*
X23865420Y-12010174D01*
X23865420Y-12010174D02*
X23874944Y-12019698D01*
X23874944Y-12019698D02*
X23884468Y-12038746D01*
X23884468Y-12038746D02*
X23884468Y-12095888D01*
X23884468Y-12095888D02*
X23874944Y-12114936D01*
X23874944Y-12114936D02*
X23865420Y-12124460D01*
X23865420Y-12124460D02*
X23846373Y-12133984D01*
X23846373Y-12133984D02*
X23808277Y-12133984D01*
X23808277Y-12133984D02*
X23789230Y-12124460D01*
X23998753Y-12133984D02*
X23979706Y-12124460D01*
X23979706Y-12124460D02*
X23970182Y-12105412D01*
X23970182Y-12105412D02*
X23970182Y-11933984D01*
X24160658Y-12133984D02*
X24160658Y-12029222D01*
X24160658Y-12029222D02*
X24151134Y-12010174D01*
X24151134Y-12010174D02*
X24132087Y-12000650D01*
X24132087Y-12000650D02*
X24093992Y-12000650D01*
X24093992Y-12000650D02*
X24074944Y-12010174D01*
X24160658Y-12124460D02*
X24141611Y-12133984D01*
X24141611Y-12133984D02*
X24093992Y-12133984D01*
X24093992Y-12133984D02*
X24074944Y-12124460D01*
X24074944Y-12124460D02*
X24065420Y-12105412D01*
X24065420Y-12105412D02*
X24065420Y-12086365D01*
X24065420Y-12086365D02*
X24074944Y-12067317D01*
X24074944Y-12067317D02*
X24093992Y-12057793D01*
X24093992Y-12057793D02*
X24141611Y-12057793D01*
X24141611Y-12057793D02*
X24160658Y-12048269D01*
X24227325Y-12000650D02*
X24303515Y-12000650D01*
X24255896Y-11933984D02*
X24255896Y-12105412D01*
X24255896Y-12105412D02*
X24265420Y-12124460D01*
X24265420Y-12124460D02*
X24284468Y-12133984D01*
X24284468Y-12133984D02*
X24303515Y-12133984D01*
X24446373Y-12124460D02*
X24427325Y-12133984D01*
X24427325Y-12133984D02*
X24389230Y-12133984D01*
X24389230Y-12133984D02*
X24370182Y-12124460D01*
X24370182Y-12124460D02*
X24360658Y-12105412D01*
X24360658Y-12105412D02*
X24360658Y-12029222D01*
X24360658Y-12029222D02*
X24370182Y-12010174D01*
X24370182Y-12010174D02*
X24389230Y-12000650D01*
X24389230Y-12000650D02*
X24427325Y-12000650D01*
X24427325Y-12000650D02*
X24446373Y-12010174D01*
X24446373Y-12010174D02*
X24455896Y-12029222D01*
X24455896Y-12029222D02*
X24455896Y-12048269D01*
X24455896Y-12048269D02*
X24360658Y-12067317D01*
X24627325Y-12133984D02*
X24627325Y-11933984D01*
X24627325Y-12124460D02*
X24608277Y-12133984D01*
X24608277Y-12133984D02*
X24570182Y-12133984D01*
X24570182Y-12133984D02*
X24551134Y-12124460D01*
X24551134Y-12124460D02*
X24541611Y-12114936D01*
X24541611Y-12114936D02*
X24532087Y-12095888D01*
X24532087Y-12095888D02*
X24532087Y-12038746D01*
X24532087Y-12038746D02*
X24541611Y-12019698D01*
X24541611Y-12019698D02*
X24551134Y-12010174D01*
X24551134Y-12010174D02*
X24570182Y-12000650D01*
X24570182Y-12000650D02*
X24608277Y-12000650D01*
X24608277Y-12000650D02*
X24627325Y-12010174D01*
X24703515Y-12210174D02*
X24713039Y-12200650D01*
X24713039Y-12200650D02*
X24732087Y-12172079D01*
X24732087Y-12172079D02*
X24741611Y-12153031D01*
X24741611Y-12153031D02*
X24751134Y-12124460D01*
X24751134Y-12124460D02*
X24760658Y-12076841D01*
X24760658Y-12076841D02*
X24760658Y-12038746D01*
X24760658Y-12038746D02*
X24751134Y-11991127D01*
X24751134Y-11991127D02*
X24741611Y-11962555D01*
X24741611Y-11962555D02*
X24732087Y-11943508D01*
X24732087Y-11943508D02*
X24713039Y-11914936D01*
X24713039Y-11914936D02*
X24703515Y-11905412D01*
M02*
