%TF.GenerationSoftware,KiCad,Pcbnew,8.0.3*%
%TF.CreationDate,2025-02-15T10:37:39+01:00*%
%TF.ProjectId,pcb_v0,7063625f-7630-42e6-9b69-6361645f7063,rev?*%
%TF.SameCoordinates,Original*%
%TF.FileFunction,Legend,Top*%
%TF.FilePolarity,Positive*%
%FSLAX46Y46*%
G04 Gerber Fmt 4.6, Leading zero omitted, Abs format (unit mm)*
G04 Created by KiCad (PCBNEW 8.0.3) date 2025-02-15 10:37:39*
%MOMM*%
%LPD*%
G01*
G04 APERTURE LIST*
G04 Aperture macros list*
%AMRoundRect*
0 Rectangle with rounded corners*
0 $1 Rounding radius*
0 $2 $3 $4 $5 $6 $7 $8 $9 X,Y pos of 4 corners*
0 Add a 4 corners polygon primitive as box body*
4,1,4,$2,$3,$4,$5,$6,$7,$8,$9,$2,$3,0*
0 Add four circle primitives for the rounded corners*
1,1,$1+$1,$2,$3*
1,1,$1+$1,$4,$5*
1,1,$1+$1,$6,$7*
1,1,$1+$1,$8,$9*
0 Add four rect primitives between the rounded corners*
20,1,$1+$1,$2,$3,$4,$5,0*
20,1,$1+$1,$4,$5,$6,$7,0*
20,1,$1+$1,$6,$7,$8,$9,0*
20,1,$1+$1,$8,$9,$2,$3,0*%
G04 Aperture macros list end*
%ADD10C,0.200000*%
%ADD11C,0.400000*%
%ADD12C,0.100000*%
%ADD13C,0.150000*%
%ADD14C,0.120000*%
%ADD15C,0.152400*%
%ADD16C,0.000000*%
%ADD17C,0.127000*%
%ADD18C,0.504000*%
%ADD19C,1.600000*%
%ADD20R,1.000000X1.000000*%
%ADD21C,1.400000*%
%ADD22O,1.400000X1.400000*%
%ADD23R,1.700000X1.700000*%
%ADD24O,1.700000X1.700000*%
%ADD25C,2.600000*%
%ADD26C,4.400000*%
%ADD27R,0.355600X1.778000*%
%ADD28R,1.663700X0.558800*%
%ADD29C,4.000000*%
%ADD30C,1.800000*%
%ADD31O,1.600000X2.400000*%
%ADD32R,1.600000X2.400000*%
%ADD33RoundRect,0.152400X1.063600X0.609600X-1.063600X0.609600X-1.063600X-0.609600X1.063600X-0.609600X0*%
%ADD34C,1.524000*%
%ADD35RoundRect,0.152400X-1.063600X-0.609600X1.063600X-0.609600X1.063600X0.609600X-1.063600X0.609600X0*%
G04 APERTURE END LIST*
D10*
X240367219Y-100190476D02*
X240367219Y-100666666D01*
X240367219Y-100666666D02*
X240843409Y-100714285D01*
X240843409Y-100714285D02*
X240795790Y-100666666D01*
X240795790Y-100666666D02*
X240748171Y-100571428D01*
X240748171Y-100571428D02*
X240748171Y-100333333D01*
X240748171Y-100333333D02*
X240795790Y-100238095D01*
X240795790Y-100238095D02*
X240843409Y-100190476D01*
X240843409Y-100190476D02*
X240938647Y-100142857D01*
X240938647Y-100142857D02*
X241176742Y-100142857D01*
X241176742Y-100142857D02*
X241271980Y-100190476D01*
X241271980Y-100190476D02*
X241319600Y-100238095D01*
X241319600Y-100238095D02*
X241367219Y-100333333D01*
X241367219Y-100333333D02*
X241367219Y-100571428D01*
X241367219Y-100571428D02*
X241319600Y-100666666D01*
X241319600Y-100666666D02*
X241271980Y-100714285D01*
X240367219Y-99238095D02*
X240367219Y-99714285D01*
X240367219Y-99714285D02*
X240843409Y-99761904D01*
X240843409Y-99761904D02*
X240795790Y-99714285D01*
X240795790Y-99714285D02*
X240748171Y-99619047D01*
X240748171Y-99619047D02*
X240748171Y-99380952D01*
X240748171Y-99380952D02*
X240795790Y-99285714D01*
X240795790Y-99285714D02*
X240843409Y-99238095D01*
X240843409Y-99238095D02*
X240938647Y-99190476D01*
X240938647Y-99190476D02*
X241176742Y-99190476D01*
X241176742Y-99190476D02*
X241271980Y-99238095D01*
X241271980Y-99238095D02*
X241319600Y-99285714D01*
X241319600Y-99285714D02*
X241367219Y-99380952D01*
X241367219Y-99380952D02*
X241367219Y-99619047D01*
X241367219Y-99619047D02*
X241319600Y-99714285D01*
X241319600Y-99714285D02*
X241271980Y-99761904D01*
X240367219Y-98285714D02*
X240367219Y-98761904D01*
X240367219Y-98761904D02*
X240843409Y-98809523D01*
X240843409Y-98809523D02*
X240795790Y-98761904D01*
X240795790Y-98761904D02*
X240748171Y-98666666D01*
X240748171Y-98666666D02*
X240748171Y-98428571D01*
X240748171Y-98428571D02*
X240795790Y-98333333D01*
X240795790Y-98333333D02*
X240843409Y-98285714D01*
X240843409Y-98285714D02*
X240938647Y-98238095D01*
X240938647Y-98238095D02*
X241176742Y-98238095D01*
X241176742Y-98238095D02*
X241271980Y-98285714D01*
X241271980Y-98285714D02*
X241319600Y-98333333D01*
X241319600Y-98333333D02*
X241367219Y-98428571D01*
X241367219Y-98428571D02*
X241367219Y-98666666D01*
X241367219Y-98666666D02*
X241319600Y-98761904D01*
X241319600Y-98761904D02*
X241271980Y-98809523D01*
X240319600Y-97095238D02*
X241605314Y-97952380D01*
X241367219Y-96761904D02*
X240367219Y-96761904D01*
X240367219Y-96761904D02*
X241367219Y-96190476D01*
X241367219Y-96190476D02*
X240367219Y-96190476D01*
X240843409Y-95380952D02*
X240843409Y-95714285D01*
X241367219Y-95714285D02*
X240367219Y-95714285D01*
X240367219Y-95714285D02*
X240367219Y-95238095D01*
X201309523Y-83367219D02*
X200833333Y-83367219D01*
X200833333Y-83367219D02*
X200833333Y-82367219D01*
X201642857Y-83367219D02*
X201642857Y-82367219D01*
X201642857Y-82367219D02*
X201976190Y-83081504D01*
X201976190Y-83081504D02*
X202309523Y-82367219D01*
X202309523Y-82367219D02*
X202309523Y-83367219D01*
X202690476Y-82367219D02*
X203309523Y-82367219D01*
X203309523Y-82367219D02*
X202976190Y-82748171D01*
X202976190Y-82748171D02*
X203119047Y-82748171D01*
X203119047Y-82748171D02*
X203214285Y-82795790D01*
X203214285Y-82795790D02*
X203261904Y-82843409D01*
X203261904Y-82843409D02*
X203309523Y-82938647D01*
X203309523Y-82938647D02*
X203309523Y-83176742D01*
X203309523Y-83176742D02*
X203261904Y-83271980D01*
X203261904Y-83271980D02*
X203214285Y-83319600D01*
X203214285Y-83319600D02*
X203119047Y-83367219D01*
X203119047Y-83367219D02*
X202833333Y-83367219D01*
X202833333Y-83367219D02*
X202738095Y-83319600D01*
X202738095Y-83319600D02*
X202690476Y-83271980D01*
X203690476Y-82462457D02*
X203738095Y-82414838D01*
X203738095Y-82414838D02*
X203833333Y-82367219D01*
X203833333Y-82367219D02*
X204071428Y-82367219D01*
X204071428Y-82367219D02*
X204166666Y-82414838D01*
X204166666Y-82414838D02*
X204214285Y-82462457D01*
X204214285Y-82462457D02*
X204261904Y-82557695D01*
X204261904Y-82557695D02*
X204261904Y-82652933D01*
X204261904Y-82652933D02*
X204214285Y-82795790D01*
X204214285Y-82795790D02*
X203642857Y-83367219D01*
X203642857Y-83367219D02*
X204261904Y-83367219D01*
X205119047Y-82700552D02*
X205119047Y-83367219D01*
X204880952Y-82319600D02*
X204642857Y-83033885D01*
X204642857Y-83033885D02*
X205261904Y-83033885D01*
X236595237Y-47632780D02*
X236595237Y-48632780D01*
X236595237Y-48632780D02*
X236214285Y-48632780D01*
X236214285Y-48632780D02*
X236119047Y-48585161D01*
X236119047Y-48585161D02*
X236071428Y-48537542D01*
X236071428Y-48537542D02*
X236023809Y-48442304D01*
X236023809Y-48442304D02*
X236023809Y-48299447D01*
X236023809Y-48299447D02*
X236071428Y-48204209D01*
X236071428Y-48204209D02*
X236119047Y-48156590D01*
X236119047Y-48156590D02*
X236214285Y-48108971D01*
X236214285Y-48108971D02*
X236595237Y-48108971D01*
X235690475Y-48632780D02*
X235452380Y-47632780D01*
X235452380Y-47632780D02*
X235261904Y-48347066D01*
X235261904Y-48347066D02*
X235071428Y-47632780D01*
X235071428Y-47632780D02*
X234833333Y-48632780D01*
X234452380Y-47632780D02*
X234452380Y-48632780D01*
X234452380Y-48632780D02*
X234119047Y-47918495D01*
X234119047Y-47918495D02*
X233785714Y-48632780D01*
X233785714Y-48632780D02*
X233785714Y-47632780D01*
X232690475Y-48632780D02*
X232119047Y-48632780D01*
X232404761Y-47632780D02*
X232404761Y-48632780D01*
X231214285Y-47632780D02*
X231547618Y-48108971D01*
X231785713Y-47632780D02*
X231785713Y-48632780D01*
X231785713Y-48632780D02*
X231404761Y-48632780D01*
X231404761Y-48632780D02*
X231309523Y-48585161D01*
X231309523Y-48585161D02*
X231261904Y-48537542D01*
X231261904Y-48537542D02*
X231214285Y-48442304D01*
X231214285Y-48442304D02*
X231214285Y-48299447D01*
X231214285Y-48299447D02*
X231261904Y-48204209D01*
X231261904Y-48204209D02*
X231309523Y-48156590D01*
X231309523Y-48156590D02*
X231404761Y-48108971D01*
X231404761Y-48108971D02*
X231785713Y-48108971D01*
X230833332Y-47918495D02*
X230357142Y-47918495D01*
X230928570Y-47632780D02*
X230595237Y-48632780D01*
X230595237Y-48632780D02*
X230261904Y-47632780D01*
X229928570Y-47632780D02*
X229928570Y-48632780D01*
X229928570Y-48632780D02*
X229357142Y-47632780D01*
X229357142Y-47632780D02*
X229357142Y-48632780D01*
X228928570Y-47680400D02*
X228785713Y-47632780D01*
X228785713Y-47632780D02*
X228547618Y-47632780D01*
X228547618Y-47632780D02*
X228452380Y-47680400D01*
X228452380Y-47680400D02*
X228404761Y-47728019D01*
X228404761Y-47728019D02*
X228357142Y-47823257D01*
X228357142Y-47823257D02*
X228357142Y-47918495D01*
X228357142Y-47918495D02*
X228404761Y-48013733D01*
X228404761Y-48013733D02*
X228452380Y-48061352D01*
X228452380Y-48061352D02*
X228547618Y-48108971D01*
X228547618Y-48108971D02*
X228738094Y-48156590D01*
X228738094Y-48156590D02*
X228833332Y-48204209D01*
X228833332Y-48204209D02*
X228880951Y-48251828D01*
X228880951Y-48251828D02*
X228928570Y-48347066D01*
X228928570Y-48347066D02*
X228928570Y-48442304D01*
X228928570Y-48442304D02*
X228880951Y-48537542D01*
X228880951Y-48537542D02*
X228833332Y-48585161D01*
X228833332Y-48585161D02*
X228738094Y-48632780D01*
X228738094Y-48632780D02*
X228499999Y-48632780D01*
X228499999Y-48632780D02*
X228357142Y-48585161D01*
X241367219Y-92714285D02*
X240367219Y-92714285D01*
X240367219Y-92714285D02*
X241081504Y-92380952D01*
X241081504Y-92380952D02*
X240367219Y-92047619D01*
X240367219Y-92047619D02*
X241367219Y-92047619D01*
X241081504Y-91619047D02*
X241081504Y-91142857D01*
X241367219Y-91714285D02*
X240367219Y-91380952D01*
X240367219Y-91380952D02*
X241367219Y-91047619D01*
X240367219Y-90809523D02*
X241367219Y-90142857D01*
X240367219Y-90142857D02*
X241367219Y-90809523D01*
X240319600Y-89047619D02*
X241605314Y-89904761D01*
X241367219Y-88714285D02*
X240367219Y-88714285D01*
X240367219Y-88714285D02*
X241367219Y-88142857D01*
X241367219Y-88142857D02*
X240367219Y-88142857D01*
X240843409Y-87333333D02*
X240843409Y-87666666D01*
X241367219Y-87666666D02*
X240367219Y-87666666D01*
X240367219Y-87666666D02*
X240367219Y-87190476D01*
X231132780Y-93357143D02*
X232132780Y-93357143D01*
X232132780Y-93357143D02*
X231418495Y-93690476D01*
X231418495Y-93690476D02*
X232132780Y-94023809D01*
X232132780Y-94023809D02*
X231132780Y-94023809D01*
X231418495Y-94452381D02*
X231418495Y-94928571D01*
X231132780Y-94357143D02*
X232132780Y-94690476D01*
X232132780Y-94690476D02*
X231132780Y-95023809D01*
X232132780Y-95261905D02*
X231132780Y-95928571D01*
X232132780Y-95928571D02*
X231132780Y-95261905D01*
X232037542Y-96261905D02*
X232085161Y-96309524D01*
X232085161Y-96309524D02*
X232132780Y-96404762D01*
X232132780Y-96404762D02*
X232132780Y-96642857D01*
X232132780Y-96642857D02*
X232085161Y-96738095D01*
X232085161Y-96738095D02*
X232037542Y-96785714D01*
X232037542Y-96785714D02*
X231942304Y-96833333D01*
X231942304Y-96833333D02*
X231847066Y-96833333D01*
X231847066Y-96833333D02*
X231704209Y-96785714D01*
X231704209Y-96785714D02*
X231132780Y-96214286D01*
X231132780Y-96214286D02*
X231132780Y-96833333D01*
X232132780Y-97166667D02*
X232132780Y-97785714D01*
X232132780Y-97785714D02*
X231751828Y-97452381D01*
X231751828Y-97452381D02*
X231751828Y-97595238D01*
X231751828Y-97595238D02*
X231704209Y-97690476D01*
X231704209Y-97690476D02*
X231656590Y-97738095D01*
X231656590Y-97738095D02*
X231561352Y-97785714D01*
X231561352Y-97785714D02*
X231323257Y-97785714D01*
X231323257Y-97785714D02*
X231228019Y-97738095D01*
X231228019Y-97738095D02*
X231180400Y-97690476D01*
X231180400Y-97690476D02*
X231132780Y-97595238D01*
X231132780Y-97595238D02*
X231132780Y-97309524D01*
X231132780Y-97309524D02*
X231180400Y-97214286D01*
X231180400Y-97214286D02*
X231228019Y-97166667D01*
X232132780Y-98119048D02*
X232132780Y-98738095D01*
X232132780Y-98738095D02*
X231751828Y-98404762D01*
X231751828Y-98404762D02*
X231751828Y-98547619D01*
X231751828Y-98547619D02*
X231704209Y-98642857D01*
X231704209Y-98642857D02*
X231656590Y-98690476D01*
X231656590Y-98690476D02*
X231561352Y-98738095D01*
X231561352Y-98738095D02*
X231323257Y-98738095D01*
X231323257Y-98738095D02*
X231228019Y-98690476D01*
X231228019Y-98690476D02*
X231180400Y-98642857D01*
X231180400Y-98642857D02*
X231132780Y-98547619D01*
X231132780Y-98547619D02*
X231132780Y-98261905D01*
X231132780Y-98261905D02*
X231180400Y-98166667D01*
X231180400Y-98166667D02*
X231228019Y-98119048D01*
X231132780Y-99690476D02*
X231132780Y-99119048D01*
X231132780Y-99404762D02*
X232132780Y-99404762D01*
X232132780Y-99404762D02*
X231989923Y-99309524D01*
X231989923Y-99309524D02*
X231894685Y-99214286D01*
X231894685Y-99214286D02*
X231847066Y-99119048D01*
X244809523Y-76867219D02*
X244333333Y-76867219D01*
X244333333Y-76867219D02*
X244333333Y-75867219D01*
X245142857Y-76867219D02*
X245142857Y-75867219D01*
X245142857Y-75867219D02*
X245476190Y-76581504D01*
X245476190Y-76581504D02*
X245809523Y-75867219D01*
X245809523Y-75867219D02*
X245809523Y-76867219D01*
X246761904Y-75867219D02*
X246285714Y-75867219D01*
X246285714Y-75867219D02*
X246238095Y-76343409D01*
X246238095Y-76343409D02*
X246285714Y-76295790D01*
X246285714Y-76295790D02*
X246380952Y-76248171D01*
X246380952Y-76248171D02*
X246619047Y-76248171D01*
X246619047Y-76248171D02*
X246714285Y-76295790D01*
X246714285Y-76295790D02*
X246761904Y-76343409D01*
X246761904Y-76343409D02*
X246809523Y-76438647D01*
X246809523Y-76438647D02*
X246809523Y-76676742D01*
X246809523Y-76676742D02*
X246761904Y-76771980D01*
X246761904Y-76771980D02*
X246714285Y-76819600D01*
X246714285Y-76819600D02*
X246619047Y-76867219D01*
X246619047Y-76867219D02*
X246380952Y-76867219D01*
X246380952Y-76867219D02*
X246285714Y-76819600D01*
X246285714Y-76819600D02*
X246238095Y-76771980D01*
X247714285Y-75867219D02*
X247238095Y-75867219D01*
X247238095Y-75867219D02*
X247190476Y-76343409D01*
X247190476Y-76343409D02*
X247238095Y-76295790D01*
X247238095Y-76295790D02*
X247333333Y-76248171D01*
X247333333Y-76248171D02*
X247571428Y-76248171D01*
X247571428Y-76248171D02*
X247666666Y-76295790D01*
X247666666Y-76295790D02*
X247714285Y-76343409D01*
X247714285Y-76343409D02*
X247761904Y-76438647D01*
X247761904Y-76438647D02*
X247761904Y-76676742D01*
X247761904Y-76676742D02*
X247714285Y-76771980D01*
X247714285Y-76771980D02*
X247666666Y-76819600D01*
X247666666Y-76819600D02*
X247571428Y-76867219D01*
X247571428Y-76867219D02*
X247333333Y-76867219D01*
X247333333Y-76867219D02*
X247238095Y-76819600D01*
X247238095Y-76819600D02*
X247190476Y-76771980D01*
X248666666Y-75867219D02*
X248190476Y-75867219D01*
X248190476Y-75867219D02*
X248142857Y-76343409D01*
X248142857Y-76343409D02*
X248190476Y-76295790D01*
X248190476Y-76295790D02*
X248285714Y-76248171D01*
X248285714Y-76248171D02*
X248523809Y-76248171D01*
X248523809Y-76248171D02*
X248619047Y-76295790D01*
X248619047Y-76295790D02*
X248666666Y-76343409D01*
X248666666Y-76343409D02*
X248714285Y-76438647D01*
X248714285Y-76438647D02*
X248714285Y-76676742D01*
X248714285Y-76676742D02*
X248666666Y-76771980D01*
X248666666Y-76771980D02*
X248619047Y-76819600D01*
X248619047Y-76819600D02*
X248523809Y-76867219D01*
X248523809Y-76867219D02*
X248285714Y-76867219D01*
X248285714Y-76867219D02*
X248190476Y-76819600D01*
X248190476Y-76819600D02*
X248142857Y-76771980D01*
X264867219Y-100404761D02*
X263867219Y-100404761D01*
X263867219Y-100404761D02*
X264867219Y-99833333D01*
X264867219Y-99833333D02*
X263867219Y-99833333D01*
X264343409Y-99023809D02*
X264343409Y-99357142D01*
X264867219Y-99357142D02*
X263867219Y-99357142D01*
X263867219Y-99357142D02*
X263867219Y-98880952D01*
X263867219Y-97880951D02*
X263867219Y-97309523D01*
X264867219Y-97595237D02*
X263867219Y-97595237D01*
X264867219Y-96404761D02*
X264391028Y-96738094D01*
X264867219Y-96976189D02*
X263867219Y-96976189D01*
X263867219Y-96976189D02*
X263867219Y-96595237D01*
X263867219Y-96595237D02*
X263914838Y-96499999D01*
X263914838Y-96499999D02*
X263962457Y-96452380D01*
X263962457Y-96452380D02*
X264057695Y-96404761D01*
X264057695Y-96404761D02*
X264200552Y-96404761D01*
X264200552Y-96404761D02*
X264295790Y-96452380D01*
X264295790Y-96452380D02*
X264343409Y-96499999D01*
X264343409Y-96499999D02*
X264391028Y-96595237D01*
X264391028Y-96595237D02*
X264391028Y-96976189D01*
X264581504Y-96023808D02*
X264581504Y-95547618D01*
X264867219Y-96119046D02*
X263867219Y-95785713D01*
X263867219Y-95785713D02*
X264867219Y-95452380D01*
X264867219Y-95119046D02*
X263867219Y-95119046D01*
X263867219Y-95119046D02*
X264867219Y-94547618D01*
X264867219Y-94547618D02*
X263867219Y-94547618D01*
X264819600Y-94119046D02*
X264867219Y-93976189D01*
X264867219Y-93976189D02*
X264867219Y-93738094D01*
X264867219Y-93738094D02*
X264819600Y-93642856D01*
X264819600Y-93642856D02*
X264771980Y-93595237D01*
X264771980Y-93595237D02*
X264676742Y-93547618D01*
X264676742Y-93547618D02*
X264581504Y-93547618D01*
X264581504Y-93547618D02*
X264486266Y-93595237D01*
X264486266Y-93595237D02*
X264438647Y-93642856D01*
X264438647Y-93642856D02*
X264391028Y-93738094D01*
X264391028Y-93738094D02*
X264343409Y-93928570D01*
X264343409Y-93928570D02*
X264295790Y-94023808D01*
X264295790Y-94023808D02*
X264248171Y-94071427D01*
X264248171Y-94071427D02*
X264152933Y-94119046D01*
X264152933Y-94119046D02*
X264057695Y-94119046D01*
X264057695Y-94119046D02*
X263962457Y-94071427D01*
X263962457Y-94071427D02*
X263914838Y-94023808D01*
X263914838Y-94023808D02*
X263867219Y-93928570D01*
X263867219Y-93928570D02*
X263867219Y-93690475D01*
X263867219Y-93690475D02*
X263914838Y-93547618D01*
X247867219Y-92190475D02*
X246867219Y-92190475D01*
X246867219Y-92190475D02*
X247581504Y-91857142D01*
X247581504Y-91857142D02*
X246867219Y-91523809D01*
X246867219Y-91523809D02*
X247867219Y-91523809D01*
X247581504Y-91095237D02*
X247581504Y-90619047D01*
X247867219Y-91190475D02*
X246867219Y-90857142D01*
X246867219Y-90857142D02*
X247867219Y-90523809D01*
X246867219Y-90285713D02*
X247867219Y-89619047D01*
X246867219Y-89619047D02*
X247867219Y-90285713D01*
X246819600Y-88523809D02*
X248105314Y-89380951D01*
X247343409Y-87857142D02*
X247343409Y-88190475D01*
X247867219Y-88190475D02*
X246867219Y-88190475D01*
X246867219Y-88190475D02*
X246867219Y-87714285D01*
X246867219Y-99666666D02*
X246867219Y-100142856D01*
X246867219Y-100142856D02*
X247343409Y-100190475D01*
X247343409Y-100190475D02*
X247295790Y-100142856D01*
X247295790Y-100142856D02*
X247248171Y-100047618D01*
X247248171Y-100047618D02*
X247248171Y-99809523D01*
X247248171Y-99809523D02*
X247295790Y-99714285D01*
X247295790Y-99714285D02*
X247343409Y-99666666D01*
X247343409Y-99666666D02*
X247438647Y-99619047D01*
X247438647Y-99619047D02*
X247676742Y-99619047D01*
X247676742Y-99619047D02*
X247771980Y-99666666D01*
X247771980Y-99666666D02*
X247819600Y-99714285D01*
X247819600Y-99714285D02*
X247867219Y-99809523D01*
X247867219Y-99809523D02*
X247867219Y-100047618D01*
X247867219Y-100047618D02*
X247819600Y-100142856D01*
X247819600Y-100142856D02*
X247771980Y-100190475D01*
X246867219Y-98714285D02*
X246867219Y-99190475D01*
X246867219Y-99190475D02*
X247343409Y-99238094D01*
X247343409Y-99238094D02*
X247295790Y-99190475D01*
X247295790Y-99190475D02*
X247248171Y-99095237D01*
X247248171Y-99095237D02*
X247248171Y-98857142D01*
X247248171Y-98857142D02*
X247295790Y-98761904D01*
X247295790Y-98761904D02*
X247343409Y-98714285D01*
X247343409Y-98714285D02*
X247438647Y-98666666D01*
X247438647Y-98666666D02*
X247676742Y-98666666D01*
X247676742Y-98666666D02*
X247771980Y-98714285D01*
X247771980Y-98714285D02*
X247819600Y-98761904D01*
X247819600Y-98761904D02*
X247867219Y-98857142D01*
X247867219Y-98857142D02*
X247867219Y-99095237D01*
X247867219Y-99095237D02*
X247819600Y-99190475D01*
X247819600Y-99190475D02*
X247771980Y-99238094D01*
X246867219Y-97761904D02*
X246867219Y-98238094D01*
X246867219Y-98238094D02*
X247343409Y-98285713D01*
X247343409Y-98285713D02*
X247295790Y-98238094D01*
X247295790Y-98238094D02*
X247248171Y-98142856D01*
X247248171Y-98142856D02*
X247248171Y-97904761D01*
X247248171Y-97904761D02*
X247295790Y-97809523D01*
X247295790Y-97809523D02*
X247343409Y-97761904D01*
X247343409Y-97761904D02*
X247438647Y-97714285D01*
X247438647Y-97714285D02*
X247676742Y-97714285D01*
X247676742Y-97714285D02*
X247771980Y-97761904D01*
X247771980Y-97761904D02*
X247819600Y-97809523D01*
X247819600Y-97809523D02*
X247867219Y-97904761D01*
X247867219Y-97904761D02*
X247867219Y-98142856D01*
X247867219Y-98142856D02*
X247819600Y-98238094D01*
X247819600Y-98238094D02*
X247771980Y-98285713D01*
X246819600Y-96571428D02*
X248105314Y-97428570D01*
X247343409Y-95904761D02*
X247343409Y-96238094D01*
X247867219Y-96238094D02*
X246867219Y-96238094D01*
X246867219Y-96238094D02*
X246867219Y-95761904D01*
X180632780Y-77285714D02*
X181108971Y-76952381D01*
X180632780Y-76714286D02*
X181632780Y-76714286D01*
X181632780Y-76714286D02*
X181632780Y-77095238D01*
X181632780Y-77095238D02*
X181585161Y-77190476D01*
X181585161Y-77190476D02*
X181537542Y-77238095D01*
X181537542Y-77238095D02*
X181442304Y-77285714D01*
X181442304Y-77285714D02*
X181299447Y-77285714D01*
X181299447Y-77285714D02*
X181204209Y-77238095D01*
X181204209Y-77238095D02*
X181156590Y-77190476D01*
X181156590Y-77190476D02*
X181108971Y-77095238D01*
X181108971Y-77095238D02*
X181108971Y-76714286D01*
X181156590Y-77714286D02*
X181156590Y-78047619D01*
X180632780Y-78190476D02*
X180632780Y-77714286D01*
X180632780Y-77714286D02*
X181632780Y-77714286D01*
X181632780Y-77714286D02*
X181632780Y-78190476D01*
X180728019Y-79190476D02*
X180680400Y-79142857D01*
X180680400Y-79142857D02*
X180632780Y-79000000D01*
X180632780Y-79000000D02*
X180632780Y-78904762D01*
X180632780Y-78904762D02*
X180680400Y-78761905D01*
X180680400Y-78761905D02*
X180775638Y-78666667D01*
X180775638Y-78666667D02*
X180870876Y-78619048D01*
X180870876Y-78619048D02*
X181061352Y-78571429D01*
X181061352Y-78571429D02*
X181204209Y-78571429D01*
X181204209Y-78571429D02*
X181394685Y-78619048D01*
X181394685Y-78619048D02*
X181489923Y-78666667D01*
X181489923Y-78666667D02*
X181585161Y-78761905D01*
X181585161Y-78761905D02*
X181632780Y-78904762D01*
X181632780Y-78904762D02*
X181632780Y-79000000D01*
X181632780Y-79000000D02*
X181585161Y-79142857D01*
X181585161Y-79142857D02*
X181537542Y-79190476D01*
X181156590Y-79619048D02*
X181156590Y-79952381D01*
X180632780Y-80095238D02*
X180632780Y-79619048D01*
X180632780Y-79619048D02*
X181632780Y-79619048D01*
X181632780Y-79619048D02*
X181632780Y-80095238D01*
X180632780Y-80523810D02*
X181632780Y-80523810D01*
X181632780Y-80857143D02*
X180632780Y-81190476D01*
X180632780Y-81190476D02*
X181632780Y-81523809D01*
X181156590Y-81857143D02*
X181156590Y-82190476D01*
X180632780Y-82333333D02*
X180632780Y-81857143D01*
X180632780Y-81857143D02*
X181632780Y-81857143D01*
X181632780Y-81857143D02*
X181632780Y-82333333D01*
X180632780Y-83333333D02*
X181108971Y-83000000D01*
X180632780Y-82761905D02*
X181632780Y-82761905D01*
X181632780Y-82761905D02*
X181632780Y-83142857D01*
X181632780Y-83142857D02*
X181585161Y-83238095D01*
X181585161Y-83238095D02*
X181537542Y-83285714D01*
X181537542Y-83285714D02*
X181442304Y-83333333D01*
X181442304Y-83333333D02*
X181299447Y-83333333D01*
X181299447Y-83333333D02*
X181204209Y-83285714D01*
X181204209Y-83285714D02*
X181156590Y-83238095D01*
X181156590Y-83238095D02*
X181108971Y-83142857D01*
X181108971Y-83142857D02*
X181108971Y-82761905D01*
X264343409Y-90047619D02*
X264343409Y-90380952D01*
X264867219Y-90380952D02*
X263867219Y-90380952D01*
X263867219Y-90380952D02*
X263867219Y-89904762D01*
X263867219Y-88904761D02*
X263867219Y-88333333D01*
X264867219Y-88619047D02*
X263867219Y-88619047D01*
X264867219Y-87428571D02*
X264391028Y-87761904D01*
X264867219Y-87999999D02*
X263867219Y-87999999D01*
X263867219Y-87999999D02*
X263867219Y-87619047D01*
X263867219Y-87619047D02*
X263914838Y-87523809D01*
X263914838Y-87523809D02*
X263962457Y-87476190D01*
X263962457Y-87476190D02*
X264057695Y-87428571D01*
X264057695Y-87428571D02*
X264200552Y-87428571D01*
X264200552Y-87428571D02*
X264295790Y-87476190D01*
X264295790Y-87476190D02*
X264343409Y-87523809D01*
X264343409Y-87523809D02*
X264391028Y-87619047D01*
X264391028Y-87619047D02*
X264391028Y-87999999D01*
X264581504Y-87047618D02*
X264581504Y-86571428D01*
X264867219Y-87142856D02*
X263867219Y-86809523D01*
X263867219Y-86809523D02*
X264867219Y-86476190D01*
X264867219Y-86142856D02*
X263867219Y-86142856D01*
X263867219Y-86142856D02*
X264867219Y-85571428D01*
X264867219Y-85571428D02*
X263867219Y-85571428D01*
X264819600Y-85142856D02*
X264867219Y-84999999D01*
X264867219Y-84999999D02*
X264867219Y-84761904D01*
X264867219Y-84761904D02*
X264819600Y-84666666D01*
X264819600Y-84666666D02*
X264771980Y-84619047D01*
X264771980Y-84619047D02*
X264676742Y-84571428D01*
X264676742Y-84571428D02*
X264581504Y-84571428D01*
X264581504Y-84571428D02*
X264486266Y-84619047D01*
X264486266Y-84619047D02*
X264438647Y-84666666D01*
X264438647Y-84666666D02*
X264391028Y-84761904D01*
X264391028Y-84761904D02*
X264343409Y-84952380D01*
X264343409Y-84952380D02*
X264295790Y-85047618D01*
X264295790Y-85047618D02*
X264248171Y-85095237D01*
X264248171Y-85095237D02*
X264152933Y-85142856D01*
X264152933Y-85142856D02*
X264057695Y-85142856D01*
X264057695Y-85142856D02*
X263962457Y-85095237D01*
X263962457Y-85095237D02*
X263914838Y-85047618D01*
X263914838Y-85047618D02*
X263867219Y-84952380D01*
X263867219Y-84952380D02*
X263867219Y-84714285D01*
X263867219Y-84714285D02*
X263914838Y-84571428D01*
D11*
X245063603Y-63129308D02*
X247063603Y-61795975D01*
X245063603Y-61795975D02*
X247063603Y-63129308D01*
X247063603Y-61034070D02*
X245063603Y-61034070D01*
X246492174Y-60176927D02*
X246492174Y-59224546D01*
X247063603Y-60367403D02*
X245063603Y-59700737D01*
X245063603Y-59700737D02*
X247063603Y-59034070D01*
X245063603Y-57986451D02*
X245063603Y-57605498D01*
X245063603Y-57605498D02*
X245158841Y-57415022D01*
X245158841Y-57415022D02*
X245349317Y-57224546D01*
X245349317Y-57224546D02*
X245730269Y-57129308D01*
X245730269Y-57129308D02*
X246396936Y-57129308D01*
X246396936Y-57129308D02*
X246777888Y-57224546D01*
X246777888Y-57224546D02*
X246968365Y-57415022D01*
X246968365Y-57415022D02*
X247063603Y-57605498D01*
X247063603Y-57605498D02*
X247063603Y-57986451D01*
X247063603Y-57986451D02*
X246968365Y-58176927D01*
X246968365Y-58176927D02*
X246777888Y-58367403D01*
X246777888Y-58367403D02*
X246396936Y-58462641D01*
X246396936Y-58462641D02*
X245730269Y-58462641D01*
X245730269Y-58462641D02*
X245349317Y-58367403D01*
X245349317Y-58367403D02*
X245158841Y-58176927D01*
X245158841Y-58176927D02*
X245063603Y-57986451D01*
X249235872Y-66319785D02*
X249235872Y-65653118D01*
X250283491Y-65367404D02*
X250283491Y-66319785D01*
X250283491Y-66319785D02*
X248283491Y-66319785D01*
X248283491Y-66319785D02*
X248283491Y-65367404D01*
X250188253Y-64605499D02*
X250283491Y-64319785D01*
X250283491Y-64319785D02*
X250283491Y-63843594D01*
X250283491Y-63843594D02*
X250188253Y-63653118D01*
X250188253Y-63653118D02*
X250093014Y-63557880D01*
X250093014Y-63557880D02*
X249902538Y-63462642D01*
X249902538Y-63462642D02*
X249712062Y-63462642D01*
X249712062Y-63462642D02*
X249521586Y-63557880D01*
X249521586Y-63557880D02*
X249426348Y-63653118D01*
X249426348Y-63653118D02*
X249331110Y-63843594D01*
X249331110Y-63843594D02*
X249235872Y-64224547D01*
X249235872Y-64224547D02*
X249140633Y-64415023D01*
X249140633Y-64415023D02*
X249045395Y-64510261D01*
X249045395Y-64510261D02*
X248854919Y-64605499D01*
X248854919Y-64605499D02*
X248664443Y-64605499D01*
X248664443Y-64605499D02*
X248473967Y-64510261D01*
X248473967Y-64510261D02*
X248378729Y-64415023D01*
X248378729Y-64415023D02*
X248283491Y-64224547D01*
X248283491Y-64224547D02*
X248283491Y-63748356D01*
X248283491Y-63748356D02*
X248378729Y-63462642D01*
X250283491Y-62605499D02*
X248283491Y-62605499D01*
X248283491Y-62605499D02*
X248283491Y-61843594D01*
X248283491Y-61843594D02*
X248378729Y-61653118D01*
X248378729Y-61653118D02*
X248473967Y-61557880D01*
X248473967Y-61557880D02*
X248664443Y-61462642D01*
X248664443Y-61462642D02*
X248950157Y-61462642D01*
X248950157Y-61462642D02*
X249140633Y-61557880D01*
X249140633Y-61557880D02*
X249235872Y-61653118D01*
X249235872Y-61653118D02*
X249331110Y-61843594D01*
X249331110Y-61843594D02*
X249331110Y-62605499D01*
X248283491Y-60795975D02*
X248283491Y-59557880D01*
X248283491Y-59557880D02*
X249045395Y-60224547D01*
X249045395Y-60224547D02*
X249045395Y-59938832D01*
X249045395Y-59938832D02*
X249140633Y-59748356D01*
X249140633Y-59748356D02*
X249235872Y-59653118D01*
X249235872Y-59653118D02*
X249426348Y-59557880D01*
X249426348Y-59557880D02*
X249902538Y-59557880D01*
X249902538Y-59557880D02*
X250093014Y-59653118D01*
X250093014Y-59653118D02*
X250188253Y-59748356D01*
X250188253Y-59748356D02*
X250283491Y-59938832D01*
X250283491Y-59938832D02*
X250283491Y-60510261D01*
X250283491Y-60510261D02*
X250188253Y-60700737D01*
X250188253Y-60700737D02*
X250093014Y-60795975D01*
X248473967Y-58795975D02*
X248378729Y-58700737D01*
X248378729Y-58700737D02*
X248283491Y-58510261D01*
X248283491Y-58510261D02*
X248283491Y-58034070D01*
X248283491Y-58034070D02*
X248378729Y-57843594D01*
X248378729Y-57843594D02*
X248473967Y-57748356D01*
X248473967Y-57748356D02*
X248664443Y-57653118D01*
X248664443Y-57653118D02*
X248854919Y-57653118D01*
X248854919Y-57653118D02*
X249140633Y-57748356D01*
X249140633Y-57748356D02*
X250283491Y-58891213D01*
X250283491Y-58891213D02*
X250283491Y-57653118D01*
X250093014Y-55653118D02*
X250188253Y-55748356D01*
X250188253Y-55748356D02*
X250283491Y-56034070D01*
X250283491Y-56034070D02*
X250283491Y-56224546D01*
X250283491Y-56224546D02*
X250188253Y-56510261D01*
X250188253Y-56510261D02*
X249997776Y-56700737D01*
X249997776Y-56700737D02*
X249807300Y-56795975D01*
X249807300Y-56795975D02*
X249426348Y-56891213D01*
X249426348Y-56891213D02*
X249140633Y-56891213D01*
X249140633Y-56891213D02*
X248759681Y-56795975D01*
X248759681Y-56795975D02*
X248569205Y-56700737D01*
X248569205Y-56700737D02*
X248378729Y-56510261D01*
X248378729Y-56510261D02*
X248283491Y-56224546D01*
X248283491Y-56224546D02*
X248283491Y-56034070D01*
X248283491Y-56034070D02*
X248378729Y-55748356D01*
X248378729Y-55748356D02*
X248473967Y-55653118D01*
X248283491Y-54986451D02*
X248283491Y-53748356D01*
X248283491Y-53748356D02*
X249045395Y-54415023D01*
X249045395Y-54415023D02*
X249045395Y-54129308D01*
X249045395Y-54129308D02*
X249140633Y-53938832D01*
X249140633Y-53938832D02*
X249235872Y-53843594D01*
X249235872Y-53843594D02*
X249426348Y-53748356D01*
X249426348Y-53748356D02*
X249902538Y-53748356D01*
X249902538Y-53748356D02*
X250093014Y-53843594D01*
X250093014Y-53843594D02*
X250188253Y-53938832D01*
X250188253Y-53938832D02*
X250283491Y-54129308D01*
X250283491Y-54129308D02*
X250283491Y-54700737D01*
X250283491Y-54700737D02*
X250188253Y-54891213D01*
X250188253Y-54891213D02*
X250093014Y-54986451D01*
D12*
X243489165Y-52755490D02*
X244589165Y-52755490D01*
X244989165Y-52755490D02*
X246089165Y-52755490D01*
X246489165Y-52755490D02*
X247589165Y-52755490D01*
X247989165Y-52755490D02*
X249089165Y-52755490D01*
X249489165Y-52755490D02*
X250589165Y-52755490D01*
X250989165Y-52755490D02*
X251489165Y-52755490D01*
X251489165Y-52755490D02*
X251489165Y-53855490D01*
X251489165Y-54255490D02*
X251489165Y-55355490D01*
X251489165Y-55755490D02*
X251489165Y-56855490D01*
X251489165Y-57255490D02*
X251489165Y-58355490D01*
X251489165Y-58755490D02*
X251489165Y-59855490D01*
X251489165Y-60255490D02*
X251489165Y-61355490D01*
X251489165Y-61755490D02*
X251489165Y-62855490D01*
X251489165Y-63255490D02*
X251489165Y-64355490D01*
X251489165Y-64755490D02*
X251489165Y-65855490D01*
X251489165Y-66255490D02*
X251489165Y-67355490D01*
X251489165Y-67407890D02*
X250389165Y-67407890D01*
X249989165Y-67407890D02*
X248889165Y-67407890D01*
X248489165Y-67407890D02*
X247389165Y-67407890D01*
X246989165Y-67407890D02*
X245889165Y-67407890D01*
X245489165Y-67407890D02*
X244389165Y-67407890D01*
X243989165Y-67407890D02*
X243489165Y-67407890D01*
X243489165Y-67407890D02*
X243489165Y-66307890D01*
X243489165Y-65907890D02*
X243489165Y-64807890D01*
X243489165Y-64407890D02*
X243489165Y-63307890D01*
X243489165Y-62907890D02*
X243489165Y-61807890D01*
X243489165Y-61407890D02*
X243489165Y-60307890D01*
X243489165Y-59907890D02*
X243489165Y-58807890D01*
X243489165Y-58407890D02*
X243489165Y-57307890D01*
X243489165Y-56907890D02*
X243489165Y-55807890D01*
X243489165Y-55407890D02*
X243489165Y-54307890D01*
X243489165Y-53907890D02*
X243489165Y-52807890D01*
D10*
X223047618Y-47760400D02*
X222904761Y-47712780D01*
X222904761Y-47712780D02*
X222666666Y-47712780D01*
X222666666Y-47712780D02*
X222571428Y-47760400D01*
X222571428Y-47760400D02*
X222523809Y-47808019D01*
X222523809Y-47808019D02*
X222476190Y-47903257D01*
X222476190Y-47903257D02*
X222476190Y-47998495D01*
X222476190Y-47998495D02*
X222523809Y-48093733D01*
X222523809Y-48093733D02*
X222571428Y-48141352D01*
X222571428Y-48141352D02*
X222666666Y-48188971D01*
X222666666Y-48188971D02*
X222857142Y-48236590D01*
X222857142Y-48236590D02*
X222952380Y-48284209D01*
X222952380Y-48284209D02*
X222999999Y-48331828D01*
X222999999Y-48331828D02*
X223047618Y-48427066D01*
X223047618Y-48427066D02*
X223047618Y-48522304D01*
X223047618Y-48522304D02*
X222999999Y-48617542D01*
X222999999Y-48617542D02*
X222952380Y-48665161D01*
X222952380Y-48665161D02*
X222857142Y-48712780D01*
X222857142Y-48712780D02*
X222619047Y-48712780D01*
X222619047Y-48712780D02*
X222476190Y-48665161D01*
X222047618Y-47712780D02*
X222047618Y-48712780D01*
X221047619Y-48665161D02*
X221142857Y-48712780D01*
X221142857Y-48712780D02*
X221285714Y-48712780D01*
X221285714Y-48712780D02*
X221428571Y-48665161D01*
X221428571Y-48665161D02*
X221523809Y-48569923D01*
X221523809Y-48569923D02*
X221571428Y-48474685D01*
X221571428Y-48474685D02*
X221619047Y-48284209D01*
X221619047Y-48284209D02*
X221619047Y-48141352D01*
X221619047Y-48141352D02*
X221571428Y-47950876D01*
X221571428Y-47950876D02*
X221523809Y-47855638D01*
X221523809Y-47855638D02*
X221428571Y-47760400D01*
X221428571Y-47760400D02*
X221285714Y-47712780D01*
X221285714Y-47712780D02*
X221190476Y-47712780D01*
X221190476Y-47712780D02*
X221047619Y-47760400D01*
X221047619Y-47760400D02*
X221000000Y-47808019D01*
X221000000Y-47808019D02*
X221000000Y-48141352D01*
X221000000Y-48141352D02*
X221190476Y-48141352D01*
X219857142Y-47998495D02*
X219380952Y-47998495D01*
X219952380Y-47712780D02*
X219619047Y-48712780D01*
X219619047Y-48712780D02*
X219285714Y-47712780D01*
X218952380Y-47712780D02*
X218952380Y-48712780D01*
X218952380Y-48712780D02*
X218619047Y-47998495D01*
X218619047Y-47998495D02*
X218285714Y-48712780D01*
X218285714Y-48712780D02*
X218285714Y-47712780D01*
X217809523Y-47712780D02*
X217809523Y-48712780D01*
X217809523Y-48712780D02*
X217428571Y-48712780D01*
X217428571Y-48712780D02*
X217333333Y-48665161D01*
X217333333Y-48665161D02*
X217285714Y-48617542D01*
X217285714Y-48617542D02*
X217238095Y-48522304D01*
X217238095Y-48522304D02*
X217238095Y-48379447D01*
X217238095Y-48379447D02*
X217285714Y-48284209D01*
X217285714Y-48284209D02*
X217333333Y-48236590D01*
X217333333Y-48236590D02*
X217428571Y-48188971D01*
X217428571Y-48188971D02*
X217809523Y-48188971D01*
X216333333Y-47712780D02*
X216809523Y-47712780D01*
X216809523Y-47712780D02*
X216809523Y-48712780D01*
X215999999Y-47712780D02*
X215999999Y-48712780D01*
X205797619Y-47808019D02*
X205845238Y-47760400D01*
X205845238Y-47760400D02*
X205988095Y-47712780D01*
X205988095Y-47712780D02*
X206083333Y-47712780D01*
X206083333Y-47712780D02*
X206226190Y-47760400D01*
X206226190Y-47760400D02*
X206321428Y-47855638D01*
X206321428Y-47855638D02*
X206369047Y-47950876D01*
X206369047Y-47950876D02*
X206416666Y-48141352D01*
X206416666Y-48141352D02*
X206416666Y-48284209D01*
X206416666Y-48284209D02*
X206369047Y-48474685D01*
X206369047Y-48474685D02*
X206321428Y-48569923D01*
X206321428Y-48569923D02*
X206226190Y-48665161D01*
X206226190Y-48665161D02*
X206083333Y-48712780D01*
X206083333Y-48712780D02*
X205988095Y-48712780D01*
X205988095Y-48712780D02*
X205845238Y-48665161D01*
X205845238Y-48665161D02*
X205797619Y-48617542D01*
X205178571Y-48712780D02*
X204988095Y-48712780D01*
X204988095Y-48712780D02*
X204892857Y-48665161D01*
X204892857Y-48665161D02*
X204797619Y-48569923D01*
X204797619Y-48569923D02*
X204750000Y-48379447D01*
X204750000Y-48379447D02*
X204750000Y-48046114D01*
X204750000Y-48046114D02*
X204797619Y-47855638D01*
X204797619Y-47855638D02*
X204892857Y-47760400D01*
X204892857Y-47760400D02*
X204988095Y-47712780D01*
X204988095Y-47712780D02*
X205178571Y-47712780D01*
X205178571Y-47712780D02*
X205273809Y-47760400D01*
X205273809Y-47760400D02*
X205369047Y-47855638D01*
X205369047Y-47855638D02*
X205416666Y-48046114D01*
X205416666Y-48046114D02*
X205416666Y-48379447D01*
X205416666Y-48379447D02*
X205369047Y-48569923D01*
X205369047Y-48569923D02*
X205273809Y-48665161D01*
X205273809Y-48665161D02*
X205178571Y-48712780D01*
X204321428Y-47712780D02*
X204321428Y-48712780D01*
X204321428Y-48712780D02*
X203988095Y-47998495D01*
X203988095Y-47998495D02*
X203654762Y-48712780D01*
X203654762Y-48712780D02*
X203654762Y-47712780D01*
X203178571Y-47712780D02*
X203178571Y-48712780D01*
X203178571Y-48712780D02*
X202797619Y-48712780D01*
X202797619Y-48712780D02*
X202702381Y-48665161D01*
X202702381Y-48665161D02*
X202654762Y-48617542D01*
X202654762Y-48617542D02*
X202607143Y-48522304D01*
X202607143Y-48522304D02*
X202607143Y-48379447D01*
X202607143Y-48379447D02*
X202654762Y-48284209D01*
X202654762Y-48284209D02*
X202702381Y-48236590D01*
X202702381Y-48236590D02*
X202797619Y-48188971D01*
X202797619Y-48188971D02*
X203178571Y-48188971D01*
X202226190Y-47998495D02*
X201750000Y-47998495D01*
X202321428Y-47712780D02*
X201988095Y-48712780D01*
X201988095Y-48712780D02*
X201654762Y-47712780D01*
X200750000Y-47712780D02*
X201083333Y-48188971D01*
X201321428Y-47712780D02*
X201321428Y-48712780D01*
X201321428Y-48712780D02*
X200940476Y-48712780D01*
X200940476Y-48712780D02*
X200845238Y-48665161D01*
X200845238Y-48665161D02*
X200797619Y-48617542D01*
X200797619Y-48617542D02*
X200750000Y-48522304D01*
X200750000Y-48522304D02*
X200750000Y-48379447D01*
X200750000Y-48379447D02*
X200797619Y-48284209D01*
X200797619Y-48284209D02*
X200845238Y-48236590D01*
X200845238Y-48236590D02*
X200940476Y-48188971D01*
X200940476Y-48188971D02*
X201321428Y-48188971D01*
X200369047Y-47998495D02*
X199892857Y-47998495D01*
X200464285Y-47712780D02*
X200130952Y-48712780D01*
X200130952Y-48712780D02*
X199797619Y-47712780D01*
X199607142Y-48712780D02*
X199035714Y-48712780D01*
X199321428Y-47712780D02*
X199321428Y-48712780D01*
X198511904Y-48712780D02*
X198321428Y-48712780D01*
X198321428Y-48712780D02*
X198226190Y-48665161D01*
X198226190Y-48665161D02*
X198130952Y-48569923D01*
X198130952Y-48569923D02*
X198083333Y-48379447D01*
X198083333Y-48379447D02*
X198083333Y-48046114D01*
X198083333Y-48046114D02*
X198130952Y-47855638D01*
X198130952Y-47855638D02*
X198226190Y-47760400D01*
X198226190Y-47760400D02*
X198321428Y-47712780D01*
X198321428Y-47712780D02*
X198511904Y-47712780D01*
X198511904Y-47712780D02*
X198607142Y-47760400D01*
X198607142Y-47760400D02*
X198702380Y-47855638D01*
X198702380Y-47855638D02*
X198749999Y-48046114D01*
X198749999Y-48046114D02*
X198749999Y-48379447D01*
X198749999Y-48379447D02*
X198702380Y-48569923D01*
X198702380Y-48569923D02*
X198607142Y-48665161D01*
X198607142Y-48665161D02*
X198511904Y-48712780D01*
X197083333Y-47712780D02*
X197416666Y-48188971D01*
X197654761Y-47712780D02*
X197654761Y-48712780D01*
X197654761Y-48712780D02*
X197273809Y-48712780D01*
X197273809Y-48712780D02*
X197178571Y-48665161D01*
X197178571Y-48665161D02*
X197130952Y-48617542D01*
X197130952Y-48617542D02*
X197083333Y-48522304D01*
X197083333Y-48522304D02*
X197083333Y-48379447D01*
X197083333Y-48379447D02*
X197130952Y-48284209D01*
X197130952Y-48284209D02*
X197178571Y-48236590D01*
X197178571Y-48236590D02*
X197273809Y-48188971D01*
X197273809Y-48188971D02*
X197654761Y-48188971D01*
D13*
X190607142Y-66809580D02*
X190559523Y-66857200D01*
X190559523Y-66857200D02*
X190416666Y-66904819D01*
X190416666Y-66904819D02*
X190321428Y-66904819D01*
X190321428Y-66904819D02*
X190178571Y-66857200D01*
X190178571Y-66857200D02*
X190083333Y-66761961D01*
X190083333Y-66761961D02*
X190035714Y-66666723D01*
X190035714Y-66666723D02*
X189988095Y-66476247D01*
X189988095Y-66476247D02*
X189988095Y-66333390D01*
X189988095Y-66333390D02*
X190035714Y-66142914D01*
X190035714Y-66142914D02*
X190083333Y-66047676D01*
X190083333Y-66047676D02*
X190178571Y-65952438D01*
X190178571Y-65952438D02*
X190321428Y-65904819D01*
X190321428Y-65904819D02*
X190416666Y-65904819D01*
X190416666Y-65904819D02*
X190559523Y-65952438D01*
X190559523Y-65952438D02*
X190607142Y-66000057D01*
X191559523Y-66904819D02*
X190988095Y-66904819D01*
X191273809Y-66904819D02*
X191273809Y-65904819D01*
X191273809Y-65904819D02*
X191178571Y-66047676D01*
X191178571Y-66047676D02*
X191083333Y-66142914D01*
X191083333Y-66142914D02*
X190988095Y-66190533D01*
X192178571Y-65904819D02*
X192273809Y-65904819D01*
X192273809Y-65904819D02*
X192369047Y-65952438D01*
X192369047Y-65952438D02*
X192416666Y-66000057D01*
X192416666Y-66000057D02*
X192464285Y-66095295D01*
X192464285Y-66095295D02*
X192511904Y-66285771D01*
X192511904Y-66285771D02*
X192511904Y-66523866D01*
X192511904Y-66523866D02*
X192464285Y-66714342D01*
X192464285Y-66714342D02*
X192416666Y-66809580D01*
X192416666Y-66809580D02*
X192369047Y-66857200D01*
X192369047Y-66857200D02*
X192273809Y-66904819D01*
X192273809Y-66904819D02*
X192178571Y-66904819D01*
X192178571Y-66904819D02*
X192083333Y-66857200D01*
X192083333Y-66857200D02*
X192035714Y-66809580D01*
X192035714Y-66809580D02*
X191988095Y-66714342D01*
X191988095Y-66714342D02*
X191940476Y-66523866D01*
X191940476Y-66523866D02*
X191940476Y-66285771D01*
X191940476Y-66285771D02*
X191988095Y-66095295D01*
X191988095Y-66095295D02*
X192035714Y-66000057D01*
X192035714Y-66000057D02*
X192083333Y-65952438D01*
X192083333Y-65952438D02*
X192178571Y-65904819D01*
X218738095Y-101506819D02*
X219309523Y-101506819D01*
X219023809Y-102506819D02*
X219023809Y-101506819D01*
X219642857Y-102506819D02*
X219642857Y-101506819D01*
X219642857Y-101506819D02*
X220023809Y-101506819D01*
X220023809Y-101506819D02*
X220119047Y-101554438D01*
X220119047Y-101554438D02*
X220166666Y-101602057D01*
X220166666Y-101602057D02*
X220214285Y-101697295D01*
X220214285Y-101697295D02*
X220214285Y-101840152D01*
X220214285Y-101840152D02*
X220166666Y-101935390D01*
X220166666Y-101935390D02*
X220119047Y-101983009D01*
X220119047Y-101983009D02*
X220023809Y-102030628D01*
X220023809Y-102030628D02*
X219642857Y-102030628D01*
X220595238Y-101602057D02*
X220642857Y-101554438D01*
X220642857Y-101554438D02*
X220738095Y-101506819D01*
X220738095Y-101506819D02*
X220976190Y-101506819D01*
X220976190Y-101506819D02*
X221071428Y-101554438D01*
X221071428Y-101554438D02*
X221119047Y-101602057D01*
X221119047Y-101602057D02*
X221166666Y-101697295D01*
X221166666Y-101697295D02*
X221166666Y-101792533D01*
X221166666Y-101792533D02*
X221119047Y-101935390D01*
X221119047Y-101935390D02*
X220547619Y-102506819D01*
X220547619Y-102506819D02*
X221166666Y-102506819D01*
X206833333Y-72454819D02*
X206500000Y-71978628D01*
X206261905Y-72454819D02*
X206261905Y-71454819D01*
X206261905Y-71454819D02*
X206642857Y-71454819D01*
X206642857Y-71454819D02*
X206738095Y-71502438D01*
X206738095Y-71502438D02*
X206785714Y-71550057D01*
X206785714Y-71550057D02*
X206833333Y-71645295D01*
X206833333Y-71645295D02*
X206833333Y-71788152D01*
X206833333Y-71788152D02*
X206785714Y-71883390D01*
X206785714Y-71883390D02*
X206738095Y-71931009D01*
X206738095Y-71931009D02*
X206642857Y-71978628D01*
X206642857Y-71978628D02*
X206261905Y-71978628D01*
X207738095Y-71454819D02*
X207261905Y-71454819D01*
X207261905Y-71454819D02*
X207214286Y-71931009D01*
X207214286Y-71931009D02*
X207261905Y-71883390D01*
X207261905Y-71883390D02*
X207357143Y-71835771D01*
X207357143Y-71835771D02*
X207595238Y-71835771D01*
X207595238Y-71835771D02*
X207690476Y-71883390D01*
X207690476Y-71883390D02*
X207738095Y-71931009D01*
X207738095Y-71931009D02*
X207785714Y-72026247D01*
X207785714Y-72026247D02*
X207785714Y-72264342D01*
X207785714Y-72264342D02*
X207738095Y-72359580D01*
X207738095Y-72359580D02*
X207690476Y-72407200D01*
X207690476Y-72407200D02*
X207595238Y-72454819D01*
X207595238Y-72454819D02*
X207357143Y-72454819D01*
X207357143Y-72454819D02*
X207261905Y-72407200D01*
X207261905Y-72407200D02*
X207214286Y-72359580D01*
X208261905Y-46954819D02*
X208833333Y-46954819D01*
X208547619Y-47954819D02*
X208547619Y-46954819D01*
X209166667Y-47954819D02*
X209166667Y-46954819D01*
X209166667Y-46954819D02*
X209547619Y-46954819D01*
X209547619Y-46954819D02*
X209642857Y-47002438D01*
X209642857Y-47002438D02*
X209690476Y-47050057D01*
X209690476Y-47050057D02*
X209738095Y-47145295D01*
X209738095Y-47145295D02*
X209738095Y-47288152D01*
X209738095Y-47288152D02*
X209690476Y-47383390D01*
X209690476Y-47383390D02*
X209642857Y-47431009D01*
X209642857Y-47431009D02*
X209547619Y-47478628D01*
X209547619Y-47478628D02*
X209166667Y-47478628D01*
X210690476Y-47954819D02*
X210119048Y-47954819D01*
X210404762Y-47954819D02*
X210404762Y-46954819D01*
X210404762Y-46954819D02*
X210309524Y-47097676D01*
X210309524Y-47097676D02*
X210214286Y-47192914D01*
X210214286Y-47192914D02*
X210119048Y-47240533D01*
X211547619Y-47288152D02*
X211547619Y-47954819D01*
X211309524Y-46907200D02*
X211071429Y-47621485D01*
X211071429Y-47621485D02*
X211690476Y-47621485D01*
X208738095Y-50954819D02*
X209309523Y-50954819D01*
X209023809Y-51954819D02*
X209023809Y-50954819D01*
X209642857Y-51954819D02*
X209642857Y-50954819D01*
X209642857Y-50954819D02*
X210023809Y-50954819D01*
X210023809Y-50954819D02*
X210119047Y-51002438D01*
X210119047Y-51002438D02*
X210166666Y-51050057D01*
X210166666Y-51050057D02*
X210214285Y-51145295D01*
X210214285Y-51145295D02*
X210214285Y-51288152D01*
X210214285Y-51288152D02*
X210166666Y-51383390D01*
X210166666Y-51383390D02*
X210119047Y-51431009D01*
X210119047Y-51431009D02*
X210023809Y-51478628D01*
X210023809Y-51478628D02*
X209642857Y-51478628D01*
X211071428Y-50954819D02*
X210880952Y-50954819D01*
X210880952Y-50954819D02*
X210785714Y-51002438D01*
X210785714Y-51002438D02*
X210738095Y-51050057D01*
X210738095Y-51050057D02*
X210642857Y-51192914D01*
X210642857Y-51192914D02*
X210595238Y-51383390D01*
X210595238Y-51383390D02*
X210595238Y-51764342D01*
X210595238Y-51764342D02*
X210642857Y-51859580D01*
X210642857Y-51859580D02*
X210690476Y-51907200D01*
X210690476Y-51907200D02*
X210785714Y-51954819D01*
X210785714Y-51954819D02*
X210976190Y-51954819D01*
X210976190Y-51954819D02*
X211071428Y-51907200D01*
X211071428Y-51907200D02*
X211119047Y-51859580D01*
X211119047Y-51859580D02*
X211166666Y-51764342D01*
X211166666Y-51764342D02*
X211166666Y-51526247D01*
X211166666Y-51526247D02*
X211119047Y-51431009D01*
X211119047Y-51431009D02*
X211071428Y-51383390D01*
X211071428Y-51383390D02*
X210976190Y-51335771D01*
X210976190Y-51335771D02*
X210785714Y-51335771D01*
X210785714Y-51335771D02*
X210690476Y-51383390D01*
X210690476Y-51383390D02*
X210642857Y-51431009D01*
X210642857Y-51431009D02*
X210595238Y-51526247D01*
X256107142Y-78359580D02*
X256059523Y-78407200D01*
X256059523Y-78407200D02*
X255916666Y-78454819D01*
X255916666Y-78454819D02*
X255821428Y-78454819D01*
X255821428Y-78454819D02*
X255678571Y-78407200D01*
X255678571Y-78407200D02*
X255583333Y-78311961D01*
X255583333Y-78311961D02*
X255535714Y-78216723D01*
X255535714Y-78216723D02*
X255488095Y-78026247D01*
X255488095Y-78026247D02*
X255488095Y-77883390D01*
X255488095Y-77883390D02*
X255535714Y-77692914D01*
X255535714Y-77692914D02*
X255583333Y-77597676D01*
X255583333Y-77597676D02*
X255678571Y-77502438D01*
X255678571Y-77502438D02*
X255821428Y-77454819D01*
X255821428Y-77454819D02*
X255916666Y-77454819D01*
X255916666Y-77454819D02*
X256059523Y-77502438D01*
X256059523Y-77502438D02*
X256107142Y-77550057D01*
X257059523Y-78454819D02*
X256488095Y-78454819D01*
X256773809Y-78454819D02*
X256773809Y-77454819D01*
X256773809Y-77454819D02*
X256678571Y-77597676D01*
X256678571Y-77597676D02*
X256583333Y-77692914D01*
X256583333Y-77692914D02*
X256488095Y-77740533D01*
X257440476Y-77550057D02*
X257488095Y-77502438D01*
X257488095Y-77502438D02*
X257583333Y-77454819D01*
X257583333Y-77454819D02*
X257821428Y-77454819D01*
X257821428Y-77454819D02*
X257916666Y-77502438D01*
X257916666Y-77502438D02*
X257964285Y-77550057D01*
X257964285Y-77550057D02*
X258011904Y-77645295D01*
X258011904Y-77645295D02*
X258011904Y-77740533D01*
X258011904Y-77740533D02*
X257964285Y-77883390D01*
X257964285Y-77883390D02*
X257392857Y-78454819D01*
X257392857Y-78454819D02*
X258011904Y-78454819D01*
X214954819Y-72142857D02*
X214478628Y-72476190D01*
X214954819Y-72714285D02*
X213954819Y-72714285D01*
X213954819Y-72714285D02*
X213954819Y-72333333D01*
X213954819Y-72333333D02*
X214002438Y-72238095D01*
X214002438Y-72238095D02*
X214050057Y-72190476D01*
X214050057Y-72190476D02*
X214145295Y-72142857D01*
X214145295Y-72142857D02*
X214288152Y-72142857D01*
X214288152Y-72142857D02*
X214383390Y-72190476D01*
X214383390Y-72190476D02*
X214431009Y-72238095D01*
X214431009Y-72238095D02*
X214478628Y-72333333D01*
X214478628Y-72333333D02*
X214478628Y-72714285D01*
X214954819Y-71190476D02*
X214954819Y-71761904D01*
X214954819Y-71476190D02*
X213954819Y-71476190D01*
X213954819Y-71476190D02*
X214097676Y-71571428D01*
X214097676Y-71571428D02*
X214192914Y-71666666D01*
X214192914Y-71666666D02*
X214240533Y-71761904D01*
X213954819Y-70571428D02*
X213954819Y-70476190D01*
X213954819Y-70476190D02*
X214002438Y-70380952D01*
X214002438Y-70380952D02*
X214050057Y-70333333D01*
X214050057Y-70333333D02*
X214145295Y-70285714D01*
X214145295Y-70285714D02*
X214335771Y-70238095D01*
X214335771Y-70238095D02*
X214573866Y-70238095D01*
X214573866Y-70238095D02*
X214764342Y-70285714D01*
X214764342Y-70285714D02*
X214859580Y-70333333D01*
X214859580Y-70333333D02*
X214907200Y-70380952D01*
X214907200Y-70380952D02*
X214954819Y-70476190D01*
X214954819Y-70476190D02*
X214954819Y-70571428D01*
X214954819Y-70571428D02*
X214907200Y-70666666D01*
X214907200Y-70666666D02*
X214859580Y-70714285D01*
X214859580Y-70714285D02*
X214764342Y-70761904D01*
X214764342Y-70761904D02*
X214573866Y-70809523D01*
X214573866Y-70809523D02*
X214335771Y-70809523D01*
X214335771Y-70809523D02*
X214145295Y-70761904D01*
X214145295Y-70761904D02*
X214050057Y-70714285D01*
X214050057Y-70714285D02*
X214002438Y-70666666D01*
X214002438Y-70666666D02*
X213954819Y-70571428D01*
X260923987Y-101239197D02*
X260447797Y-101239197D01*
X260447797Y-101239197D02*
X260447797Y-100239197D01*
X261209702Y-101191578D02*
X261352559Y-101239197D01*
X261352559Y-101239197D02*
X261590654Y-101239197D01*
X261590654Y-101239197D02*
X261685892Y-101191578D01*
X261685892Y-101191578D02*
X261733511Y-101143958D01*
X261733511Y-101143958D02*
X261781130Y-101048720D01*
X261781130Y-101048720D02*
X261781130Y-100953482D01*
X261781130Y-100953482D02*
X261733511Y-100858244D01*
X261733511Y-100858244D02*
X261685892Y-100810625D01*
X261685892Y-100810625D02*
X261590654Y-100763006D01*
X261590654Y-100763006D02*
X261400178Y-100715387D01*
X261400178Y-100715387D02*
X261304940Y-100667768D01*
X261304940Y-100667768D02*
X261257321Y-100620149D01*
X261257321Y-100620149D02*
X261209702Y-100524911D01*
X261209702Y-100524911D02*
X261209702Y-100429673D01*
X261209702Y-100429673D02*
X261257321Y-100334435D01*
X261257321Y-100334435D02*
X261304940Y-100286816D01*
X261304940Y-100286816D02*
X261400178Y-100239197D01*
X261400178Y-100239197D02*
X261638273Y-100239197D01*
X261638273Y-100239197D02*
X261781130Y-100286816D01*
X262162083Y-100334435D02*
X262209702Y-100286816D01*
X262209702Y-100286816D02*
X262304940Y-100239197D01*
X262304940Y-100239197D02*
X262543035Y-100239197D01*
X262543035Y-100239197D02*
X262638273Y-100286816D01*
X262638273Y-100286816D02*
X262685892Y-100334435D01*
X262685892Y-100334435D02*
X262733511Y-100429673D01*
X262733511Y-100429673D02*
X262733511Y-100524911D01*
X262733511Y-100524911D02*
X262685892Y-100667768D01*
X262685892Y-100667768D02*
X262114464Y-101239197D01*
X262114464Y-101239197D02*
X262733511Y-101239197D01*
X187761905Y-52954819D02*
X188333333Y-52954819D01*
X188047619Y-53954819D02*
X188047619Y-52954819D01*
X188666667Y-53954819D02*
X188666667Y-52954819D01*
X188666667Y-52954819D02*
X189047619Y-52954819D01*
X189047619Y-52954819D02*
X189142857Y-53002438D01*
X189142857Y-53002438D02*
X189190476Y-53050057D01*
X189190476Y-53050057D02*
X189238095Y-53145295D01*
X189238095Y-53145295D02*
X189238095Y-53288152D01*
X189238095Y-53288152D02*
X189190476Y-53383390D01*
X189190476Y-53383390D02*
X189142857Y-53431009D01*
X189142857Y-53431009D02*
X189047619Y-53478628D01*
X189047619Y-53478628D02*
X188666667Y-53478628D01*
X190190476Y-53954819D02*
X189619048Y-53954819D01*
X189904762Y-53954819D02*
X189904762Y-52954819D01*
X189904762Y-52954819D02*
X189809524Y-53097676D01*
X189809524Y-53097676D02*
X189714286Y-53192914D01*
X189714286Y-53192914D02*
X189619048Y-53240533D01*
X190809524Y-52954819D02*
X190904762Y-52954819D01*
X190904762Y-52954819D02*
X191000000Y-53002438D01*
X191000000Y-53002438D02*
X191047619Y-53050057D01*
X191047619Y-53050057D02*
X191095238Y-53145295D01*
X191095238Y-53145295D02*
X191142857Y-53335771D01*
X191142857Y-53335771D02*
X191142857Y-53573866D01*
X191142857Y-53573866D02*
X191095238Y-53764342D01*
X191095238Y-53764342D02*
X191047619Y-53859580D01*
X191047619Y-53859580D02*
X191000000Y-53907200D01*
X191000000Y-53907200D02*
X190904762Y-53954819D01*
X190904762Y-53954819D02*
X190809524Y-53954819D01*
X190809524Y-53954819D02*
X190714286Y-53907200D01*
X190714286Y-53907200D02*
X190666667Y-53859580D01*
X190666667Y-53859580D02*
X190619048Y-53764342D01*
X190619048Y-53764342D02*
X190571429Y-53573866D01*
X190571429Y-53573866D02*
X190571429Y-53335771D01*
X190571429Y-53335771D02*
X190619048Y-53145295D01*
X190619048Y-53145295D02*
X190666667Y-53050057D01*
X190666667Y-53050057D02*
X190714286Y-53002438D01*
X190714286Y-53002438D02*
X190809524Y-52954819D01*
X206833333Y-68954819D02*
X206500000Y-68478628D01*
X206261905Y-68954819D02*
X206261905Y-67954819D01*
X206261905Y-67954819D02*
X206642857Y-67954819D01*
X206642857Y-67954819D02*
X206738095Y-68002438D01*
X206738095Y-68002438D02*
X206785714Y-68050057D01*
X206785714Y-68050057D02*
X206833333Y-68145295D01*
X206833333Y-68145295D02*
X206833333Y-68288152D01*
X206833333Y-68288152D02*
X206785714Y-68383390D01*
X206785714Y-68383390D02*
X206738095Y-68431009D01*
X206738095Y-68431009D02*
X206642857Y-68478628D01*
X206642857Y-68478628D02*
X206261905Y-68478628D01*
X207404762Y-68383390D02*
X207309524Y-68335771D01*
X207309524Y-68335771D02*
X207261905Y-68288152D01*
X207261905Y-68288152D02*
X207214286Y-68192914D01*
X207214286Y-68192914D02*
X207214286Y-68145295D01*
X207214286Y-68145295D02*
X207261905Y-68050057D01*
X207261905Y-68050057D02*
X207309524Y-68002438D01*
X207309524Y-68002438D02*
X207404762Y-67954819D01*
X207404762Y-67954819D02*
X207595238Y-67954819D01*
X207595238Y-67954819D02*
X207690476Y-68002438D01*
X207690476Y-68002438D02*
X207738095Y-68050057D01*
X207738095Y-68050057D02*
X207785714Y-68145295D01*
X207785714Y-68145295D02*
X207785714Y-68192914D01*
X207785714Y-68192914D02*
X207738095Y-68288152D01*
X207738095Y-68288152D02*
X207690476Y-68335771D01*
X207690476Y-68335771D02*
X207595238Y-68383390D01*
X207595238Y-68383390D02*
X207404762Y-68383390D01*
X207404762Y-68383390D02*
X207309524Y-68431009D01*
X207309524Y-68431009D02*
X207261905Y-68478628D01*
X207261905Y-68478628D02*
X207214286Y-68573866D01*
X207214286Y-68573866D02*
X207214286Y-68764342D01*
X207214286Y-68764342D02*
X207261905Y-68859580D01*
X207261905Y-68859580D02*
X207309524Y-68907200D01*
X207309524Y-68907200D02*
X207404762Y-68954819D01*
X207404762Y-68954819D02*
X207595238Y-68954819D01*
X207595238Y-68954819D02*
X207690476Y-68907200D01*
X207690476Y-68907200D02*
X207738095Y-68859580D01*
X207738095Y-68859580D02*
X207785714Y-68764342D01*
X207785714Y-68764342D02*
X207785714Y-68573866D01*
X207785714Y-68573866D02*
X207738095Y-68478628D01*
X207738095Y-68478628D02*
X207690476Y-68431009D01*
X207690476Y-68431009D02*
X207595238Y-68383390D01*
X220619847Y-95275771D02*
X220667467Y-95323390D01*
X220667467Y-95323390D02*
X220715086Y-95466247D01*
X220715086Y-95466247D02*
X220715086Y-95561485D01*
X220715086Y-95561485D02*
X220667467Y-95704342D01*
X220667467Y-95704342D02*
X220572228Y-95799580D01*
X220572228Y-95799580D02*
X220476990Y-95847199D01*
X220476990Y-95847199D02*
X220286514Y-95894818D01*
X220286514Y-95894818D02*
X220143657Y-95894818D01*
X220143657Y-95894818D02*
X219953181Y-95847199D01*
X219953181Y-95847199D02*
X219857943Y-95799580D01*
X219857943Y-95799580D02*
X219762705Y-95704342D01*
X219762705Y-95704342D02*
X219715086Y-95561485D01*
X219715086Y-95561485D02*
X219715086Y-95466247D01*
X219715086Y-95466247D02*
X219762705Y-95323390D01*
X219762705Y-95323390D02*
X219810324Y-95275771D01*
X220715086Y-94323390D02*
X220715086Y-94894818D01*
X220715086Y-94609104D02*
X219715086Y-94609104D01*
X219715086Y-94609104D02*
X219857943Y-94704342D01*
X219857943Y-94704342D02*
X219953181Y-94799580D01*
X219953181Y-94799580D02*
X220000800Y-94894818D01*
X219715086Y-93466247D02*
X219715086Y-93656723D01*
X219715086Y-93656723D02*
X219762705Y-93751961D01*
X219762705Y-93751961D02*
X219810324Y-93799580D01*
X219810324Y-93799580D02*
X219953181Y-93894818D01*
X219953181Y-93894818D02*
X220143657Y-93942437D01*
X220143657Y-93942437D02*
X220524609Y-93942437D01*
X220524609Y-93942437D02*
X220619847Y-93894818D01*
X220619847Y-93894818D02*
X220667467Y-93847199D01*
X220667467Y-93847199D02*
X220715086Y-93751961D01*
X220715086Y-93751961D02*
X220715086Y-93561485D01*
X220715086Y-93561485D02*
X220667467Y-93466247D01*
X220667467Y-93466247D02*
X220619847Y-93418628D01*
X220619847Y-93418628D02*
X220524609Y-93371009D01*
X220524609Y-93371009D02*
X220286514Y-93371009D01*
X220286514Y-93371009D02*
X220191276Y-93418628D01*
X220191276Y-93418628D02*
X220143657Y-93466247D01*
X220143657Y-93466247D02*
X220096038Y-93561485D01*
X220096038Y-93561485D02*
X220096038Y-93751961D01*
X220096038Y-93751961D02*
X220143657Y-93847199D01*
X220143657Y-93847199D02*
X220191276Y-93894818D01*
X220191276Y-93894818D02*
X220286514Y-93942437D01*
X220612409Y-88588223D02*
X220660029Y-88635842D01*
X220660029Y-88635842D02*
X220707648Y-88778699D01*
X220707648Y-88778699D02*
X220707648Y-88873937D01*
X220707648Y-88873937D02*
X220660029Y-89016794D01*
X220660029Y-89016794D02*
X220564790Y-89112032D01*
X220564790Y-89112032D02*
X220469552Y-89159651D01*
X220469552Y-89159651D02*
X220279076Y-89207270D01*
X220279076Y-89207270D02*
X220136219Y-89207270D01*
X220136219Y-89207270D02*
X219945743Y-89159651D01*
X219945743Y-89159651D02*
X219850505Y-89112032D01*
X219850505Y-89112032D02*
X219755267Y-89016794D01*
X219755267Y-89016794D02*
X219707648Y-88873937D01*
X219707648Y-88873937D02*
X219707648Y-88778699D01*
X219707648Y-88778699D02*
X219755267Y-88635842D01*
X219755267Y-88635842D02*
X219802886Y-88588223D01*
X220707648Y-87635842D02*
X220707648Y-88207270D01*
X220707648Y-87921556D02*
X219707648Y-87921556D01*
X219707648Y-87921556D02*
X219850505Y-88016794D01*
X219850505Y-88016794D02*
X219945743Y-88112032D01*
X219945743Y-88112032D02*
X219993362Y-88207270D01*
X220707648Y-87159651D02*
X220707648Y-86969175D01*
X220707648Y-86969175D02*
X220660029Y-86873937D01*
X220660029Y-86873937D02*
X220612409Y-86826318D01*
X220612409Y-86826318D02*
X220469552Y-86731080D01*
X220469552Y-86731080D02*
X220279076Y-86683461D01*
X220279076Y-86683461D02*
X219898124Y-86683461D01*
X219898124Y-86683461D02*
X219802886Y-86731080D01*
X219802886Y-86731080D02*
X219755267Y-86778699D01*
X219755267Y-86778699D02*
X219707648Y-86873937D01*
X219707648Y-86873937D02*
X219707648Y-87064413D01*
X219707648Y-87064413D02*
X219755267Y-87159651D01*
X219755267Y-87159651D02*
X219802886Y-87207270D01*
X219802886Y-87207270D02*
X219898124Y-87254889D01*
X219898124Y-87254889D02*
X220136219Y-87254889D01*
X220136219Y-87254889D02*
X220231457Y-87207270D01*
X220231457Y-87207270D02*
X220279076Y-87159651D01*
X220279076Y-87159651D02*
X220326695Y-87064413D01*
X220326695Y-87064413D02*
X220326695Y-86873937D01*
X220326695Y-86873937D02*
X220279076Y-86778699D01*
X220279076Y-86778699D02*
X220231457Y-86731080D01*
X220231457Y-86731080D02*
X220136219Y-86683461D01*
X259529623Y-69168402D02*
X260101051Y-69168402D01*
X259815337Y-70168402D02*
X259815337Y-69168402D01*
X260434385Y-70168402D02*
X260434385Y-69168402D01*
X260434385Y-69168402D02*
X260815337Y-69168402D01*
X260815337Y-69168402D02*
X260910575Y-69216021D01*
X260910575Y-69216021D02*
X260958194Y-69263640D01*
X260958194Y-69263640D02*
X261005813Y-69358878D01*
X261005813Y-69358878D02*
X261005813Y-69501735D01*
X261005813Y-69501735D02*
X260958194Y-69596973D01*
X260958194Y-69596973D02*
X260910575Y-69644592D01*
X260910575Y-69644592D02*
X260815337Y-69692211D01*
X260815337Y-69692211D02*
X260434385Y-69692211D01*
X261958194Y-70168402D02*
X261386766Y-70168402D01*
X261672480Y-70168402D02*
X261672480Y-69168402D01*
X261672480Y-69168402D02*
X261577242Y-69311259D01*
X261577242Y-69311259D02*
X261482004Y-69406497D01*
X261482004Y-69406497D02*
X261386766Y-69454116D01*
X262862956Y-69168402D02*
X262386766Y-69168402D01*
X262386766Y-69168402D02*
X262339147Y-69644592D01*
X262339147Y-69644592D02*
X262386766Y-69596973D01*
X262386766Y-69596973D02*
X262482004Y-69549354D01*
X262482004Y-69549354D02*
X262720099Y-69549354D01*
X262720099Y-69549354D02*
X262815337Y-69596973D01*
X262815337Y-69596973D02*
X262862956Y-69644592D01*
X262862956Y-69644592D02*
X262910575Y-69739830D01*
X262910575Y-69739830D02*
X262910575Y-69977925D01*
X262910575Y-69977925D02*
X262862956Y-70073163D01*
X262862956Y-70073163D02*
X262815337Y-70120783D01*
X262815337Y-70120783D02*
X262720099Y-70168402D01*
X262720099Y-70168402D02*
X262482004Y-70168402D01*
X262482004Y-70168402D02*
X262386766Y-70120783D01*
X262386766Y-70120783D02*
X262339147Y-70073163D01*
X187238095Y-80454819D02*
X187809523Y-80454819D01*
X187523809Y-81454819D02*
X187523809Y-80454819D01*
X188142857Y-81454819D02*
X188142857Y-80454819D01*
X188142857Y-80454819D02*
X188523809Y-80454819D01*
X188523809Y-80454819D02*
X188619047Y-80502438D01*
X188619047Y-80502438D02*
X188666666Y-80550057D01*
X188666666Y-80550057D02*
X188714285Y-80645295D01*
X188714285Y-80645295D02*
X188714285Y-80788152D01*
X188714285Y-80788152D02*
X188666666Y-80883390D01*
X188666666Y-80883390D02*
X188619047Y-80931009D01*
X188619047Y-80931009D02*
X188523809Y-80978628D01*
X188523809Y-80978628D02*
X188142857Y-80978628D01*
X189285714Y-80883390D02*
X189190476Y-80835771D01*
X189190476Y-80835771D02*
X189142857Y-80788152D01*
X189142857Y-80788152D02*
X189095238Y-80692914D01*
X189095238Y-80692914D02*
X189095238Y-80645295D01*
X189095238Y-80645295D02*
X189142857Y-80550057D01*
X189142857Y-80550057D02*
X189190476Y-80502438D01*
X189190476Y-80502438D02*
X189285714Y-80454819D01*
X189285714Y-80454819D02*
X189476190Y-80454819D01*
X189476190Y-80454819D02*
X189571428Y-80502438D01*
X189571428Y-80502438D02*
X189619047Y-80550057D01*
X189619047Y-80550057D02*
X189666666Y-80645295D01*
X189666666Y-80645295D02*
X189666666Y-80692914D01*
X189666666Y-80692914D02*
X189619047Y-80788152D01*
X189619047Y-80788152D02*
X189571428Y-80835771D01*
X189571428Y-80835771D02*
X189476190Y-80883390D01*
X189476190Y-80883390D02*
X189285714Y-80883390D01*
X189285714Y-80883390D02*
X189190476Y-80931009D01*
X189190476Y-80931009D02*
X189142857Y-80978628D01*
X189142857Y-80978628D02*
X189095238Y-81073866D01*
X189095238Y-81073866D02*
X189095238Y-81264342D01*
X189095238Y-81264342D02*
X189142857Y-81359580D01*
X189142857Y-81359580D02*
X189190476Y-81407200D01*
X189190476Y-81407200D02*
X189285714Y-81454819D01*
X189285714Y-81454819D02*
X189476190Y-81454819D01*
X189476190Y-81454819D02*
X189571428Y-81407200D01*
X189571428Y-81407200D02*
X189619047Y-81359580D01*
X189619047Y-81359580D02*
X189666666Y-81264342D01*
X189666666Y-81264342D02*
X189666666Y-81073866D01*
X189666666Y-81073866D02*
X189619047Y-80978628D01*
X189619047Y-80978628D02*
X189571428Y-80931009D01*
X189571428Y-80931009D02*
X189476190Y-80883390D01*
X208359580Y-99206666D02*
X208407200Y-99254285D01*
X208407200Y-99254285D02*
X208454819Y-99397142D01*
X208454819Y-99397142D02*
X208454819Y-99492380D01*
X208454819Y-99492380D02*
X208407200Y-99635237D01*
X208407200Y-99635237D02*
X208311961Y-99730475D01*
X208311961Y-99730475D02*
X208216723Y-99778094D01*
X208216723Y-99778094D02*
X208026247Y-99825713D01*
X208026247Y-99825713D02*
X207883390Y-99825713D01*
X207883390Y-99825713D02*
X207692914Y-99778094D01*
X207692914Y-99778094D02*
X207597676Y-99730475D01*
X207597676Y-99730475D02*
X207502438Y-99635237D01*
X207502438Y-99635237D02*
X207454819Y-99492380D01*
X207454819Y-99492380D02*
X207454819Y-99397142D01*
X207454819Y-99397142D02*
X207502438Y-99254285D01*
X207502438Y-99254285D02*
X207550057Y-99206666D01*
X207454819Y-98873332D02*
X207454819Y-98254285D01*
X207454819Y-98254285D02*
X207835771Y-98587618D01*
X207835771Y-98587618D02*
X207835771Y-98444761D01*
X207835771Y-98444761D02*
X207883390Y-98349523D01*
X207883390Y-98349523D02*
X207931009Y-98301904D01*
X207931009Y-98301904D02*
X208026247Y-98254285D01*
X208026247Y-98254285D02*
X208264342Y-98254285D01*
X208264342Y-98254285D02*
X208359580Y-98301904D01*
X208359580Y-98301904D02*
X208407200Y-98349523D01*
X208407200Y-98349523D02*
X208454819Y-98444761D01*
X208454819Y-98444761D02*
X208454819Y-98730475D01*
X208454819Y-98730475D02*
X208407200Y-98825713D01*
X208407200Y-98825713D02*
X208359580Y-98873332D01*
X260897630Y-91624319D02*
X260421440Y-91624319D01*
X260421440Y-91624319D02*
X260421440Y-90624319D01*
X261183345Y-91576700D02*
X261326202Y-91624319D01*
X261326202Y-91624319D02*
X261564297Y-91624319D01*
X261564297Y-91624319D02*
X261659535Y-91576700D01*
X261659535Y-91576700D02*
X261707154Y-91529080D01*
X261707154Y-91529080D02*
X261754773Y-91433842D01*
X261754773Y-91433842D02*
X261754773Y-91338604D01*
X261754773Y-91338604D02*
X261707154Y-91243366D01*
X261707154Y-91243366D02*
X261659535Y-91195747D01*
X261659535Y-91195747D02*
X261564297Y-91148128D01*
X261564297Y-91148128D02*
X261373821Y-91100509D01*
X261373821Y-91100509D02*
X261278583Y-91052890D01*
X261278583Y-91052890D02*
X261230964Y-91005271D01*
X261230964Y-91005271D02*
X261183345Y-90910033D01*
X261183345Y-90910033D02*
X261183345Y-90814795D01*
X261183345Y-90814795D02*
X261230964Y-90719557D01*
X261230964Y-90719557D02*
X261278583Y-90671938D01*
X261278583Y-90671938D02*
X261373821Y-90624319D01*
X261373821Y-90624319D02*
X261611916Y-90624319D01*
X261611916Y-90624319D02*
X261754773Y-90671938D01*
X262707154Y-91624319D02*
X262135726Y-91624319D01*
X262421440Y-91624319D02*
X262421440Y-90624319D01*
X262421440Y-90624319D02*
X262326202Y-90767176D01*
X262326202Y-90767176D02*
X262230964Y-90862414D01*
X262230964Y-90862414D02*
X262135726Y-90910033D01*
X260738095Y-107254819D02*
X260738095Y-106254819D01*
X260738095Y-106731009D02*
X261309523Y-106731009D01*
X261309523Y-107254819D02*
X261309523Y-106254819D01*
X261738095Y-106350057D02*
X261785714Y-106302438D01*
X261785714Y-106302438D02*
X261880952Y-106254819D01*
X261880952Y-106254819D02*
X262119047Y-106254819D01*
X262119047Y-106254819D02*
X262214285Y-106302438D01*
X262214285Y-106302438D02*
X262261904Y-106350057D01*
X262261904Y-106350057D02*
X262309523Y-106445295D01*
X262309523Y-106445295D02*
X262309523Y-106540533D01*
X262309523Y-106540533D02*
X262261904Y-106683390D01*
X262261904Y-106683390D02*
X261690476Y-107254819D01*
X261690476Y-107254819D02*
X262309523Y-107254819D01*
X259529623Y-78170402D02*
X260101051Y-78170402D01*
X259815337Y-79170402D02*
X259815337Y-78170402D01*
X260434385Y-79170402D02*
X260434385Y-78170402D01*
X260434385Y-78170402D02*
X260815337Y-78170402D01*
X260815337Y-78170402D02*
X260910575Y-78218021D01*
X260910575Y-78218021D02*
X260958194Y-78265640D01*
X260958194Y-78265640D02*
X261005813Y-78360878D01*
X261005813Y-78360878D02*
X261005813Y-78503735D01*
X261005813Y-78503735D02*
X260958194Y-78598973D01*
X260958194Y-78598973D02*
X260910575Y-78646592D01*
X260910575Y-78646592D02*
X260815337Y-78694211D01*
X260815337Y-78694211D02*
X260434385Y-78694211D01*
X261958194Y-79170402D02*
X261386766Y-79170402D01*
X261672480Y-79170402D02*
X261672480Y-78170402D01*
X261672480Y-78170402D02*
X261577242Y-78313259D01*
X261577242Y-78313259D02*
X261482004Y-78408497D01*
X261482004Y-78408497D02*
X261386766Y-78456116D01*
X262291528Y-78170402D02*
X262958194Y-78170402D01*
X262958194Y-78170402D02*
X262529623Y-79170402D01*
X233738095Y-102006819D02*
X234309523Y-102006819D01*
X234023809Y-103006819D02*
X234023809Y-102006819D01*
X234642857Y-103006819D02*
X234642857Y-102006819D01*
X234642857Y-102006819D02*
X235023809Y-102006819D01*
X235023809Y-102006819D02*
X235119047Y-102054438D01*
X235119047Y-102054438D02*
X235166666Y-102102057D01*
X235166666Y-102102057D02*
X235214285Y-102197295D01*
X235214285Y-102197295D02*
X235214285Y-102340152D01*
X235214285Y-102340152D02*
X235166666Y-102435390D01*
X235166666Y-102435390D02*
X235119047Y-102483009D01*
X235119047Y-102483009D02*
X235023809Y-102530628D01*
X235023809Y-102530628D02*
X234642857Y-102530628D01*
X235547619Y-102006819D02*
X236166666Y-102006819D01*
X236166666Y-102006819D02*
X235833333Y-102387771D01*
X235833333Y-102387771D02*
X235976190Y-102387771D01*
X235976190Y-102387771D02*
X236071428Y-102435390D01*
X236071428Y-102435390D02*
X236119047Y-102483009D01*
X236119047Y-102483009D02*
X236166666Y-102578247D01*
X236166666Y-102578247D02*
X236166666Y-102816342D01*
X236166666Y-102816342D02*
X236119047Y-102911580D01*
X236119047Y-102911580D02*
X236071428Y-102959200D01*
X236071428Y-102959200D02*
X235976190Y-103006819D01*
X235976190Y-103006819D02*
X235690476Y-103006819D01*
X235690476Y-103006819D02*
X235595238Y-102959200D01*
X235595238Y-102959200D02*
X235547619Y-102911580D01*
X258293333Y-87954819D02*
X257960000Y-87478628D01*
X257721905Y-87954819D02*
X257721905Y-86954819D01*
X257721905Y-86954819D02*
X258102857Y-86954819D01*
X258102857Y-86954819D02*
X258198095Y-87002438D01*
X258198095Y-87002438D02*
X258245714Y-87050057D01*
X258245714Y-87050057D02*
X258293333Y-87145295D01*
X258293333Y-87145295D02*
X258293333Y-87288152D01*
X258293333Y-87288152D02*
X258245714Y-87383390D01*
X258245714Y-87383390D02*
X258198095Y-87431009D01*
X258198095Y-87431009D02*
X258102857Y-87478628D01*
X258102857Y-87478628D02*
X257721905Y-87478628D01*
X258626667Y-86954819D02*
X259245714Y-86954819D01*
X259245714Y-86954819D02*
X258912381Y-87335771D01*
X258912381Y-87335771D02*
X259055238Y-87335771D01*
X259055238Y-87335771D02*
X259150476Y-87383390D01*
X259150476Y-87383390D02*
X259198095Y-87431009D01*
X259198095Y-87431009D02*
X259245714Y-87526247D01*
X259245714Y-87526247D02*
X259245714Y-87764342D01*
X259245714Y-87764342D02*
X259198095Y-87859580D01*
X259198095Y-87859580D02*
X259150476Y-87907200D01*
X259150476Y-87907200D02*
X259055238Y-87954819D01*
X259055238Y-87954819D02*
X258769524Y-87954819D01*
X258769524Y-87954819D02*
X258674286Y-87907200D01*
X258674286Y-87907200D02*
X258626667Y-87859580D01*
X190981633Y-72232580D02*
X190934014Y-72280200D01*
X190934014Y-72280200D02*
X190791157Y-72327819D01*
X190791157Y-72327819D02*
X190695919Y-72327819D01*
X190695919Y-72327819D02*
X190553062Y-72280200D01*
X190553062Y-72280200D02*
X190457824Y-72184961D01*
X190457824Y-72184961D02*
X190410205Y-72089723D01*
X190410205Y-72089723D02*
X190362586Y-71899247D01*
X190362586Y-71899247D02*
X190362586Y-71756390D01*
X190362586Y-71756390D02*
X190410205Y-71565914D01*
X190410205Y-71565914D02*
X190457824Y-71470676D01*
X190457824Y-71470676D02*
X190553062Y-71375438D01*
X190553062Y-71375438D02*
X190695919Y-71327819D01*
X190695919Y-71327819D02*
X190791157Y-71327819D01*
X190791157Y-71327819D02*
X190934014Y-71375438D01*
X190934014Y-71375438D02*
X190981633Y-71423057D01*
X191362586Y-71423057D02*
X191410205Y-71375438D01*
X191410205Y-71375438D02*
X191505443Y-71327819D01*
X191505443Y-71327819D02*
X191743538Y-71327819D01*
X191743538Y-71327819D02*
X191838776Y-71375438D01*
X191838776Y-71375438D02*
X191886395Y-71423057D01*
X191886395Y-71423057D02*
X191934014Y-71518295D01*
X191934014Y-71518295D02*
X191934014Y-71613533D01*
X191934014Y-71613533D02*
X191886395Y-71756390D01*
X191886395Y-71756390D02*
X191314967Y-72327819D01*
X191314967Y-72327819D02*
X191934014Y-72327819D01*
X236059819Y-52142857D02*
X236059819Y-52619047D01*
X236059819Y-52619047D02*
X235059819Y-52619047D01*
X236012200Y-51857142D02*
X236059819Y-51714285D01*
X236059819Y-51714285D02*
X236059819Y-51476190D01*
X236059819Y-51476190D02*
X236012200Y-51380952D01*
X236012200Y-51380952D02*
X235964580Y-51333333D01*
X235964580Y-51333333D02*
X235869342Y-51285714D01*
X235869342Y-51285714D02*
X235774104Y-51285714D01*
X235774104Y-51285714D02*
X235678866Y-51333333D01*
X235678866Y-51333333D02*
X235631247Y-51380952D01*
X235631247Y-51380952D02*
X235583628Y-51476190D01*
X235583628Y-51476190D02*
X235536009Y-51666666D01*
X235536009Y-51666666D02*
X235488390Y-51761904D01*
X235488390Y-51761904D02*
X235440771Y-51809523D01*
X235440771Y-51809523D02*
X235345533Y-51857142D01*
X235345533Y-51857142D02*
X235250295Y-51857142D01*
X235250295Y-51857142D02*
X235155057Y-51809523D01*
X235155057Y-51809523D02*
X235107438Y-51761904D01*
X235107438Y-51761904D02*
X235059819Y-51666666D01*
X235059819Y-51666666D02*
X235059819Y-51428571D01*
X235059819Y-51428571D02*
X235107438Y-51285714D01*
X235059819Y-50952380D02*
X235059819Y-50333333D01*
X235059819Y-50333333D02*
X235440771Y-50666666D01*
X235440771Y-50666666D02*
X235440771Y-50523809D01*
X235440771Y-50523809D02*
X235488390Y-50428571D01*
X235488390Y-50428571D02*
X235536009Y-50380952D01*
X235536009Y-50380952D02*
X235631247Y-50333333D01*
X235631247Y-50333333D02*
X235869342Y-50333333D01*
X235869342Y-50333333D02*
X235964580Y-50380952D01*
X235964580Y-50380952D02*
X236012200Y-50428571D01*
X236012200Y-50428571D02*
X236059819Y-50523809D01*
X236059819Y-50523809D02*
X236059819Y-50809523D01*
X236059819Y-50809523D02*
X236012200Y-50904761D01*
X236012200Y-50904761D02*
X235964580Y-50952380D01*
X225827646Y-85073367D02*
X225780027Y-85120987D01*
X225780027Y-85120987D02*
X225637170Y-85168606D01*
X225637170Y-85168606D02*
X225541932Y-85168606D01*
X225541932Y-85168606D02*
X225399075Y-85120987D01*
X225399075Y-85120987D02*
X225303837Y-85025748D01*
X225303837Y-85025748D02*
X225256218Y-84930510D01*
X225256218Y-84930510D02*
X225208599Y-84740034D01*
X225208599Y-84740034D02*
X225208599Y-84597177D01*
X225208599Y-84597177D02*
X225256218Y-84406701D01*
X225256218Y-84406701D02*
X225303837Y-84311463D01*
X225303837Y-84311463D02*
X225399075Y-84216225D01*
X225399075Y-84216225D02*
X225541932Y-84168606D01*
X225541932Y-84168606D02*
X225637170Y-84168606D01*
X225637170Y-84168606D02*
X225780027Y-84216225D01*
X225780027Y-84216225D02*
X225827646Y-84263844D01*
X226780027Y-85168606D02*
X226208599Y-85168606D01*
X226494313Y-85168606D02*
X226494313Y-84168606D01*
X226494313Y-84168606D02*
X226399075Y-84311463D01*
X226399075Y-84311463D02*
X226303837Y-84406701D01*
X226303837Y-84406701D02*
X226208599Y-84454320D01*
X227351456Y-84597177D02*
X227256218Y-84549558D01*
X227256218Y-84549558D02*
X227208599Y-84501939D01*
X227208599Y-84501939D02*
X227160980Y-84406701D01*
X227160980Y-84406701D02*
X227160980Y-84359082D01*
X227160980Y-84359082D02*
X227208599Y-84263844D01*
X227208599Y-84263844D02*
X227256218Y-84216225D01*
X227256218Y-84216225D02*
X227351456Y-84168606D01*
X227351456Y-84168606D02*
X227541932Y-84168606D01*
X227541932Y-84168606D02*
X227637170Y-84216225D01*
X227637170Y-84216225D02*
X227684789Y-84263844D01*
X227684789Y-84263844D02*
X227732408Y-84359082D01*
X227732408Y-84359082D02*
X227732408Y-84406701D01*
X227732408Y-84406701D02*
X227684789Y-84501939D01*
X227684789Y-84501939D02*
X227637170Y-84549558D01*
X227637170Y-84549558D02*
X227541932Y-84597177D01*
X227541932Y-84597177D02*
X227351456Y-84597177D01*
X227351456Y-84597177D02*
X227256218Y-84644796D01*
X227256218Y-84644796D02*
X227208599Y-84692415D01*
X227208599Y-84692415D02*
X227160980Y-84787653D01*
X227160980Y-84787653D02*
X227160980Y-84978129D01*
X227160980Y-84978129D02*
X227208599Y-85073367D01*
X227208599Y-85073367D02*
X227256218Y-85120987D01*
X227256218Y-85120987D02*
X227351456Y-85168606D01*
X227351456Y-85168606D02*
X227541932Y-85168606D01*
X227541932Y-85168606D02*
X227637170Y-85120987D01*
X227637170Y-85120987D02*
X227684789Y-85073367D01*
X227684789Y-85073367D02*
X227732408Y-84978129D01*
X227732408Y-84978129D02*
X227732408Y-84787653D01*
X227732408Y-84787653D02*
X227684789Y-84692415D01*
X227684789Y-84692415D02*
X227637170Y-84644796D01*
X227637170Y-84644796D02*
X227541932Y-84597177D01*
X181357142Y-69584819D02*
X180880952Y-69584819D01*
X180880952Y-69584819D02*
X180880952Y-68584819D01*
X181642857Y-69537200D02*
X181785714Y-69584819D01*
X181785714Y-69584819D02*
X182023809Y-69584819D01*
X182023809Y-69584819D02*
X182119047Y-69537200D01*
X182119047Y-69537200D02*
X182166666Y-69489580D01*
X182166666Y-69489580D02*
X182214285Y-69394342D01*
X182214285Y-69394342D02*
X182214285Y-69299104D01*
X182214285Y-69299104D02*
X182166666Y-69203866D01*
X182166666Y-69203866D02*
X182119047Y-69156247D01*
X182119047Y-69156247D02*
X182023809Y-69108628D01*
X182023809Y-69108628D02*
X181833333Y-69061009D01*
X181833333Y-69061009D02*
X181738095Y-69013390D01*
X181738095Y-69013390D02*
X181690476Y-68965771D01*
X181690476Y-68965771D02*
X181642857Y-68870533D01*
X181642857Y-68870533D02*
X181642857Y-68775295D01*
X181642857Y-68775295D02*
X181690476Y-68680057D01*
X181690476Y-68680057D02*
X181738095Y-68632438D01*
X181738095Y-68632438D02*
X181833333Y-68584819D01*
X181833333Y-68584819D02*
X182071428Y-68584819D01*
X182071428Y-68584819D02*
X182214285Y-68632438D01*
X183071428Y-68918152D02*
X183071428Y-69584819D01*
X182833333Y-68537200D02*
X182595238Y-69251485D01*
X182595238Y-69251485D02*
X183214285Y-69251485D01*
X235859580Y-90182857D02*
X235907200Y-90230476D01*
X235907200Y-90230476D02*
X235954819Y-90373333D01*
X235954819Y-90373333D02*
X235954819Y-90468571D01*
X235954819Y-90468571D02*
X235907200Y-90611428D01*
X235907200Y-90611428D02*
X235811961Y-90706666D01*
X235811961Y-90706666D02*
X235716723Y-90754285D01*
X235716723Y-90754285D02*
X235526247Y-90801904D01*
X235526247Y-90801904D02*
X235383390Y-90801904D01*
X235383390Y-90801904D02*
X235192914Y-90754285D01*
X235192914Y-90754285D02*
X235097676Y-90706666D01*
X235097676Y-90706666D02*
X235002438Y-90611428D01*
X235002438Y-90611428D02*
X234954819Y-90468571D01*
X234954819Y-90468571D02*
X234954819Y-90373333D01*
X234954819Y-90373333D02*
X235002438Y-90230476D01*
X235002438Y-90230476D02*
X235050057Y-90182857D01*
X235954819Y-89230476D02*
X235954819Y-89801904D01*
X235954819Y-89516190D02*
X234954819Y-89516190D01*
X234954819Y-89516190D02*
X235097676Y-89611428D01*
X235097676Y-89611428D02*
X235192914Y-89706666D01*
X235192914Y-89706666D02*
X235240533Y-89801904D01*
X234954819Y-88325714D02*
X234954819Y-88801904D01*
X234954819Y-88801904D02*
X235431009Y-88849523D01*
X235431009Y-88849523D02*
X235383390Y-88801904D01*
X235383390Y-88801904D02*
X235335771Y-88706666D01*
X235335771Y-88706666D02*
X235335771Y-88468571D01*
X235335771Y-88468571D02*
X235383390Y-88373333D01*
X235383390Y-88373333D02*
X235431009Y-88325714D01*
X235431009Y-88325714D02*
X235526247Y-88278095D01*
X235526247Y-88278095D02*
X235764342Y-88278095D01*
X235764342Y-88278095D02*
X235859580Y-88325714D01*
X235859580Y-88325714D02*
X235907200Y-88373333D01*
X235907200Y-88373333D02*
X235954819Y-88468571D01*
X235954819Y-88468571D02*
X235954819Y-88706666D01*
X235954819Y-88706666D02*
X235907200Y-88801904D01*
X235907200Y-88801904D02*
X235859580Y-88849523D01*
X226817142Y-78454819D02*
X226483809Y-77978628D01*
X226245714Y-78454819D02*
X226245714Y-77454819D01*
X226245714Y-77454819D02*
X226626666Y-77454819D01*
X226626666Y-77454819D02*
X226721904Y-77502438D01*
X226721904Y-77502438D02*
X226769523Y-77550057D01*
X226769523Y-77550057D02*
X226817142Y-77645295D01*
X226817142Y-77645295D02*
X226817142Y-77788152D01*
X226817142Y-77788152D02*
X226769523Y-77883390D01*
X226769523Y-77883390D02*
X226721904Y-77931009D01*
X226721904Y-77931009D02*
X226626666Y-77978628D01*
X226626666Y-77978628D02*
X226245714Y-77978628D01*
X227769523Y-78454819D02*
X227198095Y-78454819D01*
X227483809Y-78454819D02*
X227483809Y-77454819D01*
X227483809Y-77454819D02*
X227388571Y-77597676D01*
X227388571Y-77597676D02*
X227293333Y-77692914D01*
X227293333Y-77692914D02*
X227198095Y-77740533D01*
X228150476Y-77550057D02*
X228198095Y-77502438D01*
X228198095Y-77502438D02*
X228293333Y-77454819D01*
X228293333Y-77454819D02*
X228531428Y-77454819D01*
X228531428Y-77454819D02*
X228626666Y-77502438D01*
X228626666Y-77502438D02*
X228674285Y-77550057D01*
X228674285Y-77550057D02*
X228721904Y-77645295D01*
X228721904Y-77645295D02*
X228721904Y-77740533D01*
X228721904Y-77740533D02*
X228674285Y-77883390D01*
X228674285Y-77883390D02*
X228102857Y-78454819D01*
X228102857Y-78454819D02*
X228721904Y-78454819D01*
X187761905Y-50454819D02*
X188333333Y-50454819D01*
X188047619Y-51454819D02*
X188047619Y-50454819D01*
X188666667Y-51454819D02*
X188666667Y-50454819D01*
X188666667Y-50454819D02*
X189047619Y-50454819D01*
X189047619Y-50454819D02*
X189142857Y-50502438D01*
X189142857Y-50502438D02*
X189190476Y-50550057D01*
X189190476Y-50550057D02*
X189238095Y-50645295D01*
X189238095Y-50645295D02*
X189238095Y-50788152D01*
X189238095Y-50788152D02*
X189190476Y-50883390D01*
X189190476Y-50883390D02*
X189142857Y-50931009D01*
X189142857Y-50931009D02*
X189047619Y-50978628D01*
X189047619Y-50978628D02*
X188666667Y-50978628D01*
X190190476Y-51454819D02*
X189619048Y-51454819D01*
X189904762Y-51454819D02*
X189904762Y-50454819D01*
X189904762Y-50454819D02*
X189809524Y-50597676D01*
X189809524Y-50597676D02*
X189714286Y-50692914D01*
X189714286Y-50692914D02*
X189619048Y-50740533D01*
X190523810Y-50454819D02*
X191142857Y-50454819D01*
X191142857Y-50454819D02*
X190809524Y-50835771D01*
X190809524Y-50835771D02*
X190952381Y-50835771D01*
X190952381Y-50835771D02*
X191047619Y-50883390D01*
X191047619Y-50883390D02*
X191095238Y-50931009D01*
X191095238Y-50931009D02*
X191142857Y-51026247D01*
X191142857Y-51026247D02*
X191142857Y-51264342D01*
X191142857Y-51264342D02*
X191095238Y-51359580D01*
X191095238Y-51359580D02*
X191047619Y-51407200D01*
X191047619Y-51407200D02*
X190952381Y-51454819D01*
X190952381Y-51454819D02*
X190666667Y-51454819D01*
X190666667Y-51454819D02*
X190571429Y-51407200D01*
X190571429Y-51407200D02*
X190523810Y-51359580D01*
X201857142Y-98954819D02*
X201523809Y-98478628D01*
X201285714Y-98954819D02*
X201285714Y-97954819D01*
X201285714Y-97954819D02*
X201666666Y-97954819D01*
X201666666Y-97954819D02*
X201761904Y-98002438D01*
X201761904Y-98002438D02*
X201809523Y-98050057D01*
X201809523Y-98050057D02*
X201857142Y-98145295D01*
X201857142Y-98145295D02*
X201857142Y-98288152D01*
X201857142Y-98288152D02*
X201809523Y-98383390D01*
X201809523Y-98383390D02*
X201761904Y-98431009D01*
X201761904Y-98431009D02*
X201666666Y-98478628D01*
X201666666Y-98478628D02*
X201285714Y-98478628D01*
X202809523Y-98954819D02*
X202238095Y-98954819D01*
X202523809Y-98954819D02*
X202523809Y-97954819D01*
X202523809Y-97954819D02*
X202428571Y-98097676D01*
X202428571Y-98097676D02*
X202333333Y-98192914D01*
X202333333Y-98192914D02*
X202238095Y-98240533D01*
X203666666Y-98288152D02*
X203666666Y-98954819D01*
X203428571Y-97907200D02*
X203190476Y-98621485D01*
X203190476Y-98621485D02*
X203809523Y-98621485D01*
X244166666Y-100824819D02*
X244166666Y-101539104D01*
X244166666Y-101539104D02*
X244119047Y-101681961D01*
X244119047Y-101681961D02*
X244023809Y-101777200D01*
X244023809Y-101777200D02*
X243880952Y-101824819D01*
X243880952Y-101824819D02*
X243785714Y-101824819D01*
X245166666Y-101824819D02*
X244595238Y-101824819D01*
X244880952Y-101824819D02*
X244880952Y-100824819D01*
X244880952Y-100824819D02*
X244785714Y-100967676D01*
X244785714Y-100967676D02*
X244690476Y-101062914D01*
X244690476Y-101062914D02*
X244595238Y-101110533D01*
X259506819Y-105261904D02*
X259506819Y-104690476D01*
X260506819Y-104976190D02*
X259506819Y-104976190D01*
X260506819Y-104357142D02*
X259506819Y-104357142D01*
X259506819Y-104357142D02*
X259506819Y-103976190D01*
X259506819Y-103976190D02*
X259554438Y-103880952D01*
X259554438Y-103880952D02*
X259602057Y-103833333D01*
X259602057Y-103833333D02*
X259697295Y-103785714D01*
X259697295Y-103785714D02*
X259840152Y-103785714D01*
X259840152Y-103785714D02*
X259935390Y-103833333D01*
X259935390Y-103833333D02*
X259983009Y-103880952D01*
X259983009Y-103880952D02*
X260030628Y-103976190D01*
X260030628Y-103976190D02*
X260030628Y-104357142D01*
X259840152Y-102928571D02*
X260506819Y-102928571D01*
X259459200Y-103166666D02*
X260173485Y-103404761D01*
X260173485Y-103404761D02*
X260173485Y-102785714D01*
X212954819Y-90261904D02*
X212954819Y-89690476D01*
X213954819Y-89976190D02*
X212954819Y-89976190D01*
X213954819Y-89357142D02*
X212954819Y-89357142D01*
X212954819Y-89357142D02*
X212954819Y-88976190D01*
X212954819Y-88976190D02*
X213002438Y-88880952D01*
X213002438Y-88880952D02*
X213050057Y-88833333D01*
X213050057Y-88833333D02*
X213145295Y-88785714D01*
X213145295Y-88785714D02*
X213288152Y-88785714D01*
X213288152Y-88785714D02*
X213383390Y-88833333D01*
X213383390Y-88833333D02*
X213431009Y-88880952D01*
X213431009Y-88880952D02*
X213478628Y-88976190D01*
X213478628Y-88976190D02*
X213478628Y-89357142D01*
X212954819Y-88452380D02*
X212954819Y-87785714D01*
X212954819Y-87785714D02*
X213954819Y-88214285D01*
X198954819Y-66666666D02*
X198478628Y-66999999D01*
X198954819Y-67238094D02*
X197954819Y-67238094D01*
X197954819Y-67238094D02*
X197954819Y-66857142D01*
X197954819Y-66857142D02*
X198002438Y-66761904D01*
X198002438Y-66761904D02*
X198050057Y-66714285D01*
X198050057Y-66714285D02*
X198145295Y-66666666D01*
X198145295Y-66666666D02*
X198288152Y-66666666D01*
X198288152Y-66666666D02*
X198383390Y-66714285D01*
X198383390Y-66714285D02*
X198431009Y-66761904D01*
X198431009Y-66761904D02*
X198478628Y-66857142D01*
X198478628Y-66857142D02*
X198478628Y-67238094D01*
X198288152Y-65809523D02*
X198954819Y-65809523D01*
X197907200Y-66047618D02*
X198621485Y-66285713D01*
X198621485Y-66285713D02*
X198621485Y-65666666D01*
X237666666Y-86084819D02*
X237666666Y-86799104D01*
X237666666Y-86799104D02*
X237619047Y-86941961D01*
X237619047Y-86941961D02*
X237523809Y-87037200D01*
X237523809Y-87037200D02*
X237380952Y-87084819D01*
X237380952Y-87084819D02*
X237285714Y-87084819D01*
X238571428Y-86418152D02*
X238571428Y-87084819D01*
X238333333Y-86037200D02*
X238095238Y-86751485D01*
X238095238Y-86751485D02*
X238714285Y-86751485D01*
X256043333Y-90859580D02*
X255995714Y-90907200D01*
X255995714Y-90907200D02*
X255852857Y-90954819D01*
X255852857Y-90954819D02*
X255757619Y-90954819D01*
X255757619Y-90954819D02*
X255614762Y-90907200D01*
X255614762Y-90907200D02*
X255519524Y-90811961D01*
X255519524Y-90811961D02*
X255471905Y-90716723D01*
X255471905Y-90716723D02*
X255424286Y-90526247D01*
X255424286Y-90526247D02*
X255424286Y-90383390D01*
X255424286Y-90383390D02*
X255471905Y-90192914D01*
X255471905Y-90192914D02*
X255519524Y-90097676D01*
X255519524Y-90097676D02*
X255614762Y-90002438D01*
X255614762Y-90002438D02*
X255757619Y-89954819D01*
X255757619Y-89954819D02*
X255852857Y-89954819D01*
X255852857Y-89954819D02*
X255995714Y-90002438D01*
X255995714Y-90002438D02*
X256043333Y-90050057D01*
X256900476Y-89954819D02*
X256710000Y-89954819D01*
X256710000Y-89954819D02*
X256614762Y-90002438D01*
X256614762Y-90002438D02*
X256567143Y-90050057D01*
X256567143Y-90050057D02*
X256471905Y-90192914D01*
X256471905Y-90192914D02*
X256424286Y-90383390D01*
X256424286Y-90383390D02*
X256424286Y-90764342D01*
X256424286Y-90764342D02*
X256471905Y-90859580D01*
X256471905Y-90859580D02*
X256519524Y-90907200D01*
X256519524Y-90907200D02*
X256614762Y-90954819D01*
X256614762Y-90954819D02*
X256805238Y-90954819D01*
X256805238Y-90954819D02*
X256900476Y-90907200D01*
X256900476Y-90907200D02*
X256948095Y-90859580D01*
X256948095Y-90859580D02*
X256995714Y-90764342D01*
X256995714Y-90764342D02*
X256995714Y-90526247D01*
X256995714Y-90526247D02*
X256948095Y-90431009D01*
X256948095Y-90431009D02*
X256900476Y-90383390D01*
X256900476Y-90383390D02*
X256805238Y-90335771D01*
X256805238Y-90335771D02*
X256614762Y-90335771D01*
X256614762Y-90335771D02*
X256519524Y-90383390D01*
X256519524Y-90383390D02*
X256471905Y-90431009D01*
X256471905Y-90431009D02*
X256424286Y-90526247D01*
X227847748Y-93126853D02*
X227038225Y-93126853D01*
X227038225Y-93126853D02*
X226942987Y-93174472D01*
X226942987Y-93174472D02*
X226895368Y-93222091D01*
X226895368Y-93222091D02*
X226847748Y-93317329D01*
X226847748Y-93317329D02*
X226847748Y-93507805D01*
X226847748Y-93507805D02*
X226895368Y-93603043D01*
X226895368Y-93603043D02*
X226942987Y-93650662D01*
X226942987Y-93650662D02*
X227038225Y-93698281D01*
X227038225Y-93698281D02*
X227847748Y-93698281D01*
X226847748Y-94698281D02*
X226847748Y-94126853D01*
X226847748Y-94412567D02*
X227847748Y-94412567D01*
X227847748Y-94412567D02*
X227704891Y-94317329D01*
X227704891Y-94317329D02*
X227609653Y-94222091D01*
X227609653Y-94222091D02*
X227562034Y-94126853D01*
X230530988Y-90662957D02*
X230769083Y-90662957D01*
X230673845Y-90901052D02*
X230769083Y-90662957D01*
X230769083Y-90662957D02*
X230673845Y-90424862D01*
X230959559Y-90805814D02*
X230769083Y-90662957D01*
X230769083Y-90662957D02*
X230959559Y-90520100D01*
X231621349Y-90662958D02*
X231383254Y-90662958D01*
X231478492Y-90424863D02*
X231383254Y-90662958D01*
X231383254Y-90662958D02*
X231478492Y-90901053D01*
X231192778Y-90520101D02*
X231383254Y-90662958D01*
X231383254Y-90662958D02*
X231192778Y-90805815D01*
X244166666Y-86084819D02*
X244166666Y-86799104D01*
X244166666Y-86799104D02*
X244119047Y-86941961D01*
X244119047Y-86941961D02*
X244023809Y-87037200D01*
X244023809Y-87037200D02*
X243880952Y-87084819D01*
X243880952Y-87084819D02*
X243785714Y-87084819D01*
X244595238Y-86180057D02*
X244642857Y-86132438D01*
X244642857Y-86132438D02*
X244738095Y-86084819D01*
X244738095Y-86084819D02*
X244976190Y-86084819D01*
X244976190Y-86084819D02*
X245071428Y-86132438D01*
X245071428Y-86132438D02*
X245119047Y-86180057D01*
X245119047Y-86180057D02*
X245166666Y-86275295D01*
X245166666Y-86275295D02*
X245166666Y-86370533D01*
X245166666Y-86370533D02*
X245119047Y-86513390D01*
X245119047Y-86513390D02*
X244547619Y-87084819D01*
X244547619Y-87084819D02*
X245166666Y-87084819D01*
X255006819Y-105261904D02*
X255006819Y-104690476D01*
X256006819Y-104976190D02*
X255006819Y-104976190D01*
X256006819Y-104357142D02*
X255006819Y-104357142D01*
X255006819Y-104357142D02*
X255006819Y-103976190D01*
X255006819Y-103976190D02*
X255054438Y-103880952D01*
X255054438Y-103880952D02*
X255102057Y-103833333D01*
X255102057Y-103833333D02*
X255197295Y-103785714D01*
X255197295Y-103785714D02*
X255340152Y-103785714D01*
X255340152Y-103785714D02*
X255435390Y-103833333D01*
X255435390Y-103833333D02*
X255483009Y-103880952D01*
X255483009Y-103880952D02*
X255530628Y-103976190D01*
X255530628Y-103976190D02*
X255530628Y-104357142D01*
X256006819Y-102833333D02*
X256006819Y-103404761D01*
X256006819Y-103119047D02*
X255006819Y-103119047D01*
X255006819Y-103119047D02*
X255149676Y-103214285D01*
X255149676Y-103214285D02*
X255244914Y-103309523D01*
X255244914Y-103309523D02*
X255292533Y-103404761D01*
X215954819Y-81761904D02*
X215954819Y-81190476D01*
X216954819Y-81476190D02*
X215954819Y-81476190D01*
X216954819Y-80857142D02*
X215954819Y-80857142D01*
X215954819Y-80857142D02*
X215954819Y-80476190D01*
X215954819Y-80476190D02*
X216002438Y-80380952D01*
X216002438Y-80380952D02*
X216050057Y-80333333D01*
X216050057Y-80333333D02*
X216145295Y-80285714D01*
X216145295Y-80285714D02*
X216288152Y-80285714D01*
X216288152Y-80285714D02*
X216383390Y-80333333D01*
X216383390Y-80333333D02*
X216431009Y-80380952D01*
X216431009Y-80380952D02*
X216478628Y-80476190D01*
X216478628Y-80476190D02*
X216478628Y-80857142D01*
X216954819Y-79809523D02*
X216954819Y-79619047D01*
X216954819Y-79619047D02*
X216907200Y-79523809D01*
X216907200Y-79523809D02*
X216859580Y-79476190D01*
X216859580Y-79476190D02*
X216716723Y-79380952D01*
X216716723Y-79380952D02*
X216526247Y-79333333D01*
X216526247Y-79333333D02*
X216145295Y-79333333D01*
X216145295Y-79333333D02*
X216050057Y-79380952D01*
X216050057Y-79380952D02*
X216002438Y-79428571D01*
X216002438Y-79428571D02*
X215954819Y-79523809D01*
X215954819Y-79523809D02*
X215954819Y-79714285D01*
X215954819Y-79714285D02*
X216002438Y-79809523D01*
X216002438Y-79809523D02*
X216050057Y-79857142D01*
X216050057Y-79857142D02*
X216145295Y-79904761D01*
X216145295Y-79904761D02*
X216383390Y-79904761D01*
X216383390Y-79904761D02*
X216478628Y-79857142D01*
X216478628Y-79857142D02*
X216526247Y-79809523D01*
X216526247Y-79809523D02*
X216573866Y-79714285D01*
X216573866Y-79714285D02*
X216573866Y-79523809D01*
X216573866Y-79523809D02*
X216526247Y-79428571D01*
X216526247Y-79428571D02*
X216478628Y-79380952D01*
X216478628Y-79380952D02*
X216383390Y-79333333D01*
X182738095Y-107254819D02*
X182738095Y-106254819D01*
X182738095Y-106731009D02*
X183309523Y-106731009D01*
X183309523Y-107254819D02*
X183309523Y-106254819D01*
X183690476Y-106254819D02*
X184309523Y-106254819D01*
X184309523Y-106254819D02*
X183976190Y-106635771D01*
X183976190Y-106635771D02*
X184119047Y-106635771D01*
X184119047Y-106635771D02*
X184214285Y-106683390D01*
X184214285Y-106683390D02*
X184261904Y-106731009D01*
X184261904Y-106731009D02*
X184309523Y-106826247D01*
X184309523Y-106826247D02*
X184309523Y-107064342D01*
X184309523Y-107064342D02*
X184261904Y-107159580D01*
X184261904Y-107159580D02*
X184214285Y-107207200D01*
X184214285Y-107207200D02*
X184119047Y-107254819D01*
X184119047Y-107254819D02*
X183833333Y-107254819D01*
X183833333Y-107254819D02*
X183738095Y-107207200D01*
X183738095Y-107207200D02*
X183690476Y-107159580D01*
X243452416Y-80045419D02*
X243500035Y-79997800D01*
X243500035Y-79997800D02*
X243642892Y-79950180D01*
X243642892Y-79950180D02*
X243738130Y-79950180D01*
X243738130Y-79950180D02*
X243880987Y-79997800D01*
X243880987Y-79997800D02*
X243976225Y-80093038D01*
X243976225Y-80093038D02*
X244023844Y-80188276D01*
X244023844Y-80188276D02*
X244071463Y-80378752D01*
X244071463Y-80378752D02*
X244071463Y-80521609D01*
X244071463Y-80521609D02*
X244023844Y-80712085D01*
X244023844Y-80712085D02*
X243976225Y-80807323D01*
X243976225Y-80807323D02*
X243880987Y-80902561D01*
X243880987Y-80902561D02*
X243738130Y-80950180D01*
X243738130Y-80950180D02*
X243642892Y-80950180D01*
X243642892Y-80950180D02*
X243500035Y-80902561D01*
X243500035Y-80902561D02*
X243452416Y-80854942D01*
X243119082Y-80950180D02*
X242452416Y-80950180D01*
X242452416Y-80950180D02*
X242880987Y-79950180D01*
X246365500Y-83466619D02*
X246365500Y-83704714D01*
X246127405Y-83609476D02*
X246365500Y-83704714D01*
X246365500Y-83704714D02*
X246603595Y-83609476D01*
X246222643Y-83895190D02*
X246365500Y-83704714D01*
X246365500Y-83704714D02*
X246508357Y-83895190D01*
X246365499Y-84556980D02*
X246365499Y-84318885D01*
X246603594Y-84414123D02*
X246365499Y-84318885D01*
X246365499Y-84318885D02*
X246127404Y-84414123D01*
X246508356Y-84128409D02*
X246365499Y-84318885D01*
X246365499Y-84318885D02*
X246222642Y-84128409D01*
X229454819Y-108642857D02*
X228978628Y-108976190D01*
X229454819Y-109214285D02*
X228454819Y-109214285D01*
X228454819Y-109214285D02*
X228454819Y-108833333D01*
X228454819Y-108833333D02*
X228502438Y-108738095D01*
X228502438Y-108738095D02*
X228550057Y-108690476D01*
X228550057Y-108690476D02*
X228645295Y-108642857D01*
X228645295Y-108642857D02*
X228788152Y-108642857D01*
X228788152Y-108642857D02*
X228883390Y-108690476D01*
X228883390Y-108690476D02*
X228931009Y-108738095D01*
X228931009Y-108738095D02*
X228978628Y-108833333D01*
X228978628Y-108833333D02*
X228978628Y-109214285D01*
X229454819Y-107690476D02*
X229454819Y-108261904D01*
X229454819Y-107976190D02*
X228454819Y-107976190D01*
X228454819Y-107976190D02*
X228597676Y-108071428D01*
X228597676Y-108071428D02*
X228692914Y-108166666D01*
X228692914Y-108166666D02*
X228740533Y-108261904D01*
X228454819Y-106833333D02*
X228454819Y-107023809D01*
X228454819Y-107023809D02*
X228502438Y-107119047D01*
X228502438Y-107119047D02*
X228550057Y-107166666D01*
X228550057Y-107166666D02*
X228692914Y-107261904D01*
X228692914Y-107261904D02*
X228883390Y-107309523D01*
X228883390Y-107309523D02*
X229264342Y-107309523D01*
X229264342Y-107309523D02*
X229359580Y-107261904D01*
X229359580Y-107261904D02*
X229407200Y-107214285D01*
X229407200Y-107214285D02*
X229454819Y-107119047D01*
X229454819Y-107119047D02*
X229454819Y-106928571D01*
X229454819Y-106928571D02*
X229407200Y-106833333D01*
X229407200Y-106833333D02*
X229359580Y-106785714D01*
X229359580Y-106785714D02*
X229264342Y-106738095D01*
X229264342Y-106738095D02*
X229026247Y-106738095D01*
X229026247Y-106738095D02*
X228931009Y-106785714D01*
X228931009Y-106785714D02*
X228883390Y-106833333D01*
X228883390Y-106833333D02*
X228835771Y-106928571D01*
X228835771Y-106928571D02*
X228835771Y-107119047D01*
X228835771Y-107119047D02*
X228883390Y-107214285D01*
X228883390Y-107214285D02*
X228931009Y-107261904D01*
X228931009Y-107261904D02*
X229026247Y-107309523D01*
X260738095Y-53454819D02*
X260738095Y-52454819D01*
X260738095Y-52931009D02*
X261309523Y-52931009D01*
X261309523Y-53454819D02*
X261309523Y-52454819D01*
X262309523Y-53454819D02*
X261738095Y-53454819D01*
X262023809Y-53454819D02*
X262023809Y-52454819D01*
X262023809Y-52454819D02*
X261928571Y-52597676D01*
X261928571Y-52597676D02*
X261833333Y-52692914D01*
X261833333Y-52692914D02*
X261738095Y-52740533D01*
X230333333Y-101809580D02*
X230285714Y-101857200D01*
X230285714Y-101857200D02*
X230142857Y-101904819D01*
X230142857Y-101904819D02*
X230047619Y-101904819D01*
X230047619Y-101904819D02*
X229904762Y-101857200D01*
X229904762Y-101857200D02*
X229809524Y-101761961D01*
X229809524Y-101761961D02*
X229761905Y-101666723D01*
X229761905Y-101666723D02*
X229714286Y-101476247D01*
X229714286Y-101476247D02*
X229714286Y-101333390D01*
X229714286Y-101333390D02*
X229761905Y-101142914D01*
X229761905Y-101142914D02*
X229809524Y-101047676D01*
X229809524Y-101047676D02*
X229904762Y-100952438D01*
X229904762Y-100952438D02*
X230047619Y-100904819D01*
X230047619Y-100904819D02*
X230142857Y-100904819D01*
X230142857Y-100904819D02*
X230285714Y-100952438D01*
X230285714Y-100952438D02*
X230333333Y-101000057D01*
X231285714Y-101904819D02*
X230714286Y-101904819D01*
X231000000Y-101904819D02*
X231000000Y-100904819D01*
X231000000Y-100904819D02*
X230904762Y-101047676D01*
X230904762Y-101047676D02*
X230809524Y-101142914D01*
X230809524Y-101142914D02*
X230714286Y-101190533D01*
X209604819Y-57595238D02*
X209128628Y-57928571D01*
X209604819Y-58166666D02*
X208604819Y-58166666D01*
X208604819Y-58166666D02*
X208604819Y-57785714D01*
X208604819Y-57785714D02*
X208652438Y-57690476D01*
X208652438Y-57690476D02*
X208700057Y-57642857D01*
X208700057Y-57642857D02*
X208795295Y-57595238D01*
X208795295Y-57595238D02*
X208938152Y-57595238D01*
X208938152Y-57595238D02*
X209033390Y-57642857D01*
X209033390Y-57642857D02*
X209081009Y-57690476D01*
X209081009Y-57690476D02*
X209128628Y-57785714D01*
X209128628Y-57785714D02*
X209128628Y-58166666D01*
X208604819Y-57309523D02*
X209604819Y-56976190D01*
X209604819Y-56976190D02*
X208604819Y-56642857D01*
X209604819Y-55785714D02*
X209604819Y-56357142D01*
X209604819Y-56071428D02*
X208604819Y-56071428D01*
X208604819Y-56071428D02*
X208747676Y-56166666D01*
X208747676Y-56166666D02*
X208842914Y-56261904D01*
X208842914Y-56261904D02*
X208890533Y-56357142D01*
X259159580Y-75762707D02*
X259159580Y-75191279D01*
X260159580Y-75476993D02*
X259159580Y-75476993D01*
X260159580Y-74857945D02*
X259159580Y-74857945D01*
X259159580Y-74857945D02*
X259159580Y-74476993D01*
X259159580Y-74476993D02*
X259207199Y-74381755D01*
X259207199Y-74381755D02*
X259254818Y-74334136D01*
X259254818Y-74334136D02*
X259350056Y-74286517D01*
X259350056Y-74286517D02*
X259492913Y-74286517D01*
X259492913Y-74286517D02*
X259588151Y-74334136D01*
X259588151Y-74334136D02*
X259635770Y-74381755D01*
X259635770Y-74381755D02*
X259683389Y-74476993D01*
X259683389Y-74476993D02*
X259683389Y-74857945D01*
X260159580Y-73334136D02*
X260159580Y-73905564D01*
X260159580Y-73619850D02*
X259159580Y-73619850D01*
X259159580Y-73619850D02*
X259302437Y-73715088D01*
X259302437Y-73715088D02*
X259397675Y-73810326D01*
X259397675Y-73810326D02*
X259445294Y-73905564D01*
X259159580Y-72476993D02*
X259159580Y-72667469D01*
X259159580Y-72667469D02*
X259207199Y-72762707D01*
X259207199Y-72762707D02*
X259254818Y-72810326D01*
X259254818Y-72810326D02*
X259397675Y-72905564D01*
X259397675Y-72905564D02*
X259588151Y-72953183D01*
X259588151Y-72953183D02*
X259969103Y-72953183D01*
X259969103Y-72953183D02*
X260064341Y-72905564D01*
X260064341Y-72905564D02*
X260111961Y-72857945D01*
X260111961Y-72857945D02*
X260159580Y-72762707D01*
X260159580Y-72762707D02*
X260159580Y-72572231D01*
X260159580Y-72572231D02*
X260111961Y-72476993D01*
X260111961Y-72476993D02*
X260064341Y-72429374D01*
X260064341Y-72429374D02*
X259969103Y-72381755D01*
X259969103Y-72381755D02*
X259731008Y-72381755D01*
X259731008Y-72381755D02*
X259635770Y-72429374D01*
X259635770Y-72429374D02*
X259588151Y-72476993D01*
X259588151Y-72476993D02*
X259540532Y-72572231D01*
X259540532Y-72572231D02*
X259540532Y-72762707D01*
X259540532Y-72762707D02*
X259588151Y-72857945D01*
X259588151Y-72857945D02*
X259635770Y-72905564D01*
X259635770Y-72905564D02*
X259731008Y-72953183D01*
X182738095Y-53954819D02*
X182738095Y-52954819D01*
X182738095Y-53431009D02*
X183309523Y-53431009D01*
X183309523Y-53954819D02*
X183309523Y-52954819D01*
X184214285Y-53288152D02*
X184214285Y-53954819D01*
X183976190Y-52907200D02*
X183738095Y-53621485D01*
X183738095Y-53621485D02*
X184357142Y-53621485D01*
X239938609Y-75461271D02*
X239605276Y-74985080D01*
X239367181Y-75461271D02*
X239367181Y-74461271D01*
X239367181Y-74461271D02*
X239748133Y-74461271D01*
X239748133Y-74461271D02*
X239843371Y-74508890D01*
X239843371Y-74508890D02*
X239890990Y-74556509D01*
X239890990Y-74556509D02*
X239938609Y-74651747D01*
X239938609Y-74651747D02*
X239938609Y-74794604D01*
X239938609Y-74794604D02*
X239890990Y-74889842D01*
X239890990Y-74889842D02*
X239843371Y-74937461D01*
X239843371Y-74937461D02*
X239748133Y-74985080D01*
X239748133Y-74985080D02*
X239367181Y-74985080D01*
X240890990Y-75461271D02*
X240319562Y-75461271D01*
X240605276Y-75461271D02*
X240605276Y-74461271D01*
X240605276Y-74461271D02*
X240510038Y-74604128D01*
X240510038Y-74604128D02*
X240414800Y-74699366D01*
X240414800Y-74699366D02*
X240319562Y-74746985D01*
X241224324Y-74461271D02*
X241843371Y-74461271D01*
X241843371Y-74461271D02*
X241510038Y-74842223D01*
X241510038Y-74842223D02*
X241652895Y-74842223D01*
X241652895Y-74842223D02*
X241748133Y-74889842D01*
X241748133Y-74889842D02*
X241795752Y-74937461D01*
X241795752Y-74937461D02*
X241843371Y-75032699D01*
X241843371Y-75032699D02*
X241843371Y-75270794D01*
X241843371Y-75270794D02*
X241795752Y-75366032D01*
X241795752Y-75366032D02*
X241748133Y-75413652D01*
X241748133Y-75413652D02*
X241652895Y-75461271D01*
X241652895Y-75461271D02*
X241367181Y-75461271D01*
X241367181Y-75461271D02*
X241271943Y-75413652D01*
X241271943Y-75413652D02*
X241224324Y-75366032D01*
X256357142Y-80859580D02*
X256309523Y-80907200D01*
X256309523Y-80907200D02*
X256166666Y-80954819D01*
X256166666Y-80954819D02*
X256071428Y-80954819D01*
X256071428Y-80954819D02*
X255928571Y-80907200D01*
X255928571Y-80907200D02*
X255833333Y-80811961D01*
X255833333Y-80811961D02*
X255785714Y-80716723D01*
X255785714Y-80716723D02*
X255738095Y-80526247D01*
X255738095Y-80526247D02*
X255738095Y-80383390D01*
X255738095Y-80383390D02*
X255785714Y-80192914D01*
X255785714Y-80192914D02*
X255833333Y-80097676D01*
X255833333Y-80097676D02*
X255928571Y-80002438D01*
X255928571Y-80002438D02*
X256071428Y-79954819D01*
X256071428Y-79954819D02*
X256166666Y-79954819D01*
X256166666Y-79954819D02*
X256309523Y-80002438D01*
X256309523Y-80002438D02*
X256357142Y-80050057D01*
X257309523Y-80954819D02*
X256738095Y-80954819D01*
X257023809Y-80954819D02*
X257023809Y-79954819D01*
X257023809Y-79954819D02*
X256928571Y-80097676D01*
X256928571Y-80097676D02*
X256833333Y-80192914D01*
X256833333Y-80192914D02*
X256738095Y-80240533D01*
X257642857Y-79954819D02*
X258261904Y-79954819D01*
X258261904Y-79954819D02*
X257928571Y-80335771D01*
X257928571Y-80335771D02*
X258071428Y-80335771D01*
X258071428Y-80335771D02*
X258166666Y-80383390D01*
X258166666Y-80383390D02*
X258214285Y-80431009D01*
X258214285Y-80431009D02*
X258261904Y-80526247D01*
X258261904Y-80526247D02*
X258261904Y-80764342D01*
X258261904Y-80764342D02*
X258214285Y-80859580D01*
X258214285Y-80859580D02*
X258166666Y-80907200D01*
X258166666Y-80907200D02*
X258071428Y-80954819D01*
X258071428Y-80954819D02*
X257785714Y-80954819D01*
X257785714Y-80954819D02*
X257690476Y-80907200D01*
X257690476Y-80907200D02*
X257642857Y-80859580D01*
X210954819Y-99166666D02*
X210478628Y-99499999D01*
X210954819Y-99738094D02*
X209954819Y-99738094D01*
X209954819Y-99738094D02*
X209954819Y-99357142D01*
X209954819Y-99357142D02*
X210002438Y-99261904D01*
X210002438Y-99261904D02*
X210050057Y-99214285D01*
X210050057Y-99214285D02*
X210145295Y-99166666D01*
X210145295Y-99166666D02*
X210288152Y-99166666D01*
X210288152Y-99166666D02*
X210383390Y-99214285D01*
X210383390Y-99214285D02*
X210431009Y-99261904D01*
X210431009Y-99261904D02*
X210478628Y-99357142D01*
X210478628Y-99357142D02*
X210478628Y-99738094D01*
X209954819Y-98833332D02*
X209954819Y-98166666D01*
X209954819Y-98166666D02*
X210954819Y-98595237D01*
X183348385Y-78692118D02*
X183015052Y-78215927D01*
X182776957Y-78692118D02*
X182776957Y-77692118D01*
X182776957Y-77692118D02*
X183157909Y-77692118D01*
X183157909Y-77692118D02*
X183253147Y-77739737D01*
X183253147Y-77739737D02*
X183300766Y-77787356D01*
X183300766Y-77787356D02*
X183348385Y-77882594D01*
X183348385Y-77882594D02*
X183348385Y-78025451D01*
X183348385Y-78025451D02*
X183300766Y-78120689D01*
X183300766Y-78120689D02*
X183253147Y-78168308D01*
X183253147Y-78168308D02*
X183157909Y-78215927D01*
X183157909Y-78215927D02*
X182776957Y-78215927D01*
X184205528Y-77692118D02*
X184015052Y-77692118D01*
X184015052Y-77692118D02*
X183919814Y-77739737D01*
X183919814Y-77739737D02*
X183872195Y-77787356D01*
X183872195Y-77787356D02*
X183776957Y-77930213D01*
X183776957Y-77930213D02*
X183729338Y-78120689D01*
X183729338Y-78120689D02*
X183729338Y-78501641D01*
X183729338Y-78501641D02*
X183776957Y-78596879D01*
X183776957Y-78596879D02*
X183824576Y-78644499D01*
X183824576Y-78644499D02*
X183919814Y-78692118D01*
X183919814Y-78692118D02*
X184110290Y-78692118D01*
X184110290Y-78692118D02*
X184205528Y-78644499D01*
X184205528Y-78644499D02*
X184253147Y-78596879D01*
X184253147Y-78596879D02*
X184300766Y-78501641D01*
X184300766Y-78501641D02*
X184300766Y-78263546D01*
X184300766Y-78263546D02*
X184253147Y-78168308D01*
X184253147Y-78168308D02*
X184205528Y-78120689D01*
X184205528Y-78120689D02*
X184110290Y-78073070D01*
X184110290Y-78073070D02*
X183919814Y-78073070D01*
X183919814Y-78073070D02*
X183824576Y-78120689D01*
X183824576Y-78120689D02*
X183776957Y-78168308D01*
X183776957Y-78168308D02*
X183729338Y-78263546D01*
X187275165Y-61750329D02*
X186798974Y-62083662D01*
X187275165Y-62321757D02*
X186275165Y-62321757D01*
X186275165Y-62321757D02*
X186275165Y-61940805D01*
X186275165Y-61940805D02*
X186322784Y-61845567D01*
X186322784Y-61845567D02*
X186370403Y-61797948D01*
X186370403Y-61797948D02*
X186465641Y-61750329D01*
X186465641Y-61750329D02*
X186608498Y-61750329D01*
X186608498Y-61750329D02*
X186703736Y-61797948D01*
X186703736Y-61797948D02*
X186751355Y-61845567D01*
X186751355Y-61845567D02*
X186798974Y-61940805D01*
X186798974Y-61940805D02*
X186798974Y-62321757D01*
X187275165Y-61274138D02*
X187275165Y-61083662D01*
X187275165Y-61083662D02*
X187227546Y-60988424D01*
X187227546Y-60988424D02*
X187179926Y-60940805D01*
X187179926Y-60940805D02*
X187037069Y-60845567D01*
X187037069Y-60845567D02*
X186846593Y-60797948D01*
X186846593Y-60797948D02*
X186465641Y-60797948D01*
X186465641Y-60797948D02*
X186370403Y-60845567D01*
X186370403Y-60845567D02*
X186322784Y-60893186D01*
X186322784Y-60893186D02*
X186275165Y-60988424D01*
X186275165Y-60988424D02*
X186275165Y-61178900D01*
X186275165Y-61178900D02*
X186322784Y-61274138D01*
X186322784Y-61274138D02*
X186370403Y-61321757D01*
X186370403Y-61321757D02*
X186465641Y-61369376D01*
X186465641Y-61369376D02*
X186703736Y-61369376D01*
X186703736Y-61369376D02*
X186798974Y-61321757D01*
X186798974Y-61321757D02*
X186846593Y-61274138D01*
X186846593Y-61274138D02*
X186894212Y-61178900D01*
X186894212Y-61178900D02*
X186894212Y-60988424D01*
X186894212Y-60988424D02*
X186846593Y-60893186D01*
X186846593Y-60893186D02*
X186798974Y-60845567D01*
X186798974Y-60845567D02*
X186703736Y-60797948D01*
X192384819Y-83411904D02*
X193194342Y-83411904D01*
X193194342Y-83411904D02*
X193289580Y-83364285D01*
X193289580Y-83364285D02*
X193337200Y-83316666D01*
X193337200Y-83316666D02*
X193384819Y-83221428D01*
X193384819Y-83221428D02*
X193384819Y-83030952D01*
X193384819Y-83030952D02*
X193337200Y-82935714D01*
X193337200Y-82935714D02*
X193289580Y-82888095D01*
X193289580Y-82888095D02*
X193194342Y-82840476D01*
X193194342Y-82840476D02*
X192384819Y-82840476D01*
X192480057Y-82411904D02*
X192432438Y-82364285D01*
X192432438Y-82364285D02*
X192384819Y-82269047D01*
X192384819Y-82269047D02*
X192384819Y-82030952D01*
X192384819Y-82030952D02*
X192432438Y-81935714D01*
X192432438Y-81935714D02*
X192480057Y-81888095D01*
X192480057Y-81888095D02*
X192575295Y-81840476D01*
X192575295Y-81840476D02*
X192670533Y-81840476D01*
X192670533Y-81840476D02*
X192813390Y-81888095D01*
X192813390Y-81888095D02*
X193384819Y-82459523D01*
X193384819Y-82459523D02*
X193384819Y-81840476D01*
X262902819Y-82761904D02*
X262902819Y-82190476D01*
X263902819Y-82476190D02*
X262902819Y-82476190D01*
X263902819Y-81857142D02*
X262902819Y-81857142D01*
X262902819Y-81857142D02*
X262902819Y-81476190D01*
X262902819Y-81476190D02*
X262950438Y-81380952D01*
X262950438Y-81380952D02*
X262998057Y-81333333D01*
X262998057Y-81333333D02*
X263093295Y-81285714D01*
X263093295Y-81285714D02*
X263236152Y-81285714D01*
X263236152Y-81285714D02*
X263331390Y-81333333D01*
X263331390Y-81333333D02*
X263379009Y-81380952D01*
X263379009Y-81380952D02*
X263426628Y-81476190D01*
X263426628Y-81476190D02*
X263426628Y-81857142D01*
X262902819Y-80380952D02*
X262902819Y-80857142D01*
X262902819Y-80857142D02*
X263379009Y-80904761D01*
X263379009Y-80904761D02*
X263331390Y-80857142D01*
X263331390Y-80857142D02*
X263283771Y-80761904D01*
X263283771Y-80761904D02*
X263283771Y-80523809D01*
X263283771Y-80523809D02*
X263331390Y-80428571D01*
X263331390Y-80428571D02*
X263379009Y-80380952D01*
X263379009Y-80380952D02*
X263474247Y-80333333D01*
X263474247Y-80333333D02*
X263712342Y-80333333D01*
X263712342Y-80333333D02*
X263807580Y-80380952D01*
X263807580Y-80380952D02*
X263855200Y-80428571D01*
X263855200Y-80428571D02*
X263902819Y-80523809D01*
X263902819Y-80523809D02*
X263902819Y-80761904D01*
X263902819Y-80761904D02*
X263855200Y-80857142D01*
X263855200Y-80857142D02*
X263807580Y-80904761D01*
X201954819Y-66666666D02*
X201478628Y-66999999D01*
X201954819Y-67238094D02*
X200954819Y-67238094D01*
X200954819Y-67238094D02*
X200954819Y-66857142D01*
X200954819Y-66857142D02*
X201002438Y-66761904D01*
X201002438Y-66761904D02*
X201050057Y-66714285D01*
X201050057Y-66714285D02*
X201145295Y-66666666D01*
X201145295Y-66666666D02*
X201288152Y-66666666D01*
X201288152Y-66666666D02*
X201383390Y-66714285D01*
X201383390Y-66714285D02*
X201431009Y-66761904D01*
X201431009Y-66761904D02*
X201478628Y-66857142D01*
X201478628Y-66857142D02*
X201478628Y-67238094D01*
X201050057Y-66285713D02*
X201002438Y-66238094D01*
X201002438Y-66238094D02*
X200954819Y-66142856D01*
X200954819Y-66142856D02*
X200954819Y-65904761D01*
X200954819Y-65904761D02*
X201002438Y-65809523D01*
X201002438Y-65809523D02*
X201050057Y-65761904D01*
X201050057Y-65761904D02*
X201145295Y-65714285D01*
X201145295Y-65714285D02*
X201240533Y-65714285D01*
X201240533Y-65714285D02*
X201383390Y-65761904D01*
X201383390Y-65761904D02*
X201954819Y-66333332D01*
X201954819Y-66333332D02*
X201954819Y-65714285D01*
X237666666Y-100824819D02*
X237666666Y-101539104D01*
X237666666Y-101539104D02*
X237619047Y-101681961D01*
X237619047Y-101681961D02*
X237523809Y-101777200D01*
X237523809Y-101777200D02*
X237380952Y-101824819D01*
X237380952Y-101824819D02*
X237285714Y-101824819D01*
X238047619Y-100824819D02*
X238666666Y-100824819D01*
X238666666Y-100824819D02*
X238333333Y-101205771D01*
X238333333Y-101205771D02*
X238476190Y-101205771D01*
X238476190Y-101205771D02*
X238571428Y-101253390D01*
X238571428Y-101253390D02*
X238619047Y-101301009D01*
X238619047Y-101301009D02*
X238666666Y-101396247D01*
X238666666Y-101396247D02*
X238666666Y-101634342D01*
X238666666Y-101634342D02*
X238619047Y-101729580D01*
X238619047Y-101729580D02*
X238571428Y-101777200D01*
X238571428Y-101777200D02*
X238476190Y-101824819D01*
X238476190Y-101824819D02*
X238190476Y-101824819D01*
X238190476Y-101824819D02*
X238095238Y-101777200D01*
X238095238Y-101777200D02*
X238047619Y-101729580D01*
X217761905Y-74954819D02*
X218333333Y-74954819D01*
X218047619Y-75954819D02*
X218047619Y-74954819D01*
X218666667Y-75954819D02*
X218666667Y-74954819D01*
X218666667Y-74954819D02*
X219047619Y-74954819D01*
X219047619Y-74954819D02*
X219142857Y-75002438D01*
X219142857Y-75002438D02*
X219190476Y-75050057D01*
X219190476Y-75050057D02*
X219238095Y-75145295D01*
X219238095Y-75145295D02*
X219238095Y-75288152D01*
X219238095Y-75288152D02*
X219190476Y-75383390D01*
X219190476Y-75383390D02*
X219142857Y-75431009D01*
X219142857Y-75431009D02*
X219047619Y-75478628D01*
X219047619Y-75478628D02*
X218666667Y-75478628D01*
X220190476Y-75954819D02*
X219619048Y-75954819D01*
X219904762Y-75954819D02*
X219904762Y-74954819D01*
X219904762Y-74954819D02*
X219809524Y-75097676D01*
X219809524Y-75097676D02*
X219714286Y-75192914D01*
X219714286Y-75192914D02*
X219619048Y-75240533D01*
X221142857Y-75954819D02*
X220571429Y-75954819D01*
X220857143Y-75954819D02*
X220857143Y-74954819D01*
X220857143Y-74954819D02*
X220761905Y-75097676D01*
X220761905Y-75097676D02*
X220666667Y-75192914D01*
X220666667Y-75192914D02*
X220571429Y-75240533D01*
X195954819Y-66666666D02*
X195478628Y-66999999D01*
X195954819Y-67238094D02*
X194954819Y-67238094D01*
X194954819Y-67238094D02*
X194954819Y-66857142D01*
X194954819Y-66857142D02*
X195002438Y-66761904D01*
X195002438Y-66761904D02*
X195050057Y-66714285D01*
X195050057Y-66714285D02*
X195145295Y-66666666D01*
X195145295Y-66666666D02*
X195288152Y-66666666D01*
X195288152Y-66666666D02*
X195383390Y-66714285D01*
X195383390Y-66714285D02*
X195431009Y-66761904D01*
X195431009Y-66761904D02*
X195478628Y-66857142D01*
X195478628Y-66857142D02*
X195478628Y-67238094D01*
X195954819Y-65714285D02*
X195954819Y-66285713D01*
X195954819Y-65999999D02*
X194954819Y-65999999D01*
X194954819Y-65999999D02*
X195097676Y-66095237D01*
X195097676Y-66095237D02*
X195192914Y-66190475D01*
X195192914Y-66190475D02*
X195240533Y-66285713D01*
X226604819Y-57645238D02*
X226128628Y-57978571D01*
X226604819Y-58216666D02*
X225604819Y-58216666D01*
X225604819Y-58216666D02*
X225604819Y-57835714D01*
X225604819Y-57835714D02*
X225652438Y-57740476D01*
X225652438Y-57740476D02*
X225700057Y-57692857D01*
X225700057Y-57692857D02*
X225795295Y-57645238D01*
X225795295Y-57645238D02*
X225938152Y-57645238D01*
X225938152Y-57645238D02*
X226033390Y-57692857D01*
X226033390Y-57692857D02*
X226081009Y-57740476D01*
X226081009Y-57740476D02*
X226128628Y-57835714D01*
X226128628Y-57835714D02*
X226128628Y-58216666D01*
X225604819Y-57359523D02*
X226604819Y-57026190D01*
X226604819Y-57026190D02*
X225604819Y-56692857D01*
X225700057Y-56407142D02*
X225652438Y-56359523D01*
X225652438Y-56359523D02*
X225604819Y-56264285D01*
X225604819Y-56264285D02*
X225604819Y-56026190D01*
X225604819Y-56026190D02*
X225652438Y-55930952D01*
X225652438Y-55930952D02*
X225700057Y-55883333D01*
X225700057Y-55883333D02*
X225795295Y-55835714D01*
X225795295Y-55835714D02*
X225890533Y-55835714D01*
X225890533Y-55835714D02*
X226033390Y-55883333D01*
X226033390Y-55883333D02*
X226604819Y-56454761D01*
X226604819Y-56454761D02*
X226604819Y-55835714D01*
X238738095Y-48334819D02*
X238738095Y-49144342D01*
X238738095Y-49144342D02*
X238785714Y-49239580D01*
X238785714Y-49239580D02*
X238833333Y-49287200D01*
X238833333Y-49287200D02*
X238928571Y-49334819D01*
X238928571Y-49334819D02*
X239119047Y-49334819D01*
X239119047Y-49334819D02*
X239214285Y-49287200D01*
X239214285Y-49287200D02*
X239261904Y-49239580D01*
X239261904Y-49239580D02*
X239309523Y-49144342D01*
X239309523Y-49144342D02*
X239309523Y-48334819D01*
X239690476Y-48334819D02*
X240309523Y-48334819D01*
X240309523Y-48334819D02*
X239976190Y-48715771D01*
X239976190Y-48715771D02*
X240119047Y-48715771D01*
X240119047Y-48715771D02*
X240214285Y-48763390D01*
X240214285Y-48763390D02*
X240261904Y-48811009D01*
X240261904Y-48811009D02*
X240309523Y-48906247D01*
X240309523Y-48906247D02*
X240309523Y-49144342D01*
X240309523Y-49144342D02*
X240261904Y-49239580D01*
X240261904Y-49239580D02*
X240214285Y-49287200D01*
X240214285Y-49287200D02*
X240119047Y-49334819D01*
X240119047Y-49334819D02*
X239833333Y-49334819D01*
X239833333Y-49334819D02*
X239738095Y-49287200D01*
X239738095Y-49287200D02*
X239690476Y-49239580D01*
D14*
%TO.C,C10*%
X190621000Y-67580000D02*
X191879000Y-67580000D01*
X190621000Y-69420000D02*
X191879000Y-69420000D01*
%TO.C,TP2*%
X219300000Y-102800000D02*
X220700000Y-102800000D01*
X219300000Y-104200000D02*
X219300000Y-102800000D01*
X220700000Y-102800000D02*
X220700000Y-104200000D01*
X220700000Y-104200000D02*
X219300000Y-104200000D01*
%TO.C,R5*%
X208880000Y-73080000D02*
X205040000Y-73080000D01*
X208880000Y-74920000D02*
X205040000Y-74920000D01*
%TO.C,TP14*%
X209300000Y-48800000D02*
X210700000Y-48800000D01*
X209300000Y-50200000D02*
X209300000Y-48800000D01*
X210700000Y-48800000D02*
X210700000Y-50200000D01*
X210700000Y-50200000D02*
X209300000Y-50200000D01*
%TO.C,TP6*%
X209300000Y-52800000D02*
X210700000Y-52800000D01*
X209300000Y-54200000D02*
X209300000Y-52800000D01*
X210700000Y-52800000D02*
X210700000Y-54200000D01*
X210700000Y-54200000D02*
X209300000Y-54200000D01*
%TO.C,C12*%
X253379000Y-77080000D02*
X252121000Y-77080000D01*
X253379000Y-78920000D02*
X252121000Y-78920000D01*
%TO.C,R10*%
X211580000Y-73420000D02*
X211580000Y-69580000D01*
X213420000Y-73420000D02*
X213420000Y-69580000D01*
%TO.C,LS2*%
X260170000Y-94130000D02*
X261500000Y-94130000D01*
X260170000Y-95460000D02*
X260170000Y-94130000D01*
X260170000Y-96730000D02*
X260170000Y-99330000D01*
X260170000Y-96730000D02*
X262830000Y-96730000D01*
X260170000Y-99330000D02*
X262830000Y-99330000D01*
X262830000Y-96730000D02*
X262830000Y-99330000D01*
%TO.C,TP10*%
X191800000Y-52800000D02*
X193200000Y-52800000D01*
X191800000Y-54200000D02*
X191800000Y-52800000D01*
X193200000Y-52800000D02*
X193200000Y-54200000D01*
X193200000Y-54200000D02*
X191800000Y-54200000D01*
%TO.C,R8*%
X208920000Y-65580000D02*
X205080000Y-65580000D01*
X208920000Y-67420000D02*
X205080000Y-67420000D01*
%TO.C,C16*%
X221390267Y-95261914D02*
X221390267Y-94003914D01*
X223230267Y-95261914D02*
X223230267Y-94003914D01*
%TO.C,C19*%
X221332829Y-87316366D02*
X221332829Y-88574366D01*
X223172829Y-87316366D02*
X223172829Y-88574366D01*
%TO.C,TP15*%
X261300000Y-70800000D02*
X262700000Y-70800000D01*
X261300000Y-72200000D02*
X261300000Y-70800000D01*
X262700000Y-70800000D02*
X262700000Y-72200000D01*
X262700000Y-72200000D02*
X261300000Y-72200000D01*
%TO.C,TP8*%
X185300000Y-80300000D02*
X186700000Y-80300000D01*
X185300000Y-81700000D02*
X185300000Y-80300000D01*
X186700000Y-80300000D02*
X186700000Y-81700000D01*
X186700000Y-81700000D02*
X185300000Y-81700000D01*
%TO.C,C3*%
X207080000Y-94661000D02*
X207080000Y-95919000D01*
X208920000Y-94661000D02*
X208920000Y-95919000D01*
%TO.C,LS1*%
X260170000Y-84670000D02*
X261500000Y-84670000D01*
X260170000Y-86000000D02*
X260170000Y-84670000D01*
X260170000Y-87270000D02*
X260170000Y-89870000D01*
X260170000Y-87270000D02*
X262830000Y-87270000D01*
X260170000Y-89870000D02*
X262830000Y-89870000D01*
X262830000Y-87270000D02*
X262830000Y-89870000D01*
%TO.C,TP17*%
X261300000Y-75800000D02*
X262700000Y-75800000D01*
X261300000Y-77200000D02*
X261300000Y-75800000D01*
X262700000Y-75800000D02*
X262700000Y-77200000D01*
X262700000Y-77200000D02*
X261300000Y-77200000D01*
%TO.C,TP3*%
X235700000Y-104700000D02*
X234300000Y-104700000D01*
X235700000Y-103300000D02*
X235700000Y-104700000D01*
X234300000Y-104700000D02*
X234300000Y-103300000D01*
X234300000Y-103300000D02*
X235700000Y-103300000D01*
%TO.C,R3*%
X255380000Y-86580000D02*
X251540000Y-86580000D01*
X255380000Y-88420000D02*
X251540000Y-88420000D01*
%TO.C,C2*%
X190519300Y-73003000D02*
X191777300Y-73003000D01*
X190519300Y-74843000D02*
X191777300Y-74843000D01*
%TO.C,LS3*%
X229405000Y-50170000D02*
X229405000Y-52830000D01*
X232005000Y-50170000D02*
X229405000Y-50170000D01*
X232005000Y-50170000D02*
X232005000Y-52830000D01*
X232005000Y-52830000D02*
X229405000Y-52830000D01*
X233275000Y-50170000D02*
X234605000Y-50170000D01*
X234605000Y-50170000D02*
X234605000Y-51500000D01*
%TO.C,C18*%
X225841504Y-85843787D02*
X227099504Y-85843787D01*
X225841504Y-87683787D02*
X227099504Y-87683787D01*
%TO.C,LS4*%
X180670000Y-70130000D02*
X182000000Y-70130000D01*
X180670000Y-71460000D02*
X180670000Y-70130000D01*
X180670000Y-72730000D02*
X180670000Y-75330000D01*
X180670000Y-72730000D02*
X183330000Y-72730000D01*
X180670000Y-75330000D02*
X183330000Y-75330000D01*
X183330000Y-72730000D02*
X183330000Y-75330000D01*
%TO.C,C15*%
X232580000Y-90169000D02*
X232580000Y-88911000D01*
X234420000Y-90169000D02*
X234420000Y-88911000D01*
%TO.C,R12*%
X231080000Y-77080000D02*
X234920000Y-77080000D01*
X231080000Y-78920000D02*
X234920000Y-78920000D01*
%TO.C,TP13*%
X191800000Y-50300000D02*
X193200000Y-50300000D01*
X191800000Y-51700000D02*
X191800000Y-50300000D01*
X193200000Y-50300000D02*
X193200000Y-51700000D01*
X193200000Y-51700000D02*
X191800000Y-51700000D01*
%TO.C,R14*%
X200620000Y-95580000D02*
X204460000Y-95580000D01*
X200620000Y-97420000D02*
X204460000Y-97420000D01*
%TO.C,J1*%
X243170000Y-97770000D02*
X243170000Y-95170000D01*
X245830000Y-95170000D02*
X243170000Y-95170000D01*
X245830000Y-97770000D02*
X243170000Y-97770000D01*
X245830000Y-97770000D02*
X245830000Y-95170000D01*
X245830000Y-99040000D02*
X245830000Y-100370000D01*
X245830000Y-100370000D02*
X244500000Y-100370000D01*
%TO.C,TP4*%
X260800000Y-103300000D02*
X262200000Y-103300000D01*
X260800000Y-104700000D02*
X260800000Y-103300000D01*
X262200000Y-103300000D02*
X262200000Y-104700000D01*
X262200000Y-104700000D02*
X260800000Y-104700000D01*
%TO.C,TP7*%
X212800000Y-90800000D02*
X214200000Y-90800000D01*
X212800000Y-92200000D02*
X212800000Y-90800000D01*
X214200000Y-90800000D02*
X214200000Y-92200000D01*
X214200000Y-92200000D02*
X212800000Y-92200000D01*
%TO.C,R4*%
X197580000Y-69540000D02*
X197580000Y-73380000D01*
X199420000Y-69540000D02*
X199420000Y-73380000D01*
%TO.C,J4*%
X236670000Y-87630000D02*
X238000000Y-87630000D01*
X236670000Y-88960000D02*
X236670000Y-87630000D01*
X236670000Y-90230000D02*
X236670000Y-92830000D01*
X236670000Y-90230000D02*
X239330000Y-90230000D01*
X236670000Y-92830000D02*
X239330000Y-92830000D01*
X239330000Y-90230000D02*
X239330000Y-92830000D01*
%TO.C,C6*%
X252839000Y-89580000D02*
X251581000Y-89580000D01*
X252839000Y-91420000D02*
X251581000Y-91420000D01*
D15*
%TO.C,U1*%
X224622868Y-92049334D02*
X224622868Y-95728182D01*
X229982268Y-95728182D02*
X229982268Y-92049334D01*
D16*
G36*
X225868067Y-98257558D02*
G01*
X225487067Y-98257558D01*
X225487067Y-98003558D01*
X225868067Y-98003558D01*
X225868067Y-98257558D01*
G37*
D14*
%TO.C,J2*%
X243170000Y-87630000D02*
X244500000Y-87630000D01*
X243170000Y-88960000D02*
X243170000Y-87630000D01*
X243170000Y-90230000D02*
X243170000Y-92830000D01*
X243170000Y-90230000D02*
X245830000Y-90230000D01*
X243170000Y-92830000D02*
X245830000Y-92830000D01*
X245830000Y-90230000D02*
X245830000Y-92830000D01*
%TO.C,TP1*%
X256300000Y-103300000D02*
X257700000Y-103300000D01*
X256300000Y-104700000D02*
X256300000Y-103300000D01*
X257700000Y-103300000D02*
X257700000Y-104700000D01*
X257700000Y-104700000D02*
X256300000Y-104700000D01*
%TO.C,TP9*%
X215800000Y-77300000D02*
X217200000Y-77300000D01*
X215800000Y-78700000D02*
X215800000Y-77300000D01*
X217200000Y-77300000D02*
X217200000Y-78700000D01*
X217200000Y-78700000D02*
X215800000Y-78700000D01*
D15*
%TO.C,C7*%
X241164850Y-83033900D02*
X245406650Y-83033900D01*
X245406650Y-77776100D02*
X241164850Y-77776100D01*
D14*
%TO.C,R16*%
X225561625Y-104004540D02*
X225561625Y-107844540D01*
X227401625Y-104004540D02*
X227401625Y-107844540D01*
%TO.C,C1*%
X229871000Y-102580000D02*
X231129000Y-102580000D01*
X229871000Y-104420000D02*
X231129000Y-104420000D01*
%TO.C,RV1*%
X196530000Y-51830000D02*
X196530000Y-55695000D01*
X196530000Y-60205000D02*
X196530000Y-64070000D01*
X198130000Y-51830000D02*
X196530000Y-51830000D01*
X200629000Y-51830000D02*
X199870000Y-51830000D01*
X203129000Y-51830000D02*
X202370000Y-51830000D01*
X206470000Y-51830000D02*
X204871000Y-51830000D01*
X206470000Y-51830000D02*
X206470000Y-55695000D01*
X206470000Y-60205000D02*
X206470000Y-64070000D01*
X206470000Y-64070000D02*
X196530000Y-64070000D01*
%TO.C,TP16*%
X261300000Y-73300000D02*
X262700000Y-73300000D01*
X261300000Y-74700000D02*
X261300000Y-73300000D01*
X262700000Y-73300000D02*
X262700000Y-74700000D01*
X262700000Y-74700000D02*
X261300000Y-74700000D01*
%TO.C,R13*%
X233080000Y-74080000D02*
X236920000Y-74080000D01*
X233080000Y-75920000D02*
X236920000Y-75920000D01*
%TO.C,C13*%
X252121000Y-79580000D02*
X253379000Y-79580000D01*
X252121000Y-81420000D02*
X253379000Y-81420000D01*
%TO.C,R7*%
X209580000Y-95960000D02*
X209580000Y-92120000D01*
X211420000Y-95960000D02*
X211420000Y-92120000D01*
%TO.C,R6*%
X190435052Y-77317299D02*
X186595052Y-77317299D01*
X190435052Y-79157299D02*
X186595052Y-79157299D01*
%TO.C,R9*%
X185900346Y-64663663D02*
X185900346Y-68503663D01*
X187740346Y-64663663D02*
X187740346Y-68503663D01*
%TO.C,U2*%
X193930000Y-81650000D02*
G75*
G02*
X193930000Y-83650000I0J-1000000D01*
G01*
X211890000Y-87900000D02*
X211890000Y-77400000D01*
X211890000Y-77400000D02*
X193870000Y-77400000D01*
X211830000Y-84900000D02*
X211830000Y-80400000D01*
X211830000Y-80400000D02*
X193930000Y-80400000D01*
X193930000Y-84900000D02*
X211830000Y-84900000D01*
X193930000Y-83650000D02*
X193930000Y-84900000D01*
X193930000Y-80400000D02*
X193930000Y-81650000D01*
X193870000Y-87900000D02*
X211890000Y-87900000D01*
X193870000Y-77400000D02*
X193870000Y-87900000D01*
%TO.C,TP5*%
X261300000Y-80800000D02*
X262700000Y-80800000D01*
X261300000Y-82200000D02*
X261300000Y-80800000D01*
X262700000Y-80800000D02*
X262700000Y-82200000D01*
X262700000Y-82200000D02*
X261300000Y-82200000D01*
%TO.C,R2*%
X200580000Y-73380000D02*
X200580000Y-69540000D01*
X202420000Y-73380000D02*
X202420000Y-69540000D01*
%TO.C,J3*%
X236670000Y-97770000D02*
X236670000Y-95170000D01*
X239330000Y-95170000D02*
X236670000Y-95170000D01*
X239330000Y-97770000D02*
X236670000Y-97770000D01*
X239330000Y-97770000D02*
X239330000Y-95170000D01*
X239330000Y-99040000D02*
X239330000Y-100370000D01*
X239330000Y-100370000D02*
X238000000Y-100370000D01*
%TO.C,TP11*%
X215800000Y-74800000D02*
X217200000Y-74800000D01*
X215800000Y-76200000D02*
X215800000Y-74800000D01*
X217200000Y-74800000D02*
X217200000Y-76200000D01*
X217200000Y-76200000D02*
X215800000Y-76200000D01*
%TO.C,R1*%
X194580000Y-69540000D02*
X194580000Y-73380000D01*
X196420000Y-69540000D02*
X196420000Y-73380000D01*
%TO.C,RV2*%
X213530000Y-51880000D02*
X213530000Y-55745000D01*
X213530000Y-60255000D02*
X213530000Y-64120000D01*
X215130000Y-51880000D02*
X213530000Y-51880000D01*
X217629000Y-51880000D02*
X216870000Y-51880000D01*
X220129000Y-51880000D02*
X219370000Y-51880000D01*
X223470000Y-51880000D02*
X221871000Y-51880000D01*
X223470000Y-51880000D02*
X223470000Y-55745000D01*
X223470000Y-60255000D02*
X223470000Y-64120000D01*
X223470000Y-64120000D02*
X213530000Y-64120000D01*
D17*
%TO.C,U3*%
X238490000Y-68889000D02*
X238490000Y-51744000D01*
X240395000Y-70794000D02*
X254365000Y-70794000D01*
X242885000Y-49839000D02*
X242888728Y-48828728D01*
X243388728Y-48329000D02*
X251384000Y-48329000D01*
X251884000Y-48829000D02*
X251884000Y-49839000D01*
D12*
X254365000Y-49839000D02*
X240395000Y-49839000D01*
D17*
X254365000Y-49839000D02*
X240395000Y-49839000D01*
X256270000Y-68889000D02*
X256270000Y-51744000D01*
X238490000Y-51744000D02*
G75*
G02*
X240395000Y-49839000I1905001J-1D01*
G01*
X240395000Y-70794000D02*
G75*
G02*
X238490000Y-68889000I1J1905001D01*
G01*
X242888728Y-48828728D02*
G75*
G02*
X243388728Y-48329001I500018J-291D01*
G01*
X251384000Y-48329000D02*
G75*
G02*
X251884000Y-48829000I0J-500000D01*
G01*
X254365000Y-49839000D02*
G75*
G02*
X256270000Y-51744000I0J-1905000D01*
G01*
X256270000Y-68889000D02*
G75*
G02*
X254365000Y-70794000I-1905000J0D01*
G01*
D18*
X238632000Y-50130000D02*
G75*
G02*
X238128000Y-50130000I-252000J0D01*
G01*
X238128000Y-50130000D02*
G75*
G02*
X238632000Y-50130000I252000J0D01*
G01*
X239775000Y-51010000D02*
G75*
G02*
X239271000Y-51010000I-252000J0D01*
G01*
X239271000Y-51010000D02*
G75*
G02*
X239775000Y-51010000I252000J0D01*
G01*
%TD*%
%LPC*%
D19*
%TO.C,C10*%
X190000000Y-68500000D03*
X192500000Y-68500000D03*
%TD*%
D20*
%TO.C,TP2*%
X220000000Y-103500000D03*
%TD*%
D21*
%TO.C,R5*%
X209500000Y-74000000D03*
D22*
X204420000Y-74000000D03*
%TD*%
D20*
%TO.C,TP14*%
X210000000Y-49500000D03*
%TD*%
%TO.C,TP6*%
X210000000Y-53500000D03*
%TD*%
D19*
%TO.C,C12*%
X254000000Y-78000000D03*
X251500000Y-78000000D03*
%TD*%
D21*
%TO.C,R10*%
X212500000Y-74040000D03*
D22*
X212500000Y-68960000D03*
%TD*%
D23*
%TO.C,LS2*%
X261500000Y-95460000D03*
D24*
X261500000Y-98000000D03*
%TD*%
D20*
%TO.C,TP10*%
X192500000Y-53500000D03*
%TD*%
D21*
%TO.C,R8*%
X209540000Y-66500000D03*
D22*
X204460000Y-66500000D03*
%TD*%
D19*
%TO.C,C16*%
X222310267Y-95882914D03*
X222310267Y-93382914D03*
%TD*%
%TO.C,C19*%
X222252829Y-86695366D03*
X222252829Y-89195366D03*
%TD*%
D20*
%TO.C,TP15*%
X262000000Y-71500000D03*
%TD*%
%TO.C,TP8*%
X186000000Y-81000000D03*
%TD*%
D19*
%TO.C,C3*%
X208000000Y-94040000D03*
X208000000Y-96540000D03*
%TD*%
D23*
%TO.C,LS1*%
X261500000Y-86000000D03*
D24*
X261500000Y-88540000D03*
%TD*%
D25*
%TO.C,H2*%
X261500000Y-110000000D03*
D26*
X261500000Y-110000000D03*
%TD*%
D20*
%TO.C,TP17*%
X262000000Y-76500000D03*
%TD*%
%TO.C,TP3*%
X235000000Y-104000000D03*
%TD*%
D21*
%TO.C,R3*%
X256000000Y-87500000D03*
D22*
X250920000Y-87500000D03*
%TD*%
D19*
%TO.C,C2*%
X189898300Y-73923000D03*
X192398300Y-73923000D03*
%TD*%
D23*
%TO.C,LS3*%
X233275000Y-51500000D03*
D24*
X230735000Y-51500000D03*
%TD*%
D19*
%TO.C,C18*%
X225220504Y-86763787D03*
X227720504Y-86763787D03*
%TD*%
D23*
%TO.C,LS4*%
X182000000Y-71460000D03*
D24*
X182000000Y-74000000D03*
%TD*%
D19*
%TO.C,C15*%
X233500000Y-90790000D03*
X233500000Y-88290000D03*
%TD*%
D21*
%TO.C,R12*%
X230460000Y-78000000D03*
D22*
X235540000Y-78000000D03*
%TD*%
D20*
%TO.C,TP13*%
X192500000Y-51000000D03*
%TD*%
D21*
%TO.C,R14*%
X200000000Y-96500000D03*
D22*
X205080000Y-96500000D03*
%TD*%
D23*
%TO.C,J1*%
X244500000Y-99040000D03*
D24*
X244500000Y-96500000D03*
%TD*%
D20*
%TO.C,TP4*%
X261500000Y-104000000D03*
%TD*%
%TO.C,TP7*%
X213500000Y-91500000D03*
%TD*%
D21*
%TO.C,R4*%
X198500000Y-68920000D03*
D22*
X198500000Y-74000000D03*
%TD*%
D23*
%TO.C,J4*%
X238000000Y-88960000D03*
D24*
X238000000Y-91500000D03*
%TD*%
D19*
%TO.C,C6*%
X253460000Y-90500000D03*
X250960000Y-90500000D03*
%TD*%
D27*
%TO.C,U1*%
X229577567Y-90916958D03*
X228927569Y-90916958D03*
X228277567Y-90916958D03*
X227627569Y-90916958D03*
X226977570Y-90916958D03*
X226327569Y-90916958D03*
X225677570Y-90916958D03*
X225027569Y-90916958D03*
X225027569Y-96860558D03*
X225677567Y-96860558D03*
X226327569Y-96860558D03*
X226977567Y-96860558D03*
X227627566Y-96860558D03*
X228277567Y-96860558D03*
X228927566Y-96860558D03*
X229577567Y-96860558D03*
%TD*%
D23*
%TO.C,J2*%
X244500000Y-88960000D03*
D24*
X244500000Y-91500000D03*
%TD*%
D20*
%TO.C,TP1*%
X257000000Y-104000000D03*
%TD*%
%TO.C,TP9*%
X216500000Y-78000000D03*
%TD*%
D25*
%TO.C,H3*%
X183500000Y-110000000D03*
D26*
X183500000Y-110000000D03*
%TD*%
D28*
%TO.C,C7*%
X246111500Y-82310000D03*
X246111500Y-81040000D03*
X246111500Y-79770000D03*
X246111500Y-78500000D03*
X240460000Y-78500000D03*
X240460000Y-79770000D03*
X240460000Y-81040000D03*
X240460000Y-82310000D03*
%TD*%
D21*
%TO.C,R16*%
X226481625Y-103384540D03*
D22*
X226481625Y-108464540D03*
%TD*%
D25*
%TO.C,H1*%
X261500000Y-49500000D03*
D26*
X261500000Y-49500000D03*
%TD*%
D19*
%TO.C,C1*%
X229250000Y-103500000D03*
X231750000Y-103500000D03*
%TD*%
D29*
%TO.C,RV1*%
X205900000Y-57950000D03*
X197100000Y-57950000D03*
D30*
X199000000Y-50950000D03*
X201500000Y-50950000D03*
X204000000Y-50950000D03*
%TD*%
D20*
%TO.C,TP16*%
X262000000Y-74000000D03*
%TD*%
D25*
%TO.C,H4*%
X183500000Y-50000000D03*
D26*
X183500000Y-50000000D03*
%TD*%
D21*
%TO.C,R13*%
X232460000Y-75000000D03*
D22*
X237540000Y-75000000D03*
%TD*%
D19*
%TO.C,C13*%
X251500000Y-80500000D03*
X254000000Y-80500000D03*
%TD*%
D21*
%TO.C,R7*%
X210500000Y-96580000D03*
D22*
X210500000Y-91500000D03*
%TD*%
D21*
%TO.C,R6*%
X191055052Y-78237299D03*
D22*
X185975052Y-78237299D03*
%TD*%
D21*
%TO.C,R9*%
X186820346Y-64043663D03*
D22*
X186820346Y-69123663D03*
%TD*%
D31*
%TO.C,U2*%
X195260000Y-78840000D03*
X197800000Y-78840000D03*
X200340000Y-78840000D03*
X202880000Y-78840000D03*
X205420000Y-78840000D03*
X207960000Y-78840000D03*
X210500000Y-78840000D03*
X210500000Y-86460000D03*
X207960000Y-86460000D03*
X205420000Y-86460000D03*
X202880000Y-86460000D03*
X200340000Y-86460000D03*
X197800000Y-86460000D03*
D32*
X195260000Y-86460000D03*
%TD*%
D20*
%TO.C,TP5*%
X262000000Y-81500000D03*
%TD*%
D21*
%TO.C,R2*%
X201500000Y-74000000D03*
D22*
X201500000Y-68920000D03*
%TD*%
D23*
%TO.C,J3*%
X238000000Y-99040000D03*
D24*
X238000000Y-96500000D03*
%TD*%
D20*
%TO.C,TP11*%
X216500000Y-75500000D03*
%TD*%
D21*
%TO.C,R1*%
X195500000Y-68920000D03*
D22*
X195500000Y-74000000D03*
%TD*%
D29*
%TO.C,RV2*%
X222900000Y-58000000D03*
X214100000Y-58000000D03*
D30*
X216000000Y-51000000D03*
X218500000Y-51000000D03*
X221000000Y-51000000D03*
%TD*%
D33*
%TO.C,U3*%
X238925000Y-52760000D03*
D34*
X239760000Y-52760000D03*
D33*
X238925000Y-55300000D03*
D34*
X239760000Y-55300000D03*
D33*
X238925000Y-57840000D03*
D34*
X239760000Y-57840000D03*
D33*
X238925000Y-60380000D03*
D34*
X239760000Y-60380000D03*
D33*
X238925000Y-62920000D03*
D34*
X239760000Y-62920000D03*
D33*
X238925000Y-65460000D03*
D34*
X239760000Y-65460000D03*
D33*
X238925000Y-68000000D03*
D34*
X239760000Y-68000000D03*
X255000000Y-68000000D03*
D35*
X255835000Y-68000000D03*
D34*
X255000000Y-65460000D03*
D35*
X255835000Y-65460000D03*
D34*
X255000000Y-62920000D03*
D35*
X255835000Y-62920000D03*
D34*
X255000000Y-60380000D03*
D35*
X255835000Y-60380000D03*
D34*
X255000000Y-57840000D03*
D35*
X255835000Y-57840000D03*
D34*
X255000000Y-55300000D03*
D35*
X255835000Y-55300000D03*
D34*
X255000000Y-52760000D03*
D35*
X255835000Y-52760000D03*
%TD*%
%LPD*%
M02*
