M48
; DRILL file {KiCad 8.0.3} date 2025-02-15T10:37:40+0100
; FORMAT={-:-/ absolute / metric / decimal}
; #@! TF.CreationDate,2025-02-15T10:37:40+01:00
; #@! TF.GenerationSoftware,Kicad,Pcbnew,8.0.3
; #@! TF.FileFunction,Plated,1,2,PTH
FMAT,2
METRIC
; #@! TA.AperFunction,Plated,PTH,ViaDrill
T1C0.400
; #@! TA.AperFunction,Plated,PTH,ComponentDrill
T2C0.500
; #@! TA.AperFunction,Plated,PTH,ComponentDrill
T3C0.700
; #@! TA.AperFunction,Plated,PTH,ComponentDrill
T4C0.800
; #@! TA.AperFunction,Plated,PTH,ComponentDrill
T5C0.889
; #@! TA.AperFunction,Plated,PTH,ComponentDrill
T6C1.000
; #@! TA.AperFunction,Plated,PTH,ComponentDrill
T7C2.200
%
G90
G05
T1
X191.16Y-76.065
X191.5Y-80.75
X194.75Y-84.0
X199.171Y-76.166
X201.208Y-60.324
X201.25Y-63.5
X201.5Y-72.25
X202.75Y-84.25
X204.25Y-69.5
X204.845Y-63.657
X206.5Y-90.0
X206.5Y-92.5
X209.0Y-90.0
X221.5Y-71.75
X221.5Y-77.5
X223.0Y-91.25
X224.0Y-69.25
X224.25Y-74.75
X224.75Y-101.5
X226.75Y-66.5
X227.0Y-101.0
X228.5Y-70.5
X229.0Y-64.25
X231.75Y-61.5
X232.0Y-68.25
X232.25Y-77.0
X234.5Y-58.75
X235.25Y-67.0
X235.75Y-80.5
X236.25Y-61.0
X236.25Y-64.0
X240.5Y-75.5
X241.0Y-90.25
X241.0Y-92.25
X241.0Y-94.5
X241.0Y-96.5
X242.625Y-76.375
X243.75Y-78.25
X248.0Y-76.75
X249.5Y-79.0
T2
X186.0Y-81.0
X192.5Y-51.0
X192.5Y-53.5
X210.0Y-49.5
X210.0Y-53.5
X213.5Y-91.5
X216.5Y-75.5
X216.5Y-78.0
X220.0Y-103.5
X235.0Y-104.0
X257.0Y-104.0
X261.5Y-104.0
X262.0Y-71.5
X262.0Y-74.0
X262.0Y-76.5
X262.0Y-81.5
T3
X185.975Y-78.237
X186.82Y-64.044
X186.82Y-69.124
X191.055Y-78.237
X195.5Y-68.92
X195.5Y-74.0
X198.5Y-68.92
X198.5Y-74.0
X200.0Y-96.5
X201.5Y-68.92
X201.5Y-74.0
X204.42Y-74.0
X204.46Y-66.5
X205.08Y-96.5
X209.5Y-74.0
X209.54Y-66.5
X210.5Y-91.5
X210.5Y-96.58
X212.5Y-68.96
X212.5Y-74.04
X226.482Y-103.385
X226.482Y-108.465
X230.46Y-78.0
X232.46Y-75.0
X235.54Y-78.0
X237.54Y-75.0
X250.92Y-87.5
X256.0Y-87.5
T4
X189.898Y-73.923
X190.0Y-68.5
X192.398Y-73.923
X192.5Y-68.5
X195.26Y-78.84
X195.26Y-86.46
X197.8Y-78.84
X197.8Y-86.46
X200.34Y-78.84
X200.34Y-86.46
X202.88Y-78.84
X202.88Y-86.46
X205.42Y-78.84
X205.42Y-86.46
X207.96Y-78.84
X207.96Y-86.46
X208.0Y-94.04
X208.0Y-96.54
X210.5Y-78.84
X210.5Y-86.46
X222.253Y-86.695
X222.253Y-89.195
X222.31Y-93.383
X222.31Y-95.883
X225.221Y-86.764
X227.721Y-86.764
X229.25Y-103.5
X231.75Y-103.5
X233.5Y-88.29
X233.5Y-90.79
X250.96Y-90.5
X251.5Y-78.0
X251.5Y-80.5
X253.46Y-90.5
X254.0Y-78.0
X254.0Y-80.5
T5
X239.76Y-52.76
X239.76Y-55.3
X239.76Y-57.84
X239.76Y-60.38
X239.76Y-62.92
X239.76Y-65.46
X239.76Y-68.0
X255.0Y-52.76
X255.0Y-55.3
X255.0Y-57.84
X255.0Y-60.38
X255.0Y-62.92
X255.0Y-65.46
X255.0Y-68.0
T6
X182.0Y-71.46
X182.0Y-74.0
X199.0Y-50.95
X201.5Y-50.95
X204.0Y-50.95
X216.0Y-51.0
X218.5Y-51.0
X221.0Y-51.0
X230.735Y-51.5
X233.275Y-51.5
X238.0Y-88.96
X238.0Y-91.5
X238.0Y-96.5
X238.0Y-99.04
X244.5Y-88.96
X244.5Y-91.5
X244.5Y-96.5
X244.5Y-99.04
X261.5Y-86.0
X261.5Y-88.54
X261.5Y-95.46
X261.5Y-98.0
T7
X183.5Y-50.0
X183.5Y-110.0
X261.5Y-49.5
X261.5Y-110.0
M30
