%TF.GenerationSoftware,KiCad,Pcbnew,8.0.3*%
%TF.CreationDate,2025-02-15T10:37:39+01:00*%
%TF.ProjectId,pcb_v0,7063625f-7630-42e6-9b69-6361645f7063,rev?*%
%TF.SameCoordinates,Original*%
%TF.FileFunction,Soldermask,Bot*%
%TF.FilePolarity,Negative*%
%FSLAX46Y46*%
G04 Gerber Fmt 4.6, Leading zero omitted, Abs format (unit mm)*
G04 Created by KiCad (PCBNEW 8.0.3) date 2025-02-15 10:37:39*
%MOMM*%
%LPD*%
G01*
G04 APERTURE LIST*
%ADD10C,1.600000*%
%ADD11R,1.000000X1.000000*%
%ADD12C,1.400000*%
%ADD13O,1.400000X1.400000*%
%ADD14R,1.700000X1.700000*%
%ADD15O,1.700000X1.700000*%
%ADD16C,2.600000*%
%ADD17C,4.400000*%
%ADD18C,4.000000*%
%ADD19C,1.800000*%
%ADD20O,1.600000X2.400000*%
%ADD21R,1.600000X2.400000*%
%ADD22C,1.524000*%
G04 APERTURE END LIST*
D10*
%TO.C,C10*%
X190000000Y-68500000D03*
X192500000Y-68500000D03*
%TD*%
D11*
%TO.C,TP2*%
X220000000Y-103500000D03*
%TD*%
D12*
%TO.C,R5*%
X209500000Y-74000000D03*
D13*
X204420000Y-74000000D03*
%TD*%
D11*
%TO.C,TP14*%
X210000000Y-49500000D03*
%TD*%
%TO.C,TP6*%
X210000000Y-53500000D03*
%TD*%
D10*
%TO.C,C12*%
X254000000Y-78000000D03*
X251500000Y-78000000D03*
%TD*%
D12*
%TO.C,R10*%
X212500000Y-74040000D03*
D13*
X212500000Y-68960000D03*
%TD*%
D14*
%TO.C,LS2*%
X261500000Y-95460000D03*
D15*
X261500000Y-98000000D03*
%TD*%
D11*
%TO.C,TP10*%
X192500000Y-53500000D03*
%TD*%
D12*
%TO.C,R8*%
X209540000Y-66500000D03*
D13*
X204460000Y-66500000D03*
%TD*%
D10*
%TO.C,C16*%
X222310267Y-95882914D03*
X222310267Y-93382914D03*
%TD*%
%TO.C,C19*%
X222252829Y-86695366D03*
X222252829Y-89195366D03*
%TD*%
D11*
%TO.C,TP15*%
X262000000Y-71500000D03*
%TD*%
%TO.C,TP8*%
X186000000Y-81000000D03*
%TD*%
D10*
%TO.C,C3*%
X208000000Y-94040000D03*
X208000000Y-96540000D03*
%TD*%
D14*
%TO.C,LS1*%
X261500000Y-86000000D03*
D15*
X261500000Y-88540000D03*
%TD*%
D16*
%TO.C,H2*%
X261500000Y-110000000D03*
D17*
X261500000Y-110000000D03*
%TD*%
D11*
%TO.C,TP17*%
X262000000Y-76500000D03*
%TD*%
%TO.C,TP3*%
X235000000Y-104000000D03*
%TD*%
D12*
%TO.C,R3*%
X256000000Y-87500000D03*
D13*
X250920000Y-87500000D03*
%TD*%
D10*
%TO.C,C2*%
X189898300Y-73923000D03*
X192398300Y-73923000D03*
%TD*%
D14*
%TO.C,LS3*%
X233275000Y-51500000D03*
D15*
X230735000Y-51500000D03*
%TD*%
D10*
%TO.C,C18*%
X225220504Y-86763787D03*
X227720504Y-86763787D03*
%TD*%
D14*
%TO.C,LS4*%
X182000000Y-71460000D03*
D15*
X182000000Y-74000000D03*
%TD*%
D10*
%TO.C,C15*%
X233500000Y-90790000D03*
X233500000Y-88290000D03*
%TD*%
D12*
%TO.C,R12*%
X230460000Y-78000000D03*
D13*
X235540000Y-78000000D03*
%TD*%
D11*
%TO.C,TP13*%
X192500000Y-51000000D03*
%TD*%
D12*
%TO.C,R14*%
X200000000Y-96500000D03*
D13*
X205080000Y-96500000D03*
%TD*%
D14*
%TO.C,J1*%
X244500000Y-99040000D03*
D15*
X244500000Y-96500000D03*
%TD*%
D11*
%TO.C,TP4*%
X261500000Y-104000000D03*
%TD*%
%TO.C,TP7*%
X213500000Y-91500000D03*
%TD*%
D12*
%TO.C,R4*%
X198500000Y-68920000D03*
D13*
X198500000Y-74000000D03*
%TD*%
D14*
%TO.C,J4*%
X238000000Y-88960000D03*
D15*
X238000000Y-91500000D03*
%TD*%
D10*
%TO.C,C6*%
X253460000Y-90500000D03*
X250960000Y-90500000D03*
%TD*%
D14*
%TO.C,J2*%
X244500000Y-88960000D03*
D15*
X244500000Y-91500000D03*
%TD*%
D11*
%TO.C,TP1*%
X257000000Y-104000000D03*
%TD*%
%TO.C,TP9*%
X216500000Y-78000000D03*
%TD*%
D16*
%TO.C,H3*%
X183500000Y-110000000D03*
D17*
X183500000Y-110000000D03*
%TD*%
D12*
%TO.C,R16*%
X226481625Y-103384540D03*
D13*
X226481625Y-108464540D03*
%TD*%
D16*
%TO.C,H1*%
X261500000Y-49500000D03*
D17*
X261500000Y-49500000D03*
%TD*%
D10*
%TO.C,C1*%
X229250000Y-103500000D03*
X231750000Y-103500000D03*
%TD*%
D18*
%TO.C,RV1*%
X205900000Y-57950000D03*
X197100000Y-57950000D03*
D19*
X199000000Y-50950000D03*
X201500000Y-50950000D03*
X204000000Y-50950000D03*
%TD*%
D11*
%TO.C,TP16*%
X262000000Y-74000000D03*
%TD*%
D16*
%TO.C,H4*%
X183500000Y-50000000D03*
D17*
X183500000Y-50000000D03*
%TD*%
D12*
%TO.C,R13*%
X232460000Y-75000000D03*
D13*
X237540000Y-75000000D03*
%TD*%
D10*
%TO.C,C13*%
X251500000Y-80500000D03*
X254000000Y-80500000D03*
%TD*%
D12*
%TO.C,R7*%
X210500000Y-96580000D03*
D13*
X210500000Y-91500000D03*
%TD*%
D12*
%TO.C,R6*%
X191055052Y-78237299D03*
D13*
X185975052Y-78237299D03*
%TD*%
D12*
%TO.C,R9*%
X186820346Y-64043663D03*
D13*
X186820346Y-69123663D03*
%TD*%
D20*
%TO.C,U2*%
X195260000Y-78840000D03*
X197800000Y-78840000D03*
X200340000Y-78840000D03*
X202880000Y-78840000D03*
X205420000Y-78840000D03*
X207960000Y-78840000D03*
X210500000Y-78840000D03*
X210500000Y-86460000D03*
X207960000Y-86460000D03*
X205420000Y-86460000D03*
X202880000Y-86460000D03*
X200340000Y-86460000D03*
X197800000Y-86460000D03*
D21*
X195260000Y-86460000D03*
%TD*%
D11*
%TO.C,TP5*%
X262000000Y-81500000D03*
%TD*%
D12*
%TO.C,R2*%
X201500000Y-74000000D03*
D13*
X201500000Y-68920000D03*
%TD*%
D14*
%TO.C,J3*%
X238000000Y-99040000D03*
D15*
X238000000Y-96500000D03*
%TD*%
D11*
%TO.C,TP11*%
X216500000Y-75500000D03*
%TD*%
D12*
%TO.C,R1*%
X195500000Y-68920000D03*
D13*
X195500000Y-74000000D03*
%TD*%
D18*
%TO.C,RV2*%
X222900000Y-58000000D03*
X214100000Y-58000000D03*
D19*
X216000000Y-51000000D03*
X218500000Y-51000000D03*
X221000000Y-51000000D03*
%TD*%
D22*
%TO.C,U3*%
X239760000Y-52760000D03*
X239760000Y-55300000D03*
X239760000Y-57840000D03*
X239760000Y-60380000D03*
X239760000Y-62920000D03*
X239760000Y-65460000D03*
X239760000Y-68000000D03*
X255000000Y-68000000D03*
X255000000Y-65460000D03*
X255000000Y-62920000D03*
X255000000Y-60380000D03*
X255000000Y-57840000D03*
X255000000Y-55300000D03*
X255000000Y-52760000D03*
%TD*%
M02*
